%FSLAX45Y45*%
G04 Gerber Fmt 4.5, Leading zero omitted, Abs format (unit mm)*
G04 Created by KiCad (PCBNEW (2014-12-16 BZR 5324)-product) date Tuesday, September 22, 2015 'PMt' 01:03:08 PM*
%MOMM*%
G01*
G04 APERTURE LIST*
%ADD10C,0.127000*%
%ADD11C,0.150000*%
%ADD12C,0.200000*%
%ADD13C,0.300000*%
G04 APERTURE END LIST*
D10*
D11*
X15494000Y-14351000D02*
X11938000Y-14351000D01*
X15494000Y-5969000D02*
X15494000Y-14351000D01*
X11938000Y-5969000D02*
X15494000Y-5969000D01*
X11938000Y-14351000D02*
X11938000Y-5969000D01*
D12*
X12489540Y-6375540D02*
X12738460Y-6624460D01*
X12738460Y-6375540D02*
X12489540Y-6624460D01*
X12489540Y-13695540D02*
X12738460Y-13944460D01*
X12738460Y-13695540D02*
X12489540Y-13944460D01*
X14693540Y-8407540D02*
X14942460Y-8656460D01*
X14942460Y-8407540D02*
X14693540Y-8656460D01*
X14693540Y-13695540D02*
X14942460Y-13944460D01*
X14942460Y-13695540D02*
X14693540Y-13944460D01*
D13*
X12201928Y-14824214D02*
X12201928Y-14524214D01*
X12273357Y-14524214D01*
X12316214Y-14538500D01*
X12344786Y-14567071D01*
X12359071Y-14595643D01*
X12373357Y-14652786D01*
X12373357Y-14695643D01*
X12359071Y-14752786D01*
X12344786Y-14781357D01*
X12316214Y-14809929D01*
X12273357Y-14824214D01*
X12201928Y-14824214D01*
X12501928Y-14824214D02*
X12501928Y-14624214D01*
X12501928Y-14681357D02*
X12516214Y-14652786D01*
X12530500Y-14638500D01*
X12559071Y-14624214D01*
X12587643Y-14624214D01*
X12687643Y-14824214D02*
X12687643Y-14624214D01*
X12687643Y-14524214D02*
X12673357Y-14538500D01*
X12687643Y-14552786D01*
X12701928Y-14538500D01*
X12687643Y-14524214D01*
X12687643Y-14552786D01*
X12873357Y-14824214D02*
X12844786Y-14809929D01*
X12830500Y-14781357D01*
X12830500Y-14524214D01*
X13030500Y-14824214D02*
X13001928Y-14809929D01*
X12987643Y-14781357D01*
X12987643Y-14524214D01*
X13373357Y-14824214D02*
X13373357Y-14524214D01*
X13473357Y-14738500D01*
X13573357Y-14524214D01*
X13573357Y-14824214D01*
X13844786Y-14824214D02*
X13844786Y-14667071D01*
X13830500Y-14638500D01*
X13801928Y-14624214D01*
X13744786Y-14624214D01*
X13716214Y-14638500D01*
X13844786Y-14809929D02*
X13816214Y-14824214D01*
X13744786Y-14824214D01*
X13716214Y-14809929D01*
X13701928Y-14781357D01*
X13701928Y-14752786D01*
X13716214Y-14724214D01*
X13744786Y-14709929D01*
X13816214Y-14709929D01*
X13844786Y-14695643D01*
X13987643Y-14624214D02*
X13987643Y-14924214D01*
X13987643Y-14638500D02*
X14016214Y-14624214D01*
X14073357Y-14624214D01*
X14101928Y-14638500D01*
X14116214Y-14652786D01*
X14130500Y-14681357D01*
X14130500Y-14767071D01*
X14116214Y-14795643D01*
X14101928Y-14809929D01*
X14073357Y-14824214D01*
X14016214Y-14824214D01*
X13987643Y-14809929D01*
X14259071Y-14795643D02*
X14273357Y-14809929D01*
X14259071Y-14824214D01*
X14244786Y-14809929D01*
X14259071Y-14795643D01*
X14259071Y-14824214D01*
X14259071Y-14638500D02*
X14273357Y-14652786D01*
X14259071Y-14667071D01*
X14244786Y-14652786D01*
X14259071Y-14638500D01*
X14259071Y-14667071D01*
X11681580Y-15194040D02*
X11930500Y-15442960D01*
X11930500Y-15194040D02*
X11681580Y-15442960D01*
X12187643Y-15182786D02*
X12201928Y-15168500D01*
X12230500Y-15154214D01*
X12301928Y-15154214D01*
X12330500Y-15168500D01*
X12344786Y-15182786D01*
X12359071Y-15211357D01*
X12359071Y-15239929D01*
X12344786Y-15282786D01*
X12173357Y-15454214D01*
X12359071Y-15454214D01*
X12487643Y-15425643D02*
X12501928Y-15439929D01*
X12487643Y-15454214D01*
X12473357Y-15439929D01*
X12487643Y-15425643D01*
X12487643Y-15454214D01*
X12759071Y-15254214D02*
X12759071Y-15454214D01*
X12687643Y-15139929D02*
X12616214Y-15354214D01*
X12801928Y-15354214D01*
X12930500Y-15454214D02*
X12987643Y-15454214D01*
X13016214Y-15439929D01*
X13030500Y-15425643D01*
X13059071Y-15382786D01*
X13073357Y-15325643D01*
X13073357Y-15211357D01*
X13059071Y-15182786D01*
X13044786Y-15168500D01*
X13016214Y-15154214D01*
X12959071Y-15154214D01*
X12930500Y-15168500D01*
X12916214Y-15182786D01*
X12901928Y-15211357D01*
X12901928Y-15282786D01*
X12916214Y-15311357D01*
X12930500Y-15325643D01*
X12959071Y-15339929D01*
X13016214Y-15339929D01*
X13044786Y-15325643D01*
X13059071Y-15311357D01*
X13073357Y-15282786D01*
X13201928Y-15454214D02*
X13201928Y-15254214D01*
X13201928Y-15282786D02*
X13216214Y-15268500D01*
X13244786Y-15254214D01*
X13287643Y-15254214D01*
X13316214Y-15268500D01*
X13330500Y-15297071D01*
X13330500Y-15454214D01*
X13330500Y-15297071D02*
X13344786Y-15268500D01*
X13373357Y-15254214D01*
X13416214Y-15254214D01*
X13444786Y-15268500D01*
X13459071Y-15297071D01*
X13459071Y-15454214D01*
X13601928Y-15454214D02*
X13601928Y-15254214D01*
X13601928Y-15282786D02*
X13616214Y-15268500D01*
X13644786Y-15254214D01*
X13687643Y-15254214D01*
X13716214Y-15268500D01*
X13730500Y-15297071D01*
X13730500Y-15454214D01*
X13730500Y-15297071D02*
X13744786Y-15268500D01*
X13773357Y-15254214D01*
X13816214Y-15254214D01*
X13844786Y-15268500D01*
X13859071Y-15297071D01*
X13859071Y-15454214D01*
X14444786Y-15139929D02*
X14187643Y-15525643D01*
X14830500Y-15154214D02*
X14859071Y-15154214D01*
X14887643Y-15168500D01*
X14901928Y-15182786D01*
X14916214Y-15211357D01*
X14930500Y-15268500D01*
X14930500Y-15339929D01*
X14916214Y-15397071D01*
X14901928Y-15425643D01*
X14887643Y-15439929D01*
X14859071Y-15454214D01*
X14830500Y-15454214D01*
X14801928Y-15439929D01*
X14787643Y-15425643D01*
X14773357Y-15397071D01*
X14759071Y-15339929D01*
X14759071Y-15268500D01*
X14773357Y-15211357D01*
X14787643Y-15182786D01*
X14801928Y-15168500D01*
X14830500Y-15154214D01*
X15059071Y-15425643D02*
X15073357Y-15439929D01*
X15059071Y-15454214D01*
X15044786Y-15439929D01*
X15059071Y-15425643D01*
X15059071Y-15454214D01*
X15259071Y-15154214D02*
X15287643Y-15154214D01*
X15316214Y-15168500D01*
X15330500Y-15182786D01*
X15344785Y-15211357D01*
X15359071Y-15268500D01*
X15359071Y-15339929D01*
X15344785Y-15397071D01*
X15330500Y-15425643D01*
X15316214Y-15439929D01*
X15287643Y-15454214D01*
X15259071Y-15454214D01*
X15230500Y-15439929D01*
X15216214Y-15425643D01*
X15201928Y-15397071D01*
X15187643Y-15339929D01*
X15187643Y-15268500D01*
X15201928Y-15211357D01*
X15216214Y-15182786D01*
X15230500Y-15168500D01*
X15259071Y-15154214D01*
X15501928Y-15454214D02*
X15559071Y-15454214D01*
X15587643Y-15439929D01*
X15601928Y-15425643D01*
X15630500Y-15382786D01*
X15644785Y-15325643D01*
X15644785Y-15211357D01*
X15630500Y-15182786D01*
X15616214Y-15168500D01*
X15587643Y-15154214D01*
X15530500Y-15154214D01*
X15501928Y-15168500D01*
X15487643Y-15182786D01*
X15473357Y-15211357D01*
X15473357Y-15282786D01*
X15487643Y-15311357D01*
X15501928Y-15325643D01*
X15530500Y-15339929D01*
X15587643Y-15339929D01*
X15616214Y-15325643D01*
X15630500Y-15311357D01*
X15644785Y-15282786D01*
X15816214Y-15282786D02*
X15787643Y-15268500D01*
X15773357Y-15254214D01*
X15759071Y-15225643D01*
X15759071Y-15211357D01*
X15773357Y-15182786D01*
X15787643Y-15168500D01*
X15816214Y-15154214D01*
X15873357Y-15154214D01*
X15901928Y-15168500D01*
X15916214Y-15182786D01*
X15930500Y-15211357D01*
X15930500Y-15225643D01*
X15916214Y-15254214D01*
X15901928Y-15268500D01*
X15873357Y-15282786D01*
X15816214Y-15282786D01*
X15787643Y-15297071D01*
X15773357Y-15311357D01*
X15759071Y-15339929D01*
X15759071Y-15397071D01*
X15773357Y-15425643D01*
X15787643Y-15439929D01*
X15816214Y-15454214D01*
X15873357Y-15454214D01*
X15901928Y-15439929D01*
X15916214Y-15425643D01*
X15930500Y-15397071D01*
X15930500Y-15339929D01*
X15916214Y-15311357D01*
X15901928Y-15297071D01*
X15873357Y-15282786D01*
X16044786Y-15154214D02*
X16044786Y-15211357D01*
X16159071Y-15154214D02*
X16159071Y-15211357D01*
X16601928Y-15568500D02*
X16587643Y-15554214D01*
X16559071Y-15511357D01*
X16544785Y-15482786D01*
X16530500Y-15439929D01*
X16516214Y-15368500D01*
X16516214Y-15311357D01*
X16530500Y-15239929D01*
X16544785Y-15197071D01*
X16559071Y-15168500D01*
X16587643Y-15125643D01*
X16601928Y-15111357D01*
X16844786Y-15254214D02*
X16844786Y-15454214D01*
X16773357Y-15139929D02*
X16701928Y-15354214D01*
X16887643Y-15354214D01*
X17230500Y-15454214D02*
X17230500Y-15154214D01*
X17359071Y-15454214D02*
X17359071Y-15297071D01*
X17344786Y-15268500D01*
X17316214Y-15254214D01*
X17273357Y-15254214D01*
X17244786Y-15268500D01*
X17230500Y-15282786D01*
X17544786Y-15454214D02*
X17516214Y-15439929D01*
X17501928Y-15425643D01*
X17487643Y-15397071D01*
X17487643Y-15311357D01*
X17501928Y-15282786D01*
X17516214Y-15268500D01*
X17544786Y-15254214D01*
X17587643Y-15254214D01*
X17616214Y-15268500D01*
X17630500Y-15282786D01*
X17644786Y-15311357D01*
X17644786Y-15397071D01*
X17630500Y-15425643D01*
X17616214Y-15439929D01*
X17587643Y-15454214D01*
X17544786Y-15454214D01*
X17816214Y-15454214D02*
X17787643Y-15439929D01*
X17773357Y-15411357D01*
X17773357Y-15154214D01*
X18044786Y-15439929D02*
X18016214Y-15454214D01*
X17959071Y-15454214D01*
X17930500Y-15439929D01*
X17916214Y-15411357D01*
X17916214Y-15297071D01*
X17930500Y-15268500D01*
X17959071Y-15254214D01*
X18016214Y-15254214D01*
X18044786Y-15268500D01*
X18059071Y-15297071D01*
X18059071Y-15325643D01*
X17916214Y-15354214D01*
X18173357Y-15439929D02*
X18201929Y-15454214D01*
X18259071Y-15454214D01*
X18287643Y-15439929D01*
X18301929Y-15411357D01*
X18301929Y-15397071D01*
X18287643Y-15368500D01*
X18259071Y-15354214D01*
X18216214Y-15354214D01*
X18187643Y-15339929D01*
X18173357Y-15311357D01*
X18173357Y-15297071D01*
X18187643Y-15268500D01*
X18216214Y-15254214D01*
X18259071Y-15254214D01*
X18287643Y-15268500D01*
X18401928Y-15568500D02*
X18416214Y-15554214D01*
X18444786Y-15511357D01*
X18459071Y-15482786D01*
X18473357Y-15439929D01*
X18487643Y-15368500D01*
X18487643Y-15311357D01*
X18473357Y-15239929D01*
X18459071Y-15197071D01*
X18444786Y-15168500D01*
X18416214Y-15125643D01*
X18401928Y-15111357D01*
M02*
