%FSLAX45Y45*%
G04 Gerber Fmt 4.5, Leading zero omitted, Abs format (unit mm)*
G04 Created by KiCad (PCBNEW (2014-12-16 BZR 5324)-product) date Tuesday, September 22, 2015 'PMt' 01:03:08 PM*
%MOMM*%
G01*
G04 APERTURE LIST*
%ADD10C,0.127000*%
%ADD11C,0.150000*%
%ADD12C,0.200000*%
%ADD13C,0.300000*%
G04 APERTURE END LIST*
D10*
D11*
X15494000Y-14351000D02*
X11938000Y-14351000D01*
X15494000Y-5969000D02*
X15494000Y-14351000D01*
X11938000Y-5969000D02*
X15494000Y-5969000D01*
X11938000Y-14351000D02*
X11938000Y-5969000D01*
D12*
X13254990Y-9381490D02*
X13288010Y-9414510D01*
X13288010Y-9381490D02*
X13254990Y-9414510D01*
X13254990Y-9889490D02*
X13288010Y-9922510D01*
X13288010Y-9889490D02*
X13254990Y-9922510D01*
X13254990Y-10397490D02*
X13288010Y-10430510D01*
X13288010Y-10397490D02*
X13254990Y-10430510D01*
X13318490Y-10841990D02*
X13351510Y-10875010D01*
X13351510Y-10841990D02*
X13318490Y-10875010D01*
X13318490Y-12302490D02*
X13351510Y-12335510D01*
X13351510Y-12302490D02*
X13318490Y-12335510D01*
X13381990Y-8936990D02*
X13415010Y-8970010D01*
X13415010Y-8936990D02*
X13381990Y-8970010D01*
X13381990Y-11032490D02*
X13415010Y-11065510D01*
X13415010Y-11032490D02*
X13381990Y-11065510D01*
X13381990Y-11540490D02*
X13415010Y-11573510D01*
X13415010Y-11540490D02*
X13381990Y-11573510D01*
X13381990Y-12429490D02*
X13415010Y-12462510D01*
X13415010Y-12429490D02*
X13381990Y-12462510D01*
X13445490Y-8746490D02*
X13478510Y-8779510D01*
X13478510Y-8746490D02*
X13445490Y-8779510D01*
X13445490Y-11286490D02*
X13478510Y-11319510D01*
X13478510Y-11286490D02*
X13445490Y-11319510D01*
X13508990Y-8492490D02*
X13542010Y-8525510D01*
X13542010Y-8492490D02*
X13508990Y-8525510D01*
X13508990Y-11540490D02*
X13542010Y-11573510D01*
X13542010Y-11540490D02*
X13508990Y-11573510D01*
X13572490Y-8238490D02*
X13605510Y-8271510D01*
X13605510Y-8238490D02*
X13572490Y-8271510D01*
X13572490Y-11794490D02*
X13605510Y-11827510D01*
X13605510Y-11794490D02*
X13572490Y-11827510D01*
X13635990Y-7984490D02*
X13669010Y-8017510D01*
X13669010Y-7984490D02*
X13635990Y-8017510D01*
X13635990Y-12048490D02*
X13669010Y-12081510D01*
X13669010Y-12048490D02*
X13635990Y-12081510D01*
X13699490Y-7730490D02*
X13732510Y-7763510D01*
X13732510Y-7730490D02*
X13699490Y-7763510D01*
X13699490Y-12302490D02*
X13732510Y-12335510D01*
X13732510Y-12302490D02*
X13699490Y-12335510D01*
X13762990Y-7476490D02*
X13796010Y-7509510D01*
X13796010Y-7476490D02*
X13762990Y-7509510D01*
X13762990Y-12556490D02*
X13796010Y-12589510D01*
X13796010Y-12556490D02*
X13762990Y-12589510D01*
X13889990Y-11159490D02*
X13923010Y-11192510D01*
X13923010Y-11159490D02*
X13889990Y-11192510D01*
X13953490Y-8936990D02*
X13986510Y-8970010D01*
X13986510Y-8936990D02*
X13953490Y-8970010D01*
X13953490Y-10905490D02*
X13986510Y-10938510D01*
X13986510Y-10905490D02*
X13953490Y-10938510D01*
X13953490Y-11413490D02*
X13986510Y-11446510D01*
X13986510Y-11413490D02*
X13953490Y-11446510D01*
X14080490Y-9381490D02*
X14113510Y-9414510D01*
X14113510Y-9381490D02*
X14080490Y-9414510D01*
X14080490Y-9889490D02*
X14113510Y-9922510D01*
X14113510Y-9889490D02*
X14080490Y-9922510D01*
X14080490Y-10397490D02*
X14113510Y-10430510D01*
X14113510Y-10397490D02*
X14080490Y-10430510D01*
X13258038Y-9144000D02*
G75*
G03X13258038Y-9144000I-50038J0D01*
G01*
X13258038Y-9652000D02*
G75*
G03X13258038Y-9652000I-50038J0D01*
G01*
X13258038Y-10160000D02*
G75*
G03X13258038Y-10160000I-50038J0D01*
G01*
X13258038Y-10668000D02*
G75*
G03X13258038Y-10668000I-50038J0D01*
G01*
X14274038Y-9144000D02*
G75*
G03X14274038Y-9144000I-50038J0D01*
G01*
X14274038Y-9652000D02*
G75*
G03X14274038Y-9652000I-50038J0D01*
G01*
X14274038Y-10160000D02*
G75*
G03X14274038Y-10160000I-50038J0D01*
G01*
X14274038Y-10668000D02*
G75*
G03X14274038Y-10668000I-50038J0D01*
G01*
X13144500Y-13157200D02*
X13144500Y-13258800D01*
X13093700Y-13208000D02*
X13195300Y-13208000D01*
X13335000Y-7061200D02*
X13335000Y-7162800D01*
X13284200Y-7112000D02*
X13385800Y-7112000D01*
X13398500Y-13157200D02*
X13398500Y-13258800D01*
X13347700Y-13208000D02*
X13449300Y-13208000D01*
X13589000Y-7061200D02*
X13589000Y-7162800D01*
X13538200Y-7112000D02*
X13639800Y-7112000D01*
X13779500Y-13157200D02*
X13779500Y-13258800D01*
X13728700Y-13208000D02*
X13830300Y-13208000D01*
X13843000Y-7061200D02*
X13843000Y-7162800D01*
X13792200Y-7112000D02*
X13893800Y-7112000D01*
X14033500Y-13157200D02*
X14033500Y-13258800D01*
X13982700Y-13208000D02*
X14084300Y-13208000D01*
X14287500Y-13157200D02*
X14287500Y-13258800D01*
X14236700Y-13208000D02*
X14338300Y-13208000D01*
X14605000Y-7061200D02*
X14605000Y-7162800D01*
X14554200Y-7112000D02*
X14655800Y-7112000D01*
X14859000Y-7061200D02*
X14859000Y-7162800D01*
X14808200Y-7112000D02*
X14909800Y-7112000D01*
X15113000Y-7061200D02*
X15113000Y-7162800D01*
X15062200Y-7112000D02*
X15163800Y-7112000D01*
X12610717Y-7149717D02*
X12610717Y-7074283D01*
X12535283Y-7074283D01*
X12535283Y-7149717D01*
X12610717Y-7149717D01*
X12610717Y-7403717D02*
X12610717Y-7328283D01*
X12535283Y-7328283D01*
X12535283Y-7403717D01*
X12610717Y-7403717D01*
X12610717Y-7657717D02*
X12610717Y-7582283D01*
X12535283Y-7582283D01*
X12535283Y-7657717D01*
X12610717Y-7657717D01*
X12610717Y-7911717D02*
X12610717Y-7836283D01*
X12535283Y-7836283D01*
X12535283Y-7911717D01*
X12610717Y-7911717D01*
X12610717Y-8165717D02*
X12610717Y-8090283D01*
X12535283Y-8090283D01*
X12535283Y-8165717D01*
X12610717Y-8165717D01*
X12610717Y-8419717D02*
X12610717Y-8344283D01*
X12535283Y-8344283D01*
X12535283Y-8419717D01*
X12610717Y-8419717D01*
X12610717Y-8673717D02*
X12610717Y-8598283D01*
X12535283Y-8598283D01*
X12535283Y-8673717D01*
X12610717Y-8673717D01*
X12610717Y-8927717D02*
X12610717Y-8852283D01*
X12535283Y-8852283D01*
X12535283Y-8927717D01*
X12610717Y-8927717D01*
X12610717Y-9181717D02*
X12610717Y-9106283D01*
X12535283Y-9106283D01*
X12535283Y-9181717D01*
X12610717Y-9181717D01*
X12610717Y-9435717D02*
X12610717Y-9360283D01*
X12535283Y-9360283D01*
X12535283Y-9435717D01*
X12610717Y-9435717D01*
X12610717Y-9689717D02*
X12610717Y-9614283D01*
X12535283Y-9614283D01*
X12535283Y-9689717D01*
X12610717Y-9689717D01*
X12610717Y-9943717D02*
X12610717Y-9868283D01*
X12535283Y-9868283D01*
X12535283Y-9943717D01*
X12610717Y-9943717D01*
X12610717Y-10197717D02*
X12610717Y-10122283D01*
X12535283Y-10122283D01*
X12535283Y-10197717D01*
X12610717Y-10197717D01*
X12610717Y-10451717D02*
X12610717Y-10376283D01*
X12535283Y-10376283D01*
X12535283Y-10451717D01*
X12610717Y-10451717D01*
X12610717Y-10705717D02*
X12610717Y-10630283D01*
X12535283Y-10630283D01*
X12535283Y-10705717D01*
X12610717Y-10705717D01*
X12610717Y-10959717D02*
X12610717Y-10884283D01*
X12535283Y-10884283D01*
X12535283Y-10959717D01*
X12610717Y-10959717D01*
X12610717Y-11213717D02*
X12610717Y-11138283D01*
X12535283Y-11138283D01*
X12535283Y-11213717D01*
X12610717Y-11213717D01*
X12610717Y-11467717D02*
X12610717Y-11392283D01*
X12535283Y-11392283D01*
X12535283Y-11467717D01*
X12610717Y-11467717D01*
X12610717Y-11721717D02*
X12610717Y-11646283D01*
X12535283Y-11646283D01*
X12535283Y-11721717D01*
X12610717Y-11721717D01*
X12610717Y-11975717D02*
X12610717Y-11900283D01*
X12535283Y-11900283D01*
X12535283Y-11975717D01*
X12610717Y-11975717D01*
X12610717Y-12229717D02*
X12610717Y-12154283D01*
X12535283Y-12154283D01*
X12535283Y-12229717D01*
X12610717Y-12229717D01*
X12610717Y-12483717D02*
X12610717Y-12408283D01*
X12535283Y-12408283D01*
X12535283Y-12483717D01*
X12610717Y-12483717D01*
X12610717Y-12737717D02*
X12610717Y-12662283D01*
X12535283Y-12662283D01*
X12535283Y-12737717D01*
X12610717Y-12737717D01*
X12610717Y-12991717D02*
X12610717Y-12916283D01*
X12535283Y-12916283D01*
X12535283Y-12991717D01*
X12610717Y-12991717D01*
X12610717Y-13245717D02*
X12610717Y-13170283D01*
X12535283Y-13170283D01*
X12535283Y-13245717D01*
X12610717Y-13245717D01*
X12864717Y-7149717D02*
X12864717Y-7074283D01*
X12789283Y-7074283D01*
X12789283Y-7149717D01*
X12864717Y-7149717D01*
X12864717Y-7403717D02*
X12864717Y-7328283D01*
X12789283Y-7328283D01*
X12789283Y-7403717D01*
X12864717Y-7403717D01*
X12864717Y-7657717D02*
X12864717Y-7582283D01*
X12789283Y-7582283D01*
X12789283Y-7657717D01*
X12864717Y-7657717D01*
X12864717Y-7911717D02*
X12864717Y-7836283D01*
X12789283Y-7836283D01*
X12789283Y-7911717D01*
X12864717Y-7911717D01*
X12864717Y-8165717D02*
X12864717Y-8090283D01*
X12789283Y-8090283D01*
X12789283Y-8165717D01*
X12864717Y-8165717D01*
X12864717Y-8419717D02*
X12864717Y-8344283D01*
X12789283Y-8344283D01*
X12789283Y-8419717D01*
X12864717Y-8419717D01*
X12864717Y-8673717D02*
X12864717Y-8598283D01*
X12789283Y-8598283D01*
X12789283Y-8673717D01*
X12864717Y-8673717D01*
X12864717Y-8927717D02*
X12864717Y-8852283D01*
X12789283Y-8852283D01*
X12789283Y-8927717D01*
X12864717Y-8927717D01*
X12864717Y-9181717D02*
X12864717Y-9106283D01*
X12789283Y-9106283D01*
X12789283Y-9181717D01*
X12864717Y-9181717D01*
X12864717Y-9435717D02*
X12864717Y-9360283D01*
X12789283Y-9360283D01*
X12789283Y-9435717D01*
X12864717Y-9435717D01*
X12864717Y-9689717D02*
X12864717Y-9614283D01*
X12789283Y-9614283D01*
X12789283Y-9689717D01*
X12864717Y-9689717D01*
X12864717Y-9943717D02*
X12864717Y-9868283D01*
X12789283Y-9868283D01*
X12789283Y-9943717D01*
X12864717Y-9943717D01*
X12864717Y-10197717D02*
X12864717Y-10122283D01*
X12789283Y-10122283D01*
X12789283Y-10197717D01*
X12864717Y-10197717D01*
X12864717Y-10451717D02*
X12864717Y-10376283D01*
X12789283Y-10376283D01*
X12789283Y-10451717D01*
X12864717Y-10451717D01*
X12864717Y-10705717D02*
X12864717Y-10630283D01*
X12789283Y-10630283D01*
X12789283Y-10705717D01*
X12864717Y-10705717D01*
X12864717Y-10959717D02*
X12864717Y-10884283D01*
X12789283Y-10884283D01*
X12789283Y-10959717D01*
X12864717Y-10959717D01*
X12864717Y-11213717D02*
X12864717Y-11138283D01*
X12789283Y-11138283D01*
X12789283Y-11213717D01*
X12864717Y-11213717D01*
X12864717Y-11467717D02*
X12864717Y-11392283D01*
X12789283Y-11392283D01*
X12789283Y-11467717D01*
X12864717Y-11467717D01*
X12864717Y-11721717D02*
X12864717Y-11646283D01*
X12789283Y-11646283D01*
X12789283Y-11721717D01*
X12864717Y-11721717D01*
X12864717Y-11975717D02*
X12864717Y-11900283D01*
X12789283Y-11900283D01*
X12789283Y-11975717D01*
X12864717Y-11975717D01*
X12864717Y-12229717D02*
X12864717Y-12154283D01*
X12789283Y-12154283D01*
X12789283Y-12229717D01*
X12864717Y-12229717D01*
X12864717Y-12483717D02*
X12864717Y-12408283D01*
X12789283Y-12408283D01*
X12789283Y-12483717D01*
X12864717Y-12483717D01*
X12864717Y-12737717D02*
X12864717Y-12662283D01*
X12789283Y-12662283D01*
X12789283Y-12737717D01*
X12864717Y-12737717D01*
X12864717Y-12991717D02*
X12864717Y-12916283D01*
X12789283Y-12916283D01*
X12789283Y-12991717D01*
X12864717Y-12991717D01*
X12864717Y-13245717D02*
X12864717Y-13170283D01*
X12789283Y-13170283D01*
X12789283Y-13245717D01*
X12864717Y-13245717D01*
X14642717Y-9181717D02*
X14642717Y-9106283D01*
X14567283Y-9106283D01*
X14567283Y-9181717D01*
X14642717Y-9181717D01*
X14642717Y-9435717D02*
X14642717Y-9360283D01*
X14567283Y-9360283D01*
X14567283Y-9435717D01*
X14642717Y-9435717D01*
X14642717Y-9689717D02*
X14642717Y-9614283D01*
X14567283Y-9614283D01*
X14567283Y-9689717D01*
X14642717Y-9689717D01*
X14642717Y-9943717D02*
X14642717Y-9868283D01*
X14567283Y-9868283D01*
X14567283Y-9943717D01*
X14642717Y-9943717D01*
X14642717Y-10197717D02*
X14642717Y-10122283D01*
X14567283Y-10122283D01*
X14567283Y-10197717D01*
X14642717Y-10197717D01*
X14642717Y-10451717D02*
X14642717Y-10376283D01*
X14567283Y-10376283D01*
X14567283Y-10451717D01*
X14642717Y-10451717D01*
X14642717Y-10705717D02*
X14642717Y-10630283D01*
X14567283Y-10630283D01*
X14567283Y-10705717D01*
X14642717Y-10705717D01*
X14642717Y-10959717D02*
X14642717Y-10884283D01*
X14567283Y-10884283D01*
X14567283Y-10959717D01*
X14642717Y-10959717D01*
X14642717Y-11213717D02*
X14642717Y-11138283D01*
X14567283Y-11138283D01*
X14567283Y-11213717D01*
X14642717Y-11213717D01*
X14642717Y-11467717D02*
X14642717Y-11392283D01*
X14567283Y-11392283D01*
X14567283Y-11467717D01*
X14642717Y-11467717D01*
X14642717Y-11721717D02*
X14642717Y-11646283D01*
X14567283Y-11646283D01*
X14567283Y-11721717D01*
X14642717Y-11721717D01*
X14642717Y-11975717D02*
X14642717Y-11900283D01*
X14567283Y-11900283D01*
X14567283Y-11975717D01*
X14642717Y-11975717D01*
X14642717Y-12229717D02*
X14642717Y-12154283D01*
X14567283Y-12154283D01*
X14567283Y-12229717D01*
X14642717Y-12229717D01*
X14642717Y-12483717D02*
X14642717Y-12408283D01*
X14567283Y-12408283D01*
X14567283Y-12483717D01*
X14642717Y-12483717D01*
X14642717Y-12737717D02*
X14642717Y-12662283D01*
X14567283Y-12662283D01*
X14567283Y-12737717D01*
X14642717Y-12737717D01*
X14642717Y-12991717D02*
X14642717Y-12916283D01*
X14567283Y-12916283D01*
X14567283Y-12991717D01*
X14642717Y-12991717D01*
X14642717Y-13245717D02*
X14642717Y-13170283D01*
X14567283Y-13170283D01*
X14567283Y-13245717D01*
X14642717Y-13245717D01*
X14896717Y-9181717D02*
X14896717Y-9106283D01*
X14821283Y-9106283D01*
X14821283Y-9181717D01*
X14896717Y-9181717D01*
X14896717Y-9435717D02*
X14896717Y-9360283D01*
X14821283Y-9360283D01*
X14821283Y-9435717D01*
X14896717Y-9435717D01*
X14896717Y-9689717D02*
X14896717Y-9614283D01*
X14821283Y-9614283D01*
X14821283Y-9689717D01*
X14896717Y-9689717D01*
X14896717Y-9943717D02*
X14896717Y-9868283D01*
X14821283Y-9868283D01*
X14821283Y-9943717D01*
X14896717Y-9943717D01*
X14896717Y-10197717D02*
X14896717Y-10122283D01*
X14821283Y-10122283D01*
X14821283Y-10197717D01*
X14896717Y-10197717D01*
X14896717Y-10451717D02*
X14896717Y-10376283D01*
X14821283Y-10376283D01*
X14821283Y-10451717D01*
X14896717Y-10451717D01*
X14896717Y-10705717D02*
X14896717Y-10630283D01*
X14821283Y-10630283D01*
X14821283Y-10705717D01*
X14896717Y-10705717D01*
X14896717Y-10959717D02*
X14896717Y-10884283D01*
X14821283Y-10884283D01*
X14821283Y-10959717D01*
X14896717Y-10959717D01*
X14896717Y-11213717D02*
X14896717Y-11138283D01*
X14821283Y-11138283D01*
X14821283Y-11213717D01*
X14896717Y-11213717D01*
X14896717Y-11467717D02*
X14896717Y-11392283D01*
X14821283Y-11392283D01*
X14821283Y-11467717D01*
X14896717Y-11467717D01*
X14896717Y-11721717D02*
X14896717Y-11646283D01*
X14821283Y-11646283D01*
X14821283Y-11721717D01*
X14896717Y-11721717D01*
X14896717Y-11975717D02*
X14896717Y-11900283D01*
X14821283Y-11900283D01*
X14821283Y-11975717D01*
X14896717Y-11975717D01*
X14896717Y-12229717D02*
X14896717Y-12154283D01*
X14821283Y-12154283D01*
X14821283Y-12229717D01*
X14896717Y-12229717D01*
X14896717Y-12483717D02*
X14896717Y-12408283D01*
X14821283Y-12408283D01*
X14821283Y-12483717D01*
X14896717Y-12483717D01*
X14896717Y-12737717D02*
X14896717Y-12662283D01*
X14821283Y-12662283D01*
X14821283Y-12737717D01*
X14896717Y-12737717D01*
X14896717Y-12991717D02*
X14896717Y-12916283D01*
X14821283Y-12916283D01*
X14821283Y-12991717D01*
X14896717Y-12991717D01*
X14896717Y-13245717D02*
X14896717Y-13170283D01*
X14821283Y-13170283D01*
X14821283Y-13245717D01*
X14896717Y-13245717D01*
D13*
X12201928Y-14824214D02*
X12201928Y-14524214D01*
X12273357Y-14524214D01*
X12316214Y-14538500D01*
X12344786Y-14567071D01*
X12359071Y-14595643D01*
X12373357Y-14652786D01*
X12373357Y-14695643D01*
X12359071Y-14752786D01*
X12344786Y-14781357D01*
X12316214Y-14809929D01*
X12273357Y-14824214D01*
X12201928Y-14824214D01*
X12501928Y-14824214D02*
X12501928Y-14624214D01*
X12501928Y-14681357D02*
X12516214Y-14652786D01*
X12530500Y-14638500D01*
X12559071Y-14624214D01*
X12587643Y-14624214D01*
X12687643Y-14824214D02*
X12687643Y-14624214D01*
X12687643Y-14524214D02*
X12673357Y-14538500D01*
X12687643Y-14552786D01*
X12701928Y-14538500D01*
X12687643Y-14524214D01*
X12687643Y-14552786D01*
X12873357Y-14824214D02*
X12844786Y-14809929D01*
X12830500Y-14781357D01*
X12830500Y-14524214D01*
X13030500Y-14824214D02*
X13001928Y-14809929D01*
X12987643Y-14781357D01*
X12987643Y-14524214D01*
X13373357Y-14824214D02*
X13373357Y-14524214D01*
X13473357Y-14738500D01*
X13573357Y-14524214D01*
X13573357Y-14824214D01*
X13844786Y-14824214D02*
X13844786Y-14667071D01*
X13830500Y-14638500D01*
X13801928Y-14624214D01*
X13744786Y-14624214D01*
X13716214Y-14638500D01*
X13844786Y-14809929D02*
X13816214Y-14824214D01*
X13744786Y-14824214D01*
X13716214Y-14809929D01*
X13701928Y-14781357D01*
X13701928Y-14752786D01*
X13716214Y-14724214D01*
X13744786Y-14709929D01*
X13816214Y-14709929D01*
X13844786Y-14695643D01*
X13987643Y-14624214D02*
X13987643Y-14924214D01*
X13987643Y-14638500D02*
X14016214Y-14624214D01*
X14073357Y-14624214D01*
X14101928Y-14638500D01*
X14116214Y-14652786D01*
X14130500Y-14681357D01*
X14130500Y-14767071D01*
X14116214Y-14795643D01*
X14101928Y-14809929D01*
X14073357Y-14824214D01*
X14016214Y-14824214D01*
X13987643Y-14809929D01*
X14259071Y-14795643D02*
X14273357Y-14809929D01*
X14259071Y-14824214D01*
X14244786Y-14809929D01*
X14259071Y-14795643D01*
X14259071Y-14824214D01*
X14259071Y-14638500D02*
X14273357Y-14652786D01*
X14259071Y-14667071D01*
X14244786Y-14652786D01*
X14259071Y-14638500D01*
X14259071Y-14667071D01*
X11897480Y-15301990D02*
X11930500Y-15335010D01*
X11930500Y-15301990D02*
X11897480Y-15335010D01*
X12259071Y-15154214D02*
X12287643Y-15154214D01*
X12316214Y-15168500D01*
X12330500Y-15182786D01*
X12344786Y-15211357D01*
X12359071Y-15268500D01*
X12359071Y-15339929D01*
X12344786Y-15397071D01*
X12330500Y-15425643D01*
X12316214Y-15439929D01*
X12287643Y-15454214D01*
X12259071Y-15454214D01*
X12230500Y-15439929D01*
X12216214Y-15425643D01*
X12201928Y-15397071D01*
X12187643Y-15339929D01*
X12187643Y-15268500D01*
X12201928Y-15211357D01*
X12216214Y-15182786D01*
X12230500Y-15168500D01*
X12259071Y-15154214D01*
X12487643Y-15425643D02*
X12501928Y-15439929D01*
X12487643Y-15454214D01*
X12473357Y-15439929D01*
X12487643Y-15425643D01*
X12487643Y-15454214D01*
X12601928Y-15154214D02*
X12787643Y-15154214D01*
X12687643Y-15268500D01*
X12730500Y-15268500D01*
X12759071Y-15282786D01*
X12773357Y-15297071D01*
X12787643Y-15325643D01*
X12787643Y-15397071D01*
X12773357Y-15425643D01*
X12759071Y-15439929D01*
X12730500Y-15454214D01*
X12644786Y-15454214D01*
X12616214Y-15439929D01*
X12601928Y-15425643D01*
X12887643Y-15154214D02*
X13073357Y-15154214D01*
X12973357Y-15268500D01*
X13016214Y-15268500D01*
X13044786Y-15282786D01*
X13059071Y-15297071D01*
X13073357Y-15325643D01*
X13073357Y-15397071D01*
X13059071Y-15425643D01*
X13044786Y-15439929D01*
X13016214Y-15454214D01*
X12930500Y-15454214D01*
X12901928Y-15439929D01*
X12887643Y-15425643D01*
X13201928Y-15454214D02*
X13201928Y-15254214D01*
X13201928Y-15282786D02*
X13216214Y-15268500D01*
X13244786Y-15254214D01*
X13287643Y-15254214D01*
X13316214Y-15268500D01*
X13330500Y-15297071D01*
X13330500Y-15454214D01*
X13330500Y-15297071D02*
X13344786Y-15268500D01*
X13373357Y-15254214D01*
X13416214Y-15254214D01*
X13444786Y-15268500D01*
X13459071Y-15297071D01*
X13459071Y-15454214D01*
X13601928Y-15454214D02*
X13601928Y-15254214D01*
X13601928Y-15282786D02*
X13616214Y-15268500D01*
X13644786Y-15254214D01*
X13687643Y-15254214D01*
X13716214Y-15268500D01*
X13730500Y-15297071D01*
X13730500Y-15454214D01*
X13730500Y-15297071D02*
X13744786Y-15268500D01*
X13773357Y-15254214D01*
X13816214Y-15254214D01*
X13844786Y-15268500D01*
X13859071Y-15297071D01*
X13859071Y-15454214D01*
X14444786Y-15139929D02*
X14187643Y-15525643D01*
X14830500Y-15154214D02*
X14859071Y-15154214D01*
X14887643Y-15168500D01*
X14901928Y-15182786D01*
X14916214Y-15211357D01*
X14930500Y-15268500D01*
X14930500Y-15339929D01*
X14916214Y-15397071D01*
X14901928Y-15425643D01*
X14887643Y-15439929D01*
X14859071Y-15454214D01*
X14830500Y-15454214D01*
X14801928Y-15439929D01*
X14787643Y-15425643D01*
X14773357Y-15397071D01*
X14759071Y-15339929D01*
X14759071Y-15268500D01*
X14773357Y-15211357D01*
X14787643Y-15182786D01*
X14801928Y-15168500D01*
X14830500Y-15154214D01*
X15059071Y-15425643D02*
X15073357Y-15439929D01*
X15059071Y-15454214D01*
X15044786Y-15439929D01*
X15059071Y-15425643D01*
X15059071Y-15454214D01*
X15259071Y-15154214D02*
X15287643Y-15154214D01*
X15316214Y-15168500D01*
X15330500Y-15182786D01*
X15344785Y-15211357D01*
X15359071Y-15268500D01*
X15359071Y-15339929D01*
X15344785Y-15397071D01*
X15330500Y-15425643D01*
X15316214Y-15439929D01*
X15287643Y-15454214D01*
X15259071Y-15454214D01*
X15230500Y-15439929D01*
X15216214Y-15425643D01*
X15201928Y-15397071D01*
X15187643Y-15339929D01*
X15187643Y-15268500D01*
X15201928Y-15211357D01*
X15216214Y-15182786D01*
X15230500Y-15168500D01*
X15259071Y-15154214D01*
X15644785Y-15454214D02*
X15473357Y-15454214D01*
X15559071Y-15454214D02*
X15559071Y-15154214D01*
X15530500Y-15197071D01*
X15501928Y-15225643D01*
X15473357Y-15239929D01*
X15744785Y-15154214D02*
X15930500Y-15154214D01*
X15830500Y-15268500D01*
X15873357Y-15268500D01*
X15901928Y-15282786D01*
X15916214Y-15297071D01*
X15930500Y-15325643D01*
X15930500Y-15397071D01*
X15916214Y-15425643D01*
X15901928Y-15439929D01*
X15873357Y-15454214D01*
X15787643Y-15454214D01*
X15759071Y-15439929D01*
X15744785Y-15425643D01*
X16044786Y-15154214D02*
X16044786Y-15211357D01*
X16159071Y-15154214D02*
X16159071Y-15211357D01*
X16601928Y-15568500D02*
X16587643Y-15554214D01*
X16559071Y-15511357D01*
X16544785Y-15482786D01*
X16530500Y-15439929D01*
X16516214Y-15368500D01*
X16516214Y-15311357D01*
X16530500Y-15239929D01*
X16544785Y-15197071D01*
X16559071Y-15168500D01*
X16587643Y-15125643D01*
X16601928Y-15111357D01*
X16701928Y-15182786D02*
X16716214Y-15168500D01*
X16744785Y-15154214D01*
X16816214Y-15154214D01*
X16844786Y-15168500D01*
X16859071Y-15182786D01*
X16873357Y-15211357D01*
X16873357Y-15239929D01*
X16859071Y-15282786D01*
X16687643Y-15454214D01*
X16873357Y-15454214D01*
X17044786Y-15282786D02*
X17016214Y-15268500D01*
X17001928Y-15254214D01*
X16987643Y-15225643D01*
X16987643Y-15211357D01*
X17001928Y-15182786D01*
X17016214Y-15168500D01*
X17044786Y-15154214D01*
X17101928Y-15154214D01*
X17130500Y-15168500D01*
X17144786Y-15182786D01*
X17159071Y-15211357D01*
X17159071Y-15225643D01*
X17144786Y-15254214D01*
X17130500Y-15268500D01*
X17101928Y-15282786D01*
X17044786Y-15282786D01*
X17016214Y-15297071D01*
X17001928Y-15311357D01*
X16987643Y-15339929D01*
X16987643Y-15397071D01*
X17001928Y-15425643D01*
X17016214Y-15439929D01*
X17044786Y-15454214D01*
X17101928Y-15454214D01*
X17130500Y-15439929D01*
X17144786Y-15425643D01*
X17159071Y-15397071D01*
X17159071Y-15339929D01*
X17144786Y-15311357D01*
X17130500Y-15297071D01*
X17101928Y-15282786D01*
X17516214Y-15454214D02*
X17516214Y-15154214D01*
X17644786Y-15454214D02*
X17644786Y-15297071D01*
X17630500Y-15268500D01*
X17601928Y-15254214D01*
X17559071Y-15254214D01*
X17530500Y-15268500D01*
X17516214Y-15282786D01*
X17830500Y-15454214D02*
X17801928Y-15439929D01*
X17787643Y-15425643D01*
X17773357Y-15397071D01*
X17773357Y-15311357D01*
X17787643Y-15282786D01*
X17801928Y-15268500D01*
X17830500Y-15254214D01*
X17873357Y-15254214D01*
X17901928Y-15268500D01*
X17916214Y-15282786D01*
X17930500Y-15311357D01*
X17930500Y-15397071D01*
X17916214Y-15425643D01*
X17901928Y-15439929D01*
X17873357Y-15454214D01*
X17830500Y-15454214D01*
X18101928Y-15454214D02*
X18073357Y-15439929D01*
X18059071Y-15411357D01*
X18059071Y-15154214D01*
X18330500Y-15439929D02*
X18301929Y-15454214D01*
X18244786Y-15454214D01*
X18216214Y-15439929D01*
X18201929Y-15411357D01*
X18201929Y-15297071D01*
X18216214Y-15268500D01*
X18244786Y-15254214D01*
X18301929Y-15254214D01*
X18330500Y-15268500D01*
X18344786Y-15297071D01*
X18344786Y-15325643D01*
X18201929Y-15354214D01*
X18459071Y-15439929D02*
X18487643Y-15454214D01*
X18544786Y-15454214D01*
X18573357Y-15439929D01*
X18587643Y-15411357D01*
X18587643Y-15397071D01*
X18573357Y-15368500D01*
X18544786Y-15354214D01*
X18501929Y-15354214D01*
X18473357Y-15339929D01*
X18459071Y-15311357D01*
X18459071Y-15297071D01*
X18473357Y-15268500D01*
X18501929Y-15254214D01*
X18544786Y-15254214D01*
X18573357Y-15268500D01*
X18687643Y-15568500D02*
X18701929Y-15554214D01*
X18730500Y-15511357D01*
X18744786Y-15482786D01*
X18759071Y-15439929D01*
X18773357Y-15368500D01*
X18773357Y-15311357D01*
X18759071Y-15239929D01*
X18744786Y-15197071D01*
X18730500Y-15168500D01*
X18701929Y-15125643D01*
X18687643Y-15111357D01*
X11930500Y-15714500D02*
G75*
G03X11930500Y-15714500I-50038J0D01*
G01*
X12359071Y-15850214D02*
X12187643Y-15850214D01*
X12273357Y-15850214D02*
X12273357Y-15550214D01*
X12244786Y-15593071D01*
X12216214Y-15621643D01*
X12187643Y-15635929D01*
X12487643Y-15821643D02*
X12501928Y-15835929D01*
X12487643Y-15850214D01*
X12473357Y-15835929D01*
X12487643Y-15821643D01*
X12487643Y-15850214D01*
X12687643Y-15550214D02*
X12716214Y-15550214D01*
X12744786Y-15564500D01*
X12759071Y-15578786D01*
X12773357Y-15607357D01*
X12787643Y-15664500D01*
X12787643Y-15735929D01*
X12773357Y-15793071D01*
X12759071Y-15821643D01*
X12744786Y-15835929D01*
X12716214Y-15850214D01*
X12687643Y-15850214D01*
X12659071Y-15835929D01*
X12644786Y-15821643D01*
X12630500Y-15793071D01*
X12616214Y-15735929D01*
X12616214Y-15664500D01*
X12630500Y-15607357D01*
X12644786Y-15578786D01*
X12659071Y-15564500D01*
X12687643Y-15550214D01*
X12973357Y-15550214D02*
X13001928Y-15550214D01*
X13030500Y-15564500D01*
X13044786Y-15578786D01*
X13059071Y-15607357D01*
X13073357Y-15664500D01*
X13073357Y-15735929D01*
X13059071Y-15793071D01*
X13044786Y-15821643D01*
X13030500Y-15835929D01*
X13001928Y-15850214D01*
X12973357Y-15850214D01*
X12944786Y-15835929D01*
X12930500Y-15821643D01*
X12916214Y-15793071D01*
X12901928Y-15735929D01*
X12901928Y-15664500D01*
X12916214Y-15607357D01*
X12930500Y-15578786D01*
X12944786Y-15564500D01*
X12973357Y-15550214D01*
X13201928Y-15850214D02*
X13201928Y-15650214D01*
X13201928Y-15678786D02*
X13216214Y-15664500D01*
X13244786Y-15650214D01*
X13287643Y-15650214D01*
X13316214Y-15664500D01*
X13330500Y-15693071D01*
X13330500Y-15850214D01*
X13330500Y-15693071D02*
X13344786Y-15664500D01*
X13373357Y-15650214D01*
X13416214Y-15650214D01*
X13444786Y-15664500D01*
X13459071Y-15693071D01*
X13459071Y-15850214D01*
X13601928Y-15850214D02*
X13601928Y-15650214D01*
X13601928Y-15678786D02*
X13616214Y-15664500D01*
X13644786Y-15650214D01*
X13687643Y-15650214D01*
X13716214Y-15664500D01*
X13730500Y-15693071D01*
X13730500Y-15850214D01*
X13730500Y-15693071D02*
X13744786Y-15664500D01*
X13773357Y-15650214D01*
X13816214Y-15650214D01*
X13844786Y-15664500D01*
X13859071Y-15693071D01*
X13859071Y-15850214D01*
X14444786Y-15535929D02*
X14187643Y-15921643D01*
X14830500Y-15550214D02*
X14859071Y-15550214D01*
X14887643Y-15564500D01*
X14901928Y-15578786D01*
X14916214Y-15607357D01*
X14930500Y-15664500D01*
X14930500Y-15735929D01*
X14916214Y-15793071D01*
X14901928Y-15821643D01*
X14887643Y-15835929D01*
X14859071Y-15850214D01*
X14830500Y-15850214D01*
X14801928Y-15835929D01*
X14787643Y-15821643D01*
X14773357Y-15793071D01*
X14759071Y-15735929D01*
X14759071Y-15664500D01*
X14773357Y-15607357D01*
X14787643Y-15578786D01*
X14801928Y-15564500D01*
X14830500Y-15550214D01*
X15059071Y-15821643D02*
X15073357Y-15835929D01*
X15059071Y-15850214D01*
X15044786Y-15835929D01*
X15059071Y-15821643D01*
X15059071Y-15850214D01*
X15259071Y-15550214D02*
X15287643Y-15550214D01*
X15316214Y-15564500D01*
X15330500Y-15578786D01*
X15344785Y-15607357D01*
X15359071Y-15664500D01*
X15359071Y-15735929D01*
X15344785Y-15793071D01*
X15330500Y-15821643D01*
X15316214Y-15835929D01*
X15287643Y-15850214D01*
X15259071Y-15850214D01*
X15230500Y-15835929D01*
X15216214Y-15821643D01*
X15201928Y-15793071D01*
X15187643Y-15735929D01*
X15187643Y-15664500D01*
X15201928Y-15607357D01*
X15216214Y-15578786D01*
X15230500Y-15564500D01*
X15259071Y-15550214D01*
X15459071Y-15550214D02*
X15644785Y-15550214D01*
X15544785Y-15664500D01*
X15587643Y-15664500D01*
X15616214Y-15678786D01*
X15630500Y-15693071D01*
X15644785Y-15721643D01*
X15644785Y-15793071D01*
X15630500Y-15821643D01*
X15616214Y-15835929D01*
X15587643Y-15850214D01*
X15501928Y-15850214D01*
X15473357Y-15835929D01*
X15459071Y-15821643D01*
X15787643Y-15850214D02*
X15844785Y-15850214D01*
X15873357Y-15835929D01*
X15887643Y-15821643D01*
X15916214Y-15778786D01*
X15930500Y-15721643D01*
X15930500Y-15607357D01*
X15916214Y-15578786D01*
X15901928Y-15564500D01*
X15873357Y-15550214D01*
X15816214Y-15550214D01*
X15787643Y-15564500D01*
X15773357Y-15578786D01*
X15759071Y-15607357D01*
X15759071Y-15678786D01*
X15773357Y-15707357D01*
X15787643Y-15721643D01*
X15816214Y-15735929D01*
X15873357Y-15735929D01*
X15901928Y-15721643D01*
X15916214Y-15707357D01*
X15930500Y-15678786D01*
X16044786Y-15550214D02*
X16044786Y-15607357D01*
X16159071Y-15550214D02*
X16159071Y-15607357D01*
X16601928Y-15964500D02*
X16587643Y-15950214D01*
X16559071Y-15907357D01*
X16544785Y-15878786D01*
X16530500Y-15835929D01*
X16516214Y-15764500D01*
X16516214Y-15707357D01*
X16530500Y-15635929D01*
X16544785Y-15593071D01*
X16559071Y-15564500D01*
X16587643Y-15521643D01*
X16601928Y-15507357D01*
X16759071Y-15678786D02*
X16730500Y-15664500D01*
X16716214Y-15650214D01*
X16701928Y-15621643D01*
X16701928Y-15607357D01*
X16716214Y-15578786D01*
X16730500Y-15564500D01*
X16759071Y-15550214D01*
X16816214Y-15550214D01*
X16844786Y-15564500D01*
X16859071Y-15578786D01*
X16873357Y-15607357D01*
X16873357Y-15621643D01*
X16859071Y-15650214D01*
X16844786Y-15664500D01*
X16816214Y-15678786D01*
X16759071Y-15678786D01*
X16730500Y-15693071D01*
X16716214Y-15707357D01*
X16701928Y-15735929D01*
X16701928Y-15793071D01*
X16716214Y-15821643D01*
X16730500Y-15835929D01*
X16759071Y-15850214D01*
X16816214Y-15850214D01*
X16844786Y-15835929D01*
X16859071Y-15821643D01*
X16873357Y-15793071D01*
X16873357Y-15735929D01*
X16859071Y-15707357D01*
X16844786Y-15693071D01*
X16816214Y-15678786D01*
X17230500Y-15850214D02*
X17230500Y-15550214D01*
X17359071Y-15850214D02*
X17359071Y-15693071D01*
X17344786Y-15664500D01*
X17316214Y-15650214D01*
X17273357Y-15650214D01*
X17244786Y-15664500D01*
X17230500Y-15678786D01*
X17544786Y-15850214D02*
X17516214Y-15835929D01*
X17501928Y-15821643D01*
X17487643Y-15793071D01*
X17487643Y-15707357D01*
X17501928Y-15678786D01*
X17516214Y-15664500D01*
X17544786Y-15650214D01*
X17587643Y-15650214D01*
X17616214Y-15664500D01*
X17630500Y-15678786D01*
X17644786Y-15707357D01*
X17644786Y-15793071D01*
X17630500Y-15821643D01*
X17616214Y-15835929D01*
X17587643Y-15850214D01*
X17544786Y-15850214D01*
X17816214Y-15850214D02*
X17787643Y-15835929D01*
X17773357Y-15807357D01*
X17773357Y-15550214D01*
X18044786Y-15835929D02*
X18016214Y-15850214D01*
X17959071Y-15850214D01*
X17930500Y-15835929D01*
X17916214Y-15807357D01*
X17916214Y-15693071D01*
X17930500Y-15664500D01*
X17959071Y-15650214D01*
X18016214Y-15650214D01*
X18044786Y-15664500D01*
X18059071Y-15693071D01*
X18059071Y-15721643D01*
X17916214Y-15750214D01*
X18173357Y-15835929D02*
X18201929Y-15850214D01*
X18259071Y-15850214D01*
X18287643Y-15835929D01*
X18301929Y-15807357D01*
X18301929Y-15793071D01*
X18287643Y-15764500D01*
X18259071Y-15750214D01*
X18216214Y-15750214D01*
X18187643Y-15735929D01*
X18173357Y-15707357D01*
X18173357Y-15693071D01*
X18187643Y-15664500D01*
X18216214Y-15650214D01*
X18259071Y-15650214D01*
X18287643Y-15664500D01*
X18401928Y-15964500D02*
X18416214Y-15950214D01*
X18444786Y-15907357D01*
X18459071Y-15878786D01*
X18473357Y-15835929D01*
X18487643Y-15764500D01*
X18487643Y-15707357D01*
X18473357Y-15635929D01*
X18459071Y-15593071D01*
X18444786Y-15564500D01*
X18416214Y-15521643D01*
X18401928Y-15507357D01*
X11879700Y-16059700D02*
X11879700Y-16161300D01*
X11828900Y-16110500D02*
X11930500Y-16110500D01*
X12359071Y-16246214D02*
X12187643Y-16246214D01*
X12273357Y-16246214D02*
X12273357Y-15946214D01*
X12244786Y-15989071D01*
X12216214Y-16017643D01*
X12187643Y-16031929D01*
X12487643Y-16217643D02*
X12501928Y-16231929D01*
X12487643Y-16246214D01*
X12473357Y-16231929D01*
X12487643Y-16217643D01*
X12487643Y-16246214D01*
X12687643Y-15946214D02*
X12716214Y-15946214D01*
X12744786Y-15960500D01*
X12759071Y-15974786D01*
X12773357Y-16003357D01*
X12787643Y-16060500D01*
X12787643Y-16131929D01*
X12773357Y-16189071D01*
X12759071Y-16217643D01*
X12744786Y-16231929D01*
X12716214Y-16246214D01*
X12687643Y-16246214D01*
X12659071Y-16231929D01*
X12644786Y-16217643D01*
X12630500Y-16189071D01*
X12616214Y-16131929D01*
X12616214Y-16060500D01*
X12630500Y-16003357D01*
X12644786Y-15974786D01*
X12659071Y-15960500D01*
X12687643Y-15946214D01*
X12901928Y-15974786D02*
X12916214Y-15960500D01*
X12944786Y-15946214D01*
X13016214Y-15946214D01*
X13044786Y-15960500D01*
X13059071Y-15974786D01*
X13073357Y-16003357D01*
X13073357Y-16031929D01*
X13059071Y-16074786D01*
X12887643Y-16246214D01*
X13073357Y-16246214D01*
X13201928Y-16246214D02*
X13201928Y-16046214D01*
X13201928Y-16074786D02*
X13216214Y-16060500D01*
X13244786Y-16046214D01*
X13287643Y-16046214D01*
X13316214Y-16060500D01*
X13330500Y-16089071D01*
X13330500Y-16246214D01*
X13330500Y-16089071D02*
X13344786Y-16060500D01*
X13373357Y-16046214D01*
X13416214Y-16046214D01*
X13444786Y-16060500D01*
X13459071Y-16089071D01*
X13459071Y-16246214D01*
X13601928Y-16246214D02*
X13601928Y-16046214D01*
X13601928Y-16074786D02*
X13616214Y-16060500D01*
X13644786Y-16046214D01*
X13687643Y-16046214D01*
X13716214Y-16060500D01*
X13730500Y-16089071D01*
X13730500Y-16246214D01*
X13730500Y-16089071D02*
X13744786Y-16060500D01*
X13773357Y-16046214D01*
X13816214Y-16046214D01*
X13844786Y-16060500D01*
X13859071Y-16089071D01*
X13859071Y-16246214D01*
X14444786Y-15931929D02*
X14187643Y-16317643D01*
X14830500Y-15946214D02*
X14859071Y-15946214D01*
X14887643Y-15960500D01*
X14901928Y-15974786D01*
X14916214Y-16003357D01*
X14930500Y-16060500D01*
X14930500Y-16131929D01*
X14916214Y-16189071D01*
X14901928Y-16217643D01*
X14887643Y-16231929D01*
X14859071Y-16246214D01*
X14830500Y-16246214D01*
X14801928Y-16231929D01*
X14787643Y-16217643D01*
X14773357Y-16189071D01*
X14759071Y-16131929D01*
X14759071Y-16060500D01*
X14773357Y-16003357D01*
X14787643Y-15974786D01*
X14801928Y-15960500D01*
X14830500Y-15946214D01*
X15059071Y-16217643D02*
X15073357Y-16231929D01*
X15059071Y-16246214D01*
X15044786Y-16231929D01*
X15059071Y-16217643D01*
X15059071Y-16246214D01*
X15259071Y-15946214D02*
X15287643Y-15946214D01*
X15316214Y-15960500D01*
X15330500Y-15974786D01*
X15344785Y-16003357D01*
X15359071Y-16060500D01*
X15359071Y-16131929D01*
X15344785Y-16189071D01*
X15330500Y-16217643D01*
X15316214Y-16231929D01*
X15287643Y-16246214D01*
X15259071Y-16246214D01*
X15230500Y-16231929D01*
X15216214Y-16217643D01*
X15201928Y-16189071D01*
X15187643Y-16131929D01*
X15187643Y-16060500D01*
X15201928Y-16003357D01*
X15216214Y-15974786D01*
X15230500Y-15960500D01*
X15259071Y-15946214D01*
X15616214Y-16046214D02*
X15616214Y-16246214D01*
X15544785Y-15931929D02*
X15473357Y-16146214D01*
X15659071Y-16146214D01*
X15830500Y-15946214D02*
X15859071Y-15946214D01*
X15887643Y-15960500D01*
X15901928Y-15974786D01*
X15916214Y-16003357D01*
X15930500Y-16060500D01*
X15930500Y-16131929D01*
X15916214Y-16189071D01*
X15901928Y-16217643D01*
X15887643Y-16231929D01*
X15859071Y-16246214D01*
X15830500Y-16246214D01*
X15801928Y-16231929D01*
X15787643Y-16217643D01*
X15773357Y-16189071D01*
X15759071Y-16131929D01*
X15759071Y-16060500D01*
X15773357Y-16003357D01*
X15787643Y-15974786D01*
X15801928Y-15960500D01*
X15830500Y-15946214D01*
X16044786Y-15946214D02*
X16044786Y-16003357D01*
X16159071Y-15946214D02*
X16159071Y-16003357D01*
X16601928Y-16360500D02*
X16587643Y-16346214D01*
X16559071Y-16303357D01*
X16544785Y-16274786D01*
X16530500Y-16231929D01*
X16516214Y-16160500D01*
X16516214Y-16103357D01*
X16530500Y-16031929D01*
X16544785Y-15989071D01*
X16559071Y-15960500D01*
X16587643Y-15917643D01*
X16601928Y-15903357D01*
X16873357Y-16246214D02*
X16701928Y-16246214D01*
X16787643Y-16246214D02*
X16787643Y-15946214D01*
X16759071Y-15989071D01*
X16730500Y-16017643D01*
X16701928Y-16031929D01*
X17159071Y-16246214D02*
X16987643Y-16246214D01*
X17073357Y-16246214D02*
X17073357Y-15946214D01*
X17044786Y-15989071D01*
X17016214Y-16017643D01*
X16987643Y-16031929D01*
X17516214Y-16246214D02*
X17516214Y-15946214D01*
X17644786Y-16246214D02*
X17644786Y-16089071D01*
X17630500Y-16060500D01*
X17601928Y-16046214D01*
X17559071Y-16046214D01*
X17530500Y-16060500D01*
X17516214Y-16074786D01*
X17830500Y-16246214D02*
X17801928Y-16231929D01*
X17787643Y-16217643D01*
X17773357Y-16189071D01*
X17773357Y-16103357D01*
X17787643Y-16074786D01*
X17801928Y-16060500D01*
X17830500Y-16046214D01*
X17873357Y-16046214D01*
X17901928Y-16060500D01*
X17916214Y-16074786D01*
X17930500Y-16103357D01*
X17930500Y-16189071D01*
X17916214Y-16217643D01*
X17901928Y-16231929D01*
X17873357Y-16246214D01*
X17830500Y-16246214D01*
X18101928Y-16246214D02*
X18073357Y-16231929D01*
X18059071Y-16203357D01*
X18059071Y-15946214D01*
X18330500Y-16231929D02*
X18301929Y-16246214D01*
X18244786Y-16246214D01*
X18216214Y-16231929D01*
X18201929Y-16203357D01*
X18201929Y-16089071D01*
X18216214Y-16060500D01*
X18244786Y-16046214D01*
X18301929Y-16046214D01*
X18330500Y-16060500D01*
X18344786Y-16089071D01*
X18344786Y-16117643D01*
X18201929Y-16146214D01*
X18459071Y-16231929D02*
X18487643Y-16246214D01*
X18544786Y-16246214D01*
X18573357Y-16231929D01*
X18587643Y-16203357D01*
X18587643Y-16189071D01*
X18573357Y-16160500D01*
X18544786Y-16146214D01*
X18501929Y-16146214D01*
X18473357Y-16131929D01*
X18459071Y-16103357D01*
X18459071Y-16089071D01*
X18473357Y-16060500D01*
X18501929Y-16046214D01*
X18544786Y-16046214D01*
X18573357Y-16060500D01*
X18687643Y-16360500D02*
X18701929Y-16346214D01*
X18730500Y-16303357D01*
X18744786Y-16274786D01*
X18759071Y-16231929D01*
X18773357Y-16160500D01*
X18773357Y-16103357D01*
X18759071Y-16031929D01*
X18744786Y-15989071D01*
X18730500Y-15960500D01*
X18701929Y-15917643D01*
X18687643Y-15903357D01*
X11914877Y-16544217D02*
X11914877Y-16468783D01*
X11839442Y-16468783D01*
X11839442Y-16544217D01*
X11914877Y-16544217D01*
X12359071Y-16642214D02*
X12187643Y-16642214D01*
X12273357Y-16642214D02*
X12273357Y-16342214D01*
X12244786Y-16385071D01*
X12216214Y-16413643D01*
X12187643Y-16427929D01*
X12487643Y-16613643D02*
X12501928Y-16627929D01*
X12487643Y-16642214D01*
X12473357Y-16627929D01*
X12487643Y-16613643D01*
X12487643Y-16642214D01*
X12687643Y-16342214D02*
X12716214Y-16342214D01*
X12744786Y-16356500D01*
X12759071Y-16370786D01*
X12773357Y-16399357D01*
X12787643Y-16456500D01*
X12787643Y-16527929D01*
X12773357Y-16585071D01*
X12759071Y-16613643D01*
X12744786Y-16627929D01*
X12716214Y-16642214D01*
X12687643Y-16642214D01*
X12659071Y-16627929D01*
X12644786Y-16613643D01*
X12630500Y-16585071D01*
X12616214Y-16527929D01*
X12616214Y-16456500D01*
X12630500Y-16399357D01*
X12644786Y-16370786D01*
X12659071Y-16356500D01*
X12687643Y-16342214D01*
X12887643Y-16342214D02*
X13087643Y-16342214D01*
X12959071Y-16642214D01*
X13201928Y-16642214D02*
X13201928Y-16442214D01*
X13201928Y-16470786D02*
X13216214Y-16456500D01*
X13244786Y-16442214D01*
X13287643Y-16442214D01*
X13316214Y-16456500D01*
X13330500Y-16485071D01*
X13330500Y-16642214D01*
X13330500Y-16485071D02*
X13344786Y-16456500D01*
X13373357Y-16442214D01*
X13416214Y-16442214D01*
X13444786Y-16456500D01*
X13459071Y-16485071D01*
X13459071Y-16642214D01*
X13601928Y-16642214D02*
X13601928Y-16442214D01*
X13601928Y-16470786D02*
X13616214Y-16456500D01*
X13644786Y-16442214D01*
X13687643Y-16442214D01*
X13716214Y-16456500D01*
X13730500Y-16485071D01*
X13730500Y-16642214D01*
X13730500Y-16485071D02*
X13744786Y-16456500D01*
X13773357Y-16442214D01*
X13816214Y-16442214D01*
X13844786Y-16456500D01*
X13859071Y-16485071D01*
X13859071Y-16642214D01*
X14444786Y-16327929D02*
X14187643Y-16713643D01*
X14830500Y-16342214D02*
X14859071Y-16342214D01*
X14887643Y-16356500D01*
X14901928Y-16370786D01*
X14916214Y-16399357D01*
X14930500Y-16456500D01*
X14930500Y-16527929D01*
X14916214Y-16585071D01*
X14901928Y-16613643D01*
X14887643Y-16627929D01*
X14859071Y-16642214D01*
X14830500Y-16642214D01*
X14801928Y-16627929D01*
X14787643Y-16613643D01*
X14773357Y-16585071D01*
X14759071Y-16527929D01*
X14759071Y-16456500D01*
X14773357Y-16399357D01*
X14787643Y-16370786D01*
X14801928Y-16356500D01*
X14830500Y-16342214D01*
X15059071Y-16613643D02*
X15073357Y-16627929D01*
X15059071Y-16642214D01*
X15044786Y-16627929D01*
X15059071Y-16613643D01*
X15059071Y-16642214D01*
X15259071Y-16342214D02*
X15287643Y-16342214D01*
X15316214Y-16356500D01*
X15330500Y-16370786D01*
X15344785Y-16399357D01*
X15359071Y-16456500D01*
X15359071Y-16527929D01*
X15344785Y-16585071D01*
X15330500Y-16613643D01*
X15316214Y-16627929D01*
X15287643Y-16642214D01*
X15259071Y-16642214D01*
X15230500Y-16627929D01*
X15216214Y-16613643D01*
X15201928Y-16585071D01*
X15187643Y-16527929D01*
X15187643Y-16456500D01*
X15201928Y-16399357D01*
X15216214Y-16370786D01*
X15230500Y-16356500D01*
X15259071Y-16342214D01*
X15616214Y-16442214D02*
X15616214Y-16642214D01*
X15544785Y-16327929D02*
X15473357Y-16542214D01*
X15659071Y-16542214D01*
X15759071Y-16370786D02*
X15773357Y-16356500D01*
X15801928Y-16342214D01*
X15873357Y-16342214D01*
X15901928Y-16356500D01*
X15916214Y-16370786D01*
X15930500Y-16399357D01*
X15930500Y-16427929D01*
X15916214Y-16470786D01*
X15744785Y-16642214D01*
X15930500Y-16642214D01*
X16044786Y-16342214D02*
X16044786Y-16399357D01*
X16159071Y-16342214D02*
X16159071Y-16399357D01*
X16601928Y-16756500D02*
X16587643Y-16742214D01*
X16559071Y-16699357D01*
X16544785Y-16670786D01*
X16530500Y-16627929D01*
X16516214Y-16556500D01*
X16516214Y-16499357D01*
X16530500Y-16427929D01*
X16544785Y-16385071D01*
X16559071Y-16356500D01*
X16587643Y-16313643D01*
X16601928Y-16299357D01*
X16759071Y-16470786D02*
X16730500Y-16456500D01*
X16716214Y-16442214D01*
X16701928Y-16413643D01*
X16701928Y-16399357D01*
X16716214Y-16370786D01*
X16730500Y-16356500D01*
X16759071Y-16342214D01*
X16816214Y-16342214D01*
X16844786Y-16356500D01*
X16859071Y-16370786D01*
X16873357Y-16399357D01*
X16873357Y-16413643D01*
X16859071Y-16442214D01*
X16844786Y-16456500D01*
X16816214Y-16470786D01*
X16759071Y-16470786D01*
X16730500Y-16485071D01*
X16716214Y-16499357D01*
X16701928Y-16527929D01*
X16701928Y-16585071D01*
X16716214Y-16613643D01*
X16730500Y-16627929D01*
X16759071Y-16642214D01*
X16816214Y-16642214D01*
X16844786Y-16627929D01*
X16859071Y-16613643D01*
X16873357Y-16585071D01*
X16873357Y-16527929D01*
X16859071Y-16499357D01*
X16844786Y-16485071D01*
X16816214Y-16470786D01*
X17130500Y-16442214D02*
X17130500Y-16642214D01*
X17059071Y-16327929D02*
X16987643Y-16542214D01*
X17173357Y-16542214D01*
X17516214Y-16642214D02*
X17516214Y-16342214D01*
X17644786Y-16642214D02*
X17644786Y-16485071D01*
X17630500Y-16456500D01*
X17601928Y-16442214D01*
X17559071Y-16442214D01*
X17530500Y-16456500D01*
X17516214Y-16470786D01*
X17830500Y-16642214D02*
X17801928Y-16627929D01*
X17787643Y-16613643D01*
X17773357Y-16585071D01*
X17773357Y-16499357D01*
X17787643Y-16470786D01*
X17801928Y-16456500D01*
X17830500Y-16442214D01*
X17873357Y-16442214D01*
X17901928Y-16456500D01*
X17916214Y-16470786D01*
X17930500Y-16499357D01*
X17930500Y-16585071D01*
X17916214Y-16613643D01*
X17901928Y-16627929D01*
X17873357Y-16642214D01*
X17830500Y-16642214D01*
X18101928Y-16642214D02*
X18073357Y-16627929D01*
X18059071Y-16599357D01*
X18059071Y-16342214D01*
X18330500Y-16627929D02*
X18301929Y-16642214D01*
X18244786Y-16642214D01*
X18216214Y-16627929D01*
X18201929Y-16599357D01*
X18201929Y-16485071D01*
X18216214Y-16456500D01*
X18244786Y-16442214D01*
X18301929Y-16442214D01*
X18330500Y-16456500D01*
X18344786Y-16485071D01*
X18344786Y-16513643D01*
X18201929Y-16542214D01*
X18459071Y-16627929D02*
X18487643Y-16642214D01*
X18544786Y-16642214D01*
X18573357Y-16627929D01*
X18587643Y-16599357D01*
X18587643Y-16585071D01*
X18573357Y-16556500D01*
X18544786Y-16542214D01*
X18501929Y-16542214D01*
X18473357Y-16527929D01*
X18459071Y-16499357D01*
X18459071Y-16485071D01*
X18473357Y-16456500D01*
X18501929Y-16442214D01*
X18544786Y-16442214D01*
X18573357Y-16456500D01*
X18687643Y-16756500D02*
X18701929Y-16742214D01*
X18730500Y-16699357D01*
X18744786Y-16670786D01*
X18759071Y-16627929D01*
X18773357Y-16556500D01*
X18773357Y-16499357D01*
X18759071Y-16427929D01*
X18744786Y-16385071D01*
X18730500Y-16356500D01*
X18701929Y-16313643D01*
X18687643Y-16299357D01*
M02*
