G04 #@! TF.FileFunction,Soldermask,Bot*
%FSLAX46Y46*%
G04 Gerber Fmt 4.6, Leading zero omitted, Abs format (unit mm)*
G04 Created by KiCad (PCBNEW (2014-12-16 BZR 5324)-product) date Monday, July 06, 2015 'AMt' 12:03:07 AM*
%MOMM*%
G01*
G04 APERTURE LIST*
%ADD10C,0.127000*%
%ADD11R,2.305000X2.305000*%
%ADD12C,2.305000*%
%ADD13C,2.889200*%
%ADD14R,2.432000X2.432000*%
%ADD15O,2.432000X2.432000*%
%ADD16R,2.127200X2.432000*%
%ADD17O,2.127200X2.432000*%
%ADD18C,2.398980*%
G04 APERTURE END LIST*
D10*
D11*
X8890000Y11430000D03*
D12*
X6350000Y11430000D03*
X8890000Y13970000D03*
X6350000Y13970000D03*
X8890000Y16510000D03*
X6350000Y16510000D03*
X8890000Y19050000D03*
X6350000Y19050000D03*
X8890000Y21590000D03*
X6350000Y21590000D03*
X8890000Y24130000D03*
X6350000Y24130000D03*
X8890000Y26670000D03*
X6350000Y26670000D03*
X8890000Y29210000D03*
X6350000Y29210000D03*
X8890000Y31750000D03*
X6350000Y31750000D03*
X8890000Y34290000D03*
X6350000Y34290000D03*
X8890000Y36830000D03*
X6350000Y36830000D03*
X8890000Y39370000D03*
X6350000Y39370000D03*
X8890000Y41910000D03*
X6350000Y41910000D03*
X8890000Y44450000D03*
X6350000Y44450000D03*
X8890000Y46990000D03*
X6350000Y46990000D03*
X8890000Y49530000D03*
X6350000Y49530000D03*
X8890000Y52070000D03*
X6350000Y52070000D03*
X8890000Y54610000D03*
X6350000Y54610000D03*
X8890000Y57150000D03*
X6350000Y57150000D03*
X8890000Y59690000D03*
X6350000Y59690000D03*
X8890000Y62230000D03*
X6350000Y62230000D03*
X8890000Y64770000D03*
X6350000Y64770000D03*
X8890000Y67310000D03*
X6350000Y67310000D03*
X8890000Y69850000D03*
X6350000Y69850000D03*
X8890000Y72390000D03*
X6350000Y72390000D03*
D13*
X6760000Y5310000D03*
X6760000Y78510000D03*
D11*
X26670000Y52070000D03*
D12*
X29210000Y52070000D03*
X26670000Y49530000D03*
X29210000Y49530000D03*
X26670000Y46990000D03*
X29210000Y46990000D03*
X26670000Y44450000D03*
X29210000Y44450000D03*
X26670000Y41910000D03*
X29210000Y41910000D03*
X26670000Y39370000D03*
X29210000Y39370000D03*
X26670000Y36830000D03*
X29210000Y36830000D03*
X26670000Y34290000D03*
X29210000Y34290000D03*
X26670000Y31750000D03*
X29210000Y31750000D03*
X26670000Y29210000D03*
X29210000Y29210000D03*
X26670000Y26670000D03*
X29210000Y26670000D03*
X26670000Y24130000D03*
X29210000Y24130000D03*
X26670000Y21590000D03*
X29210000Y21590000D03*
X26670000Y19050000D03*
X29210000Y19050000D03*
X26670000Y16510000D03*
X29210000Y16510000D03*
X26670000Y13970000D03*
X29210000Y13970000D03*
X26670000Y11430000D03*
X29210000Y11430000D03*
D13*
X28800000Y58190000D03*
X28800000Y5310000D03*
D14*
X19050000Y11430000D03*
D15*
X16510000Y11430000D03*
D16*
X13970000Y72390000D03*
D17*
X16510000Y72390000D03*
X19050000Y72390000D03*
D16*
X26670000Y72390000D03*
D17*
X29210000Y72390000D03*
X31750000Y72390000D03*
D18*
X22860000Y52070000D03*
X12700000Y52070000D03*
X22860000Y46990000D03*
X12700000Y46990000D03*
X22860000Y41910000D03*
X12700000Y41910000D03*
X22860000Y36830000D03*
X12700000Y36830000D03*
M02*
