G04 #@! TF.FileFunction,Copper,L1,Top,Signal*
%FSLAX46Y46*%
G04 Gerber Fmt 4.6, Leading zero omitted, Abs format (unit mm)*
G04 Created by KiCad (PCBNEW (2014-12-16 BZR 5324)-product) date Sunday, July 05, 2015 'PMt' 09:47:08 PM*
%MOMM*%
G01*
G04 APERTURE LIST*
%ADD10C,0.127000*%
%ADD11R,1.905000X1.905000*%
%ADD12C,1.905000*%
%ADD13R,2.032000X2.032000*%
%ADD14O,2.032000X2.032000*%
%ADD15R,1.727200X2.032000*%
%ADD16O,1.727200X2.032000*%
%ADD17C,1.998980*%
%ADD18C,0.762000*%
%ADD19C,0.152400*%
%ADD20C,0.254000*%
G04 APERTURE END LIST*
D10*
D11*
X128270000Y-132080000D03*
D12*
X125730000Y-132080000D03*
X128270000Y-129540000D03*
X125730000Y-129540000D03*
X128270000Y-127000000D03*
X125730000Y-127000000D03*
X128270000Y-124460000D03*
X125730000Y-124460000D03*
X128270000Y-121920000D03*
X125730000Y-121920000D03*
X128270000Y-119380000D03*
X125730000Y-119380000D03*
X128270000Y-116840000D03*
X125730000Y-116840000D03*
X128270000Y-114300000D03*
X125730000Y-114300000D03*
X128270000Y-111760000D03*
X125730000Y-111760000D03*
X128270000Y-109220000D03*
X125730000Y-109220000D03*
X128270000Y-106680000D03*
X125730000Y-106680000D03*
X128270000Y-104140000D03*
X125730000Y-104140000D03*
X128270000Y-101600000D03*
X125730000Y-101600000D03*
X128270000Y-99060000D03*
X125730000Y-99060000D03*
X128270000Y-96520000D03*
X125730000Y-96520000D03*
X128270000Y-93980000D03*
X125730000Y-93980000D03*
X128270000Y-91440000D03*
X125730000Y-91440000D03*
X128270000Y-88900000D03*
X125730000Y-88900000D03*
X128270000Y-86360000D03*
X125730000Y-86360000D03*
X128270000Y-83820000D03*
X125730000Y-83820000D03*
X128270000Y-81280000D03*
X125730000Y-81280000D03*
X128270000Y-78740000D03*
X125730000Y-78740000D03*
X128270000Y-76200000D03*
X125730000Y-76200000D03*
X128270000Y-73660000D03*
X125730000Y-73660000D03*
X128270000Y-71120000D03*
X125730000Y-71120000D03*
D11*
X146050000Y-91440000D03*
D12*
X148590000Y-91440000D03*
X146050000Y-93980000D03*
X148590000Y-93980000D03*
X146050000Y-96520000D03*
X148590000Y-96520000D03*
X146050000Y-99060000D03*
X148590000Y-99060000D03*
X146050000Y-101600000D03*
X148590000Y-101600000D03*
X146050000Y-104140000D03*
X148590000Y-104140000D03*
X146050000Y-106680000D03*
X148590000Y-106680000D03*
X146050000Y-109220000D03*
X148590000Y-109220000D03*
X146050000Y-111760000D03*
X148590000Y-111760000D03*
X146050000Y-114300000D03*
X148590000Y-114300000D03*
X146050000Y-116840000D03*
X148590000Y-116840000D03*
X146050000Y-119380000D03*
X148590000Y-119380000D03*
X146050000Y-121920000D03*
X148590000Y-121920000D03*
X146050000Y-124460000D03*
X148590000Y-124460000D03*
X146050000Y-127000000D03*
X148590000Y-127000000D03*
X146050000Y-129540000D03*
X148590000Y-129540000D03*
X146050000Y-132080000D03*
X148590000Y-132080000D03*
D13*
X138430000Y-132080000D03*
D14*
X135890000Y-132080000D03*
D15*
X133350000Y-71120000D03*
D16*
X135890000Y-71120000D03*
X138430000Y-71120000D03*
D15*
X146050000Y-71120000D03*
D16*
X148590000Y-71120000D03*
X151130000Y-71120000D03*
D17*
X142240000Y-91440000D03*
X132080000Y-91440000D03*
X142240000Y-96520000D03*
X132080000Y-96520000D03*
X142240000Y-101600000D03*
X132080000Y-101600000D03*
X142240000Y-106680000D03*
X132080000Y-106680000D03*
D18*
X133985000Y-115570000D03*
X133985000Y-124460000D03*
X139700000Y-114300000D03*
X139065000Y-111760000D03*
X139700000Y-109220000D03*
X139700000Y-89535000D03*
X133350000Y-108585000D03*
X133350000Y-123190000D03*
X133985000Y-89535000D03*
X133985000Y-110490000D03*
X134620000Y-87630000D03*
X134620000Y-113030000D03*
X135890000Y-82550000D03*
X135890000Y-118110000D03*
X136525000Y-80010000D03*
X136525000Y-120650000D03*
X137160000Y-77470000D03*
X137160000Y-123190000D03*
X137795000Y-74930000D03*
X137795000Y-125730000D03*
X135255000Y-85090000D03*
X135255000Y-115570000D03*
D19*
X128270000Y-76200000D02*
X130175000Y-76200000D01*
X128270000Y-78740000D02*
X130175000Y-78740000D01*
X128270000Y-81280000D02*
X130175000Y-81280000D01*
X128270000Y-83820000D02*
X130175000Y-83820000D01*
X128270000Y-88900000D02*
X130175000Y-88900000D01*
X128270000Y-86360000D02*
X130175000Y-86360000D01*
X128270000Y-91440000D02*
X130175000Y-91440000D01*
X128270000Y-96520000D02*
X130175000Y-96520000D01*
X128270000Y-99060000D02*
X130175000Y-99060000D01*
X128270000Y-111760000D02*
X130175000Y-111760000D01*
X128270000Y-114300000D02*
X130175000Y-114300000D01*
X146050000Y-114300000D02*
X144145000Y-114300000D01*
X146050000Y-111760000D02*
X144145000Y-111760000D01*
X146050000Y-109220000D02*
X144145000Y-109220000D01*
X146050000Y-106680000D02*
X144145000Y-106680000D01*
X146050000Y-116840000D02*
X144145000Y-116840000D01*
X146050000Y-119380000D02*
X144145000Y-119380000D01*
X146050000Y-129540000D02*
X144145000Y-129540000D01*
X128270000Y-109220000D02*
X130175000Y-109220000D01*
X128270000Y-101600000D02*
X130175000Y-101600000D01*
X146050000Y-121920000D02*
X144145000Y-121920000D01*
X146050000Y-124460000D02*
X144145000Y-124460000D01*
X146050000Y-127000000D02*
X144145000Y-127000000D01*
X123825000Y-123825000D02*
X125730000Y-121920000D01*
X123825000Y-127635000D02*
X123825000Y-123825000D01*
X124460000Y-128270000D02*
X123825000Y-127635000D01*
X135788400Y-128270000D02*
X124460000Y-128270000D01*
X138430000Y-130911600D02*
X135788400Y-128270000D01*
X138430000Y-132080000D02*
X138430000Y-130911600D01*
X127000000Y-115570000D02*
X133985000Y-115570000D01*
X125730000Y-116840000D02*
X127000000Y-115570000D01*
X133985000Y-124460000D02*
X137795000Y-128270000D01*
X147320000Y-128270000D02*
X148590000Y-129540000D01*
X137795000Y-128270000D02*
X147320000Y-128270000D01*
X126682499Y-113347501D02*
X125730000Y-114300000D01*
X126911101Y-113118899D02*
X126682499Y-113347501D01*
X133806689Y-113118899D02*
X126911101Y-113118899D01*
X134987790Y-114300000D02*
X133806689Y-113118899D01*
X139700000Y-114300000D02*
X134987790Y-114300000D01*
X126682499Y-110807501D02*
X125730000Y-111760000D01*
X126911101Y-110578899D02*
X126682499Y-110807501D01*
X133171689Y-110578899D02*
X126911101Y-110578899D01*
X134352790Y-111760000D02*
X133171689Y-110578899D01*
X139065000Y-111760000D02*
X134352790Y-111760000D01*
X125730000Y-109220000D02*
X127000000Y-107950000D01*
X127000000Y-107950000D02*
X130810000Y-107950000D01*
X130810000Y-107950000D02*
X132080000Y-109220000D01*
X132080000Y-109220000D02*
X139700000Y-109220000D01*
X139700000Y-89535000D02*
X149860000Y-89535000D01*
X149860000Y-89535000D02*
X150495000Y-90170000D01*
X150495000Y-90170000D02*
X150495000Y-94615000D01*
X150495000Y-94615000D02*
X149860000Y-95250000D01*
X149860000Y-95250000D02*
X147955000Y-95250000D01*
X147955000Y-95250000D02*
X147320000Y-95885000D01*
X147320000Y-95885000D02*
X147320000Y-97790000D01*
X147320000Y-97790000D02*
X148590000Y-99060000D01*
X125730000Y-106680000D02*
X127000000Y-105410000D01*
X132167424Y-108585000D02*
X133350000Y-108585000D01*
X128992424Y-105410000D02*
X132167424Y-108585000D01*
X127000000Y-105410000D02*
X128992424Y-105410000D01*
X133350000Y-124727210D02*
X138797790Y-130175000D01*
X133350000Y-123190000D02*
X133350000Y-124727210D01*
X138797790Y-130175000D02*
X144145000Y-130175000D01*
X147637501Y-131127501D02*
X148590000Y-132080000D01*
X147408899Y-130898899D02*
X147637501Y-131127501D01*
X144868899Y-130898899D02*
X147408899Y-130898899D01*
X144145000Y-130175000D02*
X144868899Y-130898899D01*
X132080000Y-91440000D02*
X142240000Y-91440000D01*
X124460000Y-101600000D02*
X125730000Y-101600000D01*
X123190000Y-96520000D02*
X123190000Y-100330000D01*
X123190000Y-100330000D02*
X124460000Y-101600000D01*
X124460000Y-95250000D02*
X123190000Y-96520000D01*
X130175000Y-95250000D02*
X124460000Y-95250000D01*
X132080000Y-93345000D02*
X130175000Y-95250000D01*
X132080000Y-91440000D02*
X132080000Y-93345000D01*
X142240000Y-91440000D02*
X144145000Y-93345000D01*
X147320000Y-100330000D02*
X148590000Y-101600000D01*
X144780000Y-100330000D02*
X147320000Y-100330000D01*
X144145000Y-99695000D02*
X144780000Y-100330000D01*
X144145000Y-93345000D02*
X144145000Y-99695000D01*
X132080000Y-96520000D02*
X142240000Y-96520000D01*
X132080000Y-96520000D02*
X130810000Y-97790000D01*
X130810000Y-97790000D02*
X127000000Y-97790000D01*
X127000000Y-97790000D02*
X125730000Y-99060000D01*
X147320000Y-102870000D02*
X148590000Y-104140000D01*
X142240000Y-96520000D02*
X142240000Y-99060000D01*
X142240000Y-99060000D02*
X144145000Y-100965000D01*
X144145000Y-100965000D02*
X144145000Y-102235000D01*
X144145000Y-102235000D02*
X144780000Y-102870000D01*
X144780000Y-102870000D02*
X147320000Y-102870000D01*
X132080000Y-101600000D02*
X142240000Y-101600000D01*
X132080000Y-101600000D02*
X130810000Y-100330000D01*
X130810000Y-100330000D02*
X124460000Y-100330000D01*
X124460000Y-100330000D02*
X123825000Y-99695000D01*
X123825000Y-99695000D02*
X123825000Y-98425000D01*
X123825000Y-98425000D02*
X125730000Y-96520000D01*
X142240000Y-103013492D02*
X144636508Y-105410000D01*
X144636508Y-105410000D02*
X147320000Y-105410000D01*
X147320000Y-105410000D02*
X148590000Y-106680000D01*
X142240000Y-101600000D02*
X142240000Y-103013492D01*
X132080000Y-106680000D02*
X142240000Y-106680000D01*
X132080000Y-105266508D02*
X129683492Y-102870000D01*
X132080000Y-106680000D02*
X132080000Y-105266508D01*
X129683492Y-102870000D02*
X124460000Y-102870000D01*
X124460000Y-102870000D02*
X122555000Y-100965000D01*
X124382962Y-93980000D02*
X125730000Y-93980000D01*
X122555000Y-95807962D02*
X124382962Y-93980000D01*
X122555000Y-100965000D02*
X122555000Y-95807962D01*
X149860000Y-107950000D02*
X150495000Y-107315000D01*
X142240000Y-106680000D02*
X143510000Y-107950000D01*
X150495000Y-107315000D02*
X150495000Y-98425000D01*
X143510000Y-107950000D02*
X149860000Y-107950000D01*
X150495000Y-98425000D02*
X148590000Y-96520000D01*
X125730000Y-91440000D02*
X127000000Y-90170000D01*
X127000000Y-90170000D02*
X130810000Y-90170000D01*
X130810000Y-90170000D02*
X131445000Y-89535000D01*
X131445000Y-89535000D02*
X133985000Y-89535000D01*
X133985000Y-110490000D02*
X147320000Y-110490000D01*
X147320000Y-110490000D02*
X148590000Y-111760000D01*
X127000000Y-87630000D02*
X134620000Y-87630000D01*
X125730000Y-88900000D02*
X127000000Y-87630000D01*
X147320000Y-113030000D02*
X148590000Y-114300000D01*
X134620000Y-113030000D02*
X147320000Y-113030000D01*
X127000000Y-82550000D02*
X135890000Y-82550000D01*
X125730000Y-83820000D02*
X127000000Y-82550000D01*
X147320000Y-118110000D02*
X148590000Y-119380000D01*
X135890000Y-118110000D02*
X147320000Y-118110000D01*
X127000000Y-80010000D02*
X136525000Y-80010000D01*
X125730000Y-81280000D02*
X127000000Y-80010000D01*
X147320000Y-120650000D02*
X148590000Y-121920000D01*
X136525000Y-120650000D02*
X147320000Y-120650000D01*
X127000000Y-77470000D02*
X137160000Y-77470000D01*
X125730000Y-78740000D02*
X127000000Y-77470000D01*
X147320000Y-123190000D02*
X148590000Y-124460000D01*
X137160000Y-123190000D02*
X147320000Y-123190000D01*
X127000000Y-74930000D02*
X137795000Y-74930000D01*
X125730000Y-76200000D02*
X127000000Y-74930000D01*
X147320000Y-125730000D02*
X148590000Y-127000000D01*
X137795000Y-125730000D02*
X147320000Y-125730000D01*
X127000000Y-85090000D02*
X135255000Y-85090000D01*
X125730000Y-86360000D02*
X127000000Y-85090000D01*
X147320000Y-115570000D02*
X148590000Y-116840000D01*
X135255000Y-115570000D02*
X147320000Y-115570000D01*
X146050000Y-70967600D02*
X146050000Y-71120000D01*
X144297400Y-69215000D02*
X146050000Y-70967600D01*
X135890000Y-69951600D02*
X136626600Y-69215000D01*
X136626600Y-69215000D02*
X144297400Y-69215000D01*
X135890000Y-71120000D02*
X135890000Y-69951600D01*
D20*
G36*
X128302102Y-76214142D02*
X128284142Y-76232103D01*
X128270000Y-76217961D01*
X128255857Y-76232102D01*
X128237897Y-76214142D01*
X128252039Y-76200000D01*
X128237897Y-76185858D01*
X128255857Y-76167897D01*
X128270000Y-76182039D01*
X128284142Y-76167897D01*
X128302102Y-76185857D01*
X128287961Y-76200000D01*
X128302102Y-76214142D01*
X128302102Y-76214142D01*
G37*
X128302102Y-76214142D02*
X128284142Y-76232103D01*
X128270000Y-76217961D01*
X128255857Y-76232102D01*
X128237897Y-76214142D01*
X128252039Y-76200000D01*
X128237897Y-76185858D01*
X128255857Y-76167897D01*
X128270000Y-76182039D01*
X128284142Y-76167897D01*
X128302102Y-76185857D01*
X128287961Y-76200000D01*
X128302102Y-76214142D01*
G36*
X128302102Y-78754142D02*
X128284142Y-78772103D01*
X128270000Y-78757961D01*
X128255857Y-78772102D01*
X128237897Y-78754142D01*
X128252039Y-78740000D01*
X128237897Y-78725858D01*
X128255857Y-78707897D01*
X128270000Y-78722039D01*
X128284142Y-78707897D01*
X128302102Y-78725857D01*
X128287961Y-78740000D01*
X128302102Y-78754142D01*
X128302102Y-78754142D01*
G37*
X128302102Y-78754142D02*
X128284142Y-78772103D01*
X128270000Y-78757961D01*
X128255857Y-78772102D01*
X128237897Y-78754142D01*
X128252039Y-78740000D01*
X128237897Y-78725858D01*
X128255857Y-78707897D01*
X128270000Y-78722039D01*
X128284142Y-78707897D01*
X128302102Y-78725857D01*
X128287961Y-78740000D01*
X128302102Y-78754142D01*
G36*
X128302102Y-81294142D02*
X128284142Y-81312103D01*
X128270000Y-81297961D01*
X128255857Y-81312102D01*
X128237897Y-81294142D01*
X128252039Y-81280000D01*
X128237897Y-81265858D01*
X128255857Y-81247897D01*
X128270000Y-81262039D01*
X128284142Y-81247897D01*
X128302102Y-81265857D01*
X128287961Y-81280000D01*
X128302102Y-81294142D01*
X128302102Y-81294142D01*
G37*
X128302102Y-81294142D02*
X128284142Y-81312103D01*
X128270000Y-81297961D01*
X128255857Y-81312102D01*
X128237897Y-81294142D01*
X128252039Y-81280000D01*
X128237897Y-81265858D01*
X128255857Y-81247897D01*
X128270000Y-81262039D01*
X128284142Y-81247897D01*
X128302102Y-81265857D01*
X128287961Y-81280000D01*
X128302102Y-81294142D01*
G36*
X128302102Y-83834142D02*
X128284142Y-83852103D01*
X128270000Y-83837961D01*
X128255857Y-83852102D01*
X128237897Y-83834142D01*
X128252039Y-83820000D01*
X128237897Y-83805858D01*
X128255857Y-83787897D01*
X128270000Y-83802039D01*
X128284142Y-83787897D01*
X128302102Y-83805857D01*
X128287961Y-83820000D01*
X128302102Y-83834142D01*
X128302102Y-83834142D01*
G37*
X128302102Y-83834142D02*
X128284142Y-83852103D01*
X128270000Y-83837961D01*
X128255857Y-83852102D01*
X128237897Y-83834142D01*
X128252039Y-83820000D01*
X128237897Y-83805858D01*
X128255857Y-83787897D01*
X128270000Y-83802039D01*
X128284142Y-83787897D01*
X128302102Y-83805857D01*
X128287961Y-83820000D01*
X128302102Y-83834142D01*
G36*
X128302102Y-86374142D02*
X128284142Y-86392103D01*
X128270000Y-86377961D01*
X128255857Y-86392102D01*
X128237897Y-86374142D01*
X128252039Y-86360000D01*
X128237897Y-86345858D01*
X128255857Y-86327897D01*
X128270000Y-86342039D01*
X128284142Y-86327897D01*
X128302102Y-86345857D01*
X128287961Y-86360000D01*
X128302102Y-86374142D01*
X128302102Y-86374142D01*
G37*
X128302102Y-86374142D02*
X128284142Y-86392103D01*
X128270000Y-86377961D01*
X128255857Y-86392102D01*
X128237897Y-86374142D01*
X128252039Y-86360000D01*
X128237897Y-86345858D01*
X128255857Y-86327897D01*
X128270000Y-86342039D01*
X128284142Y-86327897D01*
X128302102Y-86345857D01*
X128287961Y-86360000D01*
X128302102Y-86374142D01*
G36*
X128302102Y-88914142D02*
X128284142Y-88932103D01*
X128270000Y-88917961D01*
X128255857Y-88932102D01*
X128237897Y-88914142D01*
X128252039Y-88900000D01*
X128237897Y-88885858D01*
X128255857Y-88867897D01*
X128270000Y-88882039D01*
X128284142Y-88867897D01*
X128302102Y-88885857D01*
X128287961Y-88900000D01*
X128302102Y-88914142D01*
X128302102Y-88914142D01*
G37*
X128302102Y-88914142D02*
X128284142Y-88932103D01*
X128270000Y-88917961D01*
X128255857Y-88932102D01*
X128237897Y-88914142D01*
X128252039Y-88900000D01*
X128237897Y-88885858D01*
X128255857Y-88867897D01*
X128270000Y-88882039D01*
X128284142Y-88867897D01*
X128302102Y-88885857D01*
X128287961Y-88900000D01*
X128302102Y-88914142D01*
G36*
X128302102Y-96534142D02*
X128284142Y-96552103D01*
X128270000Y-96537961D01*
X128255857Y-96552102D01*
X128237897Y-96534142D01*
X128252039Y-96520000D01*
X128237897Y-96505858D01*
X128255857Y-96487897D01*
X128270000Y-96502039D01*
X128284142Y-96487897D01*
X128302102Y-96505857D01*
X128287961Y-96520000D01*
X128302102Y-96534142D01*
X128302102Y-96534142D01*
G37*
X128302102Y-96534142D02*
X128284142Y-96552103D01*
X128270000Y-96537961D01*
X128255857Y-96552102D01*
X128237897Y-96534142D01*
X128252039Y-96520000D01*
X128237897Y-96505858D01*
X128255857Y-96487897D01*
X128270000Y-96502039D01*
X128284142Y-96487897D01*
X128302102Y-96505857D01*
X128287961Y-96520000D01*
X128302102Y-96534142D01*
G36*
X128302102Y-99074142D02*
X128284142Y-99092103D01*
X128270000Y-99077961D01*
X128255857Y-99092102D01*
X128237897Y-99074142D01*
X128252039Y-99060000D01*
X128237897Y-99045858D01*
X128255857Y-99027897D01*
X128270000Y-99042039D01*
X128284142Y-99027897D01*
X128302102Y-99045857D01*
X128287961Y-99060000D01*
X128302102Y-99074142D01*
X128302102Y-99074142D01*
G37*
X128302102Y-99074142D02*
X128284142Y-99092103D01*
X128270000Y-99077961D01*
X128255857Y-99092102D01*
X128237897Y-99074142D01*
X128252039Y-99060000D01*
X128237897Y-99045858D01*
X128255857Y-99027897D01*
X128270000Y-99042039D01*
X128284142Y-99027897D01*
X128302102Y-99045857D01*
X128287961Y-99060000D01*
X128302102Y-99074142D01*
G36*
X128302102Y-101614142D02*
X128284142Y-101632103D01*
X128270000Y-101617961D01*
X128255857Y-101632102D01*
X128237897Y-101614142D01*
X128252039Y-101600000D01*
X128237897Y-101585858D01*
X128255857Y-101567897D01*
X128270000Y-101582039D01*
X128284142Y-101567897D01*
X128302102Y-101585857D01*
X128287961Y-101600000D01*
X128302102Y-101614142D01*
X128302102Y-101614142D01*
G37*
X128302102Y-101614142D02*
X128284142Y-101632103D01*
X128270000Y-101617961D01*
X128255857Y-101632102D01*
X128237897Y-101614142D01*
X128252039Y-101600000D01*
X128237897Y-101585858D01*
X128255857Y-101567897D01*
X128270000Y-101582039D01*
X128284142Y-101567897D01*
X128302102Y-101585857D01*
X128287961Y-101600000D01*
X128302102Y-101614142D01*
G36*
X128302102Y-104154142D02*
X128284142Y-104172102D01*
X128270000Y-104157961D01*
X128255857Y-104172102D01*
X128237897Y-104154142D01*
X128252039Y-104140000D01*
X128237897Y-104125858D01*
X128255857Y-104107897D01*
X128270000Y-104122039D01*
X128284142Y-104107897D01*
X128302102Y-104125857D01*
X128287961Y-104140000D01*
X128302102Y-104154142D01*
X128302102Y-104154142D01*
G37*
X128302102Y-104154142D02*
X128284142Y-104172102D01*
X128270000Y-104157961D01*
X128255857Y-104172102D01*
X128237897Y-104154142D01*
X128252039Y-104140000D01*
X128237897Y-104125858D01*
X128255857Y-104107897D01*
X128270000Y-104122039D01*
X128284142Y-104107897D01*
X128302102Y-104125857D01*
X128287961Y-104140000D01*
X128302102Y-104154142D01*
G36*
X128302102Y-106694142D02*
X128284142Y-106712103D01*
X128270000Y-106697961D01*
X128255857Y-106712102D01*
X128237897Y-106694142D01*
X128252039Y-106680000D01*
X128237897Y-106665858D01*
X128255857Y-106647897D01*
X128270000Y-106662039D01*
X128284141Y-106647896D01*
X128302102Y-106665857D01*
X128287961Y-106680000D01*
X128302102Y-106694142D01*
X128302102Y-106694142D01*
G37*
X128302102Y-106694142D02*
X128284142Y-106712103D01*
X128270000Y-106697961D01*
X128255857Y-106712102D01*
X128237897Y-106694142D01*
X128252039Y-106680000D01*
X128237897Y-106665858D01*
X128255857Y-106647897D01*
X128270000Y-106662039D01*
X128284141Y-106647896D01*
X128302102Y-106665857D01*
X128287961Y-106680000D01*
X128302102Y-106694142D01*
G36*
X128302102Y-109234142D02*
X128284142Y-109252103D01*
X128270000Y-109237961D01*
X128255857Y-109252102D01*
X128237897Y-109234142D01*
X128252039Y-109220000D01*
X128237897Y-109205858D01*
X128255857Y-109187897D01*
X128270000Y-109202039D01*
X128284142Y-109187897D01*
X128302102Y-109205857D01*
X128287961Y-109220000D01*
X128302102Y-109234142D01*
X128302102Y-109234142D01*
G37*
X128302102Y-109234142D02*
X128284142Y-109252103D01*
X128270000Y-109237961D01*
X128255857Y-109252102D01*
X128237897Y-109234142D01*
X128252039Y-109220000D01*
X128237897Y-109205858D01*
X128255857Y-109187897D01*
X128270000Y-109202039D01*
X128284142Y-109187897D01*
X128302102Y-109205857D01*
X128287961Y-109220000D01*
X128302102Y-109234142D01*
G36*
X128302102Y-111774142D02*
X128284142Y-111792103D01*
X128270000Y-111777961D01*
X128255857Y-111792102D01*
X128237897Y-111774142D01*
X128252039Y-111760000D01*
X128237897Y-111745858D01*
X128255857Y-111727897D01*
X128270000Y-111742039D01*
X128284142Y-111727897D01*
X128302102Y-111745857D01*
X128287961Y-111760000D01*
X128302102Y-111774142D01*
X128302102Y-111774142D01*
G37*
X128302102Y-111774142D02*
X128284142Y-111792103D01*
X128270000Y-111777961D01*
X128255857Y-111792102D01*
X128237897Y-111774142D01*
X128252039Y-111760000D01*
X128237897Y-111745858D01*
X128255857Y-111727897D01*
X128270000Y-111742039D01*
X128284142Y-111727897D01*
X128302102Y-111745857D01*
X128287961Y-111760000D01*
X128302102Y-111774142D01*
G36*
X128302102Y-114314142D02*
X128284142Y-114332103D01*
X128270000Y-114317961D01*
X128255857Y-114332102D01*
X128237897Y-114314142D01*
X128252039Y-114300000D01*
X128237897Y-114285858D01*
X128255857Y-114267897D01*
X128270000Y-114282039D01*
X128284142Y-114267897D01*
X128302102Y-114285857D01*
X128287961Y-114300000D01*
X128302102Y-114314142D01*
X128302102Y-114314142D01*
G37*
X128302102Y-114314142D02*
X128284142Y-114332103D01*
X128270000Y-114317961D01*
X128255857Y-114332102D01*
X128237897Y-114314142D01*
X128252039Y-114300000D01*
X128237897Y-114285858D01*
X128255857Y-114267897D01*
X128270000Y-114282039D01*
X128284142Y-114267897D01*
X128302102Y-114285857D01*
X128287961Y-114300000D01*
X128302102Y-114314142D01*
G36*
X131622800Y-93155622D02*
X129985621Y-94792800D01*
X129326489Y-94792800D01*
X129377377Y-94768858D01*
X129594966Y-94285035D01*
X129610841Y-93754773D01*
X129422585Y-93258800D01*
X129377377Y-93191142D01*
X129172983Y-93094977D01*
X129155023Y-93112937D01*
X129155023Y-93077017D01*
X129058858Y-92872623D01*
X128690210Y-92706831D01*
X128991200Y-92592585D01*
X129058858Y-92547377D01*
X129155023Y-92342983D01*
X128270000Y-91457961D01*
X127384977Y-92342983D01*
X127481142Y-92547377D01*
X127849789Y-92713168D01*
X127548800Y-92827415D01*
X127481142Y-92872623D01*
X127384977Y-93077017D01*
X128270000Y-93962039D01*
X129155023Y-93077017D01*
X129155023Y-93112937D01*
X128287961Y-93980000D01*
X128302102Y-93994142D01*
X128284142Y-94012103D01*
X128270000Y-93997961D01*
X128255857Y-94012102D01*
X128237897Y-93994142D01*
X128252039Y-93980000D01*
X127367017Y-93094977D01*
X127162623Y-93191142D01*
X126998077Y-93557019D01*
X126861146Y-93225620D01*
X126486353Y-92850173D01*
X126148553Y-92709906D01*
X126484380Y-92571146D01*
X126859827Y-92196353D01*
X127001371Y-91855475D01*
X127117415Y-92161200D01*
X127162623Y-92228858D01*
X127367017Y-92325023D01*
X128252039Y-91440000D01*
X128237897Y-91425858D01*
X128255857Y-91407897D01*
X128270000Y-91422039D01*
X128284142Y-91407897D01*
X128302102Y-91425857D01*
X128287961Y-91440000D01*
X129172983Y-92325023D01*
X129377377Y-92228858D01*
X129594966Y-91745035D01*
X129610841Y-91214773D01*
X129422585Y-90718800D01*
X129377377Y-90651142D01*
X129326489Y-90627200D01*
X130810000Y-90627200D01*
X130972606Y-90594855D01*
X130910360Y-90656994D01*
X130699751Y-91164199D01*
X130699271Y-91713392D01*
X130908995Y-92220963D01*
X131296994Y-92609640D01*
X131622800Y-92744925D01*
X131622800Y-93155622D01*
X131622800Y-93155622D01*
G37*
X131622800Y-93155622D02*
X129985621Y-94792800D01*
X129326489Y-94792800D01*
X129377377Y-94768858D01*
X129594966Y-94285035D01*
X129610841Y-93754773D01*
X129422585Y-93258800D01*
X129377377Y-93191142D01*
X129172983Y-93094977D01*
X129155023Y-93112937D01*
X129155023Y-93077017D01*
X129058858Y-92872623D01*
X128690210Y-92706831D01*
X128991200Y-92592585D01*
X129058858Y-92547377D01*
X129155023Y-92342983D01*
X128270000Y-91457961D01*
X127384977Y-92342983D01*
X127481142Y-92547377D01*
X127849789Y-92713168D01*
X127548800Y-92827415D01*
X127481142Y-92872623D01*
X127384977Y-93077017D01*
X128270000Y-93962039D01*
X129155023Y-93077017D01*
X129155023Y-93112937D01*
X128287961Y-93980000D01*
X128302102Y-93994142D01*
X128284142Y-94012103D01*
X128270000Y-93997961D01*
X128255857Y-94012102D01*
X128237897Y-93994142D01*
X128252039Y-93980000D01*
X127367017Y-93094977D01*
X127162623Y-93191142D01*
X126998077Y-93557019D01*
X126861146Y-93225620D01*
X126486353Y-92850173D01*
X126148553Y-92709906D01*
X126484380Y-92571146D01*
X126859827Y-92196353D01*
X127001371Y-91855475D01*
X127117415Y-92161200D01*
X127162623Y-92228858D01*
X127367017Y-92325023D01*
X128252039Y-91440000D01*
X128237897Y-91425858D01*
X128255857Y-91407897D01*
X128270000Y-91422039D01*
X128284142Y-91407897D01*
X128302102Y-91425857D01*
X128287961Y-91440000D01*
X129172983Y-92325023D01*
X129377377Y-92228858D01*
X129594966Y-91745035D01*
X129610841Y-91214773D01*
X129422585Y-90718800D01*
X129377377Y-90651142D01*
X129326489Y-90627200D01*
X130810000Y-90627200D01*
X130972606Y-90594855D01*
X130910360Y-90656994D01*
X130699751Y-91164199D01*
X130699271Y-91713392D01*
X130908995Y-92220963D01*
X131296994Y-92609640D01*
X131622800Y-92744925D01*
X131622800Y-93155622D01*
G36*
X142921727Y-100388305D02*
X142515801Y-100219751D01*
X141966608Y-100219271D01*
X141459037Y-100428995D01*
X141070360Y-100816994D01*
X140935074Y-101142800D01*
X139954000Y-101142800D01*
X139954000Y-100076000D01*
X134366000Y-100076000D01*
X134366000Y-101142800D01*
X133384781Y-101142800D01*
X133251005Y-100819037D01*
X132863006Y-100430360D01*
X132355801Y-100219751D01*
X131806608Y-100219271D01*
X131480566Y-100353988D01*
X131133289Y-100006711D01*
X130984963Y-99907602D01*
X130810000Y-99872800D01*
X129326489Y-99872800D01*
X129377377Y-99848858D01*
X129594966Y-99365035D01*
X129610841Y-98834773D01*
X129422585Y-98338800D01*
X129377377Y-98271142D01*
X129326489Y-98247200D01*
X130810000Y-98247200D01*
X130984963Y-98212398D01*
X131133289Y-98113289D01*
X131480669Y-97765908D01*
X131804199Y-97900249D01*
X132353392Y-97900729D01*
X132860963Y-97691005D01*
X133249640Y-97303006D01*
X133384925Y-96977200D01*
X134366000Y-96977200D01*
X134366000Y-98044000D01*
X139954000Y-98044000D01*
X139954000Y-96977200D01*
X140935218Y-96977200D01*
X141068995Y-97300963D01*
X141456994Y-97689640D01*
X141782800Y-97824925D01*
X141782800Y-99060000D01*
X141817602Y-99234963D01*
X141916711Y-99383289D01*
X142921727Y-100388305D01*
X142921727Y-100388305D01*
G37*
X142921727Y-100388305D02*
X142515801Y-100219751D01*
X141966608Y-100219271D01*
X141459037Y-100428995D01*
X141070360Y-100816994D01*
X140935074Y-101142800D01*
X139954000Y-101142800D01*
X139954000Y-100076000D01*
X134366000Y-100076000D01*
X134366000Y-101142800D01*
X133384781Y-101142800D01*
X133251005Y-100819037D01*
X132863006Y-100430360D01*
X132355801Y-100219751D01*
X131806608Y-100219271D01*
X131480566Y-100353988D01*
X131133289Y-100006711D01*
X130984963Y-99907602D01*
X130810000Y-99872800D01*
X129326489Y-99872800D01*
X129377377Y-99848858D01*
X129594966Y-99365035D01*
X129610841Y-98834773D01*
X129422585Y-98338800D01*
X129377377Y-98271142D01*
X129326489Y-98247200D01*
X130810000Y-98247200D01*
X130984963Y-98212398D01*
X131133289Y-98113289D01*
X131480669Y-97765908D01*
X131804199Y-97900249D01*
X132353392Y-97900729D01*
X132860963Y-97691005D01*
X133249640Y-97303006D01*
X133384925Y-96977200D01*
X134366000Y-96977200D01*
X134366000Y-98044000D01*
X139954000Y-98044000D01*
X139954000Y-96977200D01*
X140935218Y-96977200D01*
X141068995Y-97300963D01*
X141456994Y-97689640D01*
X141782800Y-97824925D01*
X141782800Y-99060000D01*
X141817602Y-99234963D01*
X141916711Y-99383289D01*
X142921727Y-100388305D01*
G36*
X143775081Y-99948503D02*
X142697200Y-98870622D01*
X142697200Y-97824781D01*
X143020963Y-97691005D01*
X143409640Y-97303006D01*
X143620249Y-96795801D01*
X143620729Y-96246608D01*
X143411005Y-95739037D01*
X143023006Y-95350360D01*
X142515801Y-95139751D01*
X141966608Y-95139271D01*
X141459037Y-95348995D01*
X141070360Y-95736994D01*
X140935074Y-96062800D01*
X139954000Y-96062800D01*
X139954000Y-94996000D01*
X134366000Y-94996000D01*
X134366000Y-96062800D01*
X133384781Y-96062800D01*
X133251005Y-95739037D01*
X132863006Y-95350360D01*
X132355801Y-95139751D01*
X131806608Y-95139271D01*
X131299037Y-95348995D01*
X130910360Y-95736994D01*
X130699751Y-96244199D01*
X130699271Y-96793392D01*
X130833988Y-97119433D01*
X130620622Y-97332800D01*
X129326489Y-97332800D01*
X129377377Y-97308858D01*
X129594966Y-96825035D01*
X129610841Y-96294773D01*
X129422585Y-95798800D01*
X129377377Y-95731142D01*
X129326489Y-95707200D01*
X130175000Y-95707200D01*
X130349963Y-95672398D01*
X130498289Y-95573289D01*
X132403289Y-93668289D01*
X132502398Y-93519963D01*
X132537200Y-93345000D01*
X132537200Y-92744781D01*
X132860963Y-92611005D01*
X133249640Y-92223006D01*
X133384925Y-91897200D01*
X134366000Y-91897200D01*
X134366000Y-92964000D01*
X139954000Y-92964000D01*
X139954000Y-91897200D01*
X140935218Y-91897200D01*
X141068995Y-92220963D01*
X141456994Y-92609640D01*
X141964199Y-92820249D01*
X142513392Y-92820729D01*
X142839433Y-92686011D01*
X143687800Y-93534378D01*
X143687800Y-99695000D01*
X143722602Y-99869963D01*
X143775081Y-99948503D01*
X143775081Y-99948503D01*
G37*
X143775081Y-99948503D02*
X142697200Y-98870622D01*
X142697200Y-97824781D01*
X143020963Y-97691005D01*
X143409640Y-97303006D01*
X143620249Y-96795801D01*
X143620729Y-96246608D01*
X143411005Y-95739037D01*
X143023006Y-95350360D01*
X142515801Y-95139751D01*
X141966608Y-95139271D01*
X141459037Y-95348995D01*
X141070360Y-95736994D01*
X140935074Y-96062800D01*
X139954000Y-96062800D01*
X139954000Y-94996000D01*
X134366000Y-94996000D01*
X134366000Y-96062800D01*
X133384781Y-96062800D01*
X133251005Y-95739037D01*
X132863006Y-95350360D01*
X132355801Y-95139751D01*
X131806608Y-95139271D01*
X131299037Y-95348995D01*
X130910360Y-95736994D01*
X130699751Y-96244199D01*
X130699271Y-96793392D01*
X130833988Y-97119433D01*
X130620622Y-97332800D01*
X129326489Y-97332800D01*
X129377377Y-97308858D01*
X129594966Y-96825035D01*
X129610841Y-96294773D01*
X129422585Y-95798800D01*
X129377377Y-95731142D01*
X129326489Y-95707200D01*
X130175000Y-95707200D01*
X130349963Y-95672398D01*
X130498289Y-95573289D01*
X132403289Y-93668289D01*
X132502398Y-93519963D01*
X132537200Y-93345000D01*
X132537200Y-92744781D01*
X132860963Y-92611005D01*
X133249640Y-92223006D01*
X133384925Y-91897200D01*
X134366000Y-91897200D01*
X134366000Y-92964000D01*
X139954000Y-92964000D01*
X139954000Y-91897200D01*
X140935218Y-91897200D01*
X141068995Y-92220963D01*
X141456994Y-92609640D01*
X141964199Y-92820249D01*
X142513392Y-92820729D01*
X142839433Y-92686011D01*
X143687800Y-93534378D01*
X143687800Y-99695000D01*
X143722602Y-99869963D01*
X143775081Y-99948503D01*
G36*
X144993510Y-107492800D02*
X143699378Y-107492800D01*
X143485908Y-107279330D01*
X143620249Y-106955801D01*
X143620729Y-106406608D01*
X143411005Y-105899037D01*
X143023006Y-105510360D01*
X142515801Y-105299751D01*
X141966608Y-105299271D01*
X141459037Y-105508995D01*
X141070360Y-105896994D01*
X140935074Y-106222800D01*
X139954000Y-106222800D01*
X139954000Y-105156000D01*
X134366000Y-105156000D01*
X134366000Y-106222800D01*
X133384781Y-106222800D01*
X133251005Y-105899037D01*
X132863006Y-105510360D01*
X132537200Y-105375074D01*
X132537200Y-105266508D01*
X132502398Y-105091545D01*
X132403289Y-104943219D01*
X130006781Y-102546711D01*
X129858455Y-102447602D01*
X129683492Y-102412800D01*
X129326489Y-102412800D01*
X129377377Y-102388858D01*
X129594966Y-101905035D01*
X129610841Y-101374773D01*
X129422585Y-100878800D01*
X129377377Y-100811142D01*
X129326489Y-100787200D01*
X130620622Y-100787200D01*
X130834091Y-101000669D01*
X130699751Y-101324199D01*
X130699271Y-101873392D01*
X130908995Y-102380963D01*
X131296994Y-102769640D01*
X131804199Y-102980249D01*
X132353392Y-102980729D01*
X132860963Y-102771005D01*
X133249640Y-102383006D01*
X133384925Y-102057200D01*
X134366000Y-102057200D01*
X134366000Y-103124000D01*
X139954000Y-103124000D01*
X139954000Y-102057200D01*
X140935218Y-102057200D01*
X141068995Y-102380963D01*
X141456994Y-102769640D01*
X141782800Y-102904925D01*
X141782800Y-103013492D01*
X141817602Y-103188455D01*
X141916711Y-103336781D01*
X144313219Y-105733289D01*
X144461545Y-105832398D01*
X144636508Y-105867200D01*
X144993510Y-105867200D01*
X144942623Y-105891142D01*
X144725034Y-106374965D01*
X144709159Y-106905227D01*
X144897415Y-107401200D01*
X144942623Y-107468858D01*
X144993510Y-107492800D01*
X144993510Y-107492800D01*
G37*
X144993510Y-107492800D02*
X143699378Y-107492800D01*
X143485908Y-107279330D01*
X143620249Y-106955801D01*
X143620729Y-106406608D01*
X143411005Y-105899037D01*
X143023006Y-105510360D01*
X142515801Y-105299751D01*
X141966608Y-105299271D01*
X141459037Y-105508995D01*
X141070360Y-105896994D01*
X140935074Y-106222800D01*
X139954000Y-106222800D01*
X139954000Y-105156000D01*
X134366000Y-105156000D01*
X134366000Y-106222800D01*
X133384781Y-106222800D01*
X133251005Y-105899037D01*
X132863006Y-105510360D01*
X132537200Y-105375074D01*
X132537200Y-105266508D01*
X132502398Y-105091545D01*
X132403289Y-104943219D01*
X130006781Y-102546711D01*
X129858455Y-102447602D01*
X129683492Y-102412800D01*
X129326489Y-102412800D01*
X129377377Y-102388858D01*
X129594966Y-101905035D01*
X129610841Y-101374773D01*
X129422585Y-100878800D01*
X129377377Y-100811142D01*
X129326489Y-100787200D01*
X130620622Y-100787200D01*
X130834091Y-101000669D01*
X130699751Y-101324199D01*
X130699271Y-101873392D01*
X130908995Y-102380963D01*
X131296994Y-102769640D01*
X131804199Y-102980249D01*
X132353392Y-102980729D01*
X132860963Y-102771005D01*
X133249640Y-102383006D01*
X133384925Y-102057200D01*
X134366000Y-102057200D01*
X134366000Y-103124000D01*
X139954000Y-103124000D01*
X139954000Y-102057200D01*
X140935218Y-102057200D01*
X141068995Y-102380963D01*
X141456994Y-102769640D01*
X141782800Y-102904925D01*
X141782800Y-103013492D01*
X141817602Y-103188455D01*
X141916711Y-103336781D01*
X144313219Y-105733289D01*
X144461545Y-105832398D01*
X144636508Y-105867200D01*
X144993510Y-105867200D01*
X144942623Y-105891142D01*
X144725034Y-106374965D01*
X144709159Y-106905227D01*
X144897415Y-107401200D01*
X144942623Y-107468858D01*
X144993510Y-107492800D01*
G36*
X144993510Y-110032800D02*
X134605287Y-110032800D01*
X134417202Y-109844385D01*
X134137236Y-109728133D01*
X133834094Y-109727868D01*
X133553926Y-109843632D01*
X133339385Y-110057798D01*
X133302081Y-110147635D01*
X133171689Y-110121699D01*
X129189661Y-110121699D01*
X129172985Y-110105022D01*
X129377377Y-110008858D01*
X129594966Y-109525035D01*
X129610841Y-108994773D01*
X129422585Y-108498800D01*
X129377377Y-108431142D01*
X129326489Y-108407200D01*
X130620622Y-108407200D01*
X131756711Y-109543289D01*
X131905037Y-109642398D01*
X132080000Y-109677200D01*
X139079712Y-109677200D01*
X139267798Y-109865615D01*
X139547764Y-109981867D01*
X139850906Y-109982132D01*
X140131074Y-109866368D01*
X140345615Y-109652202D01*
X140461867Y-109372236D01*
X140462132Y-109069094D01*
X140346368Y-108788926D01*
X140132202Y-108574385D01*
X139852236Y-108458133D01*
X139549094Y-108457868D01*
X139268926Y-108573632D01*
X139079426Y-108762800D01*
X134101251Y-108762800D01*
X134111867Y-108737236D01*
X134112132Y-108434094D01*
X133996368Y-108153926D01*
X133782202Y-107939385D01*
X133502236Y-107823133D01*
X133199094Y-107822868D01*
X132918926Y-107938632D01*
X132729426Y-108127800D01*
X132356802Y-108127800D01*
X132289675Y-108060673D01*
X132353392Y-108060729D01*
X132860963Y-107851005D01*
X133249640Y-107463006D01*
X133384925Y-107137200D01*
X134366000Y-107137200D01*
X134366000Y-108204000D01*
X139954000Y-108204000D01*
X139954000Y-107137200D01*
X140935218Y-107137200D01*
X141068995Y-107460963D01*
X141456994Y-107849640D01*
X141964199Y-108060249D01*
X142513392Y-108060729D01*
X142839433Y-107926011D01*
X143186711Y-108273289D01*
X143335037Y-108372398D01*
X143510000Y-108407200D01*
X144993510Y-108407200D01*
X144942623Y-108431142D01*
X144725034Y-108914965D01*
X144709159Y-109445227D01*
X144897415Y-109941200D01*
X144942623Y-110008858D01*
X144993510Y-110032800D01*
X144993510Y-110032800D01*
G37*
X144993510Y-110032800D02*
X134605287Y-110032800D01*
X134417202Y-109844385D01*
X134137236Y-109728133D01*
X133834094Y-109727868D01*
X133553926Y-109843632D01*
X133339385Y-110057798D01*
X133302081Y-110147635D01*
X133171689Y-110121699D01*
X129189661Y-110121699D01*
X129172985Y-110105022D01*
X129377377Y-110008858D01*
X129594966Y-109525035D01*
X129610841Y-108994773D01*
X129422585Y-108498800D01*
X129377377Y-108431142D01*
X129326489Y-108407200D01*
X130620622Y-108407200D01*
X131756711Y-109543289D01*
X131905037Y-109642398D01*
X132080000Y-109677200D01*
X139079712Y-109677200D01*
X139267798Y-109865615D01*
X139547764Y-109981867D01*
X139850906Y-109982132D01*
X140131074Y-109866368D01*
X140345615Y-109652202D01*
X140461867Y-109372236D01*
X140462132Y-109069094D01*
X140346368Y-108788926D01*
X140132202Y-108574385D01*
X139852236Y-108458133D01*
X139549094Y-108457868D01*
X139268926Y-108573632D01*
X139079426Y-108762800D01*
X134101251Y-108762800D01*
X134111867Y-108737236D01*
X134112132Y-108434094D01*
X133996368Y-108153926D01*
X133782202Y-107939385D01*
X133502236Y-107823133D01*
X133199094Y-107822868D01*
X132918926Y-107938632D01*
X132729426Y-108127800D01*
X132356802Y-108127800D01*
X132289675Y-108060673D01*
X132353392Y-108060729D01*
X132860963Y-107851005D01*
X133249640Y-107463006D01*
X133384925Y-107137200D01*
X134366000Y-107137200D01*
X134366000Y-108204000D01*
X139954000Y-108204000D01*
X139954000Y-107137200D01*
X140935218Y-107137200D01*
X141068995Y-107460963D01*
X141456994Y-107849640D01*
X141964199Y-108060249D01*
X142513392Y-108060729D01*
X142839433Y-107926011D01*
X143186711Y-108273289D01*
X143335037Y-108372398D01*
X143510000Y-108407200D01*
X144993510Y-108407200D01*
X144942623Y-108431142D01*
X144725034Y-108914965D01*
X144709159Y-109445227D01*
X144897415Y-109941200D01*
X144942623Y-110008858D01*
X144993510Y-110032800D01*
G36*
X144993510Y-112572800D02*
X135240287Y-112572800D01*
X135052202Y-112384385D01*
X134772236Y-112268133D01*
X134469094Y-112267868D01*
X134188926Y-112383632D01*
X133974385Y-112597798D01*
X133937081Y-112687635D01*
X133806689Y-112661699D01*
X129189662Y-112661699D01*
X129172985Y-112645022D01*
X129377377Y-112548858D01*
X129594966Y-112065035D01*
X129610841Y-111534773D01*
X129422585Y-111038800D01*
X129420780Y-111036099D01*
X132982311Y-111036099D01*
X134029501Y-112083289D01*
X134177827Y-112182398D01*
X134352790Y-112217200D01*
X138444712Y-112217200D01*
X138632798Y-112405615D01*
X138912764Y-112521867D01*
X139215906Y-112522132D01*
X139496074Y-112406368D01*
X139710615Y-112192202D01*
X139826867Y-111912236D01*
X139827132Y-111609094D01*
X139711368Y-111328926D01*
X139497202Y-111114385D01*
X139217236Y-110998133D01*
X138914094Y-110997868D01*
X138633926Y-111113632D01*
X138444426Y-111302800D01*
X134542167Y-111302800D01*
X134387530Y-111148162D01*
X134416074Y-111136368D01*
X134605573Y-110947200D01*
X144993510Y-110947200D01*
X144942623Y-110971142D01*
X144725034Y-111454965D01*
X144709159Y-111985227D01*
X144897415Y-112481200D01*
X144942623Y-112548858D01*
X144993510Y-112572800D01*
X144993510Y-112572800D01*
G37*
X144993510Y-112572800D02*
X135240287Y-112572800D01*
X135052202Y-112384385D01*
X134772236Y-112268133D01*
X134469094Y-112267868D01*
X134188926Y-112383632D01*
X133974385Y-112597798D01*
X133937081Y-112687635D01*
X133806689Y-112661699D01*
X129189662Y-112661699D01*
X129172985Y-112645022D01*
X129377377Y-112548858D01*
X129594966Y-112065035D01*
X129610841Y-111534773D01*
X129422585Y-111038800D01*
X129420780Y-111036099D01*
X132982311Y-111036099D01*
X134029501Y-112083289D01*
X134177827Y-112182398D01*
X134352790Y-112217200D01*
X138444712Y-112217200D01*
X138632798Y-112405615D01*
X138912764Y-112521867D01*
X139215906Y-112522132D01*
X139496074Y-112406368D01*
X139710615Y-112192202D01*
X139826867Y-111912236D01*
X139827132Y-111609094D01*
X139711368Y-111328926D01*
X139497202Y-111114385D01*
X139217236Y-110998133D01*
X138914094Y-110997868D01*
X138633926Y-111113632D01*
X138444426Y-111302800D01*
X134542167Y-111302800D01*
X134387530Y-111148162D01*
X134416074Y-111136368D01*
X134605573Y-110947200D01*
X144993510Y-110947200D01*
X144942623Y-110971142D01*
X144725034Y-111454965D01*
X144709159Y-111985227D01*
X144897415Y-112481200D01*
X144942623Y-112548858D01*
X144993510Y-112572800D01*
G36*
X144993510Y-115112800D02*
X135875287Y-115112800D01*
X135687202Y-114924385D01*
X135407236Y-114808133D01*
X135104094Y-114807868D01*
X134823926Y-114923632D01*
X134619831Y-115127369D01*
X134417202Y-114924385D01*
X134137236Y-114808133D01*
X133834094Y-114807868D01*
X133553926Y-114923632D01*
X133364426Y-115112800D01*
X129326489Y-115112800D01*
X129377377Y-115088858D01*
X129594966Y-114605035D01*
X129610841Y-114074773D01*
X129422585Y-113578800D01*
X129420780Y-113576099D01*
X133617310Y-113576099D01*
X134664501Y-114623289D01*
X134812827Y-114722398D01*
X134987790Y-114757200D01*
X139079712Y-114757200D01*
X139267798Y-114945615D01*
X139547764Y-115061867D01*
X139850906Y-115062132D01*
X140131074Y-114946368D01*
X140345615Y-114732202D01*
X140461867Y-114452236D01*
X140462132Y-114149094D01*
X140346368Y-113868926D01*
X140132202Y-113654385D01*
X139852236Y-113538133D01*
X139549094Y-113537868D01*
X139268926Y-113653632D01*
X139079426Y-113842800D01*
X135177168Y-113842800D01*
X135022530Y-113688162D01*
X135051074Y-113676368D01*
X135240573Y-113487200D01*
X144993510Y-113487200D01*
X144942623Y-113511142D01*
X144725034Y-113994965D01*
X144709159Y-114525227D01*
X144897415Y-115021200D01*
X144942623Y-115088858D01*
X144993510Y-115112800D01*
X144993510Y-115112800D01*
G37*
X144993510Y-115112800D02*
X135875287Y-115112800D01*
X135687202Y-114924385D01*
X135407236Y-114808133D01*
X135104094Y-114807868D01*
X134823926Y-114923632D01*
X134619831Y-115127369D01*
X134417202Y-114924385D01*
X134137236Y-114808133D01*
X133834094Y-114807868D01*
X133553926Y-114923632D01*
X133364426Y-115112800D01*
X129326489Y-115112800D01*
X129377377Y-115088858D01*
X129594966Y-114605035D01*
X129610841Y-114074773D01*
X129422585Y-113578800D01*
X129420780Y-113576099D01*
X133617310Y-113576099D01*
X134664501Y-114623289D01*
X134812827Y-114722398D01*
X134987790Y-114757200D01*
X139079712Y-114757200D01*
X139267798Y-114945615D01*
X139547764Y-115061867D01*
X139850906Y-115062132D01*
X140131074Y-114946368D01*
X140345615Y-114732202D01*
X140461867Y-114452236D01*
X140462132Y-114149094D01*
X140346368Y-113868926D01*
X140132202Y-113654385D01*
X139852236Y-113538133D01*
X139549094Y-113537868D01*
X139268926Y-113653632D01*
X139079426Y-113842800D01*
X135177168Y-113842800D01*
X135022530Y-113688162D01*
X135051074Y-113676368D01*
X135240573Y-113487200D01*
X144993510Y-113487200D01*
X144942623Y-113511142D01*
X144725034Y-113994965D01*
X144709159Y-114525227D01*
X144897415Y-115021200D01*
X144942623Y-115088858D01*
X144993510Y-115112800D01*
G36*
X144993510Y-127812800D02*
X137984378Y-127812800D01*
X134746899Y-124575321D01*
X134747132Y-124309094D01*
X134631368Y-124028926D01*
X134417202Y-123814385D01*
X134137236Y-123698133D01*
X133919741Y-123697942D01*
X133995615Y-123622202D01*
X134111867Y-123342236D01*
X134112132Y-123039094D01*
X133996368Y-122758926D01*
X133782202Y-122544385D01*
X133502236Y-122428133D01*
X133199094Y-122427868D01*
X132918926Y-122543632D01*
X132704385Y-122757798D01*
X132588133Y-123037764D01*
X132587868Y-123340906D01*
X132703632Y-123621074D01*
X132892800Y-123810573D01*
X132892800Y-124727210D01*
X132927602Y-124902173D01*
X133026711Y-125050499D01*
X135789163Y-127812951D01*
X135788400Y-127812800D01*
X129326489Y-127812800D01*
X129377377Y-127788858D01*
X129594966Y-127305035D01*
X129610841Y-126774773D01*
X129610841Y-124234773D01*
X129610841Y-121694773D01*
X129610841Y-119154773D01*
X129422585Y-118658800D01*
X129377377Y-118591142D01*
X129172983Y-118494977D01*
X129155023Y-118512937D01*
X129155023Y-118477017D01*
X129058858Y-118272623D01*
X128690210Y-118106831D01*
X128991200Y-117992585D01*
X129058858Y-117947377D01*
X129155023Y-117742983D01*
X128270000Y-116857961D01*
X127384977Y-117742983D01*
X127481142Y-117947377D01*
X127849789Y-118113168D01*
X127548800Y-118227415D01*
X127481142Y-118272623D01*
X127384977Y-118477017D01*
X128270000Y-119362039D01*
X129155023Y-118477017D01*
X129155023Y-118512937D01*
X128287961Y-119380000D01*
X129172983Y-120265023D01*
X129377377Y-120168858D01*
X129594966Y-119685035D01*
X129610841Y-119154773D01*
X129610841Y-121694773D01*
X129422585Y-121198800D01*
X129377377Y-121131142D01*
X129172983Y-121034977D01*
X129155023Y-121052937D01*
X129155023Y-121017017D01*
X129058858Y-120812623D01*
X128690210Y-120646831D01*
X128991200Y-120532585D01*
X129058858Y-120487377D01*
X129155023Y-120282983D01*
X128270000Y-119397961D01*
X127384977Y-120282983D01*
X127481142Y-120487377D01*
X127849789Y-120653168D01*
X127548800Y-120767415D01*
X127481142Y-120812623D01*
X127384977Y-121017017D01*
X128270000Y-121902039D01*
X129155023Y-121017017D01*
X129155023Y-121052937D01*
X128287961Y-121920000D01*
X129172983Y-122805023D01*
X129377377Y-122708858D01*
X129594966Y-122225035D01*
X129610841Y-121694773D01*
X129610841Y-124234773D01*
X129422585Y-123738800D01*
X129377377Y-123671142D01*
X129172983Y-123574977D01*
X129155023Y-123592937D01*
X129155023Y-123557017D01*
X129058858Y-123352623D01*
X128690210Y-123186831D01*
X128991200Y-123072585D01*
X129058858Y-123027377D01*
X129155023Y-122822983D01*
X128270000Y-121937961D01*
X127384977Y-122822983D01*
X127481142Y-123027377D01*
X127849789Y-123193168D01*
X127548800Y-123307415D01*
X127481142Y-123352623D01*
X127384977Y-123557017D01*
X128270000Y-124442039D01*
X129155023Y-123557017D01*
X129155023Y-123592937D01*
X128287961Y-124460000D01*
X129172983Y-125345023D01*
X129377377Y-125248858D01*
X129594966Y-124765035D01*
X129610841Y-124234773D01*
X129610841Y-126774773D01*
X129422585Y-126278800D01*
X129377377Y-126211142D01*
X129172983Y-126114977D01*
X129155023Y-126132937D01*
X129155023Y-126097017D01*
X129058858Y-125892623D01*
X128690210Y-125726831D01*
X128991200Y-125612585D01*
X129058858Y-125567377D01*
X129155023Y-125362983D01*
X128270000Y-124477961D01*
X127384977Y-125362983D01*
X127481142Y-125567377D01*
X127849789Y-125733168D01*
X127548800Y-125847415D01*
X127481142Y-125892623D01*
X127384977Y-126097017D01*
X128270000Y-126982039D01*
X129155023Y-126097017D01*
X129155023Y-126132937D01*
X128287961Y-127000000D01*
X128302102Y-127014142D01*
X128284142Y-127032103D01*
X128270000Y-127017961D01*
X128255857Y-127032102D01*
X128237897Y-127014142D01*
X128252039Y-127000000D01*
X127367017Y-126114977D01*
X127162623Y-126211142D01*
X126998077Y-126577019D01*
X126861146Y-126245620D01*
X126486353Y-125870173D01*
X126148553Y-125729906D01*
X126484380Y-125591146D01*
X126859827Y-125216353D01*
X127001371Y-124875475D01*
X127117415Y-125181200D01*
X127162623Y-125248858D01*
X127367017Y-125345023D01*
X128252039Y-124460000D01*
X127367017Y-123574977D01*
X127162623Y-123671142D01*
X126998077Y-124037019D01*
X126861146Y-123705620D01*
X126486353Y-123330173D01*
X126148553Y-123189906D01*
X126484380Y-123051146D01*
X126859827Y-122676353D01*
X127001371Y-122335475D01*
X127117415Y-122641200D01*
X127162623Y-122708858D01*
X127367017Y-122805023D01*
X128252039Y-121920000D01*
X127367017Y-121034977D01*
X127162623Y-121131142D01*
X126998077Y-121497019D01*
X126861146Y-121165620D01*
X126486353Y-120790173D01*
X126148553Y-120649906D01*
X126484380Y-120511146D01*
X126859827Y-120136353D01*
X127001371Y-119795475D01*
X127117415Y-120101200D01*
X127162623Y-120168858D01*
X127367017Y-120265023D01*
X128252039Y-119380000D01*
X127367017Y-118494977D01*
X127162623Y-118591142D01*
X126998077Y-118957019D01*
X126861146Y-118625620D01*
X126486353Y-118250173D01*
X126148553Y-118109906D01*
X126484380Y-117971146D01*
X126859827Y-117596353D01*
X127001371Y-117255475D01*
X127117415Y-117561200D01*
X127162623Y-117628858D01*
X127367017Y-117725023D01*
X128252039Y-116840000D01*
X128237897Y-116825858D01*
X128255857Y-116807897D01*
X128270000Y-116822039D01*
X128284142Y-116807897D01*
X128302102Y-116825857D01*
X128287961Y-116840000D01*
X129172983Y-117725023D01*
X129377377Y-117628858D01*
X129594966Y-117145035D01*
X129610841Y-116614773D01*
X129422585Y-116118800D01*
X129377377Y-116051142D01*
X129326489Y-116027200D01*
X133364712Y-116027200D01*
X133552798Y-116215615D01*
X133832764Y-116331867D01*
X134135906Y-116332132D01*
X134416074Y-116216368D01*
X134620168Y-116012630D01*
X134822798Y-116215615D01*
X135102764Y-116331867D01*
X135405906Y-116332132D01*
X135686074Y-116216368D01*
X135875573Y-116027200D01*
X144993510Y-116027200D01*
X144942623Y-116051142D01*
X144725034Y-116534965D01*
X144709159Y-117065227D01*
X144897415Y-117561200D01*
X144942623Y-117628858D01*
X144993510Y-117652800D01*
X136510287Y-117652800D01*
X136322202Y-117464385D01*
X136042236Y-117348133D01*
X135739094Y-117347868D01*
X135458926Y-117463632D01*
X135244385Y-117677798D01*
X135128133Y-117957764D01*
X135127868Y-118260906D01*
X135243632Y-118541074D01*
X135457798Y-118755615D01*
X135737764Y-118871867D01*
X136040906Y-118872132D01*
X136321074Y-118756368D01*
X136510573Y-118567200D01*
X144993510Y-118567200D01*
X144942623Y-118591142D01*
X144725034Y-119074965D01*
X144709159Y-119605227D01*
X144897415Y-120101200D01*
X144942623Y-120168858D01*
X144993510Y-120192800D01*
X137145287Y-120192800D01*
X136957202Y-120004385D01*
X136677236Y-119888133D01*
X136374094Y-119887868D01*
X136093926Y-120003632D01*
X135879385Y-120217798D01*
X135763133Y-120497764D01*
X135762868Y-120800906D01*
X135878632Y-121081074D01*
X136092798Y-121295615D01*
X136372764Y-121411867D01*
X136675906Y-121412132D01*
X136956074Y-121296368D01*
X137145573Y-121107200D01*
X144993510Y-121107200D01*
X144942623Y-121131142D01*
X144725034Y-121614965D01*
X144709159Y-122145227D01*
X144897415Y-122641200D01*
X144942623Y-122708858D01*
X144993510Y-122732800D01*
X137780287Y-122732800D01*
X137592202Y-122544385D01*
X137312236Y-122428133D01*
X137009094Y-122427868D01*
X136728926Y-122543632D01*
X136514385Y-122757798D01*
X136398133Y-123037764D01*
X136397868Y-123340906D01*
X136513632Y-123621074D01*
X136727798Y-123835615D01*
X137007764Y-123951867D01*
X137310906Y-123952132D01*
X137591074Y-123836368D01*
X137780573Y-123647200D01*
X144993510Y-123647200D01*
X144942623Y-123671142D01*
X144725034Y-124154965D01*
X144709159Y-124685227D01*
X144897415Y-125181200D01*
X144942623Y-125248858D01*
X144993510Y-125272800D01*
X138415287Y-125272800D01*
X138227202Y-125084385D01*
X137947236Y-124968133D01*
X137644094Y-124967868D01*
X137363926Y-125083632D01*
X137149385Y-125297798D01*
X137033133Y-125577764D01*
X137032868Y-125880906D01*
X137148632Y-126161074D01*
X137362798Y-126375615D01*
X137642764Y-126491867D01*
X137945906Y-126492132D01*
X138226074Y-126376368D01*
X138415573Y-126187200D01*
X144993510Y-126187200D01*
X144942623Y-126211142D01*
X144725034Y-126694965D01*
X144709159Y-127225227D01*
X144897415Y-127721200D01*
X144942623Y-127788858D01*
X144993510Y-127812800D01*
X144993510Y-127812800D01*
G37*
X144993510Y-127812800D02*
X137984378Y-127812800D01*
X134746899Y-124575321D01*
X134747132Y-124309094D01*
X134631368Y-124028926D01*
X134417202Y-123814385D01*
X134137236Y-123698133D01*
X133919741Y-123697942D01*
X133995615Y-123622202D01*
X134111867Y-123342236D01*
X134112132Y-123039094D01*
X133996368Y-122758926D01*
X133782202Y-122544385D01*
X133502236Y-122428133D01*
X133199094Y-122427868D01*
X132918926Y-122543632D01*
X132704385Y-122757798D01*
X132588133Y-123037764D01*
X132587868Y-123340906D01*
X132703632Y-123621074D01*
X132892800Y-123810573D01*
X132892800Y-124727210D01*
X132927602Y-124902173D01*
X133026711Y-125050499D01*
X135789163Y-127812951D01*
X135788400Y-127812800D01*
X129326489Y-127812800D01*
X129377377Y-127788858D01*
X129594966Y-127305035D01*
X129610841Y-126774773D01*
X129610841Y-124234773D01*
X129610841Y-121694773D01*
X129610841Y-119154773D01*
X129422585Y-118658800D01*
X129377377Y-118591142D01*
X129172983Y-118494977D01*
X129155023Y-118512937D01*
X129155023Y-118477017D01*
X129058858Y-118272623D01*
X128690210Y-118106831D01*
X128991200Y-117992585D01*
X129058858Y-117947377D01*
X129155023Y-117742983D01*
X128270000Y-116857961D01*
X127384977Y-117742983D01*
X127481142Y-117947377D01*
X127849789Y-118113168D01*
X127548800Y-118227415D01*
X127481142Y-118272623D01*
X127384977Y-118477017D01*
X128270000Y-119362039D01*
X129155023Y-118477017D01*
X129155023Y-118512937D01*
X128287961Y-119380000D01*
X129172983Y-120265023D01*
X129377377Y-120168858D01*
X129594966Y-119685035D01*
X129610841Y-119154773D01*
X129610841Y-121694773D01*
X129422585Y-121198800D01*
X129377377Y-121131142D01*
X129172983Y-121034977D01*
X129155023Y-121052937D01*
X129155023Y-121017017D01*
X129058858Y-120812623D01*
X128690210Y-120646831D01*
X128991200Y-120532585D01*
X129058858Y-120487377D01*
X129155023Y-120282983D01*
X128270000Y-119397961D01*
X127384977Y-120282983D01*
X127481142Y-120487377D01*
X127849789Y-120653168D01*
X127548800Y-120767415D01*
X127481142Y-120812623D01*
X127384977Y-121017017D01*
X128270000Y-121902039D01*
X129155023Y-121017017D01*
X129155023Y-121052937D01*
X128287961Y-121920000D01*
X129172983Y-122805023D01*
X129377377Y-122708858D01*
X129594966Y-122225035D01*
X129610841Y-121694773D01*
X129610841Y-124234773D01*
X129422585Y-123738800D01*
X129377377Y-123671142D01*
X129172983Y-123574977D01*
X129155023Y-123592937D01*
X129155023Y-123557017D01*
X129058858Y-123352623D01*
X128690210Y-123186831D01*
X128991200Y-123072585D01*
X129058858Y-123027377D01*
X129155023Y-122822983D01*
X128270000Y-121937961D01*
X127384977Y-122822983D01*
X127481142Y-123027377D01*
X127849789Y-123193168D01*
X127548800Y-123307415D01*
X127481142Y-123352623D01*
X127384977Y-123557017D01*
X128270000Y-124442039D01*
X129155023Y-123557017D01*
X129155023Y-123592937D01*
X128287961Y-124460000D01*
X129172983Y-125345023D01*
X129377377Y-125248858D01*
X129594966Y-124765035D01*
X129610841Y-124234773D01*
X129610841Y-126774773D01*
X129422585Y-126278800D01*
X129377377Y-126211142D01*
X129172983Y-126114977D01*
X129155023Y-126132937D01*
X129155023Y-126097017D01*
X129058858Y-125892623D01*
X128690210Y-125726831D01*
X128991200Y-125612585D01*
X129058858Y-125567377D01*
X129155023Y-125362983D01*
X128270000Y-124477961D01*
X127384977Y-125362983D01*
X127481142Y-125567377D01*
X127849789Y-125733168D01*
X127548800Y-125847415D01*
X127481142Y-125892623D01*
X127384977Y-126097017D01*
X128270000Y-126982039D01*
X129155023Y-126097017D01*
X129155023Y-126132937D01*
X128287961Y-127000000D01*
X128302102Y-127014142D01*
X128284142Y-127032103D01*
X128270000Y-127017961D01*
X128255857Y-127032102D01*
X128237897Y-127014142D01*
X128252039Y-127000000D01*
X127367017Y-126114977D01*
X127162623Y-126211142D01*
X126998077Y-126577019D01*
X126861146Y-126245620D01*
X126486353Y-125870173D01*
X126148553Y-125729906D01*
X126484380Y-125591146D01*
X126859827Y-125216353D01*
X127001371Y-124875475D01*
X127117415Y-125181200D01*
X127162623Y-125248858D01*
X127367017Y-125345023D01*
X128252039Y-124460000D01*
X127367017Y-123574977D01*
X127162623Y-123671142D01*
X126998077Y-124037019D01*
X126861146Y-123705620D01*
X126486353Y-123330173D01*
X126148553Y-123189906D01*
X126484380Y-123051146D01*
X126859827Y-122676353D01*
X127001371Y-122335475D01*
X127117415Y-122641200D01*
X127162623Y-122708858D01*
X127367017Y-122805023D01*
X128252039Y-121920000D01*
X127367017Y-121034977D01*
X127162623Y-121131142D01*
X126998077Y-121497019D01*
X126861146Y-121165620D01*
X126486353Y-120790173D01*
X126148553Y-120649906D01*
X126484380Y-120511146D01*
X126859827Y-120136353D01*
X127001371Y-119795475D01*
X127117415Y-120101200D01*
X127162623Y-120168858D01*
X127367017Y-120265023D01*
X128252039Y-119380000D01*
X127367017Y-118494977D01*
X127162623Y-118591142D01*
X126998077Y-118957019D01*
X126861146Y-118625620D01*
X126486353Y-118250173D01*
X126148553Y-118109906D01*
X126484380Y-117971146D01*
X126859827Y-117596353D01*
X127001371Y-117255475D01*
X127117415Y-117561200D01*
X127162623Y-117628858D01*
X127367017Y-117725023D01*
X128252039Y-116840000D01*
X128237897Y-116825858D01*
X128255857Y-116807897D01*
X128270000Y-116822039D01*
X128284142Y-116807897D01*
X128302102Y-116825857D01*
X128287961Y-116840000D01*
X129172983Y-117725023D01*
X129377377Y-117628858D01*
X129594966Y-117145035D01*
X129610841Y-116614773D01*
X129422585Y-116118800D01*
X129377377Y-116051142D01*
X129326489Y-116027200D01*
X133364712Y-116027200D01*
X133552798Y-116215615D01*
X133832764Y-116331867D01*
X134135906Y-116332132D01*
X134416074Y-116216368D01*
X134620168Y-116012630D01*
X134822798Y-116215615D01*
X135102764Y-116331867D01*
X135405906Y-116332132D01*
X135686074Y-116216368D01*
X135875573Y-116027200D01*
X144993510Y-116027200D01*
X144942623Y-116051142D01*
X144725034Y-116534965D01*
X144709159Y-117065227D01*
X144897415Y-117561200D01*
X144942623Y-117628858D01*
X144993510Y-117652800D01*
X136510287Y-117652800D01*
X136322202Y-117464385D01*
X136042236Y-117348133D01*
X135739094Y-117347868D01*
X135458926Y-117463632D01*
X135244385Y-117677798D01*
X135128133Y-117957764D01*
X135127868Y-118260906D01*
X135243632Y-118541074D01*
X135457798Y-118755615D01*
X135737764Y-118871867D01*
X136040906Y-118872132D01*
X136321074Y-118756368D01*
X136510573Y-118567200D01*
X144993510Y-118567200D01*
X144942623Y-118591142D01*
X144725034Y-119074965D01*
X144709159Y-119605227D01*
X144897415Y-120101200D01*
X144942623Y-120168858D01*
X144993510Y-120192800D01*
X137145287Y-120192800D01*
X136957202Y-120004385D01*
X136677236Y-119888133D01*
X136374094Y-119887868D01*
X136093926Y-120003632D01*
X135879385Y-120217798D01*
X135763133Y-120497764D01*
X135762868Y-120800906D01*
X135878632Y-121081074D01*
X136092798Y-121295615D01*
X136372764Y-121411867D01*
X136675906Y-121412132D01*
X136956074Y-121296368D01*
X137145573Y-121107200D01*
X144993510Y-121107200D01*
X144942623Y-121131142D01*
X144725034Y-121614965D01*
X144709159Y-122145227D01*
X144897415Y-122641200D01*
X144942623Y-122708858D01*
X144993510Y-122732800D01*
X137780287Y-122732800D01*
X137592202Y-122544385D01*
X137312236Y-122428133D01*
X137009094Y-122427868D01*
X136728926Y-122543632D01*
X136514385Y-122757798D01*
X136398133Y-123037764D01*
X136397868Y-123340906D01*
X136513632Y-123621074D01*
X136727798Y-123835615D01*
X137007764Y-123951867D01*
X137310906Y-123952132D01*
X137591074Y-123836368D01*
X137780573Y-123647200D01*
X144993510Y-123647200D01*
X144942623Y-123671142D01*
X144725034Y-124154965D01*
X144709159Y-124685227D01*
X144897415Y-125181200D01*
X144942623Y-125248858D01*
X144993510Y-125272800D01*
X138415287Y-125272800D01*
X138227202Y-125084385D01*
X137947236Y-124968133D01*
X137644094Y-124967868D01*
X137363926Y-125083632D01*
X137149385Y-125297798D01*
X137033133Y-125577764D01*
X137032868Y-125880906D01*
X137148632Y-126161074D01*
X137362798Y-126375615D01*
X137642764Y-126491867D01*
X137945906Y-126492132D01*
X138226074Y-126376368D01*
X138415573Y-126187200D01*
X144993510Y-126187200D01*
X144942623Y-126211142D01*
X144725034Y-126694965D01*
X144709159Y-127225227D01*
X144897415Y-127721200D01*
X144942623Y-127788858D01*
X144993510Y-127812800D01*
G36*
X144993510Y-128727200D02*
X144942623Y-128751142D01*
X144725034Y-129234965D01*
X144709159Y-129765227D01*
X144897415Y-130261200D01*
X144936958Y-130320380D01*
X144468289Y-129851711D01*
X144319963Y-129752602D01*
X144145000Y-129717800D01*
X138987168Y-129717800D01*
X137996568Y-128727200D01*
X144993510Y-128727200D01*
X144993510Y-128727200D01*
G37*
X144993510Y-128727200D02*
X144942623Y-128751142D01*
X144725034Y-129234965D01*
X144709159Y-129765227D01*
X144897415Y-130261200D01*
X144936958Y-130320380D01*
X144468289Y-129851711D01*
X144319963Y-129752602D01*
X144145000Y-129717800D01*
X138987168Y-129717800D01*
X137996568Y-128727200D01*
X144993510Y-128727200D01*
G36*
X146082102Y-101614142D02*
X146064142Y-101632103D01*
X146050000Y-101617961D01*
X146035857Y-101632102D01*
X146017897Y-101614142D01*
X146032039Y-101600000D01*
X146017897Y-101585858D01*
X146035857Y-101567897D01*
X146050000Y-101582039D01*
X146064142Y-101567897D01*
X146082102Y-101585857D01*
X146067961Y-101600000D01*
X146082102Y-101614142D01*
X146082102Y-101614142D01*
G37*
X146082102Y-101614142D02*
X146064142Y-101632103D01*
X146050000Y-101617961D01*
X146035857Y-101632102D01*
X146017897Y-101614142D01*
X146032039Y-101600000D01*
X146017897Y-101585858D01*
X146035857Y-101567897D01*
X146050000Y-101582039D01*
X146064142Y-101567897D01*
X146082102Y-101585857D01*
X146067961Y-101600000D01*
X146082102Y-101614142D01*
G36*
X146082102Y-104154142D02*
X146064142Y-104172103D01*
X146050000Y-104157961D01*
X146035857Y-104172102D01*
X146017897Y-104154142D01*
X146032039Y-104140000D01*
X146017897Y-104125858D01*
X146035857Y-104107897D01*
X146050000Y-104122039D01*
X146064142Y-104107897D01*
X146082102Y-104125857D01*
X146067961Y-104140000D01*
X146082102Y-104154142D01*
X146082102Y-104154142D01*
G37*
X146082102Y-104154142D02*
X146064142Y-104172103D01*
X146050000Y-104157961D01*
X146035857Y-104172102D01*
X146017897Y-104154142D01*
X146032039Y-104140000D01*
X146017897Y-104125858D01*
X146035857Y-104107897D01*
X146050000Y-104122039D01*
X146064142Y-104107897D01*
X146082102Y-104125857D01*
X146067961Y-104140000D01*
X146082102Y-104154142D01*
G36*
X146082102Y-106694142D02*
X146064142Y-106712103D01*
X146050000Y-106697961D01*
X146035857Y-106712102D01*
X146017897Y-106694142D01*
X146032039Y-106680000D01*
X146017897Y-106665858D01*
X146035857Y-106647897D01*
X146050000Y-106662039D01*
X146064142Y-106647897D01*
X146082102Y-106665857D01*
X146067961Y-106680000D01*
X146082102Y-106694142D01*
X146082102Y-106694142D01*
G37*
X146082102Y-106694142D02*
X146064142Y-106712103D01*
X146050000Y-106697961D01*
X146035857Y-106712102D01*
X146017897Y-106694142D01*
X146032039Y-106680000D01*
X146017897Y-106665858D01*
X146035857Y-106647897D01*
X146050000Y-106662039D01*
X146064142Y-106647897D01*
X146082102Y-106665857D01*
X146067961Y-106680000D01*
X146082102Y-106694142D01*
G36*
X146082102Y-109234142D02*
X146064142Y-109252103D01*
X146050000Y-109237961D01*
X146035857Y-109252102D01*
X146017897Y-109234142D01*
X146032039Y-109220000D01*
X146017897Y-109205858D01*
X146035857Y-109187897D01*
X146050000Y-109202039D01*
X146064142Y-109187897D01*
X146082102Y-109205857D01*
X146067961Y-109220000D01*
X146082102Y-109234142D01*
X146082102Y-109234142D01*
G37*
X146082102Y-109234142D02*
X146064142Y-109252103D01*
X146050000Y-109237961D01*
X146035857Y-109252102D01*
X146017897Y-109234142D01*
X146032039Y-109220000D01*
X146017897Y-109205858D01*
X146035857Y-109187897D01*
X146050000Y-109202039D01*
X146064142Y-109187897D01*
X146082102Y-109205857D01*
X146067961Y-109220000D01*
X146082102Y-109234142D01*
G36*
X146082102Y-111774142D02*
X146064142Y-111792103D01*
X146050000Y-111777961D01*
X146035857Y-111792102D01*
X146017897Y-111774142D01*
X146032039Y-111760000D01*
X146017897Y-111745858D01*
X146035857Y-111727897D01*
X146050000Y-111742039D01*
X146064142Y-111727897D01*
X146082102Y-111745857D01*
X146067961Y-111760000D01*
X146082102Y-111774142D01*
X146082102Y-111774142D01*
G37*
X146082102Y-111774142D02*
X146064142Y-111792103D01*
X146050000Y-111777961D01*
X146035857Y-111792102D01*
X146017897Y-111774142D01*
X146032039Y-111760000D01*
X146017897Y-111745858D01*
X146035857Y-111727897D01*
X146050000Y-111742039D01*
X146064142Y-111727897D01*
X146082102Y-111745857D01*
X146067961Y-111760000D01*
X146082102Y-111774142D01*
G36*
X146082102Y-114314142D02*
X146064142Y-114332103D01*
X146050000Y-114317961D01*
X146035857Y-114332102D01*
X146017897Y-114314142D01*
X146032039Y-114300000D01*
X146017897Y-114285858D01*
X146035857Y-114267897D01*
X146050000Y-114282039D01*
X146064142Y-114267897D01*
X146082102Y-114285857D01*
X146067961Y-114300000D01*
X146082102Y-114314142D01*
X146082102Y-114314142D01*
G37*
X146082102Y-114314142D02*
X146064142Y-114332103D01*
X146050000Y-114317961D01*
X146035857Y-114332102D01*
X146017897Y-114314142D01*
X146032039Y-114300000D01*
X146017897Y-114285858D01*
X146035857Y-114267897D01*
X146050000Y-114282039D01*
X146064142Y-114267897D01*
X146082102Y-114285857D01*
X146067961Y-114300000D01*
X146082102Y-114314142D01*
G36*
X146082102Y-116854142D02*
X146064142Y-116872103D01*
X146050000Y-116857961D01*
X146035857Y-116872102D01*
X146017897Y-116854142D01*
X146032039Y-116840000D01*
X146017897Y-116825858D01*
X146035857Y-116807897D01*
X146050000Y-116822039D01*
X146064142Y-116807897D01*
X146082102Y-116825857D01*
X146067961Y-116840000D01*
X146082102Y-116854142D01*
X146082102Y-116854142D01*
G37*
X146082102Y-116854142D02*
X146064142Y-116872103D01*
X146050000Y-116857961D01*
X146035857Y-116872102D01*
X146017897Y-116854142D01*
X146032039Y-116840000D01*
X146017897Y-116825858D01*
X146035857Y-116807897D01*
X146050000Y-116822039D01*
X146064142Y-116807897D01*
X146082102Y-116825857D01*
X146067961Y-116840000D01*
X146082102Y-116854142D01*
G36*
X146082102Y-119394142D02*
X146064142Y-119412103D01*
X146050000Y-119397961D01*
X146035857Y-119412102D01*
X146017897Y-119394142D01*
X146032039Y-119380000D01*
X146017897Y-119365858D01*
X146035857Y-119347897D01*
X146050000Y-119362039D01*
X146064142Y-119347897D01*
X146082102Y-119365857D01*
X146067961Y-119380000D01*
X146082102Y-119394142D01*
X146082102Y-119394142D01*
G37*
X146082102Y-119394142D02*
X146064142Y-119412103D01*
X146050000Y-119397961D01*
X146035857Y-119412102D01*
X146017897Y-119394142D01*
X146032039Y-119380000D01*
X146017897Y-119365858D01*
X146035857Y-119347897D01*
X146050000Y-119362039D01*
X146064142Y-119347897D01*
X146082102Y-119365857D01*
X146067961Y-119380000D01*
X146082102Y-119394142D01*
G36*
X146082102Y-121934142D02*
X146064142Y-121952103D01*
X146050000Y-121937961D01*
X146035857Y-121952102D01*
X146017897Y-121934142D01*
X146032039Y-121920000D01*
X146017897Y-121905858D01*
X146035857Y-121887897D01*
X146050000Y-121902039D01*
X146064142Y-121887897D01*
X146082102Y-121905857D01*
X146067961Y-121920000D01*
X146082102Y-121934142D01*
X146082102Y-121934142D01*
G37*
X146082102Y-121934142D02*
X146064142Y-121952103D01*
X146050000Y-121937961D01*
X146035857Y-121952102D01*
X146017897Y-121934142D01*
X146032039Y-121920000D01*
X146017897Y-121905858D01*
X146035857Y-121887897D01*
X146050000Y-121902039D01*
X146064142Y-121887897D01*
X146082102Y-121905857D01*
X146067961Y-121920000D01*
X146082102Y-121934142D01*
G36*
X146082102Y-124474142D02*
X146064142Y-124492103D01*
X146050000Y-124477961D01*
X146035857Y-124492102D01*
X146017897Y-124474142D01*
X146032039Y-124460000D01*
X146017897Y-124445858D01*
X146035857Y-124427897D01*
X146050000Y-124442039D01*
X146064142Y-124427897D01*
X146082102Y-124445857D01*
X146067961Y-124460000D01*
X146082102Y-124474142D01*
X146082102Y-124474142D01*
G37*
X146082102Y-124474142D02*
X146064142Y-124492103D01*
X146050000Y-124477961D01*
X146035857Y-124492102D01*
X146017897Y-124474142D01*
X146032039Y-124460000D01*
X146017897Y-124445858D01*
X146035857Y-124427897D01*
X146050000Y-124442039D01*
X146064142Y-124427897D01*
X146082102Y-124445857D01*
X146067961Y-124460000D01*
X146082102Y-124474142D01*
G36*
X146082102Y-127014142D02*
X146064142Y-127032103D01*
X146050000Y-127017961D01*
X146035857Y-127032102D01*
X146017897Y-127014142D01*
X146032039Y-127000000D01*
X146017897Y-126985858D01*
X146035857Y-126967897D01*
X146050000Y-126982039D01*
X146064142Y-126967897D01*
X146082102Y-126985857D01*
X146067961Y-127000000D01*
X146082102Y-127014142D01*
X146082102Y-127014142D01*
G37*
X146082102Y-127014142D02*
X146064142Y-127032103D01*
X146050000Y-127017961D01*
X146035857Y-127032102D01*
X146017897Y-127014142D01*
X146032039Y-127000000D01*
X146017897Y-126985858D01*
X146035857Y-126967897D01*
X146050000Y-126982039D01*
X146064142Y-126967897D01*
X146082102Y-126985857D01*
X146067961Y-127000000D01*
X146082102Y-127014142D01*
G36*
X146082102Y-129554142D02*
X146064142Y-129572103D01*
X146050000Y-129557961D01*
X146035857Y-129572102D01*
X146017897Y-129554142D01*
X146032039Y-129540000D01*
X146017897Y-129525858D01*
X146035857Y-129507897D01*
X146050000Y-129522039D01*
X146064142Y-129507897D01*
X146082102Y-129525857D01*
X146067961Y-129540000D01*
X146082102Y-129554142D01*
X146082102Y-129554142D01*
G37*
X146082102Y-129554142D02*
X146064142Y-129572103D01*
X146050000Y-129557961D01*
X146035857Y-129572102D01*
X146017897Y-129554142D01*
X146032039Y-129540000D01*
X146017897Y-129525858D01*
X146035857Y-129507897D01*
X146050000Y-129522039D01*
X146064142Y-129507897D01*
X146082102Y-129525857D01*
X146067961Y-129540000D01*
X146082102Y-129554142D01*
G36*
X150037800Y-94425622D02*
X149670622Y-94792800D01*
X149663281Y-94792800D01*
X149719827Y-94736353D01*
X149923268Y-94246413D01*
X149923731Y-93715914D01*
X149721146Y-93225620D01*
X149346353Y-92850173D01*
X149008553Y-92709906D01*
X149344380Y-92571146D01*
X149719827Y-92196353D01*
X149923268Y-91706413D01*
X149923731Y-91175914D01*
X149721146Y-90685620D01*
X149346353Y-90310173D01*
X148856413Y-90106732D01*
X148325914Y-90106269D01*
X147835620Y-90308854D01*
X147460173Y-90683647D01*
X147383500Y-90868295D01*
X147383500Y-90411714D01*
X147325496Y-90271680D01*
X147218319Y-90164504D01*
X147078285Y-90106500D01*
X146926714Y-90106500D01*
X146157950Y-90106500D01*
X146062700Y-90201750D01*
X146062700Y-91427300D01*
X146082700Y-91427300D01*
X146082700Y-91452700D01*
X146062700Y-91452700D01*
X146062700Y-91472700D01*
X146037300Y-91472700D01*
X146037300Y-91452700D01*
X146037300Y-91427300D01*
X146037300Y-90201750D01*
X145942050Y-90106500D01*
X145173286Y-90106500D01*
X145021715Y-90106500D01*
X144881681Y-90164504D01*
X144774504Y-90271680D01*
X144716500Y-90411714D01*
X144716500Y-91332050D01*
X144811750Y-91427300D01*
X146037300Y-91427300D01*
X146037300Y-91452700D01*
X144811750Y-91452700D01*
X144716500Y-91547950D01*
X144716500Y-92468286D01*
X144774504Y-92608320D01*
X144881681Y-92715496D01*
X145021715Y-92773500D01*
X145173286Y-92773500D01*
X145470842Y-92773500D01*
X145328800Y-92827415D01*
X145261142Y-92872623D01*
X145164977Y-93077017D01*
X146050000Y-93962039D01*
X146935023Y-93077017D01*
X146838858Y-92872623D01*
X146618451Y-92773500D01*
X146926714Y-92773500D01*
X147078285Y-92773500D01*
X147218319Y-92715496D01*
X147325496Y-92608320D01*
X147383500Y-92468286D01*
X147383500Y-92012009D01*
X147458854Y-92194380D01*
X147833647Y-92569827D01*
X148171446Y-92710093D01*
X147835620Y-92848854D01*
X147460173Y-93223647D01*
X147318628Y-93564524D01*
X147202585Y-93258800D01*
X147157377Y-93191142D01*
X146952983Y-93094977D01*
X146067961Y-93980000D01*
X146952983Y-94865023D01*
X147157377Y-94768858D01*
X147321922Y-94402980D01*
X147458854Y-94734380D01*
X147643191Y-94919039D01*
X147631711Y-94926711D01*
X147003851Y-95554570D01*
X147000659Y-95551378D01*
X146935022Y-95617014D01*
X146838858Y-95412623D01*
X146470210Y-95246831D01*
X146771200Y-95132585D01*
X146838858Y-95087377D01*
X146935023Y-94882983D01*
X146050000Y-93997961D01*
X146032039Y-94015921D01*
X146032039Y-93980000D01*
X145147017Y-93094977D01*
X144942623Y-93191142D01*
X144725034Y-93674965D01*
X144709159Y-94205227D01*
X144897415Y-94701200D01*
X144942623Y-94768858D01*
X145147017Y-94865023D01*
X146032039Y-93980000D01*
X146032039Y-94015921D01*
X145164977Y-94882983D01*
X145261142Y-95087377D01*
X145629789Y-95253168D01*
X145328800Y-95367415D01*
X145261142Y-95412623D01*
X145164977Y-95617017D01*
X146050000Y-96502039D01*
X146064142Y-96487897D01*
X146082102Y-96505857D01*
X146067961Y-96520000D01*
X146082103Y-96534142D01*
X146064142Y-96552102D01*
X146050000Y-96537961D01*
X146032039Y-96555921D01*
X146032039Y-96520000D01*
X145147017Y-95634977D01*
X144942623Y-95731142D01*
X144725034Y-96214965D01*
X144709159Y-96745227D01*
X144897415Y-97241200D01*
X144942623Y-97308858D01*
X145147017Y-97405023D01*
X146032039Y-96520000D01*
X146032039Y-96555921D01*
X145164977Y-97422983D01*
X145261142Y-97627377D01*
X145629789Y-97793168D01*
X145328800Y-97907415D01*
X145261142Y-97952623D01*
X145164977Y-98157017D01*
X146050000Y-99042039D01*
X146064142Y-99027897D01*
X146082102Y-99045857D01*
X146067961Y-99060000D01*
X146082102Y-99074142D01*
X146064142Y-99092103D01*
X146050000Y-99077961D01*
X146035857Y-99092102D01*
X146017897Y-99074142D01*
X146032039Y-99060000D01*
X145147017Y-98174977D01*
X144942623Y-98271142D01*
X144725034Y-98754965D01*
X144709159Y-99285227D01*
X144897415Y-99781200D01*
X144936958Y-99840380D01*
X144602200Y-99505622D01*
X144602200Y-93345000D01*
X144567398Y-93170037D01*
X144468289Y-93021711D01*
X143485908Y-92039330D01*
X143620249Y-91715801D01*
X143620729Y-91166608D01*
X143411005Y-90659037D01*
X143023006Y-90270360D01*
X142515801Y-90059751D01*
X141966608Y-90059271D01*
X141459037Y-90268995D01*
X141070360Y-90656994D01*
X140935074Y-90982800D01*
X139954000Y-90982800D01*
X139954000Y-90254534D01*
X140131074Y-90181368D01*
X140320573Y-89992200D01*
X149670622Y-89992200D01*
X150037800Y-90359378D01*
X150037800Y-94425622D01*
X150037800Y-94425622D01*
G37*
X150037800Y-94425622D02*
X149670622Y-94792800D01*
X149663281Y-94792800D01*
X149719827Y-94736353D01*
X149923268Y-94246413D01*
X149923731Y-93715914D01*
X149721146Y-93225620D01*
X149346353Y-92850173D01*
X149008553Y-92709906D01*
X149344380Y-92571146D01*
X149719827Y-92196353D01*
X149923268Y-91706413D01*
X149923731Y-91175914D01*
X149721146Y-90685620D01*
X149346353Y-90310173D01*
X148856413Y-90106732D01*
X148325914Y-90106269D01*
X147835620Y-90308854D01*
X147460173Y-90683647D01*
X147383500Y-90868295D01*
X147383500Y-90411714D01*
X147325496Y-90271680D01*
X147218319Y-90164504D01*
X147078285Y-90106500D01*
X146926714Y-90106500D01*
X146157950Y-90106500D01*
X146062700Y-90201750D01*
X146062700Y-91427300D01*
X146082700Y-91427300D01*
X146082700Y-91452700D01*
X146062700Y-91452700D01*
X146062700Y-91472700D01*
X146037300Y-91472700D01*
X146037300Y-91452700D01*
X146037300Y-91427300D01*
X146037300Y-90201750D01*
X145942050Y-90106500D01*
X145173286Y-90106500D01*
X145021715Y-90106500D01*
X144881681Y-90164504D01*
X144774504Y-90271680D01*
X144716500Y-90411714D01*
X144716500Y-91332050D01*
X144811750Y-91427300D01*
X146037300Y-91427300D01*
X146037300Y-91452700D01*
X144811750Y-91452700D01*
X144716500Y-91547950D01*
X144716500Y-92468286D01*
X144774504Y-92608320D01*
X144881681Y-92715496D01*
X145021715Y-92773500D01*
X145173286Y-92773500D01*
X145470842Y-92773500D01*
X145328800Y-92827415D01*
X145261142Y-92872623D01*
X145164977Y-93077017D01*
X146050000Y-93962039D01*
X146935023Y-93077017D01*
X146838858Y-92872623D01*
X146618451Y-92773500D01*
X146926714Y-92773500D01*
X147078285Y-92773500D01*
X147218319Y-92715496D01*
X147325496Y-92608320D01*
X147383500Y-92468286D01*
X147383500Y-92012009D01*
X147458854Y-92194380D01*
X147833647Y-92569827D01*
X148171446Y-92710093D01*
X147835620Y-92848854D01*
X147460173Y-93223647D01*
X147318628Y-93564524D01*
X147202585Y-93258800D01*
X147157377Y-93191142D01*
X146952983Y-93094977D01*
X146067961Y-93980000D01*
X146952983Y-94865023D01*
X147157377Y-94768858D01*
X147321922Y-94402980D01*
X147458854Y-94734380D01*
X147643191Y-94919039D01*
X147631711Y-94926711D01*
X147003851Y-95554570D01*
X147000659Y-95551378D01*
X146935022Y-95617014D01*
X146838858Y-95412623D01*
X146470210Y-95246831D01*
X146771200Y-95132585D01*
X146838858Y-95087377D01*
X146935023Y-94882983D01*
X146050000Y-93997961D01*
X146032039Y-94015921D01*
X146032039Y-93980000D01*
X145147017Y-93094977D01*
X144942623Y-93191142D01*
X144725034Y-93674965D01*
X144709159Y-94205227D01*
X144897415Y-94701200D01*
X144942623Y-94768858D01*
X145147017Y-94865023D01*
X146032039Y-93980000D01*
X146032039Y-94015921D01*
X145164977Y-94882983D01*
X145261142Y-95087377D01*
X145629789Y-95253168D01*
X145328800Y-95367415D01*
X145261142Y-95412623D01*
X145164977Y-95617017D01*
X146050000Y-96502039D01*
X146064142Y-96487897D01*
X146082102Y-96505857D01*
X146067961Y-96520000D01*
X146082103Y-96534142D01*
X146064142Y-96552102D01*
X146050000Y-96537961D01*
X146032039Y-96555921D01*
X146032039Y-96520000D01*
X145147017Y-95634977D01*
X144942623Y-95731142D01*
X144725034Y-96214965D01*
X144709159Y-96745227D01*
X144897415Y-97241200D01*
X144942623Y-97308858D01*
X145147017Y-97405023D01*
X146032039Y-96520000D01*
X146032039Y-96555921D01*
X145164977Y-97422983D01*
X145261142Y-97627377D01*
X145629789Y-97793168D01*
X145328800Y-97907415D01*
X145261142Y-97952623D01*
X145164977Y-98157017D01*
X146050000Y-99042039D01*
X146064142Y-99027897D01*
X146082102Y-99045857D01*
X146067961Y-99060000D01*
X146082102Y-99074142D01*
X146064142Y-99092103D01*
X146050000Y-99077961D01*
X146035857Y-99092102D01*
X146017897Y-99074142D01*
X146032039Y-99060000D01*
X145147017Y-98174977D01*
X144942623Y-98271142D01*
X144725034Y-98754965D01*
X144709159Y-99285227D01*
X144897415Y-99781200D01*
X144936958Y-99840380D01*
X144602200Y-99505622D01*
X144602200Y-93345000D01*
X144567398Y-93170037D01*
X144468289Y-93021711D01*
X143485908Y-92039330D01*
X143620249Y-91715801D01*
X143620729Y-91166608D01*
X143411005Y-90659037D01*
X143023006Y-90270360D01*
X142515801Y-90059751D01*
X141966608Y-90059271D01*
X141459037Y-90268995D01*
X141070360Y-90656994D01*
X140935074Y-90982800D01*
X139954000Y-90982800D01*
X139954000Y-90254534D01*
X140131074Y-90181368D01*
X140320573Y-89992200D01*
X149670622Y-89992200D01*
X150037800Y-90359378D01*
X150037800Y-94425622D01*
G36*
X154484000Y-143054000D02*
X152374600Y-143054000D01*
X152374600Y-71285100D01*
X152374600Y-71132700D01*
X152374600Y-71107300D01*
X152374600Y-70954900D01*
X152275000Y-70479579D01*
X152001085Y-70078555D01*
X151594555Y-69812880D01*
X151337232Y-69740374D01*
X151142700Y-69818320D01*
X151142700Y-71107300D01*
X152374600Y-71107300D01*
X152374600Y-71132700D01*
X151142700Y-71132700D01*
X151142700Y-72421680D01*
X151337232Y-72499626D01*
X151594555Y-72427120D01*
X152001085Y-72161445D01*
X152275000Y-71760421D01*
X152374600Y-71285100D01*
X152374600Y-143054000D01*
X151117300Y-143054000D01*
X151117300Y-72421680D01*
X151117300Y-71132700D01*
X151117300Y-71107300D01*
X151117300Y-69818320D01*
X150922768Y-69740374D01*
X150665445Y-69812880D01*
X150258915Y-70078555D01*
X149985000Y-70479579D01*
X149885400Y-70954900D01*
X149885400Y-71107300D01*
X151117300Y-71107300D01*
X151117300Y-71132700D01*
X149885400Y-71132700D01*
X149885400Y-71285100D01*
X149985000Y-71760421D01*
X150258915Y-72161445D01*
X150665445Y-72427120D01*
X150922768Y-72499626D01*
X151117300Y-72421680D01*
X151117300Y-143054000D01*
X150952200Y-143054000D01*
X150952200Y-107315000D01*
X150952200Y-98425000D01*
X150917398Y-98250037D01*
X150818289Y-98101711D01*
X149799956Y-97083378D01*
X149923268Y-96786413D01*
X149923731Y-96255914D01*
X149721146Y-95765620D01*
X149662827Y-95707200D01*
X149860000Y-95707200D01*
X150034963Y-95672398D01*
X150183289Y-95573289D01*
X150818289Y-94938289D01*
X150917398Y-94789963D01*
X150952200Y-94615000D01*
X150952200Y-90170000D01*
X150917398Y-89995037D01*
X150818289Y-89846711D01*
X150183289Y-89211711D01*
X150034963Y-89112602D01*
X149860000Y-89077800D01*
X149834600Y-89077800D01*
X149834600Y-71299769D01*
X149834600Y-70940231D01*
X149739860Y-70463943D01*
X149470065Y-70060166D01*
X149066288Y-69790371D01*
X148590000Y-69695631D01*
X148113712Y-69790371D01*
X147709935Y-70060166D01*
X147440140Y-70463943D01*
X147345400Y-70940231D01*
X147345400Y-71299769D01*
X147440140Y-71776057D01*
X147709935Y-72179834D01*
X148113712Y-72449629D01*
X148590000Y-72544369D01*
X149066288Y-72449629D01*
X149470065Y-72179834D01*
X149739860Y-71776057D01*
X149834600Y-71299769D01*
X149834600Y-89077800D01*
X149805881Y-89077800D01*
X149805881Y-84998067D01*
X149558920Y-84400375D01*
X149102030Y-83942687D01*
X148504770Y-83694683D01*
X147858067Y-83694119D01*
X147302064Y-83923854D01*
X147302064Y-72136000D01*
X147302064Y-70104000D01*
X147273878Y-69958726D01*
X147190004Y-69831044D01*
X147063384Y-69745574D01*
X146913600Y-69715536D01*
X145444514Y-69715536D01*
X144620689Y-68891711D01*
X144472363Y-68792602D01*
X144297400Y-68757800D01*
X136626600Y-68757800D01*
X136451637Y-68792602D01*
X136303311Y-68891711D01*
X135566711Y-69628311D01*
X135467602Y-69776637D01*
X135466977Y-69779775D01*
X135413712Y-69790371D01*
X135009935Y-70060166D01*
X134740140Y-70463943D01*
X134645400Y-70940231D01*
X134645400Y-71299769D01*
X134740140Y-71776057D01*
X135009935Y-72179834D01*
X135413712Y-72449629D01*
X135890000Y-72544369D01*
X136366288Y-72449629D01*
X136770065Y-72179834D01*
X137039860Y-71776057D01*
X137134600Y-71299769D01*
X137134600Y-70940231D01*
X137039860Y-70463943D01*
X136770065Y-70060166D01*
X136565019Y-69923158D01*
X136815978Y-69672200D01*
X144108022Y-69672200D01*
X144797936Y-70362114D01*
X144797936Y-72136000D01*
X144826122Y-72281274D01*
X144909996Y-72408956D01*
X145036616Y-72494426D01*
X145186400Y-72524464D01*
X146913600Y-72524464D01*
X147058874Y-72496278D01*
X147186556Y-72412404D01*
X147272026Y-72285784D01*
X147302064Y-72136000D01*
X147302064Y-83923854D01*
X147260375Y-83941080D01*
X146802687Y-84397970D01*
X146554683Y-84995230D01*
X146554119Y-85641933D01*
X146801080Y-86239625D01*
X147257970Y-86697313D01*
X147855230Y-86945317D01*
X148501933Y-86945881D01*
X149099625Y-86698920D01*
X149557313Y-86242030D01*
X149805317Y-85644770D01*
X149805881Y-84998067D01*
X149805881Y-89077800D01*
X140320287Y-89077800D01*
X140132202Y-88889385D01*
X139852236Y-88773133D01*
X139674600Y-88772977D01*
X139674600Y-71299769D01*
X139674600Y-70940231D01*
X139579860Y-70463943D01*
X139310065Y-70060166D01*
X138906288Y-69790371D01*
X138430000Y-69695631D01*
X137953712Y-69790371D01*
X137549935Y-70060166D01*
X137280140Y-70463943D01*
X137185400Y-70940231D01*
X137185400Y-71299769D01*
X137280140Y-71776057D01*
X137549935Y-72179834D01*
X137953712Y-72449629D01*
X138430000Y-72544369D01*
X138906288Y-72449629D01*
X139310065Y-72179834D01*
X139579860Y-71776057D01*
X139674600Y-71299769D01*
X139674600Y-88772977D01*
X139549094Y-88772868D01*
X139268926Y-88888632D01*
X139054385Y-89102798D01*
X138938133Y-89382764D01*
X138937868Y-89685906D01*
X139032941Y-89916000D01*
X134651875Y-89916000D01*
X134746867Y-89687236D01*
X134747132Y-89384094D01*
X134631368Y-89103926D01*
X134417202Y-88889385D01*
X134137236Y-88773133D01*
X133834094Y-88772868D01*
X133553926Y-88888632D01*
X133364426Y-89077800D01*
X131445000Y-89077800D01*
X131270037Y-89112602D01*
X131121711Y-89211711D01*
X130620622Y-89712800D01*
X129326489Y-89712800D01*
X129377377Y-89688858D01*
X129594966Y-89205035D01*
X129610841Y-88674773D01*
X129422585Y-88178800D01*
X129377377Y-88111142D01*
X129326489Y-88087200D01*
X133999712Y-88087200D01*
X134187798Y-88275615D01*
X134467764Y-88391867D01*
X134770906Y-88392132D01*
X135051074Y-88276368D01*
X135265615Y-88062202D01*
X135381867Y-87782236D01*
X135382132Y-87479094D01*
X135266368Y-87198926D01*
X135052202Y-86984385D01*
X134772236Y-86868133D01*
X134469094Y-86867868D01*
X134188926Y-86983632D01*
X133999426Y-87172800D01*
X129326489Y-87172800D01*
X129377377Y-87148858D01*
X129594966Y-86665035D01*
X129610841Y-86134773D01*
X129422585Y-85638800D01*
X129377377Y-85571142D01*
X129326489Y-85547200D01*
X134634712Y-85547200D01*
X134822798Y-85735615D01*
X135102764Y-85851867D01*
X135405906Y-85852132D01*
X135686074Y-85736368D01*
X135900615Y-85522202D01*
X136016867Y-85242236D01*
X136017132Y-84939094D01*
X135901368Y-84658926D01*
X135687202Y-84444385D01*
X135407236Y-84328133D01*
X135104094Y-84327868D01*
X134823926Y-84443632D01*
X134634426Y-84632800D01*
X129326489Y-84632800D01*
X129377377Y-84608858D01*
X129594966Y-84125035D01*
X129610841Y-83594773D01*
X129422585Y-83098800D01*
X129377377Y-83031142D01*
X129326489Y-83007200D01*
X135269712Y-83007200D01*
X135457798Y-83195615D01*
X135737764Y-83311867D01*
X136040906Y-83312132D01*
X136321074Y-83196368D01*
X136535615Y-82982202D01*
X136651867Y-82702236D01*
X136652132Y-82399094D01*
X136536368Y-82118926D01*
X136322202Y-81904385D01*
X136042236Y-81788133D01*
X135739094Y-81787868D01*
X135458926Y-81903632D01*
X135269426Y-82092800D01*
X129326489Y-82092800D01*
X129377377Y-82068858D01*
X129594966Y-81585035D01*
X129610841Y-81054773D01*
X129422585Y-80558800D01*
X129377377Y-80491142D01*
X129326489Y-80467200D01*
X135904712Y-80467200D01*
X136092798Y-80655615D01*
X136372764Y-80771867D01*
X136675906Y-80772132D01*
X136956074Y-80656368D01*
X137170615Y-80442202D01*
X137286867Y-80162236D01*
X137287132Y-79859094D01*
X137171368Y-79578926D01*
X136957202Y-79364385D01*
X136677236Y-79248133D01*
X136374094Y-79247868D01*
X136093926Y-79363632D01*
X135904426Y-79552800D01*
X129326489Y-79552800D01*
X129377377Y-79528858D01*
X129594966Y-79045035D01*
X129610841Y-78514773D01*
X129422585Y-78018800D01*
X129377377Y-77951142D01*
X129326489Y-77927200D01*
X136539712Y-77927200D01*
X136727798Y-78115615D01*
X137007764Y-78231867D01*
X137310906Y-78232132D01*
X137591074Y-78116368D01*
X137805615Y-77902202D01*
X137921867Y-77622236D01*
X137922132Y-77319094D01*
X137806368Y-77038926D01*
X137592202Y-76824385D01*
X137312236Y-76708133D01*
X137009094Y-76707868D01*
X136728926Y-76823632D01*
X136539426Y-77012800D01*
X129326489Y-77012800D01*
X129377377Y-76988858D01*
X129594966Y-76505035D01*
X129610841Y-75974773D01*
X129422585Y-75478800D01*
X129377377Y-75411142D01*
X129326489Y-75387200D01*
X137174712Y-75387200D01*
X137362798Y-75575615D01*
X137642764Y-75691867D01*
X137945906Y-75692132D01*
X138226074Y-75576368D01*
X138440615Y-75362202D01*
X138556867Y-75082236D01*
X138557132Y-74779094D01*
X138441368Y-74498926D01*
X138227202Y-74284385D01*
X137947236Y-74168133D01*
X137644094Y-74167868D01*
X137363926Y-74283632D01*
X137174426Y-74472800D01*
X134602064Y-74472800D01*
X134602064Y-72136000D01*
X134602064Y-70104000D01*
X134573878Y-69958726D01*
X134490004Y-69831044D01*
X134363384Y-69745574D01*
X134213600Y-69715536D01*
X132486400Y-69715536D01*
X132341126Y-69743722D01*
X132213444Y-69827596D01*
X132127974Y-69954216D01*
X132097936Y-70104000D01*
X132097936Y-72136000D01*
X132126122Y-72281274D01*
X132209996Y-72408956D01*
X132336616Y-72494426D01*
X132486400Y-72524464D01*
X134213600Y-72524464D01*
X134358874Y-72496278D01*
X134486556Y-72412404D01*
X134572026Y-72285784D01*
X134602064Y-72136000D01*
X134602064Y-74472800D01*
X129326489Y-74472800D01*
X129377377Y-74448858D01*
X129594966Y-73965035D01*
X129610841Y-73434773D01*
X129610841Y-70894773D01*
X129422585Y-70398800D01*
X129377377Y-70331142D01*
X129172983Y-70234977D01*
X129155023Y-70252937D01*
X129155023Y-70217017D01*
X129058858Y-70012623D01*
X128575035Y-69795034D01*
X128044773Y-69779159D01*
X127765881Y-69885017D01*
X127765881Y-64678067D01*
X127518920Y-64080375D01*
X127062030Y-63622687D01*
X126464770Y-63374683D01*
X125818067Y-63374119D01*
X125220375Y-63621080D01*
X124762687Y-64077970D01*
X124514683Y-64675230D01*
X124514119Y-65321933D01*
X124761080Y-65919625D01*
X125217970Y-66377313D01*
X125815230Y-66625317D01*
X126461933Y-66625881D01*
X127059625Y-66378920D01*
X127517313Y-65922030D01*
X127765317Y-65324770D01*
X127765881Y-64678067D01*
X127765881Y-69885017D01*
X127548800Y-69967415D01*
X127481142Y-70012623D01*
X127384977Y-70217017D01*
X128270000Y-71102039D01*
X129155023Y-70217017D01*
X129155023Y-70252937D01*
X128287961Y-71120000D01*
X129172983Y-72005023D01*
X129377377Y-71908858D01*
X129594966Y-71425035D01*
X129610841Y-70894773D01*
X129610841Y-73434773D01*
X129422585Y-72938800D01*
X129377377Y-72871142D01*
X129172983Y-72774977D01*
X129155023Y-72792937D01*
X129155023Y-72757017D01*
X129058858Y-72552623D01*
X128690210Y-72386831D01*
X128991200Y-72272585D01*
X129058858Y-72227377D01*
X129155023Y-72022983D01*
X128270000Y-71137961D01*
X127384977Y-72022983D01*
X127481142Y-72227377D01*
X127849789Y-72393168D01*
X127548800Y-72507415D01*
X127481142Y-72552623D01*
X127384977Y-72757017D01*
X128270000Y-73642039D01*
X129155023Y-72757017D01*
X129155023Y-72792937D01*
X128287961Y-73660000D01*
X128302102Y-73674142D01*
X128284142Y-73692103D01*
X128270000Y-73677961D01*
X128255857Y-73692102D01*
X128237897Y-73674142D01*
X128252039Y-73660000D01*
X127367017Y-72774977D01*
X127162623Y-72871142D01*
X126998077Y-73237019D01*
X126861146Y-72905620D01*
X126486353Y-72530173D01*
X126148553Y-72389906D01*
X126484380Y-72251146D01*
X126859827Y-71876353D01*
X127001371Y-71535475D01*
X127117415Y-71841200D01*
X127162623Y-71908858D01*
X127367017Y-72005023D01*
X128252039Y-71120000D01*
X127367017Y-70234977D01*
X127162623Y-70331142D01*
X126998077Y-70697019D01*
X126861146Y-70365620D01*
X126486353Y-69990173D01*
X125996413Y-69786732D01*
X125465914Y-69786269D01*
X124975620Y-69988854D01*
X124600173Y-70363647D01*
X124396732Y-70853587D01*
X124396269Y-71384086D01*
X124598854Y-71874380D01*
X124973647Y-72249827D01*
X125311446Y-72390093D01*
X124975620Y-72528854D01*
X124600173Y-72903647D01*
X124396732Y-73393587D01*
X124396269Y-73924086D01*
X124598854Y-74414380D01*
X124973647Y-74789827D01*
X125311446Y-74930093D01*
X124975620Y-75068854D01*
X124600173Y-75443647D01*
X124396732Y-75933587D01*
X124396269Y-76464086D01*
X124598854Y-76954380D01*
X124973647Y-77329827D01*
X125311446Y-77470093D01*
X124975620Y-77608854D01*
X124600173Y-77983647D01*
X124396732Y-78473587D01*
X124396269Y-79004086D01*
X124598854Y-79494380D01*
X124973647Y-79869827D01*
X125311446Y-80010093D01*
X124975620Y-80148854D01*
X124600173Y-80523647D01*
X124396732Y-81013587D01*
X124396269Y-81544086D01*
X124598854Y-82034380D01*
X124973647Y-82409827D01*
X125311446Y-82550093D01*
X124975620Y-82688854D01*
X124600173Y-83063647D01*
X124396732Y-83553587D01*
X124396269Y-84084086D01*
X124598854Y-84574380D01*
X124973647Y-84949827D01*
X125311446Y-85090093D01*
X124975620Y-85228854D01*
X124600173Y-85603647D01*
X124396732Y-86093587D01*
X124396269Y-86624086D01*
X124598854Y-87114380D01*
X124973647Y-87489827D01*
X125311446Y-87630093D01*
X124975620Y-87768854D01*
X124600173Y-88143647D01*
X124396732Y-88633587D01*
X124396269Y-89164086D01*
X124598854Y-89654380D01*
X124973647Y-90029827D01*
X125311446Y-90170093D01*
X124975620Y-90308854D01*
X124600173Y-90683647D01*
X124396732Y-91173587D01*
X124396269Y-91704086D01*
X124598854Y-92194380D01*
X124973647Y-92569827D01*
X125311446Y-92710093D01*
X124975620Y-92848854D01*
X124600173Y-93223647D01*
X124475953Y-93522800D01*
X124382962Y-93522800D01*
X124207999Y-93557602D01*
X124059673Y-93656711D01*
X122231711Y-95484673D01*
X122132602Y-95632999D01*
X122097800Y-95807962D01*
X122097800Y-100965000D01*
X122132602Y-101139963D01*
X122231711Y-101288289D01*
X124136711Y-103193289D01*
X124285037Y-103292398D01*
X124460000Y-103327200D01*
X124656718Y-103327200D01*
X124600173Y-103383647D01*
X124396732Y-103873587D01*
X124396269Y-104404086D01*
X124598854Y-104894380D01*
X124973647Y-105269827D01*
X125311446Y-105410093D01*
X124975620Y-105548854D01*
X124600173Y-105923647D01*
X124396732Y-106413587D01*
X124396269Y-106944086D01*
X124598854Y-107434380D01*
X124973647Y-107809827D01*
X125311446Y-107950093D01*
X124975620Y-108088854D01*
X124600173Y-108463647D01*
X124396732Y-108953587D01*
X124396269Y-109484086D01*
X124598854Y-109974380D01*
X124973647Y-110349827D01*
X125311446Y-110490093D01*
X124975620Y-110628854D01*
X124600173Y-111003647D01*
X124396732Y-111493587D01*
X124396269Y-112024086D01*
X124598854Y-112514380D01*
X124973647Y-112889827D01*
X125311446Y-113030093D01*
X124975620Y-113168854D01*
X124600173Y-113543647D01*
X124396732Y-114033587D01*
X124396269Y-114564086D01*
X124598854Y-115054380D01*
X124973647Y-115429827D01*
X125311446Y-115570093D01*
X124975620Y-115708854D01*
X124600173Y-116083647D01*
X124396732Y-116573587D01*
X124396269Y-117104086D01*
X124598854Y-117594380D01*
X124973647Y-117969827D01*
X125311446Y-118110093D01*
X124975620Y-118248854D01*
X124600173Y-118623647D01*
X124396732Y-119113587D01*
X124396269Y-119644086D01*
X124598854Y-120134380D01*
X124973647Y-120509827D01*
X125311446Y-120650093D01*
X124975620Y-120788854D01*
X124600173Y-121163647D01*
X124396732Y-121653587D01*
X124396269Y-122184086D01*
X124519965Y-122483456D01*
X123501711Y-123501711D01*
X123402602Y-123650037D01*
X123367800Y-123825000D01*
X123367800Y-127635000D01*
X123402602Y-127809963D01*
X123501711Y-127958289D01*
X124136711Y-128593289D01*
X124285037Y-128692398D01*
X124460000Y-128727200D01*
X124656718Y-128727200D01*
X124600173Y-128783647D01*
X124396732Y-129273587D01*
X124396269Y-129804086D01*
X124598854Y-130294380D01*
X124973647Y-130669827D01*
X125311446Y-130810093D01*
X124975620Y-130948854D01*
X124600173Y-131323647D01*
X124396732Y-131813587D01*
X124396269Y-132344086D01*
X124598854Y-132834380D01*
X124973647Y-133209827D01*
X125463587Y-133413268D01*
X125994086Y-133413731D01*
X126484380Y-133211146D01*
X126859827Y-132836353D01*
X126936500Y-132651704D01*
X126936500Y-133108286D01*
X126994504Y-133248320D01*
X127101681Y-133355496D01*
X127241715Y-133413500D01*
X127393286Y-133413500D01*
X128162050Y-133413500D01*
X128257300Y-133318250D01*
X128257300Y-132092700D01*
X128237300Y-132092700D01*
X128237300Y-132067300D01*
X128257300Y-132067300D01*
X128257300Y-132047300D01*
X128282700Y-132047300D01*
X128282700Y-132067300D01*
X129508250Y-132067300D01*
X129603500Y-131972050D01*
X129603500Y-131051714D01*
X129545496Y-130911680D01*
X129438319Y-130804504D01*
X129298285Y-130746500D01*
X129146714Y-130746500D01*
X128849157Y-130746500D01*
X128991200Y-130692585D01*
X129058858Y-130647377D01*
X129155023Y-130442983D01*
X128270000Y-129557961D01*
X127384977Y-130442983D01*
X127481142Y-130647377D01*
X127701548Y-130746500D01*
X127393286Y-130746500D01*
X127241715Y-130746500D01*
X127101681Y-130804504D01*
X126994504Y-130911680D01*
X126936500Y-131051714D01*
X126936500Y-131507990D01*
X126861146Y-131325620D01*
X126486353Y-130950173D01*
X126148553Y-130809906D01*
X126484380Y-130671146D01*
X126859827Y-130296353D01*
X127001371Y-129955475D01*
X127117415Y-130261200D01*
X127162623Y-130328858D01*
X127367017Y-130425023D01*
X128252039Y-129540000D01*
X128237897Y-129525858D01*
X128255857Y-129507897D01*
X128270000Y-129522039D01*
X128284142Y-129507897D01*
X128302102Y-129525857D01*
X128287961Y-129540000D01*
X129172983Y-130425023D01*
X129377377Y-130328858D01*
X129594966Y-129845035D01*
X129610841Y-129314773D01*
X129422585Y-128818800D01*
X129377377Y-128751142D01*
X129326489Y-128727200D01*
X135599021Y-128727200D01*
X137547357Y-130675536D01*
X137414000Y-130675536D01*
X137268726Y-130703722D01*
X137141044Y-130787596D01*
X137055574Y-130914216D01*
X137025536Y-131064000D01*
X137025536Y-131287306D01*
X136700828Y-130942384D01*
X136203761Y-130718689D01*
X136121074Y-130702243D01*
X135902700Y-130778312D01*
X135902700Y-132067300D01*
X135922700Y-132067300D01*
X135922700Y-132092700D01*
X135902700Y-132092700D01*
X135902700Y-133381688D01*
X136121074Y-133457757D01*
X136203761Y-133441311D01*
X136700828Y-133217616D01*
X137025536Y-132872693D01*
X137025536Y-133096000D01*
X137053722Y-133241274D01*
X137137596Y-133368956D01*
X137264216Y-133454426D01*
X137414000Y-133484464D01*
X139446000Y-133484464D01*
X139591274Y-133456278D01*
X139718956Y-133372404D01*
X139804426Y-133245784D01*
X139834464Y-133096000D01*
X139834464Y-131064000D01*
X139806278Y-130918726D01*
X139722404Y-130791044D01*
X139595784Y-130705574D01*
X139446000Y-130675536D01*
X138811571Y-130675536D01*
X138780289Y-130628719D01*
X138797790Y-130632200D01*
X143955622Y-130632200D01*
X144545610Y-131222188D01*
X144693936Y-131321297D01*
X144868899Y-131356099D01*
X144913409Y-131356099D01*
X144725034Y-131774965D01*
X144709159Y-132305227D01*
X144897415Y-132801200D01*
X144942623Y-132868858D01*
X145147017Y-132965023D01*
X146032039Y-132080000D01*
X146017897Y-132065858D01*
X146035857Y-132047897D01*
X146050000Y-132062039D01*
X146064142Y-132047897D01*
X146082102Y-132065857D01*
X146067961Y-132080000D01*
X146952983Y-132965023D01*
X147157377Y-132868858D01*
X147321922Y-132502980D01*
X147458854Y-132834380D01*
X147833647Y-133209827D01*
X148323587Y-133413268D01*
X148854086Y-133413731D01*
X149344380Y-133211146D01*
X149719827Y-132836353D01*
X149923268Y-132346413D01*
X149923731Y-131815914D01*
X149721146Y-131325620D01*
X149346353Y-130950173D01*
X149008553Y-130809906D01*
X149344380Y-130671146D01*
X149719827Y-130296353D01*
X149923268Y-129806413D01*
X149923731Y-129275914D01*
X149721146Y-128785620D01*
X149346353Y-128410173D01*
X149008553Y-128269906D01*
X149344380Y-128131146D01*
X149719827Y-127756353D01*
X149923268Y-127266413D01*
X149923731Y-126735914D01*
X149721146Y-126245620D01*
X149346353Y-125870173D01*
X149008553Y-125729906D01*
X149344380Y-125591146D01*
X149719827Y-125216353D01*
X149923268Y-124726413D01*
X149923731Y-124195914D01*
X149721146Y-123705620D01*
X149346353Y-123330173D01*
X149008553Y-123189906D01*
X149344380Y-123051146D01*
X149719827Y-122676353D01*
X149923268Y-122186413D01*
X149923731Y-121655914D01*
X149721146Y-121165620D01*
X149346353Y-120790173D01*
X149008553Y-120649906D01*
X149344380Y-120511146D01*
X149719827Y-120136353D01*
X149923268Y-119646413D01*
X149923731Y-119115914D01*
X149721146Y-118625620D01*
X149346353Y-118250173D01*
X149008553Y-118109906D01*
X149344380Y-117971146D01*
X149719827Y-117596353D01*
X149923268Y-117106413D01*
X149923731Y-116575914D01*
X149721146Y-116085620D01*
X149346353Y-115710173D01*
X149008553Y-115569906D01*
X149344380Y-115431146D01*
X149719827Y-115056353D01*
X149923268Y-114566413D01*
X149923731Y-114035914D01*
X149721146Y-113545620D01*
X149346353Y-113170173D01*
X149008553Y-113029906D01*
X149344380Y-112891146D01*
X149719827Y-112516353D01*
X149923268Y-112026413D01*
X149923731Y-111495914D01*
X149721146Y-111005620D01*
X149346353Y-110630173D01*
X149008553Y-110489906D01*
X149344380Y-110351146D01*
X149719827Y-109976353D01*
X149923268Y-109486413D01*
X149923731Y-108955914D01*
X149721146Y-108465620D01*
X149662827Y-108407200D01*
X149860000Y-108407200D01*
X150034963Y-108372398D01*
X150183289Y-108273289D01*
X150818289Y-107638289D01*
X150917398Y-107489963D01*
X150952200Y-107315000D01*
X150952200Y-143054000D01*
X149805881Y-143054000D01*
X149805881Y-137878067D01*
X149558920Y-137280375D01*
X149102030Y-136822687D01*
X148504770Y-136574683D01*
X147858067Y-136574119D01*
X147260375Y-136821080D01*
X146935023Y-137145864D01*
X146935023Y-132982983D01*
X146050000Y-132097961D01*
X145164977Y-132982983D01*
X145261142Y-133187377D01*
X145744965Y-133404966D01*
X146275227Y-133420841D01*
X146771200Y-133232585D01*
X146838858Y-133187377D01*
X146935023Y-132982983D01*
X146935023Y-137145864D01*
X146802687Y-137277970D01*
X146554683Y-137875230D01*
X146554119Y-138521933D01*
X146801080Y-139119625D01*
X147257970Y-139577313D01*
X147855230Y-139825317D01*
X148501933Y-139825881D01*
X149099625Y-139578920D01*
X149557313Y-139122030D01*
X149805317Y-138524770D01*
X149805881Y-137878067D01*
X149805881Y-143054000D01*
X135877300Y-143054000D01*
X135877300Y-133381688D01*
X135877300Y-132092700D01*
X135877300Y-132067300D01*
X135877300Y-130778312D01*
X135658926Y-130702243D01*
X135576239Y-130718689D01*
X135079172Y-130942384D01*
X134705546Y-131339270D01*
X134512242Y-131848926D01*
X134588307Y-132067300D01*
X135877300Y-132067300D01*
X135877300Y-132092700D01*
X134588307Y-132092700D01*
X134512242Y-132311074D01*
X134705546Y-132820730D01*
X135079172Y-133217616D01*
X135576239Y-133441311D01*
X135658926Y-133457757D01*
X135877300Y-133381688D01*
X135877300Y-143054000D01*
X129603500Y-143054000D01*
X129603500Y-133108286D01*
X129603500Y-132187950D01*
X129508250Y-132092700D01*
X128282700Y-132092700D01*
X128282700Y-133318250D01*
X128377950Y-133413500D01*
X129146714Y-133413500D01*
X129298285Y-133413500D01*
X129438319Y-133355496D01*
X129545496Y-133248320D01*
X129603500Y-133108286D01*
X129603500Y-143054000D01*
X127765881Y-143054000D01*
X127765881Y-137878067D01*
X127518920Y-137280375D01*
X127062030Y-136822687D01*
X126464770Y-136574683D01*
X125818067Y-136574119D01*
X125220375Y-136821080D01*
X124762687Y-137277970D01*
X124514683Y-137875230D01*
X124514119Y-138521933D01*
X124761080Y-139119625D01*
X125217970Y-139577313D01*
X125815230Y-139825317D01*
X126461933Y-139825881D01*
X127059625Y-139578920D01*
X127517313Y-139122030D01*
X127765317Y-138524770D01*
X127765881Y-137878067D01*
X127765881Y-143054000D01*
X119836000Y-143054000D01*
X119836000Y-60146000D01*
X154484000Y-60146000D01*
X154484000Y-143054000D01*
X154484000Y-143054000D01*
G37*
X154484000Y-143054000D02*
X152374600Y-143054000D01*
X152374600Y-71285100D01*
X152374600Y-71132700D01*
X152374600Y-71107300D01*
X152374600Y-70954900D01*
X152275000Y-70479579D01*
X152001085Y-70078555D01*
X151594555Y-69812880D01*
X151337232Y-69740374D01*
X151142700Y-69818320D01*
X151142700Y-71107300D01*
X152374600Y-71107300D01*
X152374600Y-71132700D01*
X151142700Y-71132700D01*
X151142700Y-72421680D01*
X151337232Y-72499626D01*
X151594555Y-72427120D01*
X152001085Y-72161445D01*
X152275000Y-71760421D01*
X152374600Y-71285100D01*
X152374600Y-143054000D01*
X151117300Y-143054000D01*
X151117300Y-72421680D01*
X151117300Y-71132700D01*
X151117300Y-71107300D01*
X151117300Y-69818320D01*
X150922768Y-69740374D01*
X150665445Y-69812880D01*
X150258915Y-70078555D01*
X149985000Y-70479579D01*
X149885400Y-70954900D01*
X149885400Y-71107300D01*
X151117300Y-71107300D01*
X151117300Y-71132700D01*
X149885400Y-71132700D01*
X149885400Y-71285100D01*
X149985000Y-71760421D01*
X150258915Y-72161445D01*
X150665445Y-72427120D01*
X150922768Y-72499626D01*
X151117300Y-72421680D01*
X151117300Y-143054000D01*
X150952200Y-143054000D01*
X150952200Y-107315000D01*
X150952200Y-98425000D01*
X150917398Y-98250037D01*
X150818289Y-98101711D01*
X149799956Y-97083378D01*
X149923268Y-96786413D01*
X149923731Y-96255914D01*
X149721146Y-95765620D01*
X149662827Y-95707200D01*
X149860000Y-95707200D01*
X150034963Y-95672398D01*
X150183289Y-95573289D01*
X150818289Y-94938289D01*
X150917398Y-94789963D01*
X150952200Y-94615000D01*
X150952200Y-90170000D01*
X150917398Y-89995037D01*
X150818289Y-89846711D01*
X150183289Y-89211711D01*
X150034963Y-89112602D01*
X149860000Y-89077800D01*
X149834600Y-89077800D01*
X149834600Y-71299769D01*
X149834600Y-70940231D01*
X149739860Y-70463943D01*
X149470065Y-70060166D01*
X149066288Y-69790371D01*
X148590000Y-69695631D01*
X148113712Y-69790371D01*
X147709935Y-70060166D01*
X147440140Y-70463943D01*
X147345400Y-70940231D01*
X147345400Y-71299769D01*
X147440140Y-71776057D01*
X147709935Y-72179834D01*
X148113712Y-72449629D01*
X148590000Y-72544369D01*
X149066288Y-72449629D01*
X149470065Y-72179834D01*
X149739860Y-71776057D01*
X149834600Y-71299769D01*
X149834600Y-89077800D01*
X149805881Y-89077800D01*
X149805881Y-84998067D01*
X149558920Y-84400375D01*
X149102030Y-83942687D01*
X148504770Y-83694683D01*
X147858067Y-83694119D01*
X147302064Y-83923854D01*
X147302064Y-72136000D01*
X147302064Y-70104000D01*
X147273878Y-69958726D01*
X147190004Y-69831044D01*
X147063384Y-69745574D01*
X146913600Y-69715536D01*
X145444514Y-69715536D01*
X144620689Y-68891711D01*
X144472363Y-68792602D01*
X144297400Y-68757800D01*
X136626600Y-68757800D01*
X136451637Y-68792602D01*
X136303311Y-68891711D01*
X135566711Y-69628311D01*
X135467602Y-69776637D01*
X135466977Y-69779775D01*
X135413712Y-69790371D01*
X135009935Y-70060166D01*
X134740140Y-70463943D01*
X134645400Y-70940231D01*
X134645400Y-71299769D01*
X134740140Y-71776057D01*
X135009935Y-72179834D01*
X135413712Y-72449629D01*
X135890000Y-72544369D01*
X136366288Y-72449629D01*
X136770065Y-72179834D01*
X137039860Y-71776057D01*
X137134600Y-71299769D01*
X137134600Y-70940231D01*
X137039860Y-70463943D01*
X136770065Y-70060166D01*
X136565019Y-69923158D01*
X136815978Y-69672200D01*
X144108022Y-69672200D01*
X144797936Y-70362114D01*
X144797936Y-72136000D01*
X144826122Y-72281274D01*
X144909996Y-72408956D01*
X145036616Y-72494426D01*
X145186400Y-72524464D01*
X146913600Y-72524464D01*
X147058874Y-72496278D01*
X147186556Y-72412404D01*
X147272026Y-72285784D01*
X147302064Y-72136000D01*
X147302064Y-83923854D01*
X147260375Y-83941080D01*
X146802687Y-84397970D01*
X146554683Y-84995230D01*
X146554119Y-85641933D01*
X146801080Y-86239625D01*
X147257970Y-86697313D01*
X147855230Y-86945317D01*
X148501933Y-86945881D01*
X149099625Y-86698920D01*
X149557313Y-86242030D01*
X149805317Y-85644770D01*
X149805881Y-84998067D01*
X149805881Y-89077800D01*
X140320287Y-89077800D01*
X140132202Y-88889385D01*
X139852236Y-88773133D01*
X139674600Y-88772977D01*
X139674600Y-71299769D01*
X139674600Y-70940231D01*
X139579860Y-70463943D01*
X139310065Y-70060166D01*
X138906288Y-69790371D01*
X138430000Y-69695631D01*
X137953712Y-69790371D01*
X137549935Y-70060166D01*
X137280140Y-70463943D01*
X137185400Y-70940231D01*
X137185400Y-71299769D01*
X137280140Y-71776057D01*
X137549935Y-72179834D01*
X137953712Y-72449629D01*
X138430000Y-72544369D01*
X138906288Y-72449629D01*
X139310065Y-72179834D01*
X139579860Y-71776057D01*
X139674600Y-71299769D01*
X139674600Y-88772977D01*
X139549094Y-88772868D01*
X139268926Y-88888632D01*
X139054385Y-89102798D01*
X138938133Y-89382764D01*
X138937868Y-89685906D01*
X139032941Y-89916000D01*
X134651875Y-89916000D01*
X134746867Y-89687236D01*
X134747132Y-89384094D01*
X134631368Y-89103926D01*
X134417202Y-88889385D01*
X134137236Y-88773133D01*
X133834094Y-88772868D01*
X133553926Y-88888632D01*
X133364426Y-89077800D01*
X131445000Y-89077800D01*
X131270037Y-89112602D01*
X131121711Y-89211711D01*
X130620622Y-89712800D01*
X129326489Y-89712800D01*
X129377377Y-89688858D01*
X129594966Y-89205035D01*
X129610841Y-88674773D01*
X129422585Y-88178800D01*
X129377377Y-88111142D01*
X129326489Y-88087200D01*
X133999712Y-88087200D01*
X134187798Y-88275615D01*
X134467764Y-88391867D01*
X134770906Y-88392132D01*
X135051074Y-88276368D01*
X135265615Y-88062202D01*
X135381867Y-87782236D01*
X135382132Y-87479094D01*
X135266368Y-87198926D01*
X135052202Y-86984385D01*
X134772236Y-86868133D01*
X134469094Y-86867868D01*
X134188926Y-86983632D01*
X133999426Y-87172800D01*
X129326489Y-87172800D01*
X129377377Y-87148858D01*
X129594966Y-86665035D01*
X129610841Y-86134773D01*
X129422585Y-85638800D01*
X129377377Y-85571142D01*
X129326489Y-85547200D01*
X134634712Y-85547200D01*
X134822798Y-85735615D01*
X135102764Y-85851867D01*
X135405906Y-85852132D01*
X135686074Y-85736368D01*
X135900615Y-85522202D01*
X136016867Y-85242236D01*
X136017132Y-84939094D01*
X135901368Y-84658926D01*
X135687202Y-84444385D01*
X135407236Y-84328133D01*
X135104094Y-84327868D01*
X134823926Y-84443632D01*
X134634426Y-84632800D01*
X129326489Y-84632800D01*
X129377377Y-84608858D01*
X129594966Y-84125035D01*
X129610841Y-83594773D01*
X129422585Y-83098800D01*
X129377377Y-83031142D01*
X129326489Y-83007200D01*
X135269712Y-83007200D01*
X135457798Y-83195615D01*
X135737764Y-83311867D01*
X136040906Y-83312132D01*
X136321074Y-83196368D01*
X136535615Y-82982202D01*
X136651867Y-82702236D01*
X136652132Y-82399094D01*
X136536368Y-82118926D01*
X136322202Y-81904385D01*
X136042236Y-81788133D01*
X135739094Y-81787868D01*
X135458926Y-81903632D01*
X135269426Y-82092800D01*
X129326489Y-82092800D01*
X129377377Y-82068858D01*
X129594966Y-81585035D01*
X129610841Y-81054773D01*
X129422585Y-80558800D01*
X129377377Y-80491142D01*
X129326489Y-80467200D01*
X135904712Y-80467200D01*
X136092798Y-80655615D01*
X136372764Y-80771867D01*
X136675906Y-80772132D01*
X136956074Y-80656368D01*
X137170615Y-80442202D01*
X137286867Y-80162236D01*
X137287132Y-79859094D01*
X137171368Y-79578926D01*
X136957202Y-79364385D01*
X136677236Y-79248133D01*
X136374094Y-79247868D01*
X136093926Y-79363632D01*
X135904426Y-79552800D01*
X129326489Y-79552800D01*
X129377377Y-79528858D01*
X129594966Y-79045035D01*
X129610841Y-78514773D01*
X129422585Y-78018800D01*
X129377377Y-77951142D01*
X129326489Y-77927200D01*
X136539712Y-77927200D01*
X136727798Y-78115615D01*
X137007764Y-78231867D01*
X137310906Y-78232132D01*
X137591074Y-78116368D01*
X137805615Y-77902202D01*
X137921867Y-77622236D01*
X137922132Y-77319094D01*
X137806368Y-77038926D01*
X137592202Y-76824385D01*
X137312236Y-76708133D01*
X137009094Y-76707868D01*
X136728926Y-76823632D01*
X136539426Y-77012800D01*
X129326489Y-77012800D01*
X129377377Y-76988858D01*
X129594966Y-76505035D01*
X129610841Y-75974773D01*
X129422585Y-75478800D01*
X129377377Y-75411142D01*
X129326489Y-75387200D01*
X137174712Y-75387200D01*
X137362798Y-75575615D01*
X137642764Y-75691867D01*
X137945906Y-75692132D01*
X138226074Y-75576368D01*
X138440615Y-75362202D01*
X138556867Y-75082236D01*
X138557132Y-74779094D01*
X138441368Y-74498926D01*
X138227202Y-74284385D01*
X137947236Y-74168133D01*
X137644094Y-74167868D01*
X137363926Y-74283632D01*
X137174426Y-74472800D01*
X134602064Y-74472800D01*
X134602064Y-72136000D01*
X134602064Y-70104000D01*
X134573878Y-69958726D01*
X134490004Y-69831044D01*
X134363384Y-69745574D01*
X134213600Y-69715536D01*
X132486400Y-69715536D01*
X132341126Y-69743722D01*
X132213444Y-69827596D01*
X132127974Y-69954216D01*
X132097936Y-70104000D01*
X132097936Y-72136000D01*
X132126122Y-72281274D01*
X132209996Y-72408956D01*
X132336616Y-72494426D01*
X132486400Y-72524464D01*
X134213600Y-72524464D01*
X134358874Y-72496278D01*
X134486556Y-72412404D01*
X134572026Y-72285784D01*
X134602064Y-72136000D01*
X134602064Y-74472800D01*
X129326489Y-74472800D01*
X129377377Y-74448858D01*
X129594966Y-73965035D01*
X129610841Y-73434773D01*
X129610841Y-70894773D01*
X129422585Y-70398800D01*
X129377377Y-70331142D01*
X129172983Y-70234977D01*
X129155023Y-70252937D01*
X129155023Y-70217017D01*
X129058858Y-70012623D01*
X128575035Y-69795034D01*
X128044773Y-69779159D01*
X127765881Y-69885017D01*
X127765881Y-64678067D01*
X127518920Y-64080375D01*
X127062030Y-63622687D01*
X126464770Y-63374683D01*
X125818067Y-63374119D01*
X125220375Y-63621080D01*
X124762687Y-64077970D01*
X124514683Y-64675230D01*
X124514119Y-65321933D01*
X124761080Y-65919625D01*
X125217970Y-66377313D01*
X125815230Y-66625317D01*
X126461933Y-66625881D01*
X127059625Y-66378920D01*
X127517313Y-65922030D01*
X127765317Y-65324770D01*
X127765881Y-64678067D01*
X127765881Y-69885017D01*
X127548800Y-69967415D01*
X127481142Y-70012623D01*
X127384977Y-70217017D01*
X128270000Y-71102039D01*
X129155023Y-70217017D01*
X129155023Y-70252937D01*
X128287961Y-71120000D01*
X129172983Y-72005023D01*
X129377377Y-71908858D01*
X129594966Y-71425035D01*
X129610841Y-70894773D01*
X129610841Y-73434773D01*
X129422585Y-72938800D01*
X129377377Y-72871142D01*
X129172983Y-72774977D01*
X129155023Y-72792937D01*
X129155023Y-72757017D01*
X129058858Y-72552623D01*
X128690210Y-72386831D01*
X128991200Y-72272585D01*
X129058858Y-72227377D01*
X129155023Y-72022983D01*
X128270000Y-71137961D01*
X127384977Y-72022983D01*
X127481142Y-72227377D01*
X127849789Y-72393168D01*
X127548800Y-72507415D01*
X127481142Y-72552623D01*
X127384977Y-72757017D01*
X128270000Y-73642039D01*
X129155023Y-72757017D01*
X129155023Y-72792937D01*
X128287961Y-73660000D01*
X128302102Y-73674142D01*
X128284142Y-73692103D01*
X128270000Y-73677961D01*
X128255857Y-73692102D01*
X128237897Y-73674142D01*
X128252039Y-73660000D01*
X127367017Y-72774977D01*
X127162623Y-72871142D01*
X126998077Y-73237019D01*
X126861146Y-72905620D01*
X126486353Y-72530173D01*
X126148553Y-72389906D01*
X126484380Y-72251146D01*
X126859827Y-71876353D01*
X127001371Y-71535475D01*
X127117415Y-71841200D01*
X127162623Y-71908858D01*
X127367017Y-72005023D01*
X128252039Y-71120000D01*
X127367017Y-70234977D01*
X127162623Y-70331142D01*
X126998077Y-70697019D01*
X126861146Y-70365620D01*
X126486353Y-69990173D01*
X125996413Y-69786732D01*
X125465914Y-69786269D01*
X124975620Y-69988854D01*
X124600173Y-70363647D01*
X124396732Y-70853587D01*
X124396269Y-71384086D01*
X124598854Y-71874380D01*
X124973647Y-72249827D01*
X125311446Y-72390093D01*
X124975620Y-72528854D01*
X124600173Y-72903647D01*
X124396732Y-73393587D01*
X124396269Y-73924086D01*
X124598854Y-74414380D01*
X124973647Y-74789827D01*
X125311446Y-74930093D01*
X124975620Y-75068854D01*
X124600173Y-75443647D01*
X124396732Y-75933587D01*
X124396269Y-76464086D01*
X124598854Y-76954380D01*
X124973647Y-77329827D01*
X125311446Y-77470093D01*
X124975620Y-77608854D01*
X124600173Y-77983647D01*
X124396732Y-78473587D01*
X124396269Y-79004086D01*
X124598854Y-79494380D01*
X124973647Y-79869827D01*
X125311446Y-80010093D01*
X124975620Y-80148854D01*
X124600173Y-80523647D01*
X124396732Y-81013587D01*
X124396269Y-81544086D01*
X124598854Y-82034380D01*
X124973647Y-82409827D01*
X125311446Y-82550093D01*
X124975620Y-82688854D01*
X124600173Y-83063647D01*
X124396732Y-83553587D01*
X124396269Y-84084086D01*
X124598854Y-84574380D01*
X124973647Y-84949827D01*
X125311446Y-85090093D01*
X124975620Y-85228854D01*
X124600173Y-85603647D01*
X124396732Y-86093587D01*
X124396269Y-86624086D01*
X124598854Y-87114380D01*
X124973647Y-87489827D01*
X125311446Y-87630093D01*
X124975620Y-87768854D01*
X124600173Y-88143647D01*
X124396732Y-88633587D01*
X124396269Y-89164086D01*
X124598854Y-89654380D01*
X124973647Y-90029827D01*
X125311446Y-90170093D01*
X124975620Y-90308854D01*
X124600173Y-90683647D01*
X124396732Y-91173587D01*
X124396269Y-91704086D01*
X124598854Y-92194380D01*
X124973647Y-92569827D01*
X125311446Y-92710093D01*
X124975620Y-92848854D01*
X124600173Y-93223647D01*
X124475953Y-93522800D01*
X124382962Y-93522800D01*
X124207999Y-93557602D01*
X124059673Y-93656711D01*
X122231711Y-95484673D01*
X122132602Y-95632999D01*
X122097800Y-95807962D01*
X122097800Y-100965000D01*
X122132602Y-101139963D01*
X122231711Y-101288289D01*
X124136711Y-103193289D01*
X124285037Y-103292398D01*
X124460000Y-103327200D01*
X124656718Y-103327200D01*
X124600173Y-103383647D01*
X124396732Y-103873587D01*
X124396269Y-104404086D01*
X124598854Y-104894380D01*
X124973647Y-105269827D01*
X125311446Y-105410093D01*
X124975620Y-105548854D01*
X124600173Y-105923647D01*
X124396732Y-106413587D01*
X124396269Y-106944086D01*
X124598854Y-107434380D01*
X124973647Y-107809827D01*
X125311446Y-107950093D01*
X124975620Y-108088854D01*
X124600173Y-108463647D01*
X124396732Y-108953587D01*
X124396269Y-109484086D01*
X124598854Y-109974380D01*
X124973647Y-110349827D01*
X125311446Y-110490093D01*
X124975620Y-110628854D01*
X124600173Y-111003647D01*
X124396732Y-111493587D01*
X124396269Y-112024086D01*
X124598854Y-112514380D01*
X124973647Y-112889827D01*
X125311446Y-113030093D01*
X124975620Y-113168854D01*
X124600173Y-113543647D01*
X124396732Y-114033587D01*
X124396269Y-114564086D01*
X124598854Y-115054380D01*
X124973647Y-115429827D01*
X125311446Y-115570093D01*
X124975620Y-115708854D01*
X124600173Y-116083647D01*
X124396732Y-116573587D01*
X124396269Y-117104086D01*
X124598854Y-117594380D01*
X124973647Y-117969827D01*
X125311446Y-118110093D01*
X124975620Y-118248854D01*
X124600173Y-118623647D01*
X124396732Y-119113587D01*
X124396269Y-119644086D01*
X124598854Y-120134380D01*
X124973647Y-120509827D01*
X125311446Y-120650093D01*
X124975620Y-120788854D01*
X124600173Y-121163647D01*
X124396732Y-121653587D01*
X124396269Y-122184086D01*
X124519965Y-122483456D01*
X123501711Y-123501711D01*
X123402602Y-123650037D01*
X123367800Y-123825000D01*
X123367800Y-127635000D01*
X123402602Y-127809963D01*
X123501711Y-127958289D01*
X124136711Y-128593289D01*
X124285037Y-128692398D01*
X124460000Y-128727200D01*
X124656718Y-128727200D01*
X124600173Y-128783647D01*
X124396732Y-129273587D01*
X124396269Y-129804086D01*
X124598854Y-130294380D01*
X124973647Y-130669827D01*
X125311446Y-130810093D01*
X124975620Y-130948854D01*
X124600173Y-131323647D01*
X124396732Y-131813587D01*
X124396269Y-132344086D01*
X124598854Y-132834380D01*
X124973647Y-133209827D01*
X125463587Y-133413268D01*
X125994086Y-133413731D01*
X126484380Y-133211146D01*
X126859827Y-132836353D01*
X126936500Y-132651704D01*
X126936500Y-133108286D01*
X126994504Y-133248320D01*
X127101681Y-133355496D01*
X127241715Y-133413500D01*
X127393286Y-133413500D01*
X128162050Y-133413500D01*
X128257300Y-133318250D01*
X128257300Y-132092700D01*
X128237300Y-132092700D01*
X128237300Y-132067300D01*
X128257300Y-132067300D01*
X128257300Y-132047300D01*
X128282700Y-132047300D01*
X128282700Y-132067300D01*
X129508250Y-132067300D01*
X129603500Y-131972050D01*
X129603500Y-131051714D01*
X129545496Y-130911680D01*
X129438319Y-130804504D01*
X129298285Y-130746500D01*
X129146714Y-130746500D01*
X128849157Y-130746500D01*
X128991200Y-130692585D01*
X129058858Y-130647377D01*
X129155023Y-130442983D01*
X128270000Y-129557961D01*
X127384977Y-130442983D01*
X127481142Y-130647377D01*
X127701548Y-130746500D01*
X127393286Y-130746500D01*
X127241715Y-130746500D01*
X127101681Y-130804504D01*
X126994504Y-130911680D01*
X126936500Y-131051714D01*
X126936500Y-131507990D01*
X126861146Y-131325620D01*
X126486353Y-130950173D01*
X126148553Y-130809906D01*
X126484380Y-130671146D01*
X126859827Y-130296353D01*
X127001371Y-129955475D01*
X127117415Y-130261200D01*
X127162623Y-130328858D01*
X127367017Y-130425023D01*
X128252039Y-129540000D01*
X128237897Y-129525858D01*
X128255857Y-129507897D01*
X128270000Y-129522039D01*
X128284142Y-129507897D01*
X128302102Y-129525857D01*
X128287961Y-129540000D01*
X129172983Y-130425023D01*
X129377377Y-130328858D01*
X129594966Y-129845035D01*
X129610841Y-129314773D01*
X129422585Y-128818800D01*
X129377377Y-128751142D01*
X129326489Y-128727200D01*
X135599021Y-128727200D01*
X137547357Y-130675536D01*
X137414000Y-130675536D01*
X137268726Y-130703722D01*
X137141044Y-130787596D01*
X137055574Y-130914216D01*
X137025536Y-131064000D01*
X137025536Y-131287306D01*
X136700828Y-130942384D01*
X136203761Y-130718689D01*
X136121074Y-130702243D01*
X135902700Y-130778312D01*
X135902700Y-132067300D01*
X135922700Y-132067300D01*
X135922700Y-132092700D01*
X135902700Y-132092700D01*
X135902700Y-133381688D01*
X136121074Y-133457757D01*
X136203761Y-133441311D01*
X136700828Y-133217616D01*
X137025536Y-132872693D01*
X137025536Y-133096000D01*
X137053722Y-133241274D01*
X137137596Y-133368956D01*
X137264216Y-133454426D01*
X137414000Y-133484464D01*
X139446000Y-133484464D01*
X139591274Y-133456278D01*
X139718956Y-133372404D01*
X139804426Y-133245784D01*
X139834464Y-133096000D01*
X139834464Y-131064000D01*
X139806278Y-130918726D01*
X139722404Y-130791044D01*
X139595784Y-130705574D01*
X139446000Y-130675536D01*
X138811571Y-130675536D01*
X138780289Y-130628719D01*
X138797790Y-130632200D01*
X143955622Y-130632200D01*
X144545610Y-131222188D01*
X144693936Y-131321297D01*
X144868899Y-131356099D01*
X144913409Y-131356099D01*
X144725034Y-131774965D01*
X144709159Y-132305227D01*
X144897415Y-132801200D01*
X144942623Y-132868858D01*
X145147017Y-132965023D01*
X146032039Y-132080000D01*
X146017897Y-132065858D01*
X146035857Y-132047897D01*
X146050000Y-132062039D01*
X146064142Y-132047897D01*
X146082102Y-132065857D01*
X146067961Y-132080000D01*
X146952983Y-132965023D01*
X147157377Y-132868858D01*
X147321922Y-132502980D01*
X147458854Y-132834380D01*
X147833647Y-133209827D01*
X148323587Y-133413268D01*
X148854086Y-133413731D01*
X149344380Y-133211146D01*
X149719827Y-132836353D01*
X149923268Y-132346413D01*
X149923731Y-131815914D01*
X149721146Y-131325620D01*
X149346353Y-130950173D01*
X149008553Y-130809906D01*
X149344380Y-130671146D01*
X149719827Y-130296353D01*
X149923268Y-129806413D01*
X149923731Y-129275914D01*
X149721146Y-128785620D01*
X149346353Y-128410173D01*
X149008553Y-128269906D01*
X149344380Y-128131146D01*
X149719827Y-127756353D01*
X149923268Y-127266413D01*
X149923731Y-126735914D01*
X149721146Y-126245620D01*
X149346353Y-125870173D01*
X149008553Y-125729906D01*
X149344380Y-125591146D01*
X149719827Y-125216353D01*
X149923268Y-124726413D01*
X149923731Y-124195914D01*
X149721146Y-123705620D01*
X149346353Y-123330173D01*
X149008553Y-123189906D01*
X149344380Y-123051146D01*
X149719827Y-122676353D01*
X149923268Y-122186413D01*
X149923731Y-121655914D01*
X149721146Y-121165620D01*
X149346353Y-120790173D01*
X149008553Y-120649906D01*
X149344380Y-120511146D01*
X149719827Y-120136353D01*
X149923268Y-119646413D01*
X149923731Y-119115914D01*
X149721146Y-118625620D01*
X149346353Y-118250173D01*
X149008553Y-118109906D01*
X149344380Y-117971146D01*
X149719827Y-117596353D01*
X149923268Y-117106413D01*
X149923731Y-116575914D01*
X149721146Y-116085620D01*
X149346353Y-115710173D01*
X149008553Y-115569906D01*
X149344380Y-115431146D01*
X149719827Y-115056353D01*
X149923268Y-114566413D01*
X149923731Y-114035914D01*
X149721146Y-113545620D01*
X149346353Y-113170173D01*
X149008553Y-113029906D01*
X149344380Y-112891146D01*
X149719827Y-112516353D01*
X149923268Y-112026413D01*
X149923731Y-111495914D01*
X149721146Y-111005620D01*
X149346353Y-110630173D01*
X149008553Y-110489906D01*
X149344380Y-110351146D01*
X149719827Y-109976353D01*
X149923268Y-109486413D01*
X149923731Y-108955914D01*
X149721146Y-108465620D01*
X149662827Y-108407200D01*
X149860000Y-108407200D01*
X150034963Y-108372398D01*
X150183289Y-108273289D01*
X150818289Y-107638289D01*
X150917398Y-107489963D01*
X150952200Y-107315000D01*
X150952200Y-143054000D01*
X149805881Y-143054000D01*
X149805881Y-137878067D01*
X149558920Y-137280375D01*
X149102030Y-136822687D01*
X148504770Y-136574683D01*
X147858067Y-136574119D01*
X147260375Y-136821080D01*
X146935023Y-137145864D01*
X146935023Y-132982983D01*
X146050000Y-132097961D01*
X145164977Y-132982983D01*
X145261142Y-133187377D01*
X145744965Y-133404966D01*
X146275227Y-133420841D01*
X146771200Y-133232585D01*
X146838858Y-133187377D01*
X146935023Y-132982983D01*
X146935023Y-137145864D01*
X146802687Y-137277970D01*
X146554683Y-137875230D01*
X146554119Y-138521933D01*
X146801080Y-139119625D01*
X147257970Y-139577313D01*
X147855230Y-139825317D01*
X148501933Y-139825881D01*
X149099625Y-139578920D01*
X149557313Y-139122030D01*
X149805317Y-138524770D01*
X149805881Y-137878067D01*
X149805881Y-143054000D01*
X135877300Y-143054000D01*
X135877300Y-133381688D01*
X135877300Y-132092700D01*
X135877300Y-132067300D01*
X135877300Y-130778312D01*
X135658926Y-130702243D01*
X135576239Y-130718689D01*
X135079172Y-130942384D01*
X134705546Y-131339270D01*
X134512242Y-131848926D01*
X134588307Y-132067300D01*
X135877300Y-132067300D01*
X135877300Y-132092700D01*
X134588307Y-132092700D01*
X134512242Y-132311074D01*
X134705546Y-132820730D01*
X135079172Y-133217616D01*
X135576239Y-133441311D01*
X135658926Y-133457757D01*
X135877300Y-133381688D01*
X135877300Y-143054000D01*
X129603500Y-143054000D01*
X129603500Y-133108286D01*
X129603500Y-132187950D01*
X129508250Y-132092700D01*
X128282700Y-132092700D01*
X128282700Y-133318250D01*
X128377950Y-133413500D01*
X129146714Y-133413500D01*
X129298285Y-133413500D01*
X129438319Y-133355496D01*
X129545496Y-133248320D01*
X129603500Y-133108286D01*
X129603500Y-143054000D01*
X127765881Y-143054000D01*
X127765881Y-137878067D01*
X127518920Y-137280375D01*
X127062030Y-136822687D01*
X126464770Y-136574683D01*
X125818067Y-136574119D01*
X125220375Y-136821080D01*
X124762687Y-137277970D01*
X124514683Y-137875230D01*
X124514119Y-138521933D01*
X124761080Y-139119625D01*
X125217970Y-139577313D01*
X125815230Y-139825317D01*
X126461933Y-139825881D01*
X127059625Y-139578920D01*
X127517313Y-139122030D01*
X127765317Y-138524770D01*
X127765881Y-137878067D01*
X127765881Y-143054000D01*
X119836000Y-143054000D01*
X119836000Y-60146000D01*
X154484000Y-60146000D01*
X154484000Y-143054000D01*
M02*
