%FSLAX45Y45*%
G04 Gerber Fmt 4.5, Leading zero omitted, Abs format (unit mm)*
G04 Created by KiCad (PCBNEW (2014-12-16 BZR 5324)-product) date Thursday, July 30, 2015 'PMt' 09:23:22 PM*
%MOMM*%
G01*
G04 APERTURE LIST*
%ADD10C,0.127000*%
%ADD11C,0.150000*%
%ADD12C,0.200000*%
%ADD13C,0.300000*%
G04 APERTURE END LIST*
D10*
D11*
X3556000Y0D02*
X0Y0D01*
X3556000Y8382000D02*
X3556000Y0D01*
X0Y8382000D02*
X3556000Y8382000D01*
X0Y0D02*
X0Y8382000D01*
D12*
X1316990Y4969510D02*
X1350010Y4936490D01*
X1350010Y4969510D02*
X1316990Y4936490D01*
X1316990Y4461510D02*
X1350010Y4428490D01*
X1350010Y4461510D02*
X1316990Y4428490D01*
X1316990Y3953510D02*
X1350010Y3920490D01*
X1350010Y3953510D02*
X1316990Y3920490D01*
X1380490Y3509010D02*
X1413510Y3475990D01*
X1413510Y3509010D02*
X1380490Y3475990D01*
X1380490Y2048510D02*
X1413510Y2015490D01*
X1413510Y2048510D02*
X1380490Y2015490D01*
X1443990Y5414010D02*
X1477010Y5380990D01*
X1477010Y5414010D02*
X1443990Y5380990D01*
X1443990Y3318510D02*
X1477010Y3285490D01*
X1477010Y3318510D02*
X1443990Y3285490D01*
X1443990Y2810510D02*
X1477010Y2777490D01*
X1477010Y2810510D02*
X1443990Y2777490D01*
X1443990Y1921510D02*
X1477010Y1888490D01*
X1477010Y1921510D02*
X1443990Y1888490D01*
X1507490Y5604510D02*
X1540510Y5571490D01*
X1540510Y5604510D02*
X1507490Y5571490D01*
X1507490Y3064510D02*
X1540510Y3031490D01*
X1540510Y3064510D02*
X1507490Y3031490D01*
X1570990Y5858510D02*
X1604010Y5825490D01*
X1604010Y5858510D02*
X1570990Y5825490D01*
X1570990Y2810510D02*
X1604010Y2777490D01*
X1604010Y2810510D02*
X1570990Y2777490D01*
X1634490Y6112510D02*
X1667510Y6079490D01*
X1667510Y6112510D02*
X1634490Y6079490D01*
X1634490Y2556510D02*
X1667510Y2523490D01*
X1667510Y2556510D02*
X1634490Y2523490D01*
X1697990Y6366510D02*
X1731010Y6333490D01*
X1731010Y6366510D02*
X1697990Y6333490D01*
X1697990Y2302510D02*
X1731010Y2269490D01*
X1731010Y2302510D02*
X1697990Y2269490D01*
X1761490Y6620510D02*
X1794510Y6587490D01*
X1794510Y6620510D02*
X1761490Y6587490D01*
X1761490Y2048510D02*
X1794510Y2015490D01*
X1794510Y2048510D02*
X1761490Y2015490D01*
X1824990Y6874510D02*
X1858010Y6841490D01*
X1858010Y6874510D02*
X1824990Y6841490D01*
X1824990Y1794510D02*
X1858010Y1761490D01*
X1858010Y1794510D02*
X1824990Y1761490D01*
X1951990Y3191510D02*
X1985010Y3158490D01*
X1985010Y3191510D02*
X1951990Y3158490D01*
X2015490Y5414010D02*
X2048510Y5380990D01*
X2048510Y5414010D02*
X2015490Y5380990D01*
X2015490Y3445510D02*
X2048510Y3412490D01*
X2048510Y3445510D02*
X2015490Y3412490D01*
X2015490Y2937510D02*
X2048510Y2904490D01*
X2048510Y2937510D02*
X2015490Y2904490D01*
X2142490Y4969510D02*
X2175510Y4936490D01*
X2175510Y4969510D02*
X2142490Y4936490D01*
X2142490Y4461510D02*
X2175510Y4428490D01*
X2175510Y4461510D02*
X2142490Y4428490D01*
X2142490Y3953510D02*
X2175510Y3920490D01*
X2175510Y3953510D02*
X2142490Y3920490D01*
X1320038Y5207000D02*
G75*
G03X1320038Y5207000I-50038J0D01*
G01*
X1320038Y4699000D02*
G75*
G03X1320038Y4699000I-50038J0D01*
G01*
X1320038Y4191000D02*
G75*
G03X1320038Y4191000I-50038J0D01*
G01*
X1320038Y3683000D02*
G75*
G03X1320038Y3683000I-50038J0D01*
G01*
X2336038Y5207000D02*
G75*
G03X2336038Y5207000I-50038J0D01*
G01*
X2336038Y4699000D02*
G75*
G03X2336038Y4699000I-50038J0D01*
G01*
X2336038Y4191000D02*
G75*
G03X2336038Y4191000I-50038J0D01*
G01*
X2336038Y3683000D02*
G75*
G03X2336038Y3683000I-50038J0D01*
G01*
X1206500Y1193800D02*
X1206500Y1092200D01*
X1155700Y1143000D02*
X1257300Y1143000D01*
X1397000Y7289800D02*
X1397000Y7188200D01*
X1346200Y7239000D02*
X1447800Y7239000D01*
X1460500Y1193800D02*
X1460500Y1092200D01*
X1409700Y1143000D02*
X1511300Y1143000D01*
X1651000Y7289800D02*
X1651000Y7188200D01*
X1600200Y7239000D02*
X1701800Y7239000D01*
X1841500Y1193800D02*
X1841500Y1092200D01*
X1790700Y1143000D02*
X1892300Y1143000D01*
X1905000Y7289800D02*
X1905000Y7188200D01*
X1854200Y7239000D02*
X1955800Y7239000D01*
X2095500Y1193800D02*
X2095500Y1092200D01*
X2044700Y1143000D02*
X2146300Y1143000D01*
X2349500Y1193800D02*
X2349500Y1092200D01*
X2298700Y1143000D02*
X2400300Y1143000D01*
X2667000Y7289800D02*
X2667000Y7188200D01*
X2616200Y7239000D02*
X2717800Y7239000D01*
X2921000Y7289800D02*
X2921000Y7188200D01*
X2870200Y7239000D02*
X2971800Y7239000D01*
X3175000Y7289800D02*
X3175000Y7188200D01*
X3124200Y7239000D02*
X3225800Y7239000D01*
X672717Y7201283D02*
X672717Y7276717D01*
X597283Y7276717D01*
X597283Y7201283D01*
X672717Y7201283D01*
X672717Y6947283D02*
X672717Y7022717D01*
X597283Y7022717D01*
X597283Y6947283D01*
X672717Y6947283D01*
X672717Y6693283D02*
X672717Y6768717D01*
X597283Y6768717D01*
X597283Y6693283D01*
X672717Y6693283D01*
X672717Y6439283D02*
X672717Y6514717D01*
X597283Y6514717D01*
X597283Y6439283D01*
X672717Y6439283D01*
X672717Y6185283D02*
X672717Y6260717D01*
X597283Y6260717D01*
X597283Y6185283D01*
X672717Y6185283D01*
X672717Y5931283D02*
X672717Y6006717D01*
X597283Y6006717D01*
X597283Y5931283D01*
X672717Y5931283D01*
X672717Y5677283D02*
X672717Y5752717D01*
X597283Y5752717D01*
X597283Y5677283D01*
X672717Y5677283D01*
X672717Y5423283D02*
X672717Y5498717D01*
X597283Y5498717D01*
X597283Y5423283D01*
X672717Y5423283D01*
X672717Y5169283D02*
X672717Y5244717D01*
X597283Y5244717D01*
X597283Y5169283D01*
X672717Y5169283D01*
X672717Y4915283D02*
X672717Y4990717D01*
X597283Y4990717D01*
X597283Y4915283D01*
X672717Y4915283D01*
X672717Y4661283D02*
X672717Y4736717D01*
X597283Y4736717D01*
X597283Y4661283D01*
X672717Y4661283D01*
X672717Y4407283D02*
X672717Y4482717D01*
X597283Y4482717D01*
X597283Y4407283D01*
X672717Y4407283D01*
X672717Y4153283D02*
X672717Y4228717D01*
X597283Y4228717D01*
X597283Y4153283D01*
X672717Y4153283D01*
X672717Y3899283D02*
X672717Y3974717D01*
X597283Y3974717D01*
X597283Y3899283D01*
X672717Y3899283D01*
X672717Y3645283D02*
X672717Y3720717D01*
X597283Y3720717D01*
X597283Y3645283D01*
X672717Y3645283D01*
X672717Y3391283D02*
X672717Y3466717D01*
X597283Y3466717D01*
X597283Y3391283D01*
X672717Y3391283D01*
X672717Y3137283D02*
X672717Y3212717D01*
X597283Y3212717D01*
X597283Y3137283D01*
X672717Y3137283D01*
X672717Y2883283D02*
X672717Y2958717D01*
X597283Y2958717D01*
X597283Y2883283D01*
X672717Y2883283D01*
X672717Y2629283D02*
X672717Y2704717D01*
X597283Y2704717D01*
X597283Y2629283D01*
X672717Y2629283D01*
X672717Y2375283D02*
X672717Y2450717D01*
X597283Y2450717D01*
X597283Y2375283D01*
X672717Y2375283D01*
X672717Y2121283D02*
X672717Y2196717D01*
X597283Y2196717D01*
X597283Y2121283D01*
X672717Y2121283D01*
X672717Y1867283D02*
X672717Y1942717D01*
X597283Y1942717D01*
X597283Y1867283D01*
X672717Y1867283D01*
X672717Y1613283D02*
X672717Y1688717D01*
X597283Y1688717D01*
X597283Y1613283D01*
X672717Y1613283D01*
X672717Y1359283D02*
X672717Y1434717D01*
X597283Y1434717D01*
X597283Y1359283D01*
X672717Y1359283D01*
X672717Y1105283D02*
X672717Y1180717D01*
X597283Y1180717D01*
X597283Y1105283D01*
X672717Y1105283D01*
X926717Y7201283D02*
X926717Y7276717D01*
X851283Y7276717D01*
X851283Y7201283D01*
X926717Y7201283D01*
X926717Y6947283D02*
X926717Y7022717D01*
X851283Y7022717D01*
X851283Y6947283D01*
X926717Y6947283D01*
X926717Y6693283D02*
X926717Y6768717D01*
X851283Y6768717D01*
X851283Y6693283D01*
X926717Y6693283D01*
X926717Y6439283D02*
X926717Y6514717D01*
X851283Y6514717D01*
X851283Y6439283D01*
X926717Y6439283D01*
X926717Y6185283D02*
X926717Y6260717D01*
X851283Y6260717D01*
X851283Y6185283D01*
X926717Y6185283D01*
X926717Y5931283D02*
X926717Y6006717D01*
X851283Y6006717D01*
X851283Y5931283D01*
X926717Y5931283D01*
X926717Y5677283D02*
X926717Y5752717D01*
X851283Y5752717D01*
X851283Y5677283D01*
X926717Y5677283D01*
X926717Y5423283D02*
X926717Y5498717D01*
X851283Y5498717D01*
X851283Y5423283D01*
X926717Y5423283D01*
X926717Y5169283D02*
X926717Y5244717D01*
X851283Y5244717D01*
X851283Y5169283D01*
X926717Y5169283D01*
X926717Y4915283D02*
X926717Y4990717D01*
X851283Y4990717D01*
X851283Y4915283D01*
X926717Y4915283D01*
X926717Y4661283D02*
X926717Y4736717D01*
X851283Y4736717D01*
X851283Y4661283D01*
X926717Y4661283D01*
X926717Y4407283D02*
X926717Y4482717D01*
X851283Y4482717D01*
X851283Y4407283D01*
X926717Y4407283D01*
X926717Y4153283D02*
X926717Y4228717D01*
X851283Y4228717D01*
X851283Y4153283D01*
X926717Y4153283D01*
X926717Y3899283D02*
X926717Y3974717D01*
X851283Y3974717D01*
X851283Y3899283D01*
X926717Y3899283D01*
X926717Y3645283D02*
X926717Y3720717D01*
X851283Y3720717D01*
X851283Y3645283D01*
X926717Y3645283D01*
X926717Y3391283D02*
X926717Y3466717D01*
X851283Y3466717D01*
X851283Y3391283D01*
X926717Y3391283D01*
X926717Y3137283D02*
X926717Y3212717D01*
X851283Y3212717D01*
X851283Y3137283D01*
X926717Y3137283D01*
X926717Y2883283D02*
X926717Y2958717D01*
X851283Y2958717D01*
X851283Y2883283D01*
X926717Y2883283D01*
X926717Y2629283D02*
X926717Y2704717D01*
X851283Y2704717D01*
X851283Y2629283D01*
X926717Y2629283D01*
X926717Y2375283D02*
X926717Y2450717D01*
X851283Y2450717D01*
X851283Y2375283D01*
X926717Y2375283D01*
X926717Y2121283D02*
X926717Y2196717D01*
X851283Y2196717D01*
X851283Y2121283D01*
X926717Y2121283D01*
X926717Y1867283D02*
X926717Y1942717D01*
X851283Y1942717D01*
X851283Y1867283D01*
X926717Y1867283D01*
X926717Y1613283D02*
X926717Y1688717D01*
X851283Y1688717D01*
X851283Y1613283D01*
X926717Y1613283D01*
X926717Y1359283D02*
X926717Y1434717D01*
X851283Y1434717D01*
X851283Y1359283D01*
X926717Y1359283D01*
X926717Y1105283D02*
X926717Y1180717D01*
X851283Y1180717D01*
X851283Y1105283D01*
X926717Y1105283D01*
X2704717Y5169283D02*
X2704717Y5244717D01*
X2629283Y5244717D01*
X2629283Y5169283D01*
X2704717Y5169283D01*
X2704717Y4915283D02*
X2704717Y4990717D01*
X2629283Y4990717D01*
X2629283Y4915283D01*
X2704717Y4915283D01*
X2704717Y4661283D02*
X2704717Y4736717D01*
X2629283Y4736717D01*
X2629283Y4661283D01*
X2704717Y4661283D01*
X2704717Y4407283D02*
X2704717Y4482717D01*
X2629283Y4482717D01*
X2629283Y4407283D01*
X2704717Y4407283D01*
X2704717Y4153283D02*
X2704717Y4228717D01*
X2629283Y4228717D01*
X2629283Y4153283D01*
X2704717Y4153283D01*
X2704717Y3899283D02*
X2704717Y3974717D01*
X2629283Y3974717D01*
X2629283Y3899283D01*
X2704717Y3899283D01*
X2704717Y3645283D02*
X2704717Y3720717D01*
X2629283Y3720717D01*
X2629283Y3645283D01*
X2704717Y3645283D01*
X2704717Y3391283D02*
X2704717Y3466717D01*
X2629283Y3466717D01*
X2629283Y3391283D01*
X2704717Y3391283D01*
X2704717Y3137283D02*
X2704717Y3212717D01*
X2629283Y3212717D01*
X2629283Y3137283D01*
X2704717Y3137283D01*
X2704717Y2883283D02*
X2704717Y2958717D01*
X2629283Y2958717D01*
X2629283Y2883283D01*
X2704717Y2883283D01*
X2704717Y2629283D02*
X2704717Y2704717D01*
X2629283Y2704717D01*
X2629283Y2629283D01*
X2704717Y2629283D01*
X2704717Y2375283D02*
X2704717Y2450717D01*
X2629283Y2450717D01*
X2629283Y2375283D01*
X2704717Y2375283D01*
X2704717Y2121283D02*
X2704717Y2196717D01*
X2629283Y2196717D01*
X2629283Y2121283D01*
X2704717Y2121283D01*
X2704717Y1867283D02*
X2704717Y1942717D01*
X2629283Y1942717D01*
X2629283Y1867283D01*
X2704717Y1867283D01*
X2704717Y1613283D02*
X2704717Y1688717D01*
X2629283Y1688717D01*
X2629283Y1613283D01*
X2704717Y1613283D01*
X2704717Y1359283D02*
X2704717Y1434717D01*
X2629283Y1434717D01*
X2629283Y1359283D01*
X2704717Y1359283D01*
X2704717Y1105283D02*
X2704717Y1180717D01*
X2629283Y1180717D01*
X2629283Y1105283D01*
X2704717Y1105283D01*
X2958717Y5169283D02*
X2958717Y5244717D01*
X2883283Y5244717D01*
X2883283Y5169283D01*
X2958717Y5169283D01*
X2958717Y4915283D02*
X2958717Y4990717D01*
X2883283Y4990717D01*
X2883283Y4915283D01*
X2958717Y4915283D01*
X2958717Y4661283D02*
X2958717Y4736717D01*
X2883283Y4736717D01*
X2883283Y4661283D01*
X2958717Y4661283D01*
X2958717Y4407283D02*
X2958717Y4482717D01*
X2883283Y4482717D01*
X2883283Y4407283D01*
X2958717Y4407283D01*
X2958717Y4153283D02*
X2958717Y4228717D01*
X2883283Y4228717D01*
X2883283Y4153283D01*
X2958717Y4153283D01*
X2958717Y3899283D02*
X2958717Y3974717D01*
X2883283Y3974717D01*
X2883283Y3899283D01*
X2958717Y3899283D01*
X2958717Y3645283D02*
X2958717Y3720717D01*
X2883283Y3720717D01*
X2883283Y3645283D01*
X2958717Y3645283D01*
X2958717Y3391283D02*
X2958717Y3466717D01*
X2883283Y3466717D01*
X2883283Y3391283D01*
X2958717Y3391283D01*
X2958717Y3137283D02*
X2958717Y3212717D01*
X2883283Y3212717D01*
X2883283Y3137283D01*
X2958717Y3137283D01*
X2958717Y2883283D02*
X2958717Y2958717D01*
X2883283Y2958717D01*
X2883283Y2883283D01*
X2958717Y2883283D01*
X2958717Y2629283D02*
X2958717Y2704717D01*
X2883283Y2704717D01*
X2883283Y2629283D01*
X2958717Y2629283D01*
X2958717Y2375283D02*
X2958717Y2450717D01*
X2883283Y2450717D01*
X2883283Y2375283D01*
X2958717Y2375283D01*
X2958717Y2121283D02*
X2958717Y2196717D01*
X2883283Y2196717D01*
X2883283Y2121283D01*
X2958717Y2121283D01*
X2958717Y1867283D02*
X2958717Y1942717D01*
X2883283Y1942717D01*
X2883283Y1867283D01*
X2958717Y1867283D01*
X2958717Y1613283D02*
X2958717Y1688717D01*
X2883283Y1688717D01*
X2883283Y1613283D01*
X2958717Y1613283D01*
X2958717Y1359283D02*
X2958717Y1434717D01*
X2883283Y1434717D01*
X2883283Y1359283D01*
X2958717Y1359283D01*
X2958717Y1105283D02*
X2958717Y1180717D01*
X2883283Y1180717D01*
X2883283Y1105283D01*
X2958717Y1105283D01*
X676000Y7726540D02*
X800460Y7851000D01*
X676000Y7975460D01*
X551540Y7851000D01*
X676000Y7726540D01*
X676000Y406540D02*
X800460Y531000D01*
X676000Y655460D01*
X551540Y531000D01*
X676000Y406540D01*
X2880000Y5694540D02*
X3004460Y5819000D01*
X2880000Y5943460D01*
X2755540Y5819000D01*
X2880000Y5694540D01*
X2880000Y406540D02*
X3004460Y531000D01*
X2880000Y655460D01*
X2755540Y531000D01*
X2880000Y406540D01*
D13*
X263929Y-473214D02*
X263929Y-173214D01*
X335357Y-173214D01*
X378214Y-187500D01*
X406786Y-216071D01*
X421071Y-244643D01*
X435357Y-301786D01*
X435357Y-344643D01*
X421071Y-401786D01*
X406786Y-430357D01*
X378214Y-458929D01*
X335357Y-473214D01*
X263929Y-473214D01*
X563929Y-473214D02*
X563929Y-273214D01*
X563929Y-330357D02*
X578214Y-301786D01*
X592500Y-287500D01*
X621071Y-273214D01*
X649643Y-273214D01*
X749643Y-473214D02*
X749643Y-273214D01*
X749643Y-173214D02*
X735357Y-187500D01*
X749643Y-201786D01*
X763928Y-187500D01*
X749643Y-173214D01*
X749643Y-201786D01*
X935357Y-473214D02*
X906786Y-458929D01*
X892500Y-430357D01*
X892500Y-173214D01*
X1092500Y-473214D02*
X1063929Y-458929D01*
X1049643Y-430357D01*
X1049643Y-173214D01*
X1435357Y-473214D02*
X1435357Y-173214D01*
X1535357Y-387500D01*
X1635357Y-173214D01*
X1635357Y-473214D01*
X1906786Y-473214D02*
X1906786Y-316072D01*
X1892500Y-287500D01*
X1863928Y-273214D01*
X1806786Y-273214D01*
X1778214Y-287500D01*
X1906786Y-458929D02*
X1878214Y-473214D01*
X1806786Y-473214D01*
X1778214Y-458929D01*
X1763928Y-430357D01*
X1763928Y-401786D01*
X1778214Y-373214D01*
X1806786Y-358929D01*
X1878214Y-358929D01*
X1906786Y-344643D01*
X2049643Y-273214D02*
X2049643Y-573214D01*
X2049643Y-287500D02*
X2078214Y-273214D01*
X2135357Y-273214D01*
X2163929Y-287500D01*
X2178214Y-301786D01*
X2192500Y-330357D01*
X2192500Y-416071D01*
X2178214Y-444643D01*
X2163929Y-458929D01*
X2135357Y-473214D01*
X2078214Y-473214D01*
X2049643Y-458929D01*
X2321071Y-444643D02*
X2335357Y-458929D01*
X2321071Y-473214D01*
X2306786Y-458929D01*
X2321071Y-444643D01*
X2321071Y-473214D01*
X2321071Y-287500D02*
X2335357Y-301786D01*
X2321071Y-316072D01*
X2306786Y-301786D01*
X2321071Y-287500D01*
X2321071Y-316072D01*
X-40520Y-950990D02*
X-7500Y-984010D01*
X-7500Y-950990D02*
X-40520Y-984010D01*
X321071Y-803214D02*
X349643Y-803214D01*
X378214Y-817500D01*
X392500Y-831786D01*
X406786Y-860357D01*
X421071Y-917500D01*
X421071Y-988929D01*
X406786Y-1046071D01*
X392500Y-1074643D01*
X378214Y-1088929D01*
X349643Y-1103214D01*
X321071Y-1103214D01*
X292500Y-1088929D01*
X278214Y-1074643D01*
X263929Y-1046071D01*
X249643Y-988929D01*
X249643Y-917500D01*
X263929Y-860357D01*
X278214Y-831786D01*
X292500Y-817500D01*
X321071Y-803214D01*
X549643Y-1074643D02*
X563929Y-1088929D01*
X549643Y-1103214D01*
X535357Y-1088929D01*
X549643Y-1074643D01*
X549643Y-1103214D01*
X663928Y-803214D02*
X849643Y-803214D01*
X749643Y-917500D01*
X792500Y-917500D01*
X821071Y-931786D01*
X835357Y-946071D01*
X849643Y-974643D01*
X849643Y-1046071D01*
X835357Y-1074643D01*
X821071Y-1088929D01*
X792500Y-1103214D01*
X706786Y-1103214D01*
X678214Y-1088929D01*
X663928Y-1074643D01*
X949643Y-803214D02*
X1135357Y-803214D01*
X1035357Y-917500D01*
X1078214Y-917500D01*
X1106786Y-931786D01*
X1121071Y-946071D01*
X1135357Y-974643D01*
X1135357Y-1046071D01*
X1121071Y-1074643D01*
X1106786Y-1088929D01*
X1078214Y-1103214D01*
X992500Y-1103214D01*
X963928Y-1088929D01*
X949643Y-1074643D01*
X1263929Y-1103214D02*
X1263929Y-903214D01*
X1263929Y-931786D02*
X1278214Y-917500D01*
X1306786Y-903214D01*
X1349643Y-903214D01*
X1378214Y-917500D01*
X1392500Y-946071D01*
X1392500Y-1103214D01*
X1392500Y-946071D02*
X1406786Y-917500D01*
X1435357Y-903214D01*
X1478214Y-903214D01*
X1506786Y-917500D01*
X1521071Y-946071D01*
X1521071Y-1103214D01*
X1663928Y-1103214D02*
X1663928Y-903214D01*
X1663928Y-931786D02*
X1678214Y-917500D01*
X1706786Y-903214D01*
X1749643Y-903214D01*
X1778214Y-917500D01*
X1792500Y-946071D01*
X1792500Y-1103214D01*
X1792500Y-946071D02*
X1806786Y-917500D01*
X1835357Y-903214D01*
X1878214Y-903214D01*
X1906786Y-917500D01*
X1921071Y-946071D01*
X1921071Y-1103214D01*
X2506786Y-788929D02*
X2249643Y-1174643D01*
X2892500Y-803214D02*
X2921071Y-803214D01*
X2949643Y-817500D01*
X2963928Y-831786D01*
X2978214Y-860357D01*
X2992500Y-917500D01*
X2992500Y-988929D01*
X2978214Y-1046071D01*
X2963928Y-1074643D01*
X2949643Y-1088929D01*
X2921071Y-1103214D01*
X2892500Y-1103214D01*
X2863928Y-1088929D01*
X2849643Y-1074643D01*
X2835357Y-1046071D01*
X2821071Y-988929D01*
X2821071Y-917500D01*
X2835357Y-860357D01*
X2849643Y-831786D01*
X2863928Y-817500D01*
X2892500Y-803214D01*
X3121071Y-1074643D02*
X3135357Y-1088929D01*
X3121071Y-1103214D01*
X3106786Y-1088929D01*
X3121071Y-1074643D01*
X3121071Y-1103214D01*
X3321071Y-803214D02*
X3349643Y-803214D01*
X3378214Y-817500D01*
X3392500Y-831786D01*
X3406785Y-860357D01*
X3421071Y-917500D01*
X3421071Y-988929D01*
X3406785Y-1046071D01*
X3392500Y-1074643D01*
X3378214Y-1088929D01*
X3349643Y-1103214D01*
X3321071Y-1103214D01*
X3292500Y-1088929D01*
X3278214Y-1074643D01*
X3263928Y-1046071D01*
X3249643Y-988929D01*
X3249643Y-917500D01*
X3263928Y-860357D01*
X3278214Y-831786D01*
X3292500Y-817500D01*
X3321071Y-803214D01*
X3706785Y-1103214D02*
X3535357Y-1103214D01*
X3621071Y-1103214D02*
X3621071Y-803214D01*
X3592500Y-846071D01*
X3563928Y-874643D01*
X3535357Y-888929D01*
X3806785Y-803214D02*
X3992500Y-803214D01*
X3892500Y-917500D01*
X3935357Y-917500D01*
X3963928Y-931786D01*
X3978214Y-946071D01*
X3992500Y-974643D01*
X3992500Y-1046071D01*
X3978214Y-1074643D01*
X3963928Y-1088929D01*
X3935357Y-1103214D01*
X3849643Y-1103214D01*
X3821071Y-1088929D01*
X3806785Y-1074643D01*
X4106786Y-803214D02*
X4106786Y-860357D01*
X4221071Y-803214D02*
X4221071Y-860357D01*
X4663928Y-1217500D02*
X4649643Y-1203214D01*
X4621071Y-1160357D01*
X4606786Y-1131786D01*
X4592500Y-1088929D01*
X4578214Y-1017500D01*
X4578214Y-960357D01*
X4592500Y-888929D01*
X4606786Y-846071D01*
X4621071Y-817500D01*
X4649643Y-774643D01*
X4663928Y-760357D01*
X4763928Y-831786D02*
X4778214Y-817500D01*
X4806786Y-803214D01*
X4878214Y-803214D01*
X4906786Y-817500D01*
X4921071Y-831786D01*
X4935357Y-860357D01*
X4935357Y-888929D01*
X4921071Y-931786D01*
X4749643Y-1103214D01*
X4935357Y-1103214D01*
X5106786Y-931786D02*
X5078214Y-917500D01*
X5063928Y-903214D01*
X5049643Y-874643D01*
X5049643Y-860357D01*
X5063928Y-831786D01*
X5078214Y-817500D01*
X5106786Y-803214D01*
X5163928Y-803214D01*
X5192500Y-817500D01*
X5206786Y-831786D01*
X5221071Y-860357D01*
X5221071Y-874643D01*
X5206786Y-903214D01*
X5192500Y-917500D01*
X5163928Y-931786D01*
X5106786Y-931786D01*
X5078214Y-946071D01*
X5063928Y-960357D01*
X5049643Y-988929D01*
X5049643Y-1046071D01*
X5063928Y-1074643D01*
X5078214Y-1088929D01*
X5106786Y-1103214D01*
X5163928Y-1103214D01*
X5192500Y-1088929D01*
X5206786Y-1074643D01*
X5221071Y-1046071D01*
X5221071Y-988929D01*
X5206786Y-960357D01*
X5192500Y-946071D01*
X5163928Y-931786D01*
X5578214Y-1103214D02*
X5578214Y-803214D01*
X5706785Y-1103214D02*
X5706785Y-946071D01*
X5692500Y-917500D01*
X5663928Y-903214D01*
X5621071Y-903214D01*
X5592500Y-917500D01*
X5578214Y-931786D01*
X5892500Y-1103214D02*
X5863928Y-1088929D01*
X5849643Y-1074643D01*
X5835357Y-1046071D01*
X5835357Y-960357D01*
X5849643Y-931786D01*
X5863928Y-917500D01*
X5892500Y-903214D01*
X5935357Y-903214D01*
X5963928Y-917500D01*
X5978214Y-931786D01*
X5992500Y-960357D01*
X5992500Y-1046071D01*
X5978214Y-1074643D01*
X5963928Y-1088929D01*
X5935357Y-1103214D01*
X5892500Y-1103214D01*
X6163928Y-1103214D02*
X6135357Y-1088929D01*
X6121071Y-1060357D01*
X6121071Y-803214D01*
X6392500Y-1088929D02*
X6363928Y-1103214D01*
X6306786Y-1103214D01*
X6278214Y-1088929D01*
X6263928Y-1060357D01*
X6263928Y-946071D01*
X6278214Y-917500D01*
X6306786Y-903214D01*
X6363928Y-903214D01*
X6392500Y-917500D01*
X6406786Y-946071D01*
X6406786Y-974643D01*
X6263928Y-1003214D01*
X6521071Y-1088929D02*
X6549643Y-1103214D01*
X6606786Y-1103214D01*
X6635357Y-1088929D01*
X6649643Y-1060357D01*
X6649643Y-1046071D01*
X6635357Y-1017500D01*
X6606786Y-1003214D01*
X6563928Y-1003214D01*
X6535357Y-988929D01*
X6521071Y-960357D01*
X6521071Y-946071D01*
X6535357Y-917500D01*
X6563928Y-903214D01*
X6606786Y-903214D01*
X6635357Y-917500D01*
X6749643Y-1217500D02*
X6763928Y-1203214D01*
X6792500Y-1160357D01*
X6806786Y-1131786D01*
X6821071Y-1088929D01*
X6835357Y-1017500D01*
X6835357Y-960357D01*
X6821071Y-888929D01*
X6806786Y-846071D01*
X6792500Y-817500D01*
X6763928Y-774643D01*
X6749643Y-760357D01*
X-7500Y-1363500D02*
G75*
G03X-7500Y-1363500I-50038J0D01*
G01*
X421071Y-1499214D02*
X249643Y-1499214D01*
X335357Y-1499214D02*
X335357Y-1199214D01*
X306786Y-1242072D01*
X278214Y-1270643D01*
X249643Y-1284929D01*
X549643Y-1470643D02*
X563929Y-1484929D01*
X549643Y-1499214D01*
X535357Y-1484929D01*
X549643Y-1470643D01*
X549643Y-1499214D01*
X749643Y-1199214D02*
X778214Y-1199214D01*
X806786Y-1213500D01*
X821071Y-1227786D01*
X835357Y-1256357D01*
X849643Y-1313500D01*
X849643Y-1384929D01*
X835357Y-1442071D01*
X821071Y-1470643D01*
X806786Y-1484929D01*
X778214Y-1499214D01*
X749643Y-1499214D01*
X721071Y-1484929D01*
X706786Y-1470643D01*
X692500Y-1442071D01*
X678214Y-1384929D01*
X678214Y-1313500D01*
X692500Y-1256357D01*
X706786Y-1227786D01*
X721071Y-1213500D01*
X749643Y-1199214D01*
X1035357Y-1199214D02*
X1063929Y-1199214D01*
X1092500Y-1213500D01*
X1106786Y-1227786D01*
X1121071Y-1256357D01*
X1135357Y-1313500D01*
X1135357Y-1384929D01*
X1121071Y-1442071D01*
X1106786Y-1470643D01*
X1092500Y-1484929D01*
X1063929Y-1499214D01*
X1035357Y-1499214D01*
X1006786Y-1484929D01*
X992500Y-1470643D01*
X978214Y-1442071D01*
X963928Y-1384929D01*
X963928Y-1313500D01*
X978214Y-1256357D01*
X992500Y-1227786D01*
X1006786Y-1213500D01*
X1035357Y-1199214D01*
X1263929Y-1499214D02*
X1263929Y-1299214D01*
X1263929Y-1327786D02*
X1278214Y-1313500D01*
X1306786Y-1299214D01*
X1349643Y-1299214D01*
X1378214Y-1313500D01*
X1392500Y-1342072D01*
X1392500Y-1499214D01*
X1392500Y-1342072D02*
X1406786Y-1313500D01*
X1435357Y-1299214D01*
X1478214Y-1299214D01*
X1506786Y-1313500D01*
X1521071Y-1342072D01*
X1521071Y-1499214D01*
X1663928Y-1499214D02*
X1663928Y-1299214D01*
X1663928Y-1327786D02*
X1678214Y-1313500D01*
X1706786Y-1299214D01*
X1749643Y-1299214D01*
X1778214Y-1313500D01*
X1792500Y-1342072D01*
X1792500Y-1499214D01*
X1792500Y-1342072D02*
X1806786Y-1313500D01*
X1835357Y-1299214D01*
X1878214Y-1299214D01*
X1906786Y-1313500D01*
X1921071Y-1342072D01*
X1921071Y-1499214D01*
X2506786Y-1184929D02*
X2249643Y-1570643D01*
X2892500Y-1199214D02*
X2921071Y-1199214D01*
X2949643Y-1213500D01*
X2963928Y-1227786D01*
X2978214Y-1256357D01*
X2992500Y-1313500D01*
X2992500Y-1384929D01*
X2978214Y-1442071D01*
X2963928Y-1470643D01*
X2949643Y-1484929D01*
X2921071Y-1499214D01*
X2892500Y-1499214D01*
X2863928Y-1484929D01*
X2849643Y-1470643D01*
X2835357Y-1442071D01*
X2821071Y-1384929D01*
X2821071Y-1313500D01*
X2835357Y-1256357D01*
X2849643Y-1227786D01*
X2863928Y-1213500D01*
X2892500Y-1199214D01*
X3121071Y-1470643D02*
X3135357Y-1484929D01*
X3121071Y-1499214D01*
X3106786Y-1484929D01*
X3121071Y-1470643D01*
X3121071Y-1499214D01*
X3321071Y-1199214D02*
X3349643Y-1199214D01*
X3378214Y-1213500D01*
X3392500Y-1227786D01*
X3406785Y-1256357D01*
X3421071Y-1313500D01*
X3421071Y-1384929D01*
X3406785Y-1442071D01*
X3392500Y-1470643D01*
X3378214Y-1484929D01*
X3349643Y-1499214D01*
X3321071Y-1499214D01*
X3292500Y-1484929D01*
X3278214Y-1470643D01*
X3263928Y-1442071D01*
X3249643Y-1384929D01*
X3249643Y-1313500D01*
X3263928Y-1256357D01*
X3278214Y-1227786D01*
X3292500Y-1213500D01*
X3321071Y-1199214D01*
X3521071Y-1199214D02*
X3706785Y-1199214D01*
X3606785Y-1313500D01*
X3649643Y-1313500D01*
X3678214Y-1327786D01*
X3692500Y-1342072D01*
X3706785Y-1370643D01*
X3706785Y-1442071D01*
X3692500Y-1470643D01*
X3678214Y-1484929D01*
X3649643Y-1499214D01*
X3563928Y-1499214D01*
X3535357Y-1484929D01*
X3521071Y-1470643D01*
X3849643Y-1499214D02*
X3906785Y-1499214D01*
X3935357Y-1484929D01*
X3949643Y-1470643D01*
X3978214Y-1427786D01*
X3992500Y-1370643D01*
X3992500Y-1256357D01*
X3978214Y-1227786D01*
X3963928Y-1213500D01*
X3935357Y-1199214D01*
X3878214Y-1199214D01*
X3849643Y-1213500D01*
X3835357Y-1227786D01*
X3821071Y-1256357D01*
X3821071Y-1327786D01*
X3835357Y-1356357D01*
X3849643Y-1370643D01*
X3878214Y-1384929D01*
X3935357Y-1384929D01*
X3963928Y-1370643D01*
X3978214Y-1356357D01*
X3992500Y-1327786D01*
X4106786Y-1199214D02*
X4106786Y-1256357D01*
X4221071Y-1199214D02*
X4221071Y-1256357D01*
X4663928Y-1613500D02*
X4649643Y-1599214D01*
X4621071Y-1556357D01*
X4606786Y-1527786D01*
X4592500Y-1484929D01*
X4578214Y-1413500D01*
X4578214Y-1356357D01*
X4592500Y-1284929D01*
X4606786Y-1242072D01*
X4621071Y-1213500D01*
X4649643Y-1170643D01*
X4663928Y-1156357D01*
X4821071Y-1327786D02*
X4792500Y-1313500D01*
X4778214Y-1299214D01*
X4763928Y-1270643D01*
X4763928Y-1256357D01*
X4778214Y-1227786D01*
X4792500Y-1213500D01*
X4821071Y-1199214D01*
X4878214Y-1199214D01*
X4906786Y-1213500D01*
X4921071Y-1227786D01*
X4935357Y-1256357D01*
X4935357Y-1270643D01*
X4921071Y-1299214D01*
X4906786Y-1313500D01*
X4878214Y-1327786D01*
X4821071Y-1327786D01*
X4792500Y-1342072D01*
X4778214Y-1356357D01*
X4763928Y-1384929D01*
X4763928Y-1442071D01*
X4778214Y-1470643D01*
X4792500Y-1484929D01*
X4821071Y-1499214D01*
X4878214Y-1499214D01*
X4906786Y-1484929D01*
X4921071Y-1470643D01*
X4935357Y-1442071D01*
X4935357Y-1384929D01*
X4921071Y-1356357D01*
X4906786Y-1342072D01*
X4878214Y-1327786D01*
X5292500Y-1499214D02*
X5292500Y-1199214D01*
X5421071Y-1499214D02*
X5421071Y-1342072D01*
X5406786Y-1313500D01*
X5378214Y-1299214D01*
X5335357Y-1299214D01*
X5306786Y-1313500D01*
X5292500Y-1327786D01*
X5606785Y-1499214D02*
X5578214Y-1484929D01*
X5563928Y-1470643D01*
X5549643Y-1442071D01*
X5549643Y-1356357D01*
X5563928Y-1327786D01*
X5578214Y-1313500D01*
X5606785Y-1299214D01*
X5649643Y-1299214D01*
X5678214Y-1313500D01*
X5692500Y-1327786D01*
X5706785Y-1356357D01*
X5706785Y-1442071D01*
X5692500Y-1470643D01*
X5678214Y-1484929D01*
X5649643Y-1499214D01*
X5606785Y-1499214D01*
X5878214Y-1499214D02*
X5849643Y-1484929D01*
X5835357Y-1456357D01*
X5835357Y-1199214D01*
X6106786Y-1484929D02*
X6078214Y-1499214D01*
X6021071Y-1499214D01*
X5992500Y-1484929D01*
X5978214Y-1456357D01*
X5978214Y-1342072D01*
X5992500Y-1313500D01*
X6021071Y-1299214D01*
X6078214Y-1299214D01*
X6106786Y-1313500D01*
X6121071Y-1342072D01*
X6121071Y-1370643D01*
X5978214Y-1399214D01*
X6235357Y-1484929D02*
X6263928Y-1499214D01*
X6321071Y-1499214D01*
X6349643Y-1484929D01*
X6363928Y-1456357D01*
X6363928Y-1442071D01*
X6349643Y-1413500D01*
X6321071Y-1399214D01*
X6278214Y-1399214D01*
X6249643Y-1384929D01*
X6235357Y-1356357D01*
X6235357Y-1342072D01*
X6249643Y-1313500D01*
X6278214Y-1299214D01*
X6321071Y-1299214D01*
X6349643Y-1313500D01*
X6463928Y-1613500D02*
X6478214Y-1599214D01*
X6506786Y-1556357D01*
X6521071Y-1527786D01*
X6535357Y-1484929D01*
X6549643Y-1413500D01*
X6549643Y-1356357D01*
X6535357Y-1284929D01*
X6521071Y-1242072D01*
X6506786Y-1213500D01*
X6478214Y-1170643D01*
X6463928Y-1156357D01*
X-58300Y-1708700D02*
X-58300Y-1810300D01*
X-109100Y-1759500D02*
X-7500Y-1759500D01*
X421071Y-1895214D02*
X249643Y-1895214D01*
X335357Y-1895214D02*
X335357Y-1595214D01*
X306786Y-1638071D01*
X278214Y-1666643D01*
X249643Y-1680929D01*
X549643Y-1866643D02*
X563929Y-1880929D01*
X549643Y-1895214D01*
X535357Y-1880929D01*
X549643Y-1866643D01*
X549643Y-1895214D01*
X749643Y-1595214D02*
X778214Y-1595214D01*
X806786Y-1609500D01*
X821071Y-1623786D01*
X835357Y-1652357D01*
X849643Y-1709500D01*
X849643Y-1780929D01*
X835357Y-1838071D01*
X821071Y-1866643D01*
X806786Y-1880929D01*
X778214Y-1895214D01*
X749643Y-1895214D01*
X721071Y-1880929D01*
X706786Y-1866643D01*
X692500Y-1838071D01*
X678214Y-1780929D01*
X678214Y-1709500D01*
X692500Y-1652357D01*
X706786Y-1623786D01*
X721071Y-1609500D01*
X749643Y-1595214D01*
X963928Y-1623786D02*
X978214Y-1609500D01*
X1006786Y-1595214D01*
X1078214Y-1595214D01*
X1106786Y-1609500D01*
X1121071Y-1623786D01*
X1135357Y-1652357D01*
X1135357Y-1680929D01*
X1121071Y-1723786D01*
X949643Y-1895214D01*
X1135357Y-1895214D01*
X1263929Y-1895214D02*
X1263929Y-1695214D01*
X1263929Y-1723786D02*
X1278214Y-1709500D01*
X1306786Y-1695214D01*
X1349643Y-1695214D01*
X1378214Y-1709500D01*
X1392500Y-1738071D01*
X1392500Y-1895214D01*
X1392500Y-1738071D02*
X1406786Y-1709500D01*
X1435357Y-1695214D01*
X1478214Y-1695214D01*
X1506786Y-1709500D01*
X1521071Y-1738071D01*
X1521071Y-1895214D01*
X1663928Y-1895214D02*
X1663928Y-1695214D01*
X1663928Y-1723786D02*
X1678214Y-1709500D01*
X1706786Y-1695214D01*
X1749643Y-1695214D01*
X1778214Y-1709500D01*
X1792500Y-1738071D01*
X1792500Y-1895214D01*
X1792500Y-1738071D02*
X1806786Y-1709500D01*
X1835357Y-1695214D01*
X1878214Y-1695214D01*
X1906786Y-1709500D01*
X1921071Y-1738071D01*
X1921071Y-1895214D01*
X2506786Y-1580929D02*
X2249643Y-1966643D01*
X2892500Y-1595214D02*
X2921071Y-1595214D01*
X2949643Y-1609500D01*
X2963928Y-1623786D01*
X2978214Y-1652357D01*
X2992500Y-1709500D01*
X2992500Y-1780929D01*
X2978214Y-1838071D01*
X2963928Y-1866643D01*
X2949643Y-1880929D01*
X2921071Y-1895214D01*
X2892500Y-1895214D01*
X2863928Y-1880929D01*
X2849643Y-1866643D01*
X2835357Y-1838071D01*
X2821071Y-1780929D01*
X2821071Y-1709500D01*
X2835357Y-1652357D01*
X2849643Y-1623786D01*
X2863928Y-1609500D01*
X2892500Y-1595214D01*
X3121071Y-1866643D02*
X3135357Y-1880929D01*
X3121071Y-1895214D01*
X3106786Y-1880929D01*
X3121071Y-1866643D01*
X3121071Y-1895214D01*
X3321071Y-1595214D02*
X3349643Y-1595214D01*
X3378214Y-1609500D01*
X3392500Y-1623786D01*
X3406785Y-1652357D01*
X3421071Y-1709500D01*
X3421071Y-1780929D01*
X3406785Y-1838071D01*
X3392500Y-1866643D01*
X3378214Y-1880929D01*
X3349643Y-1895214D01*
X3321071Y-1895214D01*
X3292500Y-1880929D01*
X3278214Y-1866643D01*
X3263928Y-1838071D01*
X3249643Y-1780929D01*
X3249643Y-1709500D01*
X3263928Y-1652357D01*
X3278214Y-1623786D01*
X3292500Y-1609500D01*
X3321071Y-1595214D01*
X3678214Y-1695214D02*
X3678214Y-1895214D01*
X3606785Y-1580929D02*
X3535357Y-1795214D01*
X3721071Y-1795214D01*
X3892500Y-1595214D02*
X3921071Y-1595214D01*
X3949643Y-1609500D01*
X3963928Y-1623786D01*
X3978214Y-1652357D01*
X3992500Y-1709500D01*
X3992500Y-1780929D01*
X3978214Y-1838071D01*
X3963928Y-1866643D01*
X3949643Y-1880929D01*
X3921071Y-1895214D01*
X3892500Y-1895214D01*
X3863928Y-1880929D01*
X3849643Y-1866643D01*
X3835357Y-1838071D01*
X3821071Y-1780929D01*
X3821071Y-1709500D01*
X3835357Y-1652357D01*
X3849643Y-1623786D01*
X3863928Y-1609500D01*
X3892500Y-1595214D01*
X4106786Y-1595214D02*
X4106786Y-1652357D01*
X4221071Y-1595214D02*
X4221071Y-1652357D01*
X4663928Y-2009500D02*
X4649643Y-1995214D01*
X4621071Y-1952357D01*
X4606786Y-1923786D01*
X4592500Y-1880929D01*
X4578214Y-1809500D01*
X4578214Y-1752357D01*
X4592500Y-1680929D01*
X4606786Y-1638071D01*
X4621071Y-1609500D01*
X4649643Y-1566643D01*
X4663928Y-1552357D01*
X4935357Y-1895214D02*
X4763928Y-1895214D01*
X4849643Y-1895214D02*
X4849643Y-1595214D01*
X4821071Y-1638071D01*
X4792500Y-1666643D01*
X4763928Y-1680929D01*
X5221071Y-1895214D02*
X5049643Y-1895214D01*
X5135357Y-1895214D02*
X5135357Y-1595214D01*
X5106786Y-1638071D01*
X5078214Y-1666643D01*
X5049643Y-1680929D01*
X5578214Y-1895214D02*
X5578214Y-1595214D01*
X5706785Y-1895214D02*
X5706785Y-1738071D01*
X5692500Y-1709500D01*
X5663928Y-1695214D01*
X5621071Y-1695214D01*
X5592500Y-1709500D01*
X5578214Y-1723786D01*
X5892500Y-1895214D02*
X5863928Y-1880929D01*
X5849643Y-1866643D01*
X5835357Y-1838071D01*
X5835357Y-1752357D01*
X5849643Y-1723786D01*
X5863928Y-1709500D01*
X5892500Y-1695214D01*
X5935357Y-1695214D01*
X5963928Y-1709500D01*
X5978214Y-1723786D01*
X5992500Y-1752357D01*
X5992500Y-1838071D01*
X5978214Y-1866643D01*
X5963928Y-1880929D01*
X5935357Y-1895214D01*
X5892500Y-1895214D01*
X6163928Y-1895214D02*
X6135357Y-1880929D01*
X6121071Y-1852357D01*
X6121071Y-1595214D01*
X6392500Y-1880929D02*
X6363928Y-1895214D01*
X6306786Y-1895214D01*
X6278214Y-1880929D01*
X6263928Y-1852357D01*
X6263928Y-1738071D01*
X6278214Y-1709500D01*
X6306786Y-1695214D01*
X6363928Y-1695214D01*
X6392500Y-1709500D01*
X6406786Y-1738071D01*
X6406786Y-1766643D01*
X6263928Y-1795214D01*
X6521071Y-1880929D02*
X6549643Y-1895214D01*
X6606786Y-1895214D01*
X6635357Y-1880929D01*
X6649643Y-1852357D01*
X6649643Y-1838071D01*
X6635357Y-1809500D01*
X6606786Y-1795214D01*
X6563928Y-1795214D01*
X6535357Y-1780929D01*
X6521071Y-1752357D01*
X6521071Y-1738071D01*
X6535357Y-1709500D01*
X6563928Y-1695214D01*
X6606786Y-1695214D01*
X6635357Y-1709500D01*
X6749643Y-2009500D02*
X6763928Y-1995214D01*
X6792500Y-1952357D01*
X6806786Y-1923786D01*
X6821071Y-1880929D01*
X6835357Y-1809500D01*
X6835357Y-1752357D01*
X6821071Y-1680929D01*
X6806786Y-1638071D01*
X6792500Y-1609500D01*
X6763928Y-1566643D01*
X6749643Y-1552357D01*
X-23123Y-2193218D02*
X-23123Y-2117783D01*
X-98557Y-2117783D01*
X-98557Y-2193218D01*
X-23123Y-2193218D01*
X421071Y-2291214D02*
X249643Y-2291214D01*
X335357Y-2291214D02*
X335357Y-1991214D01*
X306786Y-2034071D01*
X278214Y-2062643D01*
X249643Y-2076929D01*
X549643Y-2262643D02*
X563929Y-2276929D01*
X549643Y-2291214D01*
X535357Y-2276929D01*
X549643Y-2262643D01*
X549643Y-2291214D01*
X749643Y-1991214D02*
X778214Y-1991214D01*
X806786Y-2005500D01*
X821071Y-2019786D01*
X835357Y-2048357D01*
X849643Y-2105500D01*
X849643Y-2176929D01*
X835357Y-2234072D01*
X821071Y-2262643D01*
X806786Y-2276929D01*
X778214Y-2291214D01*
X749643Y-2291214D01*
X721071Y-2276929D01*
X706786Y-2262643D01*
X692500Y-2234072D01*
X678214Y-2176929D01*
X678214Y-2105500D01*
X692500Y-2048357D01*
X706786Y-2019786D01*
X721071Y-2005500D01*
X749643Y-1991214D01*
X949643Y-1991214D02*
X1149643Y-1991214D01*
X1021071Y-2291214D01*
X1263929Y-2291214D02*
X1263929Y-2091214D01*
X1263929Y-2119786D02*
X1278214Y-2105500D01*
X1306786Y-2091214D01*
X1349643Y-2091214D01*
X1378214Y-2105500D01*
X1392500Y-2134072D01*
X1392500Y-2291214D01*
X1392500Y-2134072D02*
X1406786Y-2105500D01*
X1435357Y-2091214D01*
X1478214Y-2091214D01*
X1506786Y-2105500D01*
X1521071Y-2134072D01*
X1521071Y-2291214D01*
X1663928Y-2291214D02*
X1663928Y-2091214D01*
X1663928Y-2119786D02*
X1678214Y-2105500D01*
X1706786Y-2091214D01*
X1749643Y-2091214D01*
X1778214Y-2105500D01*
X1792500Y-2134072D01*
X1792500Y-2291214D01*
X1792500Y-2134072D02*
X1806786Y-2105500D01*
X1835357Y-2091214D01*
X1878214Y-2091214D01*
X1906786Y-2105500D01*
X1921071Y-2134072D01*
X1921071Y-2291214D01*
X2506786Y-1976929D02*
X2249643Y-2362643D01*
X2892500Y-1991214D02*
X2921071Y-1991214D01*
X2949643Y-2005500D01*
X2963928Y-2019786D01*
X2978214Y-2048357D01*
X2992500Y-2105500D01*
X2992500Y-2176929D01*
X2978214Y-2234072D01*
X2963928Y-2262643D01*
X2949643Y-2276929D01*
X2921071Y-2291214D01*
X2892500Y-2291214D01*
X2863928Y-2276929D01*
X2849643Y-2262643D01*
X2835357Y-2234072D01*
X2821071Y-2176929D01*
X2821071Y-2105500D01*
X2835357Y-2048357D01*
X2849643Y-2019786D01*
X2863928Y-2005500D01*
X2892500Y-1991214D01*
X3121071Y-2262643D02*
X3135357Y-2276929D01*
X3121071Y-2291214D01*
X3106786Y-2276929D01*
X3121071Y-2262643D01*
X3121071Y-2291214D01*
X3321071Y-1991214D02*
X3349643Y-1991214D01*
X3378214Y-2005500D01*
X3392500Y-2019786D01*
X3406785Y-2048357D01*
X3421071Y-2105500D01*
X3421071Y-2176929D01*
X3406785Y-2234072D01*
X3392500Y-2262643D01*
X3378214Y-2276929D01*
X3349643Y-2291214D01*
X3321071Y-2291214D01*
X3292500Y-2276929D01*
X3278214Y-2262643D01*
X3263928Y-2234072D01*
X3249643Y-2176929D01*
X3249643Y-2105500D01*
X3263928Y-2048357D01*
X3278214Y-2019786D01*
X3292500Y-2005500D01*
X3321071Y-1991214D01*
X3678214Y-2091214D02*
X3678214Y-2291214D01*
X3606785Y-1976929D02*
X3535357Y-2191214D01*
X3721071Y-2191214D01*
X3821071Y-2019786D02*
X3835357Y-2005500D01*
X3863928Y-1991214D01*
X3935357Y-1991214D01*
X3963928Y-2005500D01*
X3978214Y-2019786D01*
X3992500Y-2048357D01*
X3992500Y-2076929D01*
X3978214Y-2119786D01*
X3806785Y-2291214D01*
X3992500Y-2291214D01*
X4106786Y-1991214D02*
X4106786Y-2048357D01*
X4221071Y-1991214D02*
X4221071Y-2048357D01*
X4663928Y-2405500D02*
X4649643Y-2391214D01*
X4621071Y-2348357D01*
X4606786Y-2319786D01*
X4592500Y-2276929D01*
X4578214Y-2205500D01*
X4578214Y-2148357D01*
X4592500Y-2076929D01*
X4606786Y-2034071D01*
X4621071Y-2005500D01*
X4649643Y-1962643D01*
X4663928Y-1948357D01*
X4821071Y-2119786D02*
X4792500Y-2105500D01*
X4778214Y-2091214D01*
X4763928Y-2062643D01*
X4763928Y-2048357D01*
X4778214Y-2019786D01*
X4792500Y-2005500D01*
X4821071Y-1991214D01*
X4878214Y-1991214D01*
X4906786Y-2005500D01*
X4921071Y-2019786D01*
X4935357Y-2048357D01*
X4935357Y-2062643D01*
X4921071Y-2091214D01*
X4906786Y-2105500D01*
X4878214Y-2119786D01*
X4821071Y-2119786D01*
X4792500Y-2134072D01*
X4778214Y-2148357D01*
X4763928Y-2176929D01*
X4763928Y-2234072D01*
X4778214Y-2262643D01*
X4792500Y-2276929D01*
X4821071Y-2291214D01*
X4878214Y-2291214D01*
X4906786Y-2276929D01*
X4921071Y-2262643D01*
X4935357Y-2234072D01*
X4935357Y-2176929D01*
X4921071Y-2148357D01*
X4906786Y-2134072D01*
X4878214Y-2119786D01*
X5192500Y-2091214D02*
X5192500Y-2291214D01*
X5121071Y-1976929D02*
X5049643Y-2191214D01*
X5235357Y-2191214D01*
X5578214Y-2291214D02*
X5578214Y-1991214D01*
X5706785Y-2291214D02*
X5706785Y-2134072D01*
X5692500Y-2105500D01*
X5663928Y-2091214D01*
X5621071Y-2091214D01*
X5592500Y-2105500D01*
X5578214Y-2119786D01*
X5892500Y-2291214D02*
X5863928Y-2276929D01*
X5849643Y-2262643D01*
X5835357Y-2234072D01*
X5835357Y-2148357D01*
X5849643Y-2119786D01*
X5863928Y-2105500D01*
X5892500Y-2091214D01*
X5935357Y-2091214D01*
X5963928Y-2105500D01*
X5978214Y-2119786D01*
X5992500Y-2148357D01*
X5992500Y-2234072D01*
X5978214Y-2262643D01*
X5963928Y-2276929D01*
X5935357Y-2291214D01*
X5892500Y-2291214D01*
X6163928Y-2291214D02*
X6135357Y-2276929D01*
X6121071Y-2248357D01*
X6121071Y-1991214D01*
X6392500Y-2276929D02*
X6363928Y-2291214D01*
X6306786Y-2291214D01*
X6278214Y-2276929D01*
X6263928Y-2248357D01*
X6263928Y-2134072D01*
X6278214Y-2105500D01*
X6306786Y-2091214D01*
X6363928Y-2091214D01*
X6392500Y-2105500D01*
X6406786Y-2134072D01*
X6406786Y-2162643D01*
X6263928Y-2191214D01*
X6521071Y-2276929D02*
X6549643Y-2291214D01*
X6606786Y-2291214D01*
X6635357Y-2276929D01*
X6649643Y-2248357D01*
X6649643Y-2234072D01*
X6635357Y-2205500D01*
X6606786Y-2191214D01*
X6563928Y-2191214D01*
X6535357Y-2176929D01*
X6521071Y-2148357D01*
X6521071Y-2134072D01*
X6535357Y-2105500D01*
X6563928Y-2091214D01*
X6606786Y-2091214D01*
X6635357Y-2105500D01*
X6749643Y-2405500D02*
X6763928Y-2391214D01*
X6792500Y-2348357D01*
X6806786Y-2319786D01*
X6821071Y-2276929D01*
X6835357Y-2205500D01*
X6835357Y-2148357D01*
X6821071Y-2076929D01*
X6806786Y-2034071D01*
X6792500Y-2005500D01*
X6763928Y-1962643D01*
X6749643Y-1948357D01*
X-131960Y-2675960D02*
X-7500Y-2551500D01*
X-131960Y-2427040D01*
X-256420Y-2551500D01*
X-131960Y-2675960D01*
X249643Y-2415786D02*
X263929Y-2401500D01*
X292500Y-2387214D01*
X363928Y-2387214D01*
X392500Y-2401500D01*
X406786Y-2415786D01*
X421071Y-2444357D01*
X421071Y-2472929D01*
X406786Y-2515786D01*
X235357Y-2687214D01*
X421071Y-2687214D01*
X549643Y-2658643D02*
X563929Y-2672929D01*
X549643Y-2687214D01*
X535357Y-2672929D01*
X549643Y-2658643D01*
X549643Y-2687214D01*
X821071Y-2487214D02*
X821071Y-2687214D01*
X749643Y-2372929D02*
X678214Y-2587214D01*
X863928Y-2587214D01*
X992500Y-2687214D02*
X1049643Y-2687214D01*
X1078214Y-2672929D01*
X1092500Y-2658643D01*
X1121071Y-2615786D01*
X1135357Y-2558643D01*
X1135357Y-2444357D01*
X1121071Y-2415786D01*
X1106786Y-2401500D01*
X1078214Y-2387214D01*
X1021071Y-2387214D01*
X992500Y-2401500D01*
X978214Y-2415786D01*
X963928Y-2444357D01*
X963928Y-2515786D01*
X978214Y-2544357D01*
X992500Y-2558643D01*
X1021071Y-2572929D01*
X1078214Y-2572929D01*
X1106786Y-2558643D01*
X1121071Y-2544357D01*
X1135357Y-2515786D01*
X1263929Y-2687214D02*
X1263929Y-2487214D01*
X1263929Y-2515786D02*
X1278214Y-2501500D01*
X1306786Y-2487214D01*
X1349643Y-2487214D01*
X1378214Y-2501500D01*
X1392500Y-2530072D01*
X1392500Y-2687214D01*
X1392500Y-2530072D02*
X1406786Y-2501500D01*
X1435357Y-2487214D01*
X1478214Y-2487214D01*
X1506786Y-2501500D01*
X1521071Y-2530072D01*
X1521071Y-2687214D01*
X1663928Y-2687214D02*
X1663928Y-2487214D01*
X1663928Y-2515786D02*
X1678214Y-2501500D01*
X1706786Y-2487214D01*
X1749643Y-2487214D01*
X1778214Y-2501500D01*
X1792500Y-2530072D01*
X1792500Y-2687214D01*
X1792500Y-2530072D02*
X1806786Y-2501500D01*
X1835357Y-2487214D01*
X1878214Y-2487214D01*
X1906786Y-2501500D01*
X1921071Y-2530072D01*
X1921071Y-2687214D01*
X2506786Y-2372929D02*
X2249643Y-2758643D01*
X2892500Y-2387214D02*
X2921071Y-2387214D01*
X2949643Y-2401500D01*
X2963928Y-2415786D01*
X2978214Y-2444357D01*
X2992500Y-2501500D01*
X2992500Y-2572929D01*
X2978214Y-2630072D01*
X2963928Y-2658643D01*
X2949643Y-2672929D01*
X2921071Y-2687214D01*
X2892500Y-2687214D01*
X2863928Y-2672929D01*
X2849643Y-2658643D01*
X2835357Y-2630072D01*
X2821071Y-2572929D01*
X2821071Y-2501500D01*
X2835357Y-2444357D01*
X2849643Y-2415786D01*
X2863928Y-2401500D01*
X2892500Y-2387214D01*
X3121071Y-2658643D02*
X3135357Y-2672929D01*
X3121071Y-2687214D01*
X3106786Y-2672929D01*
X3121071Y-2658643D01*
X3121071Y-2687214D01*
X3321071Y-2387214D02*
X3349643Y-2387214D01*
X3378214Y-2401500D01*
X3392500Y-2415786D01*
X3406785Y-2444357D01*
X3421071Y-2501500D01*
X3421071Y-2572929D01*
X3406785Y-2630072D01*
X3392500Y-2658643D01*
X3378214Y-2672929D01*
X3349643Y-2687214D01*
X3321071Y-2687214D01*
X3292500Y-2672929D01*
X3278214Y-2658643D01*
X3263928Y-2630072D01*
X3249643Y-2572929D01*
X3249643Y-2501500D01*
X3263928Y-2444357D01*
X3278214Y-2415786D01*
X3292500Y-2401500D01*
X3321071Y-2387214D01*
X3563928Y-2687214D02*
X3621071Y-2687214D01*
X3649643Y-2672929D01*
X3663928Y-2658643D01*
X3692500Y-2615786D01*
X3706785Y-2558643D01*
X3706785Y-2444357D01*
X3692500Y-2415786D01*
X3678214Y-2401500D01*
X3649643Y-2387214D01*
X3592500Y-2387214D01*
X3563928Y-2401500D01*
X3549643Y-2415786D01*
X3535357Y-2444357D01*
X3535357Y-2515786D01*
X3549643Y-2544357D01*
X3563928Y-2558643D01*
X3592500Y-2572929D01*
X3649643Y-2572929D01*
X3678214Y-2558643D01*
X3692500Y-2544357D01*
X3706785Y-2515786D01*
X3878214Y-2515786D02*
X3849643Y-2501500D01*
X3835357Y-2487214D01*
X3821071Y-2458643D01*
X3821071Y-2444357D01*
X3835357Y-2415786D01*
X3849643Y-2401500D01*
X3878214Y-2387214D01*
X3935357Y-2387214D01*
X3963928Y-2401500D01*
X3978214Y-2415786D01*
X3992500Y-2444357D01*
X3992500Y-2458643D01*
X3978214Y-2487214D01*
X3963928Y-2501500D01*
X3935357Y-2515786D01*
X3878214Y-2515786D01*
X3849643Y-2530072D01*
X3835357Y-2544357D01*
X3821071Y-2572929D01*
X3821071Y-2630072D01*
X3835357Y-2658643D01*
X3849643Y-2672929D01*
X3878214Y-2687214D01*
X3935357Y-2687214D01*
X3963928Y-2672929D01*
X3978214Y-2658643D01*
X3992500Y-2630072D01*
X3992500Y-2572929D01*
X3978214Y-2544357D01*
X3963928Y-2530072D01*
X3935357Y-2515786D01*
X4106786Y-2387214D02*
X4106786Y-2444357D01*
X4221071Y-2387214D02*
X4221071Y-2444357D01*
X4663928Y-2801500D02*
X4649643Y-2787214D01*
X4621071Y-2744357D01*
X4606786Y-2715786D01*
X4592500Y-2672929D01*
X4578214Y-2601500D01*
X4578214Y-2544357D01*
X4592500Y-2472929D01*
X4606786Y-2430072D01*
X4621071Y-2401500D01*
X4649643Y-2358643D01*
X4663928Y-2344357D01*
X4906786Y-2487214D02*
X4906786Y-2687214D01*
X4835357Y-2372929D02*
X4763928Y-2587214D01*
X4949643Y-2587214D01*
X5292500Y-2687214D02*
X5292500Y-2387214D01*
X5421071Y-2687214D02*
X5421071Y-2530072D01*
X5406786Y-2501500D01*
X5378214Y-2487214D01*
X5335357Y-2487214D01*
X5306786Y-2501500D01*
X5292500Y-2515786D01*
X5606785Y-2687214D02*
X5578214Y-2672929D01*
X5563928Y-2658643D01*
X5549643Y-2630072D01*
X5549643Y-2544357D01*
X5563928Y-2515786D01*
X5578214Y-2501500D01*
X5606785Y-2487214D01*
X5649643Y-2487214D01*
X5678214Y-2501500D01*
X5692500Y-2515786D01*
X5706785Y-2544357D01*
X5706785Y-2630072D01*
X5692500Y-2658643D01*
X5678214Y-2672929D01*
X5649643Y-2687214D01*
X5606785Y-2687214D01*
X5878214Y-2687214D02*
X5849643Y-2672929D01*
X5835357Y-2644357D01*
X5835357Y-2387214D01*
X6106786Y-2672929D02*
X6078214Y-2687214D01*
X6021071Y-2687214D01*
X5992500Y-2672929D01*
X5978214Y-2644357D01*
X5978214Y-2530072D01*
X5992500Y-2501500D01*
X6021071Y-2487214D01*
X6078214Y-2487214D01*
X6106786Y-2501500D01*
X6121071Y-2530072D01*
X6121071Y-2558643D01*
X5978214Y-2587214D01*
X6235357Y-2672929D02*
X6263928Y-2687214D01*
X6321071Y-2687214D01*
X6349643Y-2672929D01*
X6363928Y-2644357D01*
X6363928Y-2630072D01*
X6349643Y-2601500D01*
X6321071Y-2587214D01*
X6278214Y-2587214D01*
X6249643Y-2572929D01*
X6235357Y-2544357D01*
X6235357Y-2530072D01*
X6249643Y-2501500D01*
X6278214Y-2487214D01*
X6321071Y-2487214D01*
X6349643Y-2501500D01*
X6463928Y-2801500D02*
X6478214Y-2787214D01*
X6506786Y-2744357D01*
X6521071Y-2715786D01*
X6535357Y-2672929D01*
X6549643Y-2601500D01*
X6549643Y-2544357D01*
X6535357Y-2472929D01*
X6521071Y-2430072D01*
X6506786Y-2401500D01*
X6478214Y-2358643D01*
X6463928Y-2344357D01*
M02*
