M48
;DRILL file {kicad (2014-12-16 BZR 5324)-product} date Sunday, July 05, 2015 'PMt' 10:48:44 PM
;FORMAT={-:-/ absolute / inch / decimal}
FMAT,2
INCH,TZ
T1C0.013
T2C0.039
T3C0.040
T4C0.042
T5C0.098
%
G90
G05
M72
T1
X0.55Y1.375
X0.55Y0.8
X0.575Y2.125
X0.575Y1.3
X0.575Y1.1
X0.575Y0.75
X0.6Y2.2
X0.6Y1.2
X0.625Y2.3
X0.625Y1.1
X0.65Y2.4
X0.65Y1.
X0.675Y2.5
X0.675Y0.9
X0.7Y2.6
X0.7Y0.8
X0.725Y2.7
X0.725Y0.7
X0.775Y1.25
X0.8Y2.125
X0.8Y1.35
X0.8Y1.15
T2
X0.5Y2.05
X0.5Y1.85
X0.5Y1.65
X0.5Y1.45
X0.9Y2.05
X0.9Y1.85
X0.9Y1.65
X0.9Y1.45
T3
X0.55Y2.85
X0.65Y2.85
X0.65Y0.45
X0.75Y2.85
X0.75Y0.45
X1.05Y2.85
X1.15Y2.85
X1.25Y2.85
T4
X0.25Y2.85
X0.25Y2.75
X0.25Y2.65
X0.25Y2.55
X0.25Y2.45
X0.25Y2.35
X0.25Y2.25
X0.25Y2.15
X0.25Y2.05
X0.25Y1.95
X0.25Y1.85
X0.25Y1.75
X0.25Y1.65
X0.25Y1.55
X0.25Y1.45
X0.25Y1.35
X0.25Y1.25
X0.25Y1.15
X0.25Y1.05
X0.25Y0.95
X0.25Y0.85
X0.25Y0.75
X0.25Y0.65
X0.25Y0.55
X0.25Y0.45
X0.35Y2.85
X0.35Y2.75
X0.35Y2.65
X0.35Y2.55
X0.35Y2.45
X0.35Y2.35
X0.35Y2.25
X0.35Y2.15
X0.35Y2.05
X0.35Y1.95
X0.35Y1.85
X0.35Y1.75
X0.35Y1.65
X0.35Y1.55
X0.35Y1.45
X0.35Y1.35
X0.35Y1.25
X0.35Y1.15
X0.35Y1.05
X0.35Y0.95
X0.35Y0.85
X0.35Y0.75
X0.35Y0.65
X0.35Y0.55
X0.35Y0.45
X1.05Y2.05
X1.05Y1.95
X1.05Y1.85
X1.05Y1.75
X1.05Y1.65
X1.05Y1.55
X1.05Y1.45
X1.05Y1.35
X1.05Y1.25
X1.05Y1.15
X1.05Y1.05
X1.05Y0.95
X1.05Y0.85
X1.05Y0.75
X1.05Y0.65
X1.05Y0.55
X1.05Y0.45
X1.15Y2.05
X1.15Y1.95
X1.15Y1.85
X1.15Y1.75
X1.15Y1.65
X1.15Y1.55
X1.15Y1.45
X1.15Y1.35
X1.15Y1.25
X1.15Y1.15
X1.15Y1.05
X1.15Y0.95
X1.15Y0.85
X1.15Y0.75
X1.15Y0.65
X1.15Y0.55
X1.15Y0.45
T5
X0.2661Y3.0909
X0.2661Y0.2091
X1.1339Y2.2909
X1.1339Y0.2091
T0
M30
