M48
;DRILL file {kicad (2014-12-16 BZR 5324)-product} date Tuesday, September 22, 2015 'PMt' 01:03:06 PM
;FORMAT={-:-/ absolute / inch / decimal}
FMAT,2
INCH,TZ
T1C0.013
T2C0.039
T3C0.040
T4C0.042
%
G90
G05
M72
T1
X5.225Y-3.7
X5.225Y-3.9
X5.225Y-4.1
X5.25Y-4.275
X5.25Y-4.85
X5.275Y-3.525
X5.275Y-4.35
X5.275Y-4.55
X5.275Y-4.9
X5.3Y-3.45
X5.3Y-4.45
X5.325Y-3.35
X5.325Y-4.55
X5.35Y-3.25
X5.35Y-4.65
X5.375Y-3.15
X5.375Y-4.75
X5.4Y-3.05
X5.4Y-4.85
X5.425Y-2.95
X5.425Y-4.95
X5.475Y-4.4
X5.5Y-3.525
X5.5Y-4.3
X5.5Y-4.5
X5.55Y-3.7
X5.55Y-3.9
X5.55Y-4.1
T2
X5.2Y-3.6
X5.2Y-3.8
X5.2Y-4.
X5.2Y-4.2
X5.6Y-3.6
X5.6Y-3.8
X5.6Y-4.
X5.6Y-4.2
T3
X5.175Y-5.2
X5.25Y-2.8
X5.275Y-5.2
X5.35Y-2.8
X5.425Y-5.2
X5.45Y-2.8
X5.525Y-5.2
X5.625Y-5.2
X5.75Y-2.8
X5.85Y-2.8
X5.95Y-2.8
T4
X4.95Y-2.8
X4.95Y-2.9
X4.95Y-3.
X4.95Y-3.1
X4.95Y-3.2
X4.95Y-3.3
X4.95Y-3.4
X4.95Y-3.5
X4.95Y-3.6
X4.95Y-3.7
X4.95Y-3.8
X4.95Y-3.9
X4.95Y-4.
X4.95Y-4.1
X4.95Y-4.2
X4.95Y-4.3
X4.95Y-4.4
X4.95Y-4.5
X4.95Y-4.6
X4.95Y-4.7
X4.95Y-4.8
X4.95Y-4.9
X4.95Y-5.
X4.95Y-5.1
X4.95Y-5.2
X5.05Y-2.8
X5.05Y-2.9
X5.05Y-3.
X5.05Y-3.1
X5.05Y-3.2
X5.05Y-3.3
X5.05Y-3.4
X5.05Y-3.5
X5.05Y-3.6
X5.05Y-3.7
X5.05Y-3.8
X5.05Y-3.9
X5.05Y-4.
X5.05Y-4.1
X5.05Y-4.2
X5.05Y-4.3
X5.05Y-4.4
X5.05Y-4.5
X5.05Y-4.6
X5.05Y-4.7
X5.05Y-4.8
X5.05Y-4.9
X5.05Y-5.
X5.05Y-5.1
X5.05Y-5.2
X5.75Y-3.6
X5.75Y-3.7
X5.75Y-3.8
X5.75Y-3.9
X5.75Y-4.
X5.75Y-4.1
X5.75Y-4.2
X5.75Y-4.3
X5.75Y-4.4
X5.75Y-4.5
X5.75Y-4.6
X5.75Y-4.7
X5.75Y-4.8
X5.75Y-4.9
X5.75Y-5.
X5.75Y-5.1
X5.75Y-5.2
X5.85Y-3.6
X5.85Y-3.7
X5.85Y-3.8
X5.85Y-3.9
X5.85Y-4.
X5.85Y-4.1
X5.85Y-4.2
X5.85Y-4.3
X5.85Y-4.4
X5.85Y-4.5
X5.85Y-4.6
X5.85Y-4.7
X5.85Y-4.8
X5.85Y-4.9
X5.85Y-5.
X5.85Y-5.1
X5.85Y-5.2
T0
M30
