G04 #@! TF.FileFunction,Copper,L2,Bot,Signal*
%FSLAX46Y46*%
G04 Gerber Fmt 4.6, Leading zero omitted, Abs format (unit mm)*
G04 Created by KiCad (PCBNEW (2014-12-16 BZR 5324)-product) date Monday, July 06, 2015 'AMt' 12:03:06 AM*
%MOMM*%
G01*
G04 APERTURE LIST*
%ADD10C,0.127000*%
%ADD11R,1.905000X1.905000*%
%ADD12C,1.905000*%
%ADD13R,2.032000X2.032000*%
%ADD14O,2.032000X2.032000*%
%ADD15R,1.727200X2.032000*%
%ADD16O,1.727200X2.032000*%
%ADD17C,1.998980*%
%ADD18C,0.762000*%
%ADD19C,0.152400*%
%ADD20C,0.254000*%
G04 APERTURE END LIST*
D10*
D11*
X8890000Y11430000D03*
D12*
X6350000Y11430000D03*
X8890000Y13970000D03*
X6350000Y13970000D03*
X8890000Y16510000D03*
X6350000Y16510000D03*
X8890000Y19050000D03*
X6350000Y19050000D03*
X8890000Y21590000D03*
X6350000Y21590000D03*
X8890000Y24130000D03*
X6350000Y24130000D03*
X8890000Y26670000D03*
X6350000Y26670000D03*
X8890000Y29210000D03*
X6350000Y29210000D03*
X8890000Y31750000D03*
X6350000Y31750000D03*
X8890000Y34290000D03*
X6350000Y34290000D03*
X8890000Y36830000D03*
X6350000Y36830000D03*
X8890000Y39370000D03*
X6350000Y39370000D03*
X8890000Y41910000D03*
X6350000Y41910000D03*
X8890000Y44450000D03*
X6350000Y44450000D03*
X8890000Y46990000D03*
X6350000Y46990000D03*
X8890000Y49530000D03*
X6350000Y49530000D03*
X8890000Y52070000D03*
X6350000Y52070000D03*
X8890000Y54610000D03*
X6350000Y54610000D03*
X8890000Y57150000D03*
X6350000Y57150000D03*
X8890000Y59690000D03*
X6350000Y59690000D03*
X8890000Y62230000D03*
X6350000Y62230000D03*
X8890000Y64770000D03*
X6350000Y64770000D03*
X8890000Y67310000D03*
X6350000Y67310000D03*
X8890000Y69850000D03*
X6350000Y69850000D03*
X8890000Y72390000D03*
X6350000Y72390000D03*
D11*
X26670000Y52070000D03*
D12*
X29210000Y52070000D03*
X26670000Y49530000D03*
X29210000Y49530000D03*
X26670000Y46990000D03*
X29210000Y46990000D03*
X26670000Y44450000D03*
X29210000Y44450000D03*
X26670000Y41910000D03*
X29210000Y41910000D03*
X26670000Y39370000D03*
X29210000Y39370000D03*
X26670000Y36830000D03*
X29210000Y36830000D03*
X26670000Y34290000D03*
X29210000Y34290000D03*
X26670000Y31750000D03*
X29210000Y31750000D03*
X26670000Y29210000D03*
X29210000Y29210000D03*
X26670000Y26670000D03*
X29210000Y26670000D03*
X26670000Y24130000D03*
X29210000Y24130000D03*
X26670000Y21590000D03*
X29210000Y21590000D03*
X26670000Y19050000D03*
X29210000Y19050000D03*
X26670000Y16510000D03*
X29210000Y16510000D03*
X26670000Y13970000D03*
X29210000Y13970000D03*
X26670000Y11430000D03*
X29210000Y11430000D03*
D13*
X19050000Y11430000D03*
D14*
X16510000Y11430000D03*
D15*
X13970000Y72390000D03*
D16*
X16510000Y72390000D03*
X19050000Y72390000D03*
D15*
X26670000Y72390000D03*
D16*
X29210000Y72390000D03*
X31750000Y72390000D03*
D17*
X22860000Y52070000D03*
X12700000Y52070000D03*
X22860000Y46990000D03*
X12700000Y46990000D03*
X22860000Y41910000D03*
X12700000Y41910000D03*
X22860000Y36830000D03*
X12700000Y36830000D03*
D18*
X14605000Y27940000D03*
X14605000Y19050000D03*
X20320000Y29210000D03*
X19685000Y31750000D03*
X20320000Y34290000D03*
X20320000Y53975000D03*
X13970000Y34925000D03*
X13970000Y20320000D03*
X14605000Y53975000D03*
X14605000Y33020000D03*
X15240000Y55880000D03*
X15240000Y30480000D03*
X16510000Y60960000D03*
X16510000Y25400000D03*
X17145000Y63500000D03*
X17145000Y22860000D03*
X17780000Y66040000D03*
X17780000Y20320000D03*
X18415000Y68580000D03*
X18415000Y17780000D03*
X15875000Y58420000D03*
X15875000Y27940000D03*
D19*
X14605000Y27940000D02*
X14605000Y19050000D01*
X13970000Y73558400D02*
X14706600Y74295000D01*
X13970000Y72390000D02*
X13970000Y73558400D01*
X14706600Y74295000D02*
X19685000Y74295000D01*
X19685000Y74295000D02*
X20955000Y73025000D01*
X20955000Y73025000D02*
X20955000Y71755000D01*
X20955000Y71755000D02*
X19685000Y70485000D01*
X19685000Y70485000D02*
X19685000Y33020000D01*
X19685000Y33020000D02*
X20320000Y32385000D01*
X20320000Y32385000D02*
X20320000Y29210000D01*
X19050000Y32385000D02*
X19685000Y31750000D01*
X19050000Y72390000D02*
X19050000Y32385000D01*
X20320000Y34290000D02*
X20320000Y53975000D01*
X13970000Y34925000D02*
X13970000Y20320000D01*
X14605000Y53975000D02*
X14605000Y33020000D01*
X15240000Y55880000D02*
X15240000Y30480000D01*
X16510000Y60960000D02*
X16510000Y25400000D01*
X17145000Y63500000D02*
X17145000Y22860000D01*
X17780000Y66040000D02*
X17780000Y20320000D01*
X18415000Y68580000D02*
X18415000Y17780000D01*
X31115000Y36195000D02*
X29210000Y34290000D01*
X31115000Y62865000D02*
X31115000Y36195000D01*
X29210000Y64770000D02*
X31115000Y62865000D01*
X29210000Y72390000D02*
X29210000Y64770000D01*
X15875000Y58420000D02*
X15875000Y27940000D01*
D20*
G36*
X35104000Y456000D02*
X32994600Y456000D01*
X32994600Y72224900D01*
X32994600Y72377300D01*
X32994600Y72402700D01*
X32994600Y72555100D01*
X32895000Y73030421D01*
X32621085Y73431445D01*
X32214555Y73697120D01*
X31957232Y73769626D01*
X31762700Y73691680D01*
X31762700Y72402700D01*
X32994600Y72402700D01*
X32994600Y72377300D01*
X31762700Y72377300D01*
X31762700Y71088320D01*
X31957232Y71010374D01*
X32214555Y71082880D01*
X32621085Y71348555D01*
X32895000Y71749579D01*
X32994600Y72224900D01*
X32994600Y456000D01*
X31737300Y456000D01*
X31737300Y71088320D01*
X31737300Y72377300D01*
X31737300Y72402700D01*
X31737300Y73691680D01*
X31542768Y73769626D01*
X31285445Y73697120D01*
X30878915Y73431445D01*
X30605000Y73030421D01*
X30505400Y72555100D01*
X30505400Y72402700D01*
X31737300Y72402700D01*
X31737300Y72377300D01*
X30505400Y72377300D01*
X30505400Y72224900D01*
X30605000Y71749579D01*
X30878915Y71348555D01*
X31285445Y71082880D01*
X31542768Y71010374D01*
X31737300Y71088320D01*
X31737300Y456000D01*
X31572200Y456000D01*
X31572200Y36195000D01*
X31572200Y62865000D01*
X31537398Y63039963D01*
X31438289Y63188289D01*
X29667200Y64959378D01*
X29667200Y71056575D01*
X29686288Y71060371D01*
X30090065Y71330166D01*
X30359860Y71733943D01*
X30454600Y72210231D01*
X30454600Y72569769D01*
X30359860Y73046057D01*
X30090065Y73449834D01*
X29686288Y73719629D01*
X29210000Y73814369D01*
X28733712Y73719629D01*
X28329935Y73449834D01*
X28060140Y73046057D01*
X27965400Y72569769D01*
X27965400Y72210231D01*
X28060140Y71733943D01*
X28329935Y71330166D01*
X28733712Y71060371D01*
X28752800Y71056575D01*
X28752800Y64770000D01*
X28787602Y64595037D01*
X28886711Y64446711D01*
X30657800Y62675622D01*
X30657800Y36384378D01*
X29773378Y35499957D01*
X29628553Y35560094D01*
X29964380Y35698854D01*
X30339827Y36073647D01*
X30543268Y36563587D01*
X30543731Y37094086D01*
X30341146Y37584380D01*
X29966353Y37959827D01*
X29628553Y38100094D01*
X29964380Y38238854D01*
X30339827Y38613647D01*
X30543268Y39103587D01*
X30543731Y39634086D01*
X30341146Y40124380D01*
X29966353Y40499827D01*
X29628553Y40640094D01*
X29964380Y40778854D01*
X30339827Y41153647D01*
X30543268Y41643587D01*
X30543731Y42174086D01*
X30341146Y42664380D01*
X29966353Y43039827D01*
X29628553Y43180094D01*
X29964380Y43318854D01*
X30339827Y43693647D01*
X30543268Y44183587D01*
X30543731Y44714086D01*
X30341146Y45204380D01*
X29966353Y45579827D01*
X29628553Y45720094D01*
X29964380Y45858854D01*
X30339827Y46233647D01*
X30543268Y46723587D01*
X30543731Y47254086D01*
X30341146Y47744380D01*
X29966353Y48119827D01*
X29628553Y48260094D01*
X29964380Y48398854D01*
X30339827Y48773647D01*
X30543268Y49263587D01*
X30543731Y49794086D01*
X30341146Y50284380D01*
X29966353Y50659827D01*
X29628553Y50800094D01*
X29964380Y50938854D01*
X30339827Y51313647D01*
X30543268Y51803587D01*
X30543731Y52334086D01*
X30425881Y52619306D01*
X30425881Y58511933D01*
X30178920Y59109625D01*
X29722030Y59567313D01*
X29124770Y59815317D01*
X28478067Y59815881D01*
X27922064Y59586146D01*
X27922064Y71374000D01*
X27922064Y73406000D01*
X27893878Y73551274D01*
X27810004Y73678956D01*
X27683384Y73764426D01*
X27533600Y73794464D01*
X25806400Y73794464D01*
X25661126Y73766278D01*
X25533444Y73682404D01*
X25447974Y73555784D01*
X25417936Y73406000D01*
X25417936Y71374000D01*
X25446122Y71228726D01*
X25529996Y71101044D01*
X25656616Y71015574D01*
X25806400Y70985536D01*
X27533600Y70985536D01*
X27678874Y71013722D01*
X27806556Y71097596D01*
X27892026Y71224216D01*
X27922064Y71374000D01*
X27922064Y59586146D01*
X27880375Y59568920D01*
X27422687Y59112030D01*
X27174683Y58514770D01*
X27174119Y57868067D01*
X27421080Y57270375D01*
X27877970Y56812687D01*
X28475230Y56564683D01*
X29121933Y56564119D01*
X29719625Y56811080D01*
X30177313Y57267970D01*
X30425317Y57865230D01*
X30425881Y58511933D01*
X30425881Y52619306D01*
X30341146Y52824380D01*
X29966353Y53199827D01*
X29476413Y53403268D01*
X28945914Y53403731D01*
X28455620Y53201146D01*
X28080173Y52826353D01*
X28003500Y52641705D01*
X28003500Y53098286D01*
X27945496Y53238320D01*
X27838319Y53345496D01*
X27698285Y53403500D01*
X27546714Y53403500D01*
X26777950Y53403500D01*
X26682700Y53308250D01*
X26682700Y52082700D01*
X26702700Y52082700D01*
X26702700Y52057300D01*
X26682700Y52057300D01*
X26682700Y52037300D01*
X26657300Y52037300D01*
X26657300Y52057300D01*
X26657300Y52082700D01*
X26657300Y53308250D01*
X26562050Y53403500D01*
X25793286Y53403500D01*
X25641715Y53403500D01*
X25501681Y53345496D01*
X25394504Y53238320D01*
X25336500Y53098286D01*
X25336500Y52177950D01*
X25431750Y52082700D01*
X26657300Y52082700D01*
X26657300Y52057300D01*
X25431750Y52057300D01*
X25336500Y51962050D01*
X25336500Y51041714D01*
X25394504Y50901680D01*
X25501681Y50794504D01*
X25641715Y50736500D01*
X25793286Y50736500D01*
X26090842Y50736500D01*
X25948800Y50682585D01*
X25881142Y50637377D01*
X25784977Y50432983D01*
X26670000Y49547961D01*
X27555023Y50432983D01*
X27458858Y50637377D01*
X27238451Y50736500D01*
X27546714Y50736500D01*
X27698285Y50736500D01*
X27838319Y50794504D01*
X27945496Y50901680D01*
X28003500Y51041714D01*
X28003500Y51497991D01*
X28078854Y51315620D01*
X28453647Y50940173D01*
X28791446Y50799907D01*
X28455620Y50661146D01*
X28080173Y50286353D01*
X27938628Y49945476D01*
X27822585Y50251200D01*
X27777377Y50318858D01*
X27572983Y50415023D01*
X26687961Y49530000D01*
X27572983Y48644977D01*
X27777377Y48741142D01*
X27941922Y49107020D01*
X28078854Y48775620D01*
X28453647Y48400173D01*
X28791446Y48259907D01*
X28455620Y48121146D01*
X28080173Y47746353D01*
X27938628Y47405476D01*
X27822585Y47711200D01*
X27777377Y47778858D01*
X27572983Y47875023D01*
X27555023Y47857063D01*
X27555023Y47892983D01*
X27458858Y48097377D01*
X27090210Y48263169D01*
X27391200Y48377415D01*
X27458858Y48422623D01*
X27555023Y48627017D01*
X26670000Y49512039D01*
X26652039Y49494079D01*
X26652039Y49530000D01*
X25767017Y50415023D01*
X25562623Y50318858D01*
X25345034Y49835035D01*
X25329159Y49304773D01*
X25517415Y48808800D01*
X25562623Y48741142D01*
X25767017Y48644977D01*
X26652039Y49530000D01*
X26652039Y49494079D01*
X25784977Y48627017D01*
X25881142Y48422623D01*
X26249789Y48256832D01*
X25948800Y48142585D01*
X25881142Y48097377D01*
X25784977Y47892983D01*
X26670000Y47007961D01*
X27555023Y47892983D01*
X27555023Y47857063D01*
X26687961Y46990000D01*
X27572983Y46104977D01*
X27777377Y46201142D01*
X27941922Y46567020D01*
X28078854Y46235620D01*
X28453647Y45860173D01*
X28791446Y45719907D01*
X28455620Y45581146D01*
X28080173Y45206353D01*
X27938628Y44865476D01*
X27822585Y45171200D01*
X27777377Y45238858D01*
X27572983Y45335023D01*
X27555023Y45317063D01*
X27555023Y45352983D01*
X27458858Y45557377D01*
X27090210Y45723169D01*
X27391200Y45837415D01*
X27458858Y45882623D01*
X27555023Y46087017D01*
X26670000Y46972039D01*
X26652039Y46954079D01*
X26652039Y46990000D01*
X25767017Y47875023D01*
X25562623Y47778858D01*
X25345034Y47295035D01*
X25329159Y46764773D01*
X25517415Y46268800D01*
X25562623Y46201142D01*
X25767017Y46104977D01*
X26652039Y46990000D01*
X26652039Y46954079D01*
X25784977Y46087017D01*
X25881142Y45882623D01*
X26249789Y45716832D01*
X25948800Y45602585D01*
X25881142Y45557377D01*
X25784977Y45352983D01*
X26670000Y44467961D01*
X27555023Y45352983D01*
X27555023Y45317063D01*
X26687961Y44450000D01*
X27572983Y43564977D01*
X27777377Y43661142D01*
X27941922Y44027020D01*
X28078854Y43695620D01*
X28453647Y43320173D01*
X28791446Y43179907D01*
X28455620Y43041146D01*
X28080173Y42666353D01*
X27938628Y42325476D01*
X27822585Y42631200D01*
X27777377Y42698858D01*
X27572983Y42795023D01*
X27555023Y42777063D01*
X27555023Y42812983D01*
X27458858Y43017377D01*
X27090210Y43183169D01*
X27391200Y43297415D01*
X27458858Y43342623D01*
X27555023Y43547017D01*
X26670000Y44432039D01*
X26652039Y44414079D01*
X26652039Y44450000D01*
X25767017Y45335023D01*
X25562623Y45238858D01*
X25345034Y44755035D01*
X25329159Y44224773D01*
X25517415Y43728800D01*
X25562623Y43661142D01*
X25767017Y43564977D01*
X26652039Y44450000D01*
X26652039Y44414079D01*
X25784977Y43547017D01*
X25881142Y43342623D01*
X26249789Y43176832D01*
X25948800Y43062585D01*
X25881142Y43017377D01*
X25784977Y42812983D01*
X26670000Y41927961D01*
X27555023Y42812983D01*
X27555023Y42777063D01*
X26687961Y41910000D01*
X27572983Y41024977D01*
X27777377Y41121142D01*
X27941922Y41487020D01*
X28078854Y41155620D01*
X28453647Y40780173D01*
X28791446Y40639907D01*
X28455620Y40501146D01*
X28080173Y40126353D01*
X27938628Y39785476D01*
X27822585Y40091200D01*
X27777377Y40158858D01*
X27572983Y40255023D01*
X27555023Y40237063D01*
X27555023Y40272983D01*
X27458858Y40477377D01*
X27090210Y40643169D01*
X27391200Y40757415D01*
X27458858Y40802623D01*
X27555023Y41007017D01*
X26670000Y41892039D01*
X26652039Y41874079D01*
X26652039Y41910000D01*
X25767017Y42795023D01*
X25562623Y42698858D01*
X25345034Y42215035D01*
X25329159Y41684773D01*
X25517415Y41188800D01*
X25562623Y41121142D01*
X25767017Y41024977D01*
X26652039Y41910000D01*
X26652039Y41874079D01*
X25784977Y41007017D01*
X25881142Y40802623D01*
X26249789Y40636832D01*
X25948800Y40522585D01*
X25881142Y40477377D01*
X25784977Y40272983D01*
X26670000Y39387961D01*
X27555023Y40272983D01*
X27555023Y40237063D01*
X26687961Y39370000D01*
X27572983Y38484977D01*
X27777377Y38581142D01*
X27941922Y38947020D01*
X28078854Y38615620D01*
X28453647Y38240173D01*
X28791446Y38099907D01*
X28455620Y37961146D01*
X28080173Y37586353D01*
X27938628Y37245476D01*
X27822585Y37551200D01*
X27777377Y37618858D01*
X27572983Y37715023D01*
X27555023Y37697063D01*
X27555023Y37732983D01*
X27458858Y37937377D01*
X27090210Y38103169D01*
X27391200Y38217415D01*
X27458858Y38262623D01*
X27555023Y38467017D01*
X26670000Y39352039D01*
X26652039Y39334079D01*
X26652039Y39370000D01*
X25767017Y40255023D01*
X25562623Y40158858D01*
X25345034Y39675035D01*
X25329159Y39144773D01*
X25517415Y38648800D01*
X25562623Y38581142D01*
X25767017Y38484977D01*
X26652039Y39370000D01*
X26652039Y39334079D01*
X25784977Y38467017D01*
X25881142Y38262623D01*
X26249789Y38096832D01*
X25948800Y37982585D01*
X25881142Y37937377D01*
X25784977Y37732983D01*
X26670000Y36847961D01*
X27555023Y37732983D01*
X27555023Y37697063D01*
X26687961Y36830000D01*
X27572983Y35944977D01*
X27777377Y36041142D01*
X27941922Y36407020D01*
X28078854Y36075620D01*
X28453647Y35700173D01*
X28791446Y35559907D01*
X28455620Y35421146D01*
X28080173Y35046353D01*
X27938628Y34705476D01*
X27822585Y35011200D01*
X27777377Y35078858D01*
X27572983Y35175023D01*
X27555023Y35157063D01*
X27555023Y35192983D01*
X27458858Y35397377D01*
X27090210Y35563169D01*
X27391200Y35677415D01*
X27458858Y35722623D01*
X27555023Y35927017D01*
X26670000Y36812039D01*
X26652039Y36794079D01*
X26652039Y36830000D01*
X25767017Y37715023D01*
X25562623Y37618858D01*
X25345034Y37135035D01*
X25329159Y36604773D01*
X25517415Y36108800D01*
X25562623Y36041142D01*
X25767017Y35944977D01*
X26652039Y36830000D01*
X26652039Y36794079D01*
X25784977Y35927017D01*
X25881142Y35722623D01*
X26249789Y35556832D01*
X25948800Y35442585D01*
X25881142Y35397377D01*
X25784977Y35192983D01*
X26670000Y34307961D01*
X27555023Y35192983D01*
X27555023Y35157063D01*
X26687961Y34290000D01*
X27572983Y33404977D01*
X27777377Y33501142D01*
X27941922Y33867020D01*
X28078854Y33535620D01*
X28453647Y33160173D01*
X28791446Y33019907D01*
X28455620Y32881146D01*
X28080173Y32506353D01*
X27938628Y32165476D01*
X27822585Y32471200D01*
X27777377Y32538858D01*
X27572983Y32635023D01*
X27555023Y32617063D01*
X27555023Y32652983D01*
X27458858Y32857377D01*
X27090210Y33023169D01*
X27391200Y33137415D01*
X27458858Y33182623D01*
X27555023Y33387017D01*
X26670000Y34272039D01*
X26652039Y34254079D01*
X26652039Y34290000D01*
X25767017Y35175023D01*
X25562623Y35078858D01*
X25345034Y34595035D01*
X25329159Y34064773D01*
X25517415Y33568800D01*
X25562623Y33501142D01*
X25767017Y33404977D01*
X26652039Y34290000D01*
X26652039Y34254079D01*
X25784977Y33387017D01*
X25881142Y33182623D01*
X26249789Y33016832D01*
X25948800Y32902585D01*
X25881142Y32857377D01*
X25784977Y32652983D01*
X26670000Y31767961D01*
X27555023Y32652983D01*
X27555023Y32617063D01*
X26687961Y31750000D01*
X27572983Y30864977D01*
X27777377Y30961142D01*
X27941922Y31327020D01*
X28078854Y30995620D01*
X28453647Y30620173D01*
X28791446Y30479907D01*
X28455620Y30341146D01*
X28080173Y29966353D01*
X27938628Y29625476D01*
X27822585Y29931200D01*
X27777377Y29998858D01*
X27572983Y30095023D01*
X27555023Y30077063D01*
X27555023Y30112983D01*
X27458858Y30317377D01*
X27090210Y30483169D01*
X27391200Y30597415D01*
X27458858Y30642623D01*
X27555023Y30847017D01*
X26670000Y31732039D01*
X26652039Y31714079D01*
X26652039Y31750000D01*
X25767017Y32635023D01*
X25562623Y32538858D01*
X25345034Y32055035D01*
X25329159Y31524773D01*
X25517415Y31028800D01*
X25562623Y30961142D01*
X25767017Y30864977D01*
X26652039Y31750000D01*
X26652039Y31714079D01*
X25784977Y30847017D01*
X25881142Y30642623D01*
X26249789Y30476832D01*
X25948800Y30362585D01*
X25881142Y30317377D01*
X25784977Y30112983D01*
X26670000Y29227961D01*
X27555023Y30112983D01*
X27555023Y30077063D01*
X26687961Y29210000D01*
X27572983Y28324977D01*
X27777377Y28421142D01*
X27941922Y28787020D01*
X28078854Y28455620D01*
X28453647Y28080173D01*
X28791446Y27939907D01*
X28455620Y27801146D01*
X28080173Y27426353D01*
X27938628Y27085476D01*
X27822585Y27391200D01*
X27777377Y27458858D01*
X27572983Y27555023D01*
X27555023Y27537063D01*
X27555023Y27572983D01*
X27458858Y27777377D01*
X27090210Y27943169D01*
X27391200Y28057415D01*
X27458858Y28102623D01*
X27555023Y28307017D01*
X26670000Y29192039D01*
X26652039Y29174079D01*
X26652039Y29210000D01*
X25767017Y30095023D01*
X25562623Y29998858D01*
X25345034Y29515035D01*
X25329159Y28984773D01*
X25517415Y28488800D01*
X25562623Y28421142D01*
X25767017Y28324977D01*
X26652039Y29210000D01*
X26652039Y29174079D01*
X25784977Y28307017D01*
X25881142Y28102623D01*
X26249789Y27936832D01*
X25948800Y27822585D01*
X25881142Y27777377D01*
X25784977Y27572983D01*
X26670000Y26687961D01*
X27555023Y27572983D01*
X27555023Y27537063D01*
X26687961Y26670000D01*
X27572983Y25784977D01*
X27777377Y25881142D01*
X27941922Y26247020D01*
X28078854Y25915620D01*
X28453647Y25540173D01*
X28791446Y25399907D01*
X28455620Y25261146D01*
X28080173Y24886353D01*
X27938628Y24545476D01*
X27822585Y24851200D01*
X27777377Y24918858D01*
X27572983Y25015023D01*
X27555023Y24997063D01*
X27555023Y25032983D01*
X27458858Y25237377D01*
X27090210Y25403169D01*
X27391200Y25517415D01*
X27458858Y25562623D01*
X27555023Y25767017D01*
X26670000Y26652039D01*
X26652039Y26634079D01*
X26652039Y26670000D01*
X25767017Y27555023D01*
X25562623Y27458858D01*
X25345034Y26975035D01*
X25329159Y26444773D01*
X25517415Y25948800D01*
X25562623Y25881142D01*
X25767017Y25784977D01*
X26652039Y26670000D01*
X26652039Y26634079D01*
X25784977Y25767017D01*
X25881142Y25562623D01*
X26249789Y25396832D01*
X25948800Y25282585D01*
X25881142Y25237377D01*
X25784977Y25032983D01*
X26670000Y24147961D01*
X27555023Y25032983D01*
X27555023Y24997063D01*
X26687961Y24130000D01*
X27572983Y23244977D01*
X27777377Y23341142D01*
X27941922Y23707020D01*
X28078854Y23375620D01*
X28453647Y23000173D01*
X28791446Y22859907D01*
X28455620Y22721146D01*
X28080173Y22346353D01*
X27938628Y22005476D01*
X27822585Y22311200D01*
X27777377Y22378858D01*
X27572983Y22475023D01*
X27555023Y22457063D01*
X27555023Y22492983D01*
X27458858Y22697377D01*
X27090210Y22863169D01*
X27391200Y22977415D01*
X27458858Y23022623D01*
X27555023Y23227017D01*
X26670000Y24112039D01*
X26652039Y24094079D01*
X26652039Y24130000D01*
X25767017Y25015023D01*
X25562623Y24918858D01*
X25345034Y24435035D01*
X25329159Y23904773D01*
X25517415Y23408800D01*
X25562623Y23341142D01*
X25767017Y23244977D01*
X26652039Y24130000D01*
X26652039Y24094079D01*
X25784977Y23227017D01*
X25881142Y23022623D01*
X26249789Y22856832D01*
X25948800Y22742585D01*
X25881142Y22697377D01*
X25784977Y22492983D01*
X26670000Y21607961D01*
X27555023Y22492983D01*
X27555023Y22457063D01*
X26687961Y21590000D01*
X27572983Y20704977D01*
X27777377Y20801142D01*
X27941922Y21167020D01*
X28078854Y20835620D01*
X28453647Y20460173D01*
X28791446Y20319907D01*
X28455620Y20181146D01*
X28080173Y19806353D01*
X27938628Y19465476D01*
X27822585Y19771200D01*
X27777377Y19838858D01*
X27572983Y19935023D01*
X27555023Y19917063D01*
X27555023Y19952983D01*
X27458858Y20157377D01*
X27090210Y20323169D01*
X27391200Y20437415D01*
X27458858Y20482623D01*
X27555023Y20687017D01*
X26670000Y21572039D01*
X26652039Y21554079D01*
X26652039Y21590000D01*
X25767017Y22475023D01*
X25562623Y22378858D01*
X25345034Y21895035D01*
X25329159Y21364773D01*
X25517415Y20868800D01*
X25562623Y20801142D01*
X25767017Y20704977D01*
X26652039Y21590000D01*
X26652039Y21554079D01*
X25784977Y20687017D01*
X25881142Y20482623D01*
X26249789Y20316832D01*
X25948800Y20202585D01*
X25881142Y20157377D01*
X25784977Y19952983D01*
X26670000Y19067961D01*
X27555023Y19952983D01*
X27555023Y19917063D01*
X26687961Y19050000D01*
X27572983Y18164977D01*
X27777377Y18261142D01*
X27941922Y18627020D01*
X28078854Y18295620D01*
X28453647Y17920173D01*
X28791446Y17779907D01*
X28455620Y17641146D01*
X28080173Y17266353D01*
X27938628Y16925476D01*
X27822585Y17231200D01*
X27777377Y17298858D01*
X27572983Y17395023D01*
X27555023Y17377063D01*
X27555023Y17412983D01*
X27458858Y17617377D01*
X27090210Y17783169D01*
X27391200Y17897415D01*
X27458858Y17942623D01*
X27555023Y18147017D01*
X26670000Y19032039D01*
X26652039Y19014079D01*
X26652039Y19050000D01*
X25767017Y19935023D01*
X25562623Y19838858D01*
X25345034Y19355035D01*
X25329159Y18824773D01*
X25517415Y18328800D01*
X25562623Y18261142D01*
X25767017Y18164977D01*
X26652039Y19050000D01*
X26652039Y19014079D01*
X25784977Y18147017D01*
X25881142Y17942623D01*
X26249789Y17776832D01*
X25948800Y17662585D01*
X25881142Y17617377D01*
X25784977Y17412983D01*
X26670000Y16527961D01*
X27555023Y17412983D01*
X27555023Y17377063D01*
X26687961Y16510000D01*
X27572983Y15624977D01*
X27777377Y15721142D01*
X27941922Y16087020D01*
X28078854Y15755620D01*
X28453647Y15380173D01*
X28791446Y15239907D01*
X28455620Y15101146D01*
X28080173Y14726353D01*
X27938628Y14385476D01*
X27822585Y14691200D01*
X27777377Y14758858D01*
X27572983Y14855023D01*
X27555023Y14837063D01*
X27555023Y14872983D01*
X27458858Y15077377D01*
X27090210Y15243169D01*
X27391200Y15357415D01*
X27458858Y15402623D01*
X27555023Y15607017D01*
X26670000Y16492039D01*
X26652039Y16474079D01*
X26652039Y16510000D01*
X25767017Y17395023D01*
X25562623Y17298858D01*
X25345034Y16815035D01*
X25329159Y16284773D01*
X25517415Y15788800D01*
X25562623Y15721142D01*
X25767017Y15624977D01*
X26652039Y16510000D01*
X26652039Y16474079D01*
X25784977Y15607017D01*
X25881142Y15402623D01*
X26249789Y15236832D01*
X25948800Y15122585D01*
X25881142Y15077377D01*
X25784977Y14872983D01*
X26670000Y13987961D01*
X27555023Y14872983D01*
X27555023Y14837063D01*
X26687961Y13970000D01*
X27572983Y13084977D01*
X27777377Y13181142D01*
X27941922Y13547020D01*
X28078854Y13215620D01*
X28453647Y12840173D01*
X28791446Y12699907D01*
X28455620Y12561146D01*
X28080173Y12186353D01*
X27938628Y11845476D01*
X27822585Y12151200D01*
X27777377Y12218858D01*
X27572983Y12315023D01*
X27555023Y12297063D01*
X27555023Y12332983D01*
X27458858Y12537377D01*
X27090210Y12703169D01*
X27391200Y12817415D01*
X27458858Y12862623D01*
X27555023Y13067017D01*
X26670000Y13952039D01*
X26652039Y13934079D01*
X26652039Y13970000D01*
X25767017Y14855023D01*
X25562623Y14758858D01*
X25345034Y14275035D01*
X25329159Y13744773D01*
X25517415Y13248800D01*
X25562623Y13181142D01*
X25767017Y13084977D01*
X26652039Y13970000D01*
X26652039Y13934079D01*
X25784977Y13067017D01*
X25881142Y12862623D01*
X26249789Y12696832D01*
X25948800Y12582585D01*
X25881142Y12537377D01*
X25784977Y12332983D01*
X26670000Y11447961D01*
X27555023Y12332983D01*
X27555023Y12297063D01*
X26687961Y11430000D01*
X27572983Y10544977D01*
X27777377Y10641142D01*
X27941922Y11007020D01*
X28078854Y10675620D01*
X28453647Y10300173D01*
X28943587Y10096732D01*
X29474086Y10096269D01*
X29964380Y10298854D01*
X30339827Y10673647D01*
X30543268Y11163587D01*
X30543731Y11694086D01*
X30341146Y12184380D01*
X29966353Y12559827D01*
X29628553Y12700094D01*
X29964380Y12838854D01*
X30339827Y13213647D01*
X30543268Y13703587D01*
X30543731Y14234086D01*
X30341146Y14724380D01*
X29966353Y15099827D01*
X29628553Y15240094D01*
X29964380Y15378854D01*
X30339827Y15753647D01*
X30543268Y16243587D01*
X30543731Y16774086D01*
X30341146Y17264380D01*
X29966353Y17639827D01*
X29628553Y17780094D01*
X29964380Y17918854D01*
X30339827Y18293647D01*
X30543268Y18783587D01*
X30543731Y19314086D01*
X30341146Y19804380D01*
X29966353Y20179827D01*
X29628553Y20320094D01*
X29964380Y20458854D01*
X30339827Y20833647D01*
X30543268Y21323587D01*
X30543731Y21854086D01*
X30341146Y22344380D01*
X29966353Y22719827D01*
X29628553Y22860094D01*
X29964380Y22998854D01*
X30339827Y23373647D01*
X30543268Y23863587D01*
X30543731Y24394086D01*
X30341146Y24884380D01*
X29966353Y25259827D01*
X29628553Y25400094D01*
X29964380Y25538854D01*
X30339827Y25913647D01*
X30543268Y26403587D01*
X30543731Y26934086D01*
X30341146Y27424380D01*
X29966353Y27799827D01*
X29628553Y27940094D01*
X29964380Y28078854D01*
X30339827Y28453647D01*
X30543268Y28943587D01*
X30543731Y29474086D01*
X30341146Y29964380D01*
X29966353Y30339827D01*
X29628553Y30480094D01*
X29964380Y30618854D01*
X30339827Y30993647D01*
X30543268Y31483587D01*
X30543731Y32014086D01*
X30341146Y32504380D01*
X29966353Y32879827D01*
X29628553Y33020094D01*
X29964380Y33158854D01*
X30339827Y33533647D01*
X30543268Y34023587D01*
X30543731Y34554086D01*
X30420034Y34853457D01*
X31438289Y35871711D01*
X31537398Y36020037D01*
X31572200Y36195000D01*
X31572200Y456000D01*
X30425881Y456000D01*
X30425881Y5631933D01*
X30178920Y6229625D01*
X29722030Y6687313D01*
X29124770Y6935317D01*
X28478067Y6935881D01*
X27880375Y6688920D01*
X27555023Y6364136D01*
X27555023Y10527017D01*
X26670000Y11412039D01*
X26652039Y11394079D01*
X26652039Y11430000D01*
X25767017Y12315023D01*
X25562623Y12218858D01*
X25345034Y11735035D01*
X25329159Y11204773D01*
X25517415Y10708800D01*
X25562623Y10641142D01*
X25767017Y10544977D01*
X26652039Y11430000D01*
X26652039Y11394079D01*
X25784977Y10527017D01*
X25881142Y10322623D01*
X26364965Y10105034D01*
X26895227Y10089159D01*
X27391200Y10277415D01*
X27458858Y10322623D01*
X27555023Y10527017D01*
X27555023Y6364136D01*
X27422687Y6232030D01*
X27174683Y5634770D01*
X27174119Y4988067D01*
X27421080Y4390375D01*
X27877970Y3932687D01*
X28475230Y3684683D01*
X29121933Y3684119D01*
X29719625Y3931080D01*
X30177313Y4387970D01*
X30425317Y4985230D01*
X30425881Y5631933D01*
X30425881Y456000D01*
X24240729Y456000D01*
X24240729Y37103392D01*
X24240729Y42183392D01*
X24240729Y47263392D01*
X24240729Y52343392D01*
X24031005Y52850963D01*
X23643006Y53239640D01*
X23135801Y53450249D01*
X22586608Y53450729D01*
X22079037Y53241005D01*
X21690360Y52853006D01*
X21479751Y52345801D01*
X21479271Y51796608D01*
X21688995Y51289037D01*
X22076994Y50900360D01*
X22584199Y50689751D01*
X23133392Y50689271D01*
X23640963Y50898995D01*
X24029640Y51286994D01*
X24240249Y51794199D01*
X24240729Y52343392D01*
X24240729Y47263392D01*
X24031005Y47770963D01*
X23643006Y48159640D01*
X23135801Y48370249D01*
X22586608Y48370729D01*
X22079037Y48161005D01*
X21690360Y47773006D01*
X21479751Y47265801D01*
X21479271Y46716608D01*
X21688995Y46209037D01*
X22076994Y45820360D01*
X22584199Y45609751D01*
X23133392Y45609271D01*
X23640963Y45818995D01*
X24029640Y46206994D01*
X24240249Y46714199D01*
X24240729Y47263392D01*
X24240729Y42183392D01*
X24031005Y42690963D01*
X23643006Y43079640D01*
X23135801Y43290249D01*
X22586608Y43290729D01*
X22079037Y43081005D01*
X21690360Y42693006D01*
X21479751Y42185801D01*
X21479271Y41636608D01*
X21688995Y41129037D01*
X22076994Y40740360D01*
X22584199Y40529751D01*
X23133392Y40529271D01*
X23640963Y40738995D01*
X24029640Y41126994D01*
X24240249Y41634199D01*
X24240729Y42183392D01*
X24240729Y37103392D01*
X24031005Y37610963D01*
X23643006Y37999640D01*
X23135801Y38210249D01*
X22586608Y38210729D01*
X22079037Y38001005D01*
X21690360Y37613006D01*
X21479751Y37105801D01*
X21479271Y36556608D01*
X21688995Y36049037D01*
X22076994Y35660360D01*
X22584199Y35449751D01*
X23133392Y35449271D01*
X23640963Y35658995D01*
X24029640Y36046994D01*
X24240249Y36554199D01*
X24240729Y37103392D01*
X24240729Y456000D01*
X21412200Y456000D01*
X21412200Y71755000D01*
X21412200Y73025000D01*
X21377398Y73199963D01*
X21278289Y73348289D01*
X20008289Y74618289D01*
X19859963Y74717398D01*
X19685000Y74752200D01*
X14706600Y74752200D01*
X14531637Y74717398D01*
X14383311Y74618289D01*
X13646711Y73881689D01*
X13588428Y73794464D01*
X13106400Y73794464D01*
X12961126Y73766278D01*
X12833444Y73682404D01*
X12747974Y73555784D01*
X12717936Y73406000D01*
X12717936Y71374000D01*
X12746122Y71228726D01*
X12829996Y71101044D01*
X12956616Y71015574D01*
X13106400Y70985536D01*
X14833600Y70985536D01*
X14978874Y71013722D01*
X15106556Y71097596D01*
X15192026Y71224216D01*
X15222064Y71374000D01*
X15222064Y73406000D01*
X15193878Y73551274D01*
X15110004Y73678956D01*
X14983384Y73764426D01*
X14849461Y73791284D01*
X14895978Y73837800D01*
X19495622Y73837800D01*
X19789998Y73543424D01*
X19526288Y73719629D01*
X19050000Y73814369D01*
X18573712Y73719629D01*
X18169935Y73449834D01*
X17900140Y73046057D01*
X17805400Y72569769D01*
X17805400Y72210231D01*
X17900140Y71733943D01*
X18169935Y71330166D01*
X18573712Y71060371D01*
X18592800Y71056575D01*
X18592800Y69331252D01*
X18567236Y69341867D01*
X18264094Y69342132D01*
X17983926Y69226368D01*
X17769385Y69012202D01*
X17754600Y68976596D01*
X17754600Y72210231D01*
X17754600Y72569769D01*
X17659860Y73046057D01*
X17390065Y73449834D01*
X16986288Y73719629D01*
X16510000Y73814369D01*
X16033712Y73719629D01*
X15629935Y73449834D01*
X15360140Y73046057D01*
X15265400Y72569769D01*
X15265400Y72210231D01*
X15360140Y71733943D01*
X15629935Y71330166D01*
X16033712Y71060371D01*
X16510000Y70965631D01*
X16986288Y71060371D01*
X17390065Y71330166D01*
X17659860Y71733943D01*
X17754600Y72210231D01*
X17754600Y68976596D01*
X17653133Y68732236D01*
X17652868Y68429094D01*
X17768632Y68148926D01*
X17957800Y67959427D01*
X17957800Y66791252D01*
X17932236Y66801867D01*
X17629094Y66802132D01*
X17348926Y66686368D01*
X17134385Y66472202D01*
X17018133Y66192236D01*
X17017868Y65889094D01*
X17133632Y65608926D01*
X17322800Y65419427D01*
X17322800Y64251252D01*
X17297236Y64261867D01*
X16994094Y64262132D01*
X16713926Y64146368D01*
X16499385Y63932202D01*
X16383133Y63652236D01*
X16382868Y63349094D01*
X16498632Y63068926D01*
X16687800Y62879427D01*
X16687800Y61711252D01*
X16662236Y61721867D01*
X16359094Y61722132D01*
X16078926Y61606368D01*
X15864385Y61392202D01*
X15748133Y61112236D01*
X15747868Y60809094D01*
X15863632Y60528926D01*
X16052800Y60339427D01*
X16052800Y59171252D01*
X16027236Y59181867D01*
X15724094Y59182132D01*
X15443926Y59066368D01*
X15229385Y58852202D01*
X15113133Y58572236D01*
X15112868Y58269094D01*
X15228632Y57988926D01*
X15417800Y57799427D01*
X15417800Y56631252D01*
X15392236Y56641867D01*
X15089094Y56642132D01*
X14808926Y56526368D01*
X14594385Y56312202D01*
X14478133Y56032236D01*
X14477868Y55729094D01*
X14593632Y55448926D01*
X14782800Y55259427D01*
X14782800Y54726252D01*
X14757236Y54736867D01*
X14454094Y54737132D01*
X14173926Y54621368D01*
X13959385Y54407202D01*
X13843133Y54127236D01*
X13842868Y53824094D01*
X13958632Y53543926D01*
X14147800Y53354427D01*
X14147800Y35676252D01*
X14122236Y35686867D01*
X14080729Y35686904D01*
X14080729Y37103392D01*
X14080729Y42183392D01*
X14080729Y47263392D01*
X14080729Y52343392D01*
X13871005Y52850963D01*
X13483006Y53239640D01*
X12975801Y53450249D01*
X12426608Y53450729D01*
X11919037Y53241005D01*
X11530360Y52853006D01*
X11319751Y52345801D01*
X11319271Y51796608D01*
X11528995Y51289037D01*
X11916994Y50900360D01*
X12424199Y50689751D01*
X12973392Y50689271D01*
X13480963Y50898995D01*
X13869640Y51286994D01*
X14080249Y51794199D01*
X14080729Y52343392D01*
X14080729Y47263392D01*
X13871005Y47770963D01*
X13483006Y48159640D01*
X12975801Y48370249D01*
X12426608Y48370729D01*
X11919037Y48161005D01*
X11530360Y47773006D01*
X11319751Y47265801D01*
X11319271Y46716608D01*
X11528995Y46209037D01*
X11916994Y45820360D01*
X12424199Y45609751D01*
X12973392Y45609271D01*
X13480963Y45818995D01*
X13869640Y46206994D01*
X14080249Y46714199D01*
X14080729Y47263392D01*
X14080729Y42183392D01*
X13871005Y42690963D01*
X13483006Y43079640D01*
X12975801Y43290249D01*
X12426608Y43290729D01*
X11919037Y43081005D01*
X11530360Y42693006D01*
X11319751Y42185801D01*
X11319271Y41636608D01*
X11528995Y41129037D01*
X11916994Y40740360D01*
X12424199Y40529751D01*
X12973392Y40529271D01*
X13480963Y40738995D01*
X13869640Y41126994D01*
X14080249Y41634199D01*
X14080729Y42183392D01*
X14080729Y37103392D01*
X13871005Y37610963D01*
X13483006Y37999640D01*
X12975801Y38210249D01*
X12426608Y38210729D01*
X11919037Y38001005D01*
X11530360Y37613006D01*
X11319751Y37105801D01*
X11319271Y36556608D01*
X11528995Y36049037D01*
X11916994Y35660360D01*
X12424199Y35449751D01*
X12973392Y35449271D01*
X13480963Y35658995D01*
X13869640Y36046994D01*
X14080249Y36554199D01*
X14080729Y37103392D01*
X14080729Y35686904D01*
X13819094Y35687132D01*
X13538926Y35571368D01*
X13324385Y35357202D01*
X13208133Y35077236D01*
X13207868Y34774094D01*
X13323632Y34493926D01*
X13512800Y34304427D01*
X13512800Y20940288D01*
X13324385Y20752202D01*
X13208133Y20472236D01*
X13207868Y20169094D01*
X13323632Y19888926D01*
X13537798Y19674385D01*
X13817764Y19558133D01*
X14035258Y19557943D01*
X13959385Y19482202D01*
X13843133Y19202236D01*
X13842868Y18899094D01*
X13958632Y18618926D01*
X14172798Y18404385D01*
X14452764Y18288133D01*
X14755906Y18287868D01*
X15036074Y18403632D01*
X15250615Y18617798D01*
X15366867Y18897764D01*
X15367132Y19200906D01*
X15251368Y19481074D01*
X15062200Y19670574D01*
X15062200Y27319713D01*
X15240168Y27497370D01*
X15442798Y27294385D01*
X15722764Y27178133D01*
X16025906Y27177868D01*
X16052800Y27188981D01*
X16052800Y26020288D01*
X15864385Y25832202D01*
X15748133Y25552236D01*
X15747868Y25249094D01*
X15863632Y24968926D01*
X16077798Y24754385D01*
X16357764Y24638133D01*
X16660906Y24637868D01*
X16687800Y24648981D01*
X16687800Y23480288D01*
X16499385Y23292202D01*
X16383133Y23012236D01*
X16382868Y22709094D01*
X16498632Y22428926D01*
X16712798Y22214385D01*
X16992764Y22098133D01*
X17295906Y22097868D01*
X17322800Y22108981D01*
X17322800Y20940288D01*
X17134385Y20752202D01*
X17018133Y20472236D01*
X17017868Y20169094D01*
X17133632Y19888926D01*
X17347798Y19674385D01*
X17627764Y19558133D01*
X17930906Y19557868D01*
X17957800Y19568981D01*
X17957800Y18400288D01*
X17769385Y18212202D01*
X17653133Y17932236D01*
X17652868Y17629094D01*
X17768632Y17348926D01*
X17982798Y17134385D01*
X18262764Y17018133D01*
X18565906Y17017868D01*
X18846074Y17133632D01*
X19060615Y17347798D01*
X19176867Y17627764D01*
X19177132Y17930906D01*
X19061368Y18211074D01*
X18872200Y18400574D01*
X18872200Y31916222D01*
X18923100Y31865322D01*
X18922868Y31599094D01*
X19038632Y31318926D01*
X19252798Y31104385D01*
X19532764Y30988133D01*
X19835906Y30987868D01*
X19862800Y30998981D01*
X19862800Y29830288D01*
X19674385Y29642202D01*
X19558133Y29362236D01*
X19557868Y29059094D01*
X19673632Y28778926D01*
X19887798Y28564385D01*
X20167764Y28448133D01*
X20470906Y28447868D01*
X20751074Y28563632D01*
X20965615Y28777798D01*
X21081867Y29057764D01*
X21082132Y29360906D01*
X20966368Y29641074D01*
X20777200Y29830574D01*
X20777200Y32385000D01*
X20742398Y32559963D01*
X20643289Y32708289D01*
X20142200Y33209378D01*
X20142200Y33538749D01*
X20167764Y33528133D01*
X20470906Y33527868D01*
X20751074Y33643632D01*
X20965615Y33857798D01*
X21081867Y34137764D01*
X21082132Y34440906D01*
X20966368Y34721074D01*
X20777200Y34910574D01*
X20777200Y53354713D01*
X20965615Y53542798D01*
X21081867Y53822764D01*
X21082132Y54125906D01*
X20966368Y54406074D01*
X20752202Y54620615D01*
X20472236Y54736867D01*
X20169094Y54737132D01*
X20142200Y54726020D01*
X20142200Y70295622D01*
X21278289Y71431711D01*
X21377398Y71580037D01*
X21412200Y71755000D01*
X21412200Y456000D01*
X20454464Y456000D01*
X20454464Y10414000D01*
X20454464Y12446000D01*
X20426278Y12591274D01*
X20342404Y12718956D01*
X20215784Y12804426D01*
X20066000Y12834464D01*
X18034000Y12834464D01*
X17888726Y12806278D01*
X17761044Y12722404D01*
X17675574Y12595784D01*
X17645536Y12446000D01*
X17645536Y12222694D01*
X17320828Y12567616D01*
X16823761Y12791311D01*
X16741074Y12807757D01*
X16522700Y12731688D01*
X16522700Y11442700D01*
X16542700Y11442700D01*
X16542700Y11417300D01*
X16522700Y11417300D01*
X16522700Y10128312D01*
X16741074Y10052243D01*
X16823761Y10068689D01*
X17320828Y10292384D01*
X17645536Y10637307D01*
X17645536Y10414000D01*
X17673722Y10268726D01*
X17757596Y10141044D01*
X17884216Y10055574D01*
X18034000Y10025536D01*
X20066000Y10025536D01*
X20211274Y10053722D01*
X20338956Y10137596D01*
X20424426Y10264216D01*
X20454464Y10414000D01*
X20454464Y456000D01*
X16497300Y456000D01*
X16497300Y10128312D01*
X16497300Y11417300D01*
X16497300Y11442700D01*
X16497300Y12731688D01*
X16278926Y12807757D01*
X16196239Y12791311D01*
X15699172Y12567616D01*
X15325546Y12170730D01*
X15132242Y11661074D01*
X15208307Y11442700D01*
X16497300Y11442700D01*
X16497300Y11417300D01*
X15208307Y11417300D01*
X15132242Y11198926D01*
X15325546Y10689270D01*
X15699172Y10292384D01*
X16196239Y10068689D01*
X16278926Y10052243D01*
X16497300Y10128312D01*
X16497300Y456000D01*
X10230841Y456000D01*
X10230841Y14195227D01*
X10230841Y16735227D01*
X10230841Y19275227D01*
X10230841Y21815227D01*
X10230841Y24355227D01*
X10230841Y26895227D01*
X10230841Y29435227D01*
X10230841Y31975227D01*
X10230841Y34515227D01*
X10230841Y37055227D01*
X10230841Y39595227D01*
X10230841Y42135227D01*
X10230841Y44675227D01*
X10230841Y47215227D01*
X10230841Y49755227D01*
X10230841Y52295227D01*
X10230841Y54835227D01*
X10230841Y57375227D01*
X10230841Y59915227D01*
X10230841Y62455227D01*
X10230841Y64995227D01*
X10230841Y67535227D01*
X10230841Y70075227D01*
X10230841Y72615227D01*
X10042585Y73111200D01*
X9997377Y73178858D01*
X9792983Y73275023D01*
X9775023Y73257063D01*
X9775023Y73292983D01*
X9678858Y73497377D01*
X9195035Y73714966D01*
X8664773Y73730841D01*
X8385881Y73624983D01*
X8385881Y78831933D01*
X8138920Y79429625D01*
X7682030Y79887313D01*
X7084770Y80135317D01*
X6438067Y80135881D01*
X5840375Y79888920D01*
X5382687Y79432030D01*
X5134683Y78834770D01*
X5134119Y78188067D01*
X5381080Y77590375D01*
X5837970Y77132687D01*
X6435230Y76884683D01*
X7081933Y76884119D01*
X7679625Y77131080D01*
X8137313Y77587970D01*
X8385317Y78185230D01*
X8385881Y78831933D01*
X8385881Y73624983D01*
X8168800Y73542585D01*
X8101142Y73497377D01*
X8004977Y73292983D01*
X8890000Y72407961D01*
X9775023Y73292983D01*
X9775023Y73257063D01*
X8907961Y72390000D01*
X9792983Y71504977D01*
X9997377Y71601142D01*
X10214966Y72084965D01*
X10230841Y72615227D01*
X10230841Y70075227D01*
X10042585Y70571200D01*
X9997377Y70638858D01*
X9792983Y70735023D01*
X9775023Y70717063D01*
X9775023Y70752983D01*
X9678858Y70957377D01*
X9310210Y71123169D01*
X9611200Y71237415D01*
X9678858Y71282623D01*
X9775023Y71487017D01*
X8890000Y72372039D01*
X8004977Y71487017D01*
X8101142Y71282623D01*
X8469789Y71116832D01*
X8168800Y71002585D01*
X8101142Y70957377D01*
X8004977Y70752983D01*
X8890000Y69867961D01*
X9775023Y70752983D01*
X9775023Y70717063D01*
X8907961Y69850000D01*
X9792983Y68964977D01*
X9997377Y69061142D01*
X10214966Y69544965D01*
X10230841Y70075227D01*
X10230841Y67535227D01*
X10042585Y68031200D01*
X9997377Y68098858D01*
X9792983Y68195023D01*
X9775023Y68177063D01*
X9775023Y68212983D01*
X9678858Y68417377D01*
X9310210Y68583169D01*
X9611200Y68697415D01*
X9678858Y68742623D01*
X9775023Y68947017D01*
X8890000Y69832039D01*
X8004977Y68947017D01*
X8101142Y68742623D01*
X8469789Y68576832D01*
X8168800Y68462585D01*
X8101142Y68417377D01*
X8004977Y68212983D01*
X8890000Y67327961D01*
X9775023Y68212983D01*
X9775023Y68177063D01*
X8907961Y67310000D01*
X9792983Y66424977D01*
X9997377Y66521142D01*
X10214966Y67004965D01*
X10230841Y67535227D01*
X10230841Y64995227D01*
X10042585Y65491200D01*
X9997377Y65558858D01*
X9792983Y65655023D01*
X9775023Y65637063D01*
X9775023Y65672983D01*
X9678858Y65877377D01*
X9310210Y66043169D01*
X9611200Y66157415D01*
X9678858Y66202623D01*
X9775023Y66407017D01*
X8890000Y67292039D01*
X8004977Y66407017D01*
X8101142Y66202623D01*
X8469789Y66036832D01*
X8168800Y65922585D01*
X8101142Y65877377D01*
X8004977Y65672983D01*
X8890000Y64787961D01*
X9775023Y65672983D01*
X9775023Y65637063D01*
X8907961Y64770000D01*
X9792983Y63884977D01*
X9997377Y63981142D01*
X10214966Y64464965D01*
X10230841Y64995227D01*
X10230841Y62455227D01*
X10042585Y62951200D01*
X9997377Y63018858D01*
X9792983Y63115023D01*
X9775023Y63097063D01*
X9775023Y63132983D01*
X9678858Y63337377D01*
X9310210Y63503169D01*
X9611200Y63617415D01*
X9678858Y63662623D01*
X9775023Y63867017D01*
X8890000Y64752039D01*
X8004977Y63867017D01*
X8101142Y63662623D01*
X8469789Y63496832D01*
X8168800Y63382585D01*
X8101142Y63337377D01*
X8004977Y63132983D01*
X8890000Y62247961D01*
X9775023Y63132983D01*
X9775023Y63097063D01*
X8907961Y62230000D01*
X9792983Y61344977D01*
X9997377Y61441142D01*
X10214966Y61924965D01*
X10230841Y62455227D01*
X10230841Y59915227D01*
X10042585Y60411200D01*
X9997377Y60478858D01*
X9792983Y60575023D01*
X9775023Y60557063D01*
X9775023Y60592983D01*
X9678858Y60797377D01*
X9310210Y60963169D01*
X9611200Y61077415D01*
X9678858Y61122623D01*
X9775023Y61327017D01*
X8890000Y62212039D01*
X8004977Y61327017D01*
X8101142Y61122623D01*
X8469789Y60956832D01*
X8168800Y60842585D01*
X8101142Y60797377D01*
X8004977Y60592983D01*
X8890000Y59707961D01*
X9775023Y60592983D01*
X9775023Y60557063D01*
X8907961Y59690000D01*
X9792983Y58804977D01*
X9997377Y58901142D01*
X10214966Y59384965D01*
X10230841Y59915227D01*
X10230841Y57375227D01*
X10042585Y57871200D01*
X9997377Y57938858D01*
X9792983Y58035023D01*
X9775023Y58017063D01*
X9775023Y58052983D01*
X9678858Y58257377D01*
X9310210Y58423169D01*
X9611200Y58537415D01*
X9678858Y58582623D01*
X9775023Y58787017D01*
X8890000Y59672039D01*
X8004977Y58787017D01*
X8101142Y58582623D01*
X8469789Y58416832D01*
X8168800Y58302585D01*
X8101142Y58257377D01*
X8004977Y58052983D01*
X8890000Y57167961D01*
X9775023Y58052983D01*
X9775023Y58017063D01*
X8907961Y57150000D01*
X9792983Y56264977D01*
X9997377Y56361142D01*
X10214966Y56844965D01*
X10230841Y57375227D01*
X10230841Y54835227D01*
X10042585Y55331200D01*
X9997377Y55398858D01*
X9792983Y55495023D01*
X9775023Y55477063D01*
X9775023Y55512983D01*
X9678858Y55717377D01*
X9310210Y55883169D01*
X9611200Y55997415D01*
X9678858Y56042623D01*
X9775023Y56247017D01*
X8890000Y57132039D01*
X8004977Y56247017D01*
X8101142Y56042623D01*
X8469789Y55876832D01*
X8168800Y55762585D01*
X8101142Y55717377D01*
X8004977Y55512983D01*
X8890000Y54627961D01*
X9775023Y55512983D01*
X9775023Y55477063D01*
X8907961Y54610000D01*
X9792983Y53724977D01*
X9997377Y53821142D01*
X10214966Y54304965D01*
X10230841Y54835227D01*
X10230841Y52295227D01*
X10042585Y52791200D01*
X9997377Y52858858D01*
X9792983Y52955023D01*
X9775023Y52937063D01*
X9775023Y52972983D01*
X9678858Y53177377D01*
X9310210Y53343169D01*
X9611200Y53457415D01*
X9678858Y53502623D01*
X9775023Y53707017D01*
X8890000Y54592039D01*
X8004977Y53707017D01*
X8101142Y53502623D01*
X8469789Y53336832D01*
X8168800Y53222585D01*
X8101142Y53177377D01*
X8004977Y52972983D01*
X8890000Y52087961D01*
X9775023Y52972983D01*
X9775023Y52937063D01*
X8907961Y52070000D01*
X9792983Y51184977D01*
X9997377Y51281142D01*
X10214966Y51764965D01*
X10230841Y52295227D01*
X10230841Y49755227D01*
X10042585Y50251200D01*
X9997377Y50318858D01*
X9792983Y50415023D01*
X9775023Y50397063D01*
X9775023Y50432983D01*
X9678858Y50637377D01*
X9310210Y50803169D01*
X9611200Y50917415D01*
X9678858Y50962623D01*
X9775023Y51167017D01*
X8890000Y52052039D01*
X8004977Y51167017D01*
X8101142Y50962623D01*
X8469789Y50796832D01*
X8168800Y50682585D01*
X8101142Y50637377D01*
X8004977Y50432983D01*
X8890000Y49547961D01*
X9775023Y50432983D01*
X9775023Y50397063D01*
X8907961Y49530000D01*
X9792983Y48644977D01*
X9997377Y48741142D01*
X10214966Y49224965D01*
X10230841Y49755227D01*
X10230841Y47215227D01*
X10042585Y47711200D01*
X9997377Y47778858D01*
X9792983Y47875023D01*
X9775023Y47857063D01*
X9775023Y47892983D01*
X9678858Y48097377D01*
X9310210Y48263169D01*
X9611200Y48377415D01*
X9678858Y48422623D01*
X9775023Y48627017D01*
X8890000Y49512039D01*
X8004977Y48627017D01*
X8101142Y48422623D01*
X8469789Y48256832D01*
X8168800Y48142585D01*
X8101142Y48097377D01*
X8004977Y47892983D01*
X8890000Y47007961D01*
X9775023Y47892983D01*
X9775023Y47857063D01*
X8907961Y46990000D01*
X9792983Y46104977D01*
X9997377Y46201142D01*
X10214966Y46684965D01*
X10230841Y47215227D01*
X10230841Y44675227D01*
X10042585Y45171200D01*
X9997377Y45238858D01*
X9792983Y45335023D01*
X9775023Y45317063D01*
X9775023Y45352983D01*
X9678858Y45557377D01*
X9310210Y45723169D01*
X9611200Y45837415D01*
X9678858Y45882623D01*
X9775023Y46087017D01*
X8890000Y46972039D01*
X8004977Y46087017D01*
X8101142Y45882623D01*
X8469789Y45716832D01*
X8168800Y45602585D01*
X8101142Y45557377D01*
X8004977Y45352983D01*
X8890000Y44467961D01*
X9775023Y45352983D01*
X9775023Y45317063D01*
X8907961Y44450000D01*
X9792983Y43564977D01*
X9997377Y43661142D01*
X10214966Y44144965D01*
X10230841Y44675227D01*
X10230841Y42135227D01*
X10042585Y42631200D01*
X9997377Y42698858D01*
X9792983Y42795023D01*
X9775023Y42777063D01*
X9775023Y42812983D01*
X9678858Y43017377D01*
X9310210Y43183169D01*
X9611200Y43297415D01*
X9678858Y43342623D01*
X9775023Y43547017D01*
X8890000Y44432039D01*
X8004977Y43547017D01*
X8101142Y43342623D01*
X8469789Y43176832D01*
X8168800Y43062585D01*
X8101142Y43017377D01*
X8004977Y42812983D01*
X8890000Y41927961D01*
X9775023Y42812983D01*
X9775023Y42777063D01*
X8907961Y41910000D01*
X9792983Y41024977D01*
X9997377Y41121142D01*
X10214966Y41604965D01*
X10230841Y42135227D01*
X10230841Y39595227D01*
X10042585Y40091200D01*
X9997377Y40158858D01*
X9792983Y40255023D01*
X9775023Y40237063D01*
X9775023Y40272983D01*
X9678858Y40477377D01*
X9310210Y40643169D01*
X9611200Y40757415D01*
X9678858Y40802623D01*
X9775023Y41007017D01*
X8890000Y41892039D01*
X8004977Y41007017D01*
X8101142Y40802623D01*
X8469789Y40636832D01*
X8168800Y40522585D01*
X8101142Y40477377D01*
X8004977Y40272983D01*
X8890000Y39387961D01*
X9775023Y40272983D01*
X9775023Y40237063D01*
X8907961Y39370000D01*
X9792983Y38484977D01*
X9997377Y38581142D01*
X10214966Y39064965D01*
X10230841Y39595227D01*
X10230841Y37055227D01*
X10042585Y37551200D01*
X9997377Y37618858D01*
X9792983Y37715023D01*
X9775023Y37697063D01*
X9775023Y37732983D01*
X9678858Y37937377D01*
X9310210Y38103169D01*
X9611200Y38217415D01*
X9678858Y38262623D01*
X9775023Y38467017D01*
X8890000Y39352039D01*
X8004977Y38467017D01*
X8101142Y38262623D01*
X8469789Y38096832D01*
X8168800Y37982585D01*
X8101142Y37937377D01*
X8004977Y37732983D01*
X8890000Y36847961D01*
X9775023Y37732983D01*
X9775023Y37697063D01*
X8907961Y36830000D01*
X9792983Y35944977D01*
X9997377Y36041142D01*
X10214966Y36524965D01*
X10230841Y37055227D01*
X10230841Y34515227D01*
X10042585Y35011200D01*
X9997377Y35078858D01*
X9792983Y35175023D01*
X9775023Y35157063D01*
X9775023Y35192983D01*
X9678858Y35397377D01*
X9310210Y35563169D01*
X9611200Y35677415D01*
X9678858Y35722623D01*
X9775023Y35927017D01*
X8890000Y36812039D01*
X8004977Y35927017D01*
X8101142Y35722623D01*
X8469789Y35556832D01*
X8168800Y35442585D01*
X8101142Y35397377D01*
X8004977Y35192983D01*
X8890000Y34307961D01*
X9775023Y35192983D01*
X9775023Y35157063D01*
X8907961Y34290000D01*
X9792983Y33404977D01*
X9997377Y33501142D01*
X10214966Y33984965D01*
X10230841Y34515227D01*
X10230841Y31975227D01*
X10042585Y32471200D01*
X9997377Y32538858D01*
X9792983Y32635023D01*
X9775023Y32617063D01*
X9775023Y32652983D01*
X9678858Y32857377D01*
X9310210Y33023169D01*
X9611200Y33137415D01*
X9678858Y33182623D01*
X9775023Y33387017D01*
X8890000Y34272039D01*
X8004977Y33387017D01*
X8101142Y33182623D01*
X8469789Y33016832D01*
X8168800Y32902585D01*
X8101142Y32857377D01*
X8004977Y32652983D01*
X8890000Y31767961D01*
X9775023Y32652983D01*
X9775023Y32617063D01*
X8907961Y31750000D01*
X9792983Y30864977D01*
X9997377Y30961142D01*
X10214966Y31444965D01*
X10230841Y31975227D01*
X10230841Y29435227D01*
X10042585Y29931200D01*
X9997377Y29998858D01*
X9792983Y30095023D01*
X9775023Y30077063D01*
X9775023Y30112983D01*
X9678858Y30317377D01*
X9310210Y30483169D01*
X9611200Y30597415D01*
X9678858Y30642623D01*
X9775023Y30847017D01*
X8890000Y31732039D01*
X8004977Y30847017D01*
X8101142Y30642623D01*
X8469789Y30476832D01*
X8168800Y30362585D01*
X8101142Y30317377D01*
X8004977Y30112983D01*
X8890000Y29227961D01*
X9775023Y30112983D01*
X9775023Y30077063D01*
X8907961Y29210000D01*
X9792983Y28324977D01*
X9997377Y28421142D01*
X10214966Y28904965D01*
X10230841Y29435227D01*
X10230841Y26895227D01*
X10042585Y27391200D01*
X9997377Y27458858D01*
X9792983Y27555023D01*
X9775023Y27537063D01*
X9775023Y27572983D01*
X9678858Y27777377D01*
X9310210Y27943169D01*
X9611200Y28057415D01*
X9678858Y28102623D01*
X9775023Y28307017D01*
X8890000Y29192039D01*
X8004977Y28307017D01*
X8101142Y28102623D01*
X8469789Y27936832D01*
X8168800Y27822585D01*
X8101142Y27777377D01*
X8004977Y27572983D01*
X8890000Y26687961D01*
X9775023Y27572983D01*
X9775023Y27537063D01*
X8907961Y26670000D01*
X9792983Y25784977D01*
X9997377Y25881142D01*
X10214966Y26364965D01*
X10230841Y26895227D01*
X10230841Y24355227D01*
X10042585Y24851200D01*
X9997377Y24918858D01*
X9792983Y25015023D01*
X9775023Y24997063D01*
X9775023Y25032983D01*
X9678858Y25237377D01*
X9310210Y25403169D01*
X9611200Y25517415D01*
X9678858Y25562623D01*
X9775023Y25767017D01*
X8890000Y26652039D01*
X8004977Y25767017D01*
X8101142Y25562623D01*
X8469789Y25396832D01*
X8168800Y25282585D01*
X8101142Y25237377D01*
X8004977Y25032983D01*
X8890000Y24147961D01*
X9775023Y25032983D01*
X9775023Y24997063D01*
X8907961Y24130000D01*
X9792983Y23244977D01*
X9997377Y23341142D01*
X10214966Y23824965D01*
X10230841Y24355227D01*
X10230841Y21815227D01*
X10042585Y22311200D01*
X9997377Y22378858D01*
X9792983Y22475023D01*
X9775023Y22457063D01*
X9775023Y22492983D01*
X9678858Y22697377D01*
X9310210Y22863169D01*
X9611200Y22977415D01*
X9678858Y23022623D01*
X9775023Y23227017D01*
X8890000Y24112039D01*
X8004977Y23227017D01*
X8101142Y23022623D01*
X8469789Y22856832D01*
X8168800Y22742585D01*
X8101142Y22697377D01*
X8004977Y22492983D01*
X8890000Y21607961D01*
X9775023Y22492983D01*
X9775023Y22457063D01*
X8907961Y21590000D01*
X9792983Y20704977D01*
X9997377Y20801142D01*
X10214966Y21284965D01*
X10230841Y21815227D01*
X10230841Y19275227D01*
X10042585Y19771200D01*
X9997377Y19838858D01*
X9792983Y19935023D01*
X9775023Y19917063D01*
X9775023Y19952983D01*
X9678858Y20157377D01*
X9310210Y20323169D01*
X9611200Y20437415D01*
X9678858Y20482623D01*
X9775023Y20687017D01*
X8890000Y21572039D01*
X8004977Y20687017D01*
X8101142Y20482623D01*
X8469789Y20316832D01*
X8168800Y20202585D01*
X8101142Y20157377D01*
X8004977Y19952983D01*
X8890000Y19067961D01*
X9775023Y19952983D01*
X9775023Y19917063D01*
X8907961Y19050000D01*
X9792983Y18164977D01*
X9997377Y18261142D01*
X10214966Y18744965D01*
X10230841Y19275227D01*
X10230841Y16735227D01*
X10042585Y17231200D01*
X9997377Y17298858D01*
X9792983Y17395023D01*
X9775023Y17377063D01*
X9775023Y17412983D01*
X9678858Y17617377D01*
X9310210Y17783169D01*
X9611200Y17897415D01*
X9678858Y17942623D01*
X9775023Y18147017D01*
X8890000Y19032039D01*
X8004977Y18147017D01*
X8101142Y17942623D01*
X8469789Y17776832D01*
X8168800Y17662585D01*
X8101142Y17617377D01*
X8004977Y17412983D01*
X8890000Y16527961D01*
X9775023Y17412983D01*
X9775023Y17377063D01*
X8907961Y16510000D01*
X9792983Y15624977D01*
X9997377Y15721142D01*
X10214966Y16204965D01*
X10230841Y16735227D01*
X10230841Y14195227D01*
X10042585Y14691200D01*
X9997377Y14758858D01*
X9792983Y14855023D01*
X9775023Y14837063D01*
X9775023Y14872983D01*
X9678858Y15077377D01*
X9310210Y15243169D01*
X9611200Y15357415D01*
X9678858Y15402623D01*
X9775023Y15607017D01*
X8890000Y16492039D01*
X8004977Y15607017D01*
X8101142Y15402623D01*
X8469789Y15236832D01*
X8168800Y15122585D01*
X8101142Y15077377D01*
X8004977Y14872983D01*
X8890000Y13987961D01*
X9775023Y14872983D01*
X9775023Y14837063D01*
X8907961Y13970000D01*
X9792983Y13084977D01*
X9997377Y13181142D01*
X10214966Y13664965D01*
X10230841Y14195227D01*
X10230841Y456000D01*
X10223500Y456000D01*
X10223500Y10401714D01*
X10223500Y11322050D01*
X10223500Y11537950D01*
X10223500Y12458286D01*
X10165496Y12598320D01*
X10058319Y12705496D01*
X9918285Y12763500D01*
X9766714Y12763500D01*
X9469157Y12763500D01*
X9611200Y12817415D01*
X9678858Y12862623D01*
X9775023Y13067017D01*
X8890000Y13952039D01*
X8004977Y13067017D01*
X8101142Y12862623D01*
X8321548Y12763500D01*
X8013286Y12763500D01*
X7861715Y12763500D01*
X7721681Y12705496D01*
X7614504Y12598320D01*
X7556500Y12458286D01*
X7556500Y12002010D01*
X7481146Y12184380D01*
X7106353Y12559827D01*
X6768553Y12700094D01*
X7104380Y12838854D01*
X7479827Y13213647D01*
X7621371Y13554525D01*
X7737415Y13248800D01*
X7782623Y13181142D01*
X7987017Y13084977D01*
X8872039Y13970000D01*
X7987017Y14855023D01*
X7782623Y14758858D01*
X7618077Y14392981D01*
X7481146Y14724380D01*
X7106353Y15099827D01*
X6768553Y15240094D01*
X7104380Y15378854D01*
X7479827Y15753647D01*
X7621371Y16094525D01*
X7737415Y15788800D01*
X7782623Y15721142D01*
X7987017Y15624977D01*
X8872039Y16510000D01*
X7987017Y17395023D01*
X7782623Y17298858D01*
X7618077Y16932981D01*
X7481146Y17264380D01*
X7106353Y17639827D01*
X6768553Y17780094D01*
X7104380Y17918854D01*
X7479827Y18293647D01*
X7621371Y18634525D01*
X7737415Y18328800D01*
X7782623Y18261142D01*
X7987017Y18164977D01*
X8872039Y19050000D01*
X7987017Y19935023D01*
X7782623Y19838858D01*
X7618077Y19472981D01*
X7481146Y19804380D01*
X7106353Y20179827D01*
X6768553Y20320094D01*
X7104380Y20458854D01*
X7479827Y20833647D01*
X7621371Y21174525D01*
X7737415Y20868800D01*
X7782623Y20801142D01*
X7987017Y20704977D01*
X8872039Y21590000D01*
X7987017Y22475023D01*
X7782623Y22378858D01*
X7618077Y22012981D01*
X7481146Y22344380D01*
X7106353Y22719827D01*
X6768553Y22860094D01*
X7104380Y22998854D01*
X7479827Y23373647D01*
X7621371Y23714525D01*
X7737415Y23408800D01*
X7782623Y23341142D01*
X7987017Y23244977D01*
X8872039Y24130000D01*
X7987017Y25015023D01*
X7782623Y24918858D01*
X7618077Y24552981D01*
X7481146Y24884380D01*
X7106353Y25259827D01*
X6768553Y25400094D01*
X7104380Y25538854D01*
X7479827Y25913647D01*
X7621371Y26254525D01*
X7737415Y25948800D01*
X7782623Y25881142D01*
X7987017Y25784977D01*
X8872039Y26670000D01*
X7987017Y27555023D01*
X7782623Y27458858D01*
X7618077Y27092981D01*
X7481146Y27424380D01*
X7106353Y27799827D01*
X6768553Y27940094D01*
X7104380Y28078854D01*
X7479827Y28453647D01*
X7621371Y28794525D01*
X7737415Y28488800D01*
X7782623Y28421142D01*
X7987017Y28324977D01*
X8872039Y29210000D01*
X7987017Y30095023D01*
X7782623Y29998858D01*
X7618077Y29632981D01*
X7481146Y29964380D01*
X7106353Y30339827D01*
X6768553Y30480094D01*
X7104380Y30618854D01*
X7479827Y30993647D01*
X7621371Y31334525D01*
X7737415Y31028800D01*
X7782623Y30961142D01*
X7987017Y30864977D01*
X8872039Y31750000D01*
X7987017Y32635023D01*
X7782623Y32538858D01*
X7618077Y32172981D01*
X7481146Y32504380D01*
X7106353Y32879827D01*
X6768553Y33020094D01*
X7104380Y33158854D01*
X7479827Y33533647D01*
X7621371Y33874525D01*
X7737415Y33568800D01*
X7782623Y33501142D01*
X7987017Y33404977D01*
X8872039Y34290000D01*
X7987017Y35175023D01*
X7782623Y35078858D01*
X7618077Y34712981D01*
X7481146Y35044380D01*
X7106353Y35419827D01*
X6768553Y35560094D01*
X7104380Y35698854D01*
X7479827Y36073647D01*
X7621371Y36414525D01*
X7737415Y36108800D01*
X7782623Y36041142D01*
X7987017Y35944977D01*
X8872039Y36830000D01*
X7987017Y37715023D01*
X7782623Y37618858D01*
X7618077Y37252981D01*
X7481146Y37584380D01*
X7106353Y37959827D01*
X6768553Y38100094D01*
X7104380Y38238854D01*
X7479827Y38613647D01*
X7621371Y38954525D01*
X7737415Y38648800D01*
X7782623Y38581142D01*
X7987017Y38484977D01*
X8872039Y39370000D01*
X7987017Y40255023D01*
X7782623Y40158858D01*
X7618077Y39792981D01*
X7481146Y40124380D01*
X7106353Y40499827D01*
X6768553Y40640094D01*
X7104380Y40778854D01*
X7479827Y41153647D01*
X7621371Y41494525D01*
X7737415Y41188800D01*
X7782623Y41121142D01*
X7987017Y41024977D01*
X8872039Y41910000D01*
X7987017Y42795023D01*
X7782623Y42698858D01*
X7618077Y42332981D01*
X7481146Y42664380D01*
X7106353Y43039827D01*
X6768553Y43180094D01*
X7104380Y43318854D01*
X7479827Y43693647D01*
X7621371Y44034525D01*
X7737415Y43728800D01*
X7782623Y43661142D01*
X7987017Y43564977D01*
X8872039Y44450000D01*
X7987017Y45335023D01*
X7782623Y45238858D01*
X7618077Y44872981D01*
X7481146Y45204380D01*
X7106353Y45579827D01*
X6768553Y45720094D01*
X7104380Y45858854D01*
X7479827Y46233647D01*
X7621371Y46574525D01*
X7737415Y46268800D01*
X7782623Y46201142D01*
X7987017Y46104977D01*
X8872039Y46990000D01*
X7987017Y47875023D01*
X7782623Y47778858D01*
X7618077Y47412981D01*
X7481146Y47744380D01*
X7106353Y48119827D01*
X6768553Y48260094D01*
X7104380Y48398854D01*
X7479827Y48773647D01*
X7621371Y49114525D01*
X7737415Y48808800D01*
X7782623Y48741142D01*
X7987017Y48644977D01*
X8872039Y49530000D01*
X7987017Y50415023D01*
X7782623Y50318858D01*
X7618077Y49952981D01*
X7481146Y50284380D01*
X7106353Y50659827D01*
X6768553Y50800094D01*
X7104380Y50938854D01*
X7479827Y51313647D01*
X7621371Y51654525D01*
X7737415Y51348800D01*
X7782623Y51281142D01*
X7987017Y51184977D01*
X8872039Y52070000D01*
X7987017Y52955023D01*
X7782623Y52858858D01*
X7618077Y52492981D01*
X7481146Y52824380D01*
X7106353Y53199827D01*
X6768553Y53340094D01*
X7104380Y53478854D01*
X7479827Y53853647D01*
X7621371Y54194525D01*
X7737415Y53888800D01*
X7782623Y53821142D01*
X7987017Y53724977D01*
X8872039Y54610000D01*
X7987017Y55495023D01*
X7782623Y55398858D01*
X7618077Y55032981D01*
X7481146Y55364380D01*
X7106353Y55739827D01*
X6768553Y55880094D01*
X7104380Y56018854D01*
X7479827Y56393647D01*
X7621371Y56734525D01*
X7737415Y56428800D01*
X7782623Y56361142D01*
X7987017Y56264977D01*
X8872039Y57150000D01*
X7987017Y58035023D01*
X7782623Y57938858D01*
X7618077Y57572981D01*
X7481146Y57904380D01*
X7106353Y58279827D01*
X6768553Y58420094D01*
X7104380Y58558854D01*
X7479827Y58933647D01*
X7621371Y59274525D01*
X7737415Y58968800D01*
X7782623Y58901142D01*
X7987017Y58804977D01*
X8872039Y59690000D01*
X7987017Y60575023D01*
X7782623Y60478858D01*
X7618077Y60112981D01*
X7481146Y60444380D01*
X7106353Y60819827D01*
X6768553Y60960094D01*
X7104380Y61098854D01*
X7479827Y61473647D01*
X7621371Y61814525D01*
X7737415Y61508800D01*
X7782623Y61441142D01*
X7987017Y61344977D01*
X8872039Y62230000D01*
X7987017Y63115023D01*
X7782623Y63018858D01*
X7618077Y62652981D01*
X7481146Y62984380D01*
X7106353Y63359827D01*
X6768553Y63500094D01*
X7104380Y63638854D01*
X7479827Y64013647D01*
X7621371Y64354525D01*
X7737415Y64048800D01*
X7782623Y63981142D01*
X7987017Y63884977D01*
X8872039Y64770000D01*
X7987017Y65655023D01*
X7782623Y65558858D01*
X7618077Y65192981D01*
X7481146Y65524380D01*
X7106353Y65899827D01*
X6768553Y66040094D01*
X7104380Y66178854D01*
X7479827Y66553647D01*
X7621371Y66894525D01*
X7737415Y66588800D01*
X7782623Y66521142D01*
X7987017Y66424977D01*
X8872039Y67310000D01*
X7987017Y68195023D01*
X7782623Y68098858D01*
X7618077Y67732981D01*
X7481146Y68064380D01*
X7106353Y68439827D01*
X6768553Y68580094D01*
X7104380Y68718854D01*
X7479827Y69093647D01*
X7621371Y69434525D01*
X7737415Y69128800D01*
X7782623Y69061142D01*
X7987017Y68964977D01*
X8872039Y69850000D01*
X7987017Y70735023D01*
X7782623Y70638858D01*
X7618077Y70272981D01*
X7481146Y70604380D01*
X7106353Y70979827D01*
X6768553Y71120094D01*
X7104380Y71258854D01*
X7479827Y71633647D01*
X7621371Y71974525D01*
X7737415Y71668800D01*
X7782623Y71601142D01*
X7987017Y71504977D01*
X8872039Y72390000D01*
X7987017Y73275023D01*
X7782623Y73178858D01*
X7618077Y72812981D01*
X7481146Y73144380D01*
X7106353Y73519827D01*
X6616413Y73723268D01*
X6085914Y73723731D01*
X5595620Y73521146D01*
X5220173Y73146353D01*
X5016732Y72656413D01*
X5016269Y72125914D01*
X5218854Y71635620D01*
X5593647Y71260173D01*
X5931446Y71119907D01*
X5595620Y70981146D01*
X5220173Y70606353D01*
X5016732Y70116413D01*
X5016269Y69585914D01*
X5218854Y69095620D01*
X5593647Y68720173D01*
X5931446Y68579907D01*
X5595620Y68441146D01*
X5220173Y68066353D01*
X5016732Y67576413D01*
X5016269Y67045914D01*
X5218854Y66555620D01*
X5593647Y66180173D01*
X5931446Y66039907D01*
X5595620Y65901146D01*
X5220173Y65526353D01*
X5016732Y65036413D01*
X5016269Y64505914D01*
X5218854Y64015620D01*
X5593647Y63640173D01*
X5931446Y63499907D01*
X5595620Y63361146D01*
X5220173Y62986353D01*
X5016732Y62496413D01*
X5016269Y61965914D01*
X5218854Y61475620D01*
X5593647Y61100173D01*
X5931446Y60959907D01*
X5595620Y60821146D01*
X5220173Y60446353D01*
X5016732Y59956413D01*
X5016269Y59425914D01*
X5218854Y58935620D01*
X5593647Y58560173D01*
X5931446Y58419907D01*
X5595620Y58281146D01*
X5220173Y57906353D01*
X5016732Y57416413D01*
X5016269Y56885914D01*
X5218854Y56395620D01*
X5593647Y56020173D01*
X5931446Y55879907D01*
X5595620Y55741146D01*
X5220173Y55366353D01*
X5016732Y54876413D01*
X5016269Y54345914D01*
X5218854Y53855620D01*
X5593647Y53480173D01*
X5931446Y53339907D01*
X5595620Y53201146D01*
X5220173Y52826353D01*
X5016732Y52336413D01*
X5016269Y51805914D01*
X5218854Y51315620D01*
X5593647Y50940173D01*
X5931446Y50799907D01*
X5595620Y50661146D01*
X5220173Y50286353D01*
X5016732Y49796413D01*
X5016269Y49265914D01*
X5218854Y48775620D01*
X5593647Y48400173D01*
X5931446Y48259907D01*
X5595620Y48121146D01*
X5220173Y47746353D01*
X5016732Y47256413D01*
X5016269Y46725914D01*
X5218854Y46235620D01*
X5593647Y45860173D01*
X5931446Y45719907D01*
X5595620Y45581146D01*
X5220173Y45206353D01*
X5016732Y44716413D01*
X5016269Y44185914D01*
X5218854Y43695620D01*
X5593647Y43320173D01*
X5931446Y43179907D01*
X5595620Y43041146D01*
X5220173Y42666353D01*
X5016732Y42176413D01*
X5016269Y41645914D01*
X5218854Y41155620D01*
X5593647Y40780173D01*
X5931446Y40639907D01*
X5595620Y40501146D01*
X5220173Y40126353D01*
X5016732Y39636413D01*
X5016269Y39105914D01*
X5218854Y38615620D01*
X5593647Y38240173D01*
X5931446Y38099907D01*
X5595620Y37961146D01*
X5220173Y37586353D01*
X5016732Y37096413D01*
X5016269Y36565914D01*
X5218854Y36075620D01*
X5593647Y35700173D01*
X5931446Y35559907D01*
X5595620Y35421146D01*
X5220173Y35046353D01*
X5016732Y34556413D01*
X5016269Y34025914D01*
X5218854Y33535620D01*
X5593647Y33160173D01*
X5931446Y33019907D01*
X5595620Y32881146D01*
X5220173Y32506353D01*
X5016732Y32016413D01*
X5016269Y31485914D01*
X5218854Y30995620D01*
X5593647Y30620173D01*
X5931446Y30479907D01*
X5595620Y30341146D01*
X5220173Y29966353D01*
X5016732Y29476413D01*
X5016269Y28945914D01*
X5218854Y28455620D01*
X5593647Y28080173D01*
X5931446Y27939907D01*
X5595620Y27801146D01*
X5220173Y27426353D01*
X5016732Y26936413D01*
X5016269Y26405914D01*
X5218854Y25915620D01*
X5593647Y25540173D01*
X5931446Y25399907D01*
X5595620Y25261146D01*
X5220173Y24886353D01*
X5016732Y24396413D01*
X5016269Y23865914D01*
X5218854Y23375620D01*
X5593647Y23000173D01*
X5931446Y22859907D01*
X5595620Y22721146D01*
X5220173Y22346353D01*
X5016732Y21856413D01*
X5016269Y21325914D01*
X5218854Y20835620D01*
X5593647Y20460173D01*
X5931446Y20319907D01*
X5595620Y20181146D01*
X5220173Y19806353D01*
X5016732Y19316413D01*
X5016269Y18785914D01*
X5218854Y18295620D01*
X5593647Y17920173D01*
X5931446Y17779907D01*
X5595620Y17641146D01*
X5220173Y17266353D01*
X5016732Y16776413D01*
X5016269Y16245914D01*
X5218854Y15755620D01*
X5593647Y15380173D01*
X5931446Y15239907D01*
X5595620Y15101146D01*
X5220173Y14726353D01*
X5016732Y14236413D01*
X5016269Y13705914D01*
X5218854Y13215620D01*
X5593647Y12840173D01*
X5931446Y12699907D01*
X5595620Y12561146D01*
X5220173Y12186353D01*
X5016732Y11696413D01*
X5016269Y11165914D01*
X5218854Y10675620D01*
X5593647Y10300173D01*
X6083587Y10096732D01*
X6614086Y10096269D01*
X7104380Y10298854D01*
X7479827Y10673647D01*
X7556500Y10858296D01*
X7556500Y10401714D01*
X7614504Y10261680D01*
X7721681Y10154504D01*
X7861715Y10096500D01*
X8013286Y10096500D01*
X8782050Y10096500D01*
X8877300Y10191750D01*
X8877300Y11417300D01*
X8857300Y11417300D01*
X8857300Y11442700D01*
X8877300Y11442700D01*
X8877300Y11462700D01*
X8902700Y11462700D01*
X8902700Y11442700D01*
X10128250Y11442700D01*
X10223500Y11537950D01*
X10223500Y11322050D01*
X10128250Y11417300D01*
X8902700Y11417300D01*
X8902700Y10191750D01*
X8997950Y10096500D01*
X9766714Y10096500D01*
X9918285Y10096500D01*
X10058319Y10154504D01*
X10165496Y10261680D01*
X10223500Y10401714D01*
X10223500Y456000D01*
X8385881Y456000D01*
X8385881Y5631933D01*
X8138920Y6229625D01*
X7682030Y6687313D01*
X7084770Y6935317D01*
X6438067Y6935881D01*
X5840375Y6688920D01*
X5382687Y6232030D01*
X5134683Y5634770D01*
X5134119Y4988067D01*
X5381080Y4390375D01*
X5837970Y3932687D01*
X6435230Y3684683D01*
X7081933Y3684119D01*
X7679625Y3931080D01*
X8137313Y4387970D01*
X8385317Y4985230D01*
X8385881Y5631933D01*
X8385881Y456000D01*
X456000Y456000D01*
X456000Y83364000D01*
X35104000Y83364000D01*
X35104000Y456000D01*
X35104000Y456000D01*
G37*
X35104000Y456000D02*
X32994600Y456000D01*
X32994600Y72224900D01*
X32994600Y72377300D01*
X32994600Y72402700D01*
X32994600Y72555100D01*
X32895000Y73030421D01*
X32621085Y73431445D01*
X32214555Y73697120D01*
X31957232Y73769626D01*
X31762700Y73691680D01*
X31762700Y72402700D01*
X32994600Y72402700D01*
X32994600Y72377300D01*
X31762700Y72377300D01*
X31762700Y71088320D01*
X31957232Y71010374D01*
X32214555Y71082880D01*
X32621085Y71348555D01*
X32895000Y71749579D01*
X32994600Y72224900D01*
X32994600Y456000D01*
X31737300Y456000D01*
X31737300Y71088320D01*
X31737300Y72377300D01*
X31737300Y72402700D01*
X31737300Y73691680D01*
X31542768Y73769626D01*
X31285445Y73697120D01*
X30878915Y73431445D01*
X30605000Y73030421D01*
X30505400Y72555100D01*
X30505400Y72402700D01*
X31737300Y72402700D01*
X31737300Y72377300D01*
X30505400Y72377300D01*
X30505400Y72224900D01*
X30605000Y71749579D01*
X30878915Y71348555D01*
X31285445Y71082880D01*
X31542768Y71010374D01*
X31737300Y71088320D01*
X31737300Y456000D01*
X31572200Y456000D01*
X31572200Y36195000D01*
X31572200Y62865000D01*
X31537398Y63039963D01*
X31438289Y63188289D01*
X29667200Y64959378D01*
X29667200Y71056575D01*
X29686288Y71060371D01*
X30090065Y71330166D01*
X30359860Y71733943D01*
X30454600Y72210231D01*
X30454600Y72569769D01*
X30359860Y73046057D01*
X30090065Y73449834D01*
X29686288Y73719629D01*
X29210000Y73814369D01*
X28733712Y73719629D01*
X28329935Y73449834D01*
X28060140Y73046057D01*
X27965400Y72569769D01*
X27965400Y72210231D01*
X28060140Y71733943D01*
X28329935Y71330166D01*
X28733712Y71060371D01*
X28752800Y71056575D01*
X28752800Y64770000D01*
X28787602Y64595037D01*
X28886711Y64446711D01*
X30657800Y62675622D01*
X30657800Y36384378D01*
X29773378Y35499957D01*
X29628553Y35560094D01*
X29964380Y35698854D01*
X30339827Y36073647D01*
X30543268Y36563587D01*
X30543731Y37094086D01*
X30341146Y37584380D01*
X29966353Y37959827D01*
X29628553Y38100094D01*
X29964380Y38238854D01*
X30339827Y38613647D01*
X30543268Y39103587D01*
X30543731Y39634086D01*
X30341146Y40124380D01*
X29966353Y40499827D01*
X29628553Y40640094D01*
X29964380Y40778854D01*
X30339827Y41153647D01*
X30543268Y41643587D01*
X30543731Y42174086D01*
X30341146Y42664380D01*
X29966353Y43039827D01*
X29628553Y43180094D01*
X29964380Y43318854D01*
X30339827Y43693647D01*
X30543268Y44183587D01*
X30543731Y44714086D01*
X30341146Y45204380D01*
X29966353Y45579827D01*
X29628553Y45720094D01*
X29964380Y45858854D01*
X30339827Y46233647D01*
X30543268Y46723587D01*
X30543731Y47254086D01*
X30341146Y47744380D01*
X29966353Y48119827D01*
X29628553Y48260094D01*
X29964380Y48398854D01*
X30339827Y48773647D01*
X30543268Y49263587D01*
X30543731Y49794086D01*
X30341146Y50284380D01*
X29966353Y50659827D01*
X29628553Y50800094D01*
X29964380Y50938854D01*
X30339827Y51313647D01*
X30543268Y51803587D01*
X30543731Y52334086D01*
X30425881Y52619306D01*
X30425881Y58511933D01*
X30178920Y59109625D01*
X29722030Y59567313D01*
X29124770Y59815317D01*
X28478067Y59815881D01*
X27922064Y59586146D01*
X27922064Y71374000D01*
X27922064Y73406000D01*
X27893878Y73551274D01*
X27810004Y73678956D01*
X27683384Y73764426D01*
X27533600Y73794464D01*
X25806400Y73794464D01*
X25661126Y73766278D01*
X25533444Y73682404D01*
X25447974Y73555784D01*
X25417936Y73406000D01*
X25417936Y71374000D01*
X25446122Y71228726D01*
X25529996Y71101044D01*
X25656616Y71015574D01*
X25806400Y70985536D01*
X27533600Y70985536D01*
X27678874Y71013722D01*
X27806556Y71097596D01*
X27892026Y71224216D01*
X27922064Y71374000D01*
X27922064Y59586146D01*
X27880375Y59568920D01*
X27422687Y59112030D01*
X27174683Y58514770D01*
X27174119Y57868067D01*
X27421080Y57270375D01*
X27877970Y56812687D01*
X28475230Y56564683D01*
X29121933Y56564119D01*
X29719625Y56811080D01*
X30177313Y57267970D01*
X30425317Y57865230D01*
X30425881Y58511933D01*
X30425881Y52619306D01*
X30341146Y52824380D01*
X29966353Y53199827D01*
X29476413Y53403268D01*
X28945914Y53403731D01*
X28455620Y53201146D01*
X28080173Y52826353D01*
X28003500Y52641705D01*
X28003500Y53098286D01*
X27945496Y53238320D01*
X27838319Y53345496D01*
X27698285Y53403500D01*
X27546714Y53403500D01*
X26777950Y53403500D01*
X26682700Y53308250D01*
X26682700Y52082700D01*
X26702700Y52082700D01*
X26702700Y52057300D01*
X26682700Y52057300D01*
X26682700Y52037300D01*
X26657300Y52037300D01*
X26657300Y52057300D01*
X26657300Y52082700D01*
X26657300Y53308250D01*
X26562050Y53403500D01*
X25793286Y53403500D01*
X25641715Y53403500D01*
X25501681Y53345496D01*
X25394504Y53238320D01*
X25336500Y53098286D01*
X25336500Y52177950D01*
X25431750Y52082700D01*
X26657300Y52082700D01*
X26657300Y52057300D01*
X25431750Y52057300D01*
X25336500Y51962050D01*
X25336500Y51041714D01*
X25394504Y50901680D01*
X25501681Y50794504D01*
X25641715Y50736500D01*
X25793286Y50736500D01*
X26090842Y50736500D01*
X25948800Y50682585D01*
X25881142Y50637377D01*
X25784977Y50432983D01*
X26670000Y49547961D01*
X27555023Y50432983D01*
X27458858Y50637377D01*
X27238451Y50736500D01*
X27546714Y50736500D01*
X27698285Y50736500D01*
X27838319Y50794504D01*
X27945496Y50901680D01*
X28003500Y51041714D01*
X28003500Y51497991D01*
X28078854Y51315620D01*
X28453647Y50940173D01*
X28791446Y50799907D01*
X28455620Y50661146D01*
X28080173Y50286353D01*
X27938628Y49945476D01*
X27822585Y50251200D01*
X27777377Y50318858D01*
X27572983Y50415023D01*
X26687961Y49530000D01*
X27572983Y48644977D01*
X27777377Y48741142D01*
X27941922Y49107020D01*
X28078854Y48775620D01*
X28453647Y48400173D01*
X28791446Y48259907D01*
X28455620Y48121146D01*
X28080173Y47746353D01*
X27938628Y47405476D01*
X27822585Y47711200D01*
X27777377Y47778858D01*
X27572983Y47875023D01*
X27555023Y47857063D01*
X27555023Y47892983D01*
X27458858Y48097377D01*
X27090210Y48263169D01*
X27391200Y48377415D01*
X27458858Y48422623D01*
X27555023Y48627017D01*
X26670000Y49512039D01*
X26652039Y49494079D01*
X26652039Y49530000D01*
X25767017Y50415023D01*
X25562623Y50318858D01*
X25345034Y49835035D01*
X25329159Y49304773D01*
X25517415Y48808800D01*
X25562623Y48741142D01*
X25767017Y48644977D01*
X26652039Y49530000D01*
X26652039Y49494079D01*
X25784977Y48627017D01*
X25881142Y48422623D01*
X26249789Y48256832D01*
X25948800Y48142585D01*
X25881142Y48097377D01*
X25784977Y47892983D01*
X26670000Y47007961D01*
X27555023Y47892983D01*
X27555023Y47857063D01*
X26687961Y46990000D01*
X27572983Y46104977D01*
X27777377Y46201142D01*
X27941922Y46567020D01*
X28078854Y46235620D01*
X28453647Y45860173D01*
X28791446Y45719907D01*
X28455620Y45581146D01*
X28080173Y45206353D01*
X27938628Y44865476D01*
X27822585Y45171200D01*
X27777377Y45238858D01*
X27572983Y45335023D01*
X27555023Y45317063D01*
X27555023Y45352983D01*
X27458858Y45557377D01*
X27090210Y45723169D01*
X27391200Y45837415D01*
X27458858Y45882623D01*
X27555023Y46087017D01*
X26670000Y46972039D01*
X26652039Y46954079D01*
X26652039Y46990000D01*
X25767017Y47875023D01*
X25562623Y47778858D01*
X25345034Y47295035D01*
X25329159Y46764773D01*
X25517415Y46268800D01*
X25562623Y46201142D01*
X25767017Y46104977D01*
X26652039Y46990000D01*
X26652039Y46954079D01*
X25784977Y46087017D01*
X25881142Y45882623D01*
X26249789Y45716832D01*
X25948800Y45602585D01*
X25881142Y45557377D01*
X25784977Y45352983D01*
X26670000Y44467961D01*
X27555023Y45352983D01*
X27555023Y45317063D01*
X26687961Y44450000D01*
X27572983Y43564977D01*
X27777377Y43661142D01*
X27941922Y44027020D01*
X28078854Y43695620D01*
X28453647Y43320173D01*
X28791446Y43179907D01*
X28455620Y43041146D01*
X28080173Y42666353D01*
X27938628Y42325476D01*
X27822585Y42631200D01*
X27777377Y42698858D01*
X27572983Y42795023D01*
X27555023Y42777063D01*
X27555023Y42812983D01*
X27458858Y43017377D01*
X27090210Y43183169D01*
X27391200Y43297415D01*
X27458858Y43342623D01*
X27555023Y43547017D01*
X26670000Y44432039D01*
X26652039Y44414079D01*
X26652039Y44450000D01*
X25767017Y45335023D01*
X25562623Y45238858D01*
X25345034Y44755035D01*
X25329159Y44224773D01*
X25517415Y43728800D01*
X25562623Y43661142D01*
X25767017Y43564977D01*
X26652039Y44450000D01*
X26652039Y44414079D01*
X25784977Y43547017D01*
X25881142Y43342623D01*
X26249789Y43176832D01*
X25948800Y43062585D01*
X25881142Y43017377D01*
X25784977Y42812983D01*
X26670000Y41927961D01*
X27555023Y42812983D01*
X27555023Y42777063D01*
X26687961Y41910000D01*
X27572983Y41024977D01*
X27777377Y41121142D01*
X27941922Y41487020D01*
X28078854Y41155620D01*
X28453647Y40780173D01*
X28791446Y40639907D01*
X28455620Y40501146D01*
X28080173Y40126353D01*
X27938628Y39785476D01*
X27822585Y40091200D01*
X27777377Y40158858D01*
X27572983Y40255023D01*
X27555023Y40237063D01*
X27555023Y40272983D01*
X27458858Y40477377D01*
X27090210Y40643169D01*
X27391200Y40757415D01*
X27458858Y40802623D01*
X27555023Y41007017D01*
X26670000Y41892039D01*
X26652039Y41874079D01*
X26652039Y41910000D01*
X25767017Y42795023D01*
X25562623Y42698858D01*
X25345034Y42215035D01*
X25329159Y41684773D01*
X25517415Y41188800D01*
X25562623Y41121142D01*
X25767017Y41024977D01*
X26652039Y41910000D01*
X26652039Y41874079D01*
X25784977Y41007017D01*
X25881142Y40802623D01*
X26249789Y40636832D01*
X25948800Y40522585D01*
X25881142Y40477377D01*
X25784977Y40272983D01*
X26670000Y39387961D01*
X27555023Y40272983D01*
X27555023Y40237063D01*
X26687961Y39370000D01*
X27572983Y38484977D01*
X27777377Y38581142D01*
X27941922Y38947020D01*
X28078854Y38615620D01*
X28453647Y38240173D01*
X28791446Y38099907D01*
X28455620Y37961146D01*
X28080173Y37586353D01*
X27938628Y37245476D01*
X27822585Y37551200D01*
X27777377Y37618858D01*
X27572983Y37715023D01*
X27555023Y37697063D01*
X27555023Y37732983D01*
X27458858Y37937377D01*
X27090210Y38103169D01*
X27391200Y38217415D01*
X27458858Y38262623D01*
X27555023Y38467017D01*
X26670000Y39352039D01*
X26652039Y39334079D01*
X26652039Y39370000D01*
X25767017Y40255023D01*
X25562623Y40158858D01*
X25345034Y39675035D01*
X25329159Y39144773D01*
X25517415Y38648800D01*
X25562623Y38581142D01*
X25767017Y38484977D01*
X26652039Y39370000D01*
X26652039Y39334079D01*
X25784977Y38467017D01*
X25881142Y38262623D01*
X26249789Y38096832D01*
X25948800Y37982585D01*
X25881142Y37937377D01*
X25784977Y37732983D01*
X26670000Y36847961D01*
X27555023Y37732983D01*
X27555023Y37697063D01*
X26687961Y36830000D01*
X27572983Y35944977D01*
X27777377Y36041142D01*
X27941922Y36407020D01*
X28078854Y36075620D01*
X28453647Y35700173D01*
X28791446Y35559907D01*
X28455620Y35421146D01*
X28080173Y35046353D01*
X27938628Y34705476D01*
X27822585Y35011200D01*
X27777377Y35078858D01*
X27572983Y35175023D01*
X27555023Y35157063D01*
X27555023Y35192983D01*
X27458858Y35397377D01*
X27090210Y35563169D01*
X27391200Y35677415D01*
X27458858Y35722623D01*
X27555023Y35927017D01*
X26670000Y36812039D01*
X26652039Y36794079D01*
X26652039Y36830000D01*
X25767017Y37715023D01*
X25562623Y37618858D01*
X25345034Y37135035D01*
X25329159Y36604773D01*
X25517415Y36108800D01*
X25562623Y36041142D01*
X25767017Y35944977D01*
X26652039Y36830000D01*
X26652039Y36794079D01*
X25784977Y35927017D01*
X25881142Y35722623D01*
X26249789Y35556832D01*
X25948800Y35442585D01*
X25881142Y35397377D01*
X25784977Y35192983D01*
X26670000Y34307961D01*
X27555023Y35192983D01*
X27555023Y35157063D01*
X26687961Y34290000D01*
X27572983Y33404977D01*
X27777377Y33501142D01*
X27941922Y33867020D01*
X28078854Y33535620D01*
X28453647Y33160173D01*
X28791446Y33019907D01*
X28455620Y32881146D01*
X28080173Y32506353D01*
X27938628Y32165476D01*
X27822585Y32471200D01*
X27777377Y32538858D01*
X27572983Y32635023D01*
X27555023Y32617063D01*
X27555023Y32652983D01*
X27458858Y32857377D01*
X27090210Y33023169D01*
X27391200Y33137415D01*
X27458858Y33182623D01*
X27555023Y33387017D01*
X26670000Y34272039D01*
X26652039Y34254079D01*
X26652039Y34290000D01*
X25767017Y35175023D01*
X25562623Y35078858D01*
X25345034Y34595035D01*
X25329159Y34064773D01*
X25517415Y33568800D01*
X25562623Y33501142D01*
X25767017Y33404977D01*
X26652039Y34290000D01*
X26652039Y34254079D01*
X25784977Y33387017D01*
X25881142Y33182623D01*
X26249789Y33016832D01*
X25948800Y32902585D01*
X25881142Y32857377D01*
X25784977Y32652983D01*
X26670000Y31767961D01*
X27555023Y32652983D01*
X27555023Y32617063D01*
X26687961Y31750000D01*
X27572983Y30864977D01*
X27777377Y30961142D01*
X27941922Y31327020D01*
X28078854Y30995620D01*
X28453647Y30620173D01*
X28791446Y30479907D01*
X28455620Y30341146D01*
X28080173Y29966353D01*
X27938628Y29625476D01*
X27822585Y29931200D01*
X27777377Y29998858D01*
X27572983Y30095023D01*
X27555023Y30077063D01*
X27555023Y30112983D01*
X27458858Y30317377D01*
X27090210Y30483169D01*
X27391200Y30597415D01*
X27458858Y30642623D01*
X27555023Y30847017D01*
X26670000Y31732039D01*
X26652039Y31714079D01*
X26652039Y31750000D01*
X25767017Y32635023D01*
X25562623Y32538858D01*
X25345034Y32055035D01*
X25329159Y31524773D01*
X25517415Y31028800D01*
X25562623Y30961142D01*
X25767017Y30864977D01*
X26652039Y31750000D01*
X26652039Y31714079D01*
X25784977Y30847017D01*
X25881142Y30642623D01*
X26249789Y30476832D01*
X25948800Y30362585D01*
X25881142Y30317377D01*
X25784977Y30112983D01*
X26670000Y29227961D01*
X27555023Y30112983D01*
X27555023Y30077063D01*
X26687961Y29210000D01*
X27572983Y28324977D01*
X27777377Y28421142D01*
X27941922Y28787020D01*
X28078854Y28455620D01*
X28453647Y28080173D01*
X28791446Y27939907D01*
X28455620Y27801146D01*
X28080173Y27426353D01*
X27938628Y27085476D01*
X27822585Y27391200D01*
X27777377Y27458858D01*
X27572983Y27555023D01*
X27555023Y27537063D01*
X27555023Y27572983D01*
X27458858Y27777377D01*
X27090210Y27943169D01*
X27391200Y28057415D01*
X27458858Y28102623D01*
X27555023Y28307017D01*
X26670000Y29192039D01*
X26652039Y29174079D01*
X26652039Y29210000D01*
X25767017Y30095023D01*
X25562623Y29998858D01*
X25345034Y29515035D01*
X25329159Y28984773D01*
X25517415Y28488800D01*
X25562623Y28421142D01*
X25767017Y28324977D01*
X26652039Y29210000D01*
X26652039Y29174079D01*
X25784977Y28307017D01*
X25881142Y28102623D01*
X26249789Y27936832D01*
X25948800Y27822585D01*
X25881142Y27777377D01*
X25784977Y27572983D01*
X26670000Y26687961D01*
X27555023Y27572983D01*
X27555023Y27537063D01*
X26687961Y26670000D01*
X27572983Y25784977D01*
X27777377Y25881142D01*
X27941922Y26247020D01*
X28078854Y25915620D01*
X28453647Y25540173D01*
X28791446Y25399907D01*
X28455620Y25261146D01*
X28080173Y24886353D01*
X27938628Y24545476D01*
X27822585Y24851200D01*
X27777377Y24918858D01*
X27572983Y25015023D01*
X27555023Y24997063D01*
X27555023Y25032983D01*
X27458858Y25237377D01*
X27090210Y25403169D01*
X27391200Y25517415D01*
X27458858Y25562623D01*
X27555023Y25767017D01*
X26670000Y26652039D01*
X26652039Y26634079D01*
X26652039Y26670000D01*
X25767017Y27555023D01*
X25562623Y27458858D01*
X25345034Y26975035D01*
X25329159Y26444773D01*
X25517415Y25948800D01*
X25562623Y25881142D01*
X25767017Y25784977D01*
X26652039Y26670000D01*
X26652039Y26634079D01*
X25784977Y25767017D01*
X25881142Y25562623D01*
X26249789Y25396832D01*
X25948800Y25282585D01*
X25881142Y25237377D01*
X25784977Y25032983D01*
X26670000Y24147961D01*
X27555023Y25032983D01*
X27555023Y24997063D01*
X26687961Y24130000D01*
X27572983Y23244977D01*
X27777377Y23341142D01*
X27941922Y23707020D01*
X28078854Y23375620D01*
X28453647Y23000173D01*
X28791446Y22859907D01*
X28455620Y22721146D01*
X28080173Y22346353D01*
X27938628Y22005476D01*
X27822585Y22311200D01*
X27777377Y22378858D01*
X27572983Y22475023D01*
X27555023Y22457063D01*
X27555023Y22492983D01*
X27458858Y22697377D01*
X27090210Y22863169D01*
X27391200Y22977415D01*
X27458858Y23022623D01*
X27555023Y23227017D01*
X26670000Y24112039D01*
X26652039Y24094079D01*
X26652039Y24130000D01*
X25767017Y25015023D01*
X25562623Y24918858D01*
X25345034Y24435035D01*
X25329159Y23904773D01*
X25517415Y23408800D01*
X25562623Y23341142D01*
X25767017Y23244977D01*
X26652039Y24130000D01*
X26652039Y24094079D01*
X25784977Y23227017D01*
X25881142Y23022623D01*
X26249789Y22856832D01*
X25948800Y22742585D01*
X25881142Y22697377D01*
X25784977Y22492983D01*
X26670000Y21607961D01*
X27555023Y22492983D01*
X27555023Y22457063D01*
X26687961Y21590000D01*
X27572983Y20704977D01*
X27777377Y20801142D01*
X27941922Y21167020D01*
X28078854Y20835620D01*
X28453647Y20460173D01*
X28791446Y20319907D01*
X28455620Y20181146D01*
X28080173Y19806353D01*
X27938628Y19465476D01*
X27822585Y19771200D01*
X27777377Y19838858D01*
X27572983Y19935023D01*
X27555023Y19917063D01*
X27555023Y19952983D01*
X27458858Y20157377D01*
X27090210Y20323169D01*
X27391200Y20437415D01*
X27458858Y20482623D01*
X27555023Y20687017D01*
X26670000Y21572039D01*
X26652039Y21554079D01*
X26652039Y21590000D01*
X25767017Y22475023D01*
X25562623Y22378858D01*
X25345034Y21895035D01*
X25329159Y21364773D01*
X25517415Y20868800D01*
X25562623Y20801142D01*
X25767017Y20704977D01*
X26652039Y21590000D01*
X26652039Y21554079D01*
X25784977Y20687017D01*
X25881142Y20482623D01*
X26249789Y20316832D01*
X25948800Y20202585D01*
X25881142Y20157377D01*
X25784977Y19952983D01*
X26670000Y19067961D01*
X27555023Y19952983D01*
X27555023Y19917063D01*
X26687961Y19050000D01*
X27572983Y18164977D01*
X27777377Y18261142D01*
X27941922Y18627020D01*
X28078854Y18295620D01*
X28453647Y17920173D01*
X28791446Y17779907D01*
X28455620Y17641146D01*
X28080173Y17266353D01*
X27938628Y16925476D01*
X27822585Y17231200D01*
X27777377Y17298858D01*
X27572983Y17395023D01*
X27555023Y17377063D01*
X27555023Y17412983D01*
X27458858Y17617377D01*
X27090210Y17783169D01*
X27391200Y17897415D01*
X27458858Y17942623D01*
X27555023Y18147017D01*
X26670000Y19032039D01*
X26652039Y19014079D01*
X26652039Y19050000D01*
X25767017Y19935023D01*
X25562623Y19838858D01*
X25345034Y19355035D01*
X25329159Y18824773D01*
X25517415Y18328800D01*
X25562623Y18261142D01*
X25767017Y18164977D01*
X26652039Y19050000D01*
X26652039Y19014079D01*
X25784977Y18147017D01*
X25881142Y17942623D01*
X26249789Y17776832D01*
X25948800Y17662585D01*
X25881142Y17617377D01*
X25784977Y17412983D01*
X26670000Y16527961D01*
X27555023Y17412983D01*
X27555023Y17377063D01*
X26687961Y16510000D01*
X27572983Y15624977D01*
X27777377Y15721142D01*
X27941922Y16087020D01*
X28078854Y15755620D01*
X28453647Y15380173D01*
X28791446Y15239907D01*
X28455620Y15101146D01*
X28080173Y14726353D01*
X27938628Y14385476D01*
X27822585Y14691200D01*
X27777377Y14758858D01*
X27572983Y14855023D01*
X27555023Y14837063D01*
X27555023Y14872983D01*
X27458858Y15077377D01*
X27090210Y15243169D01*
X27391200Y15357415D01*
X27458858Y15402623D01*
X27555023Y15607017D01*
X26670000Y16492039D01*
X26652039Y16474079D01*
X26652039Y16510000D01*
X25767017Y17395023D01*
X25562623Y17298858D01*
X25345034Y16815035D01*
X25329159Y16284773D01*
X25517415Y15788800D01*
X25562623Y15721142D01*
X25767017Y15624977D01*
X26652039Y16510000D01*
X26652039Y16474079D01*
X25784977Y15607017D01*
X25881142Y15402623D01*
X26249789Y15236832D01*
X25948800Y15122585D01*
X25881142Y15077377D01*
X25784977Y14872983D01*
X26670000Y13987961D01*
X27555023Y14872983D01*
X27555023Y14837063D01*
X26687961Y13970000D01*
X27572983Y13084977D01*
X27777377Y13181142D01*
X27941922Y13547020D01*
X28078854Y13215620D01*
X28453647Y12840173D01*
X28791446Y12699907D01*
X28455620Y12561146D01*
X28080173Y12186353D01*
X27938628Y11845476D01*
X27822585Y12151200D01*
X27777377Y12218858D01*
X27572983Y12315023D01*
X27555023Y12297063D01*
X27555023Y12332983D01*
X27458858Y12537377D01*
X27090210Y12703169D01*
X27391200Y12817415D01*
X27458858Y12862623D01*
X27555023Y13067017D01*
X26670000Y13952039D01*
X26652039Y13934079D01*
X26652039Y13970000D01*
X25767017Y14855023D01*
X25562623Y14758858D01*
X25345034Y14275035D01*
X25329159Y13744773D01*
X25517415Y13248800D01*
X25562623Y13181142D01*
X25767017Y13084977D01*
X26652039Y13970000D01*
X26652039Y13934079D01*
X25784977Y13067017D01*
X25881142Y12862623D01*
X26249789Y12696832D01*
X25948800Y12582585D01*
X25881142Y12537377D01*
X25784977Y12332983D01*
X26670000Y11447961D01*
X27555023Y12332983D01*
X27555023Y12297063D01*
X26687961Y11430000D01*
X27572983Y10544977D01*
X27777377Y10641142D01*
X27941922Y11007020D01*
X28078854Y10675620D01*
X28453647Y10300173D01*
X28943587Y10096732D01*
X29474086Y10096269D01*
X29964380Y10298854D01*
X30339827Y10673647D01*
X30543268Y11163587D01*
X30543731Y11694086D01*
X30341146Y12184380D01*
X29966353Y12559827D01*
X29628553Y12700094D01*
X29964380Y12838854D01*
X30339827Y13213647D01*
X30543268Y13703587D01*
X30543731Y14234086D01*
X30341146Y14724380D01*
X29966353Y15099827D01*
X29628553Y15240094D01*
X29964380Y15378854D01*
X30339827Y15753647D01*
X30543268Y16243587D01*
X30543731Y16774086D01*
X30341146Y17264380D01*
X29966353Y17639827D01*
X29628553Y17780094D01*
X29964380Y17918854D01*
X30339827Y18293647D01*
X30543268Y18783587D01*
X30543731Y19314086D01*
X30341146Y19804380D01*
X29966353Y20179827D01*
X29628553Y20320094D01*
X29964380Y20458854D01*
X30339827Y20833647D01*
X30543268Y21323587D01*
X30543731Y21854086D01*
X30341146Y22344380D01*
X29966353Y22719827D01*
X29628553Y22860094D01*
X29964380Y22998854D01*
X30339827Y23373647D01*
X30543268Y23863587D01*
X30543731Y24394086D01*
X30341146Y24884380D01*
X29966353Y25259827D01*
X29628553Y25400094D01*
X29964380Y25538854D01*
X30339827Y25913647D01*
X30543268Y26403587D01*
X30543731Y26934086D01*
X30341146Y27424380D01*
X29966353Y27799827D01*
X29628553Y27940094D01*
X29964380Y28078854D01*
X30339827Y28453647D01*
X30543268Y28943587D01*
X30543731Y29474086D01*
X30341146Y29964380D01*
X29966353Y30339827D01*
X29628553Y30480094D01*
X29964380Y30618854D01*
X30339827Y30993647D01*
X30543268Y31483587D01*
X30543731Y32014086D01*
X30341146Y32504380D01*
X29966353Y32879827D01*
X29628553Y33020094D01*
X29964380Y33158854D01*
X30339827Y33533647D01*
X30543268Y34023587D01*
X30543731Y34554086D01*
X30420034Y34853457D01*
X31438289Y35871711D01*
X31537398Y36020037D01*
X31572200Y36195000D01*
X31572200Y456000D01*
X30425881Y456000D01*
X30425881Y5631933D01*
X30178920Y6229625D01*
X29722030Y6687313D01*
X29124770Y6935317D01*
X28478067Y6935881D01*
X27880375Y6688920D01*
X27555023Y6364136D01*
X27555023Y10527017D01*
X26670000Y11412039D01*
X26652039Y11394079D01*
X26652039Y11430000D01*
X25767017Y12315023D01*
X25562623Y12218858D01*
X25345034Y11735035D01*
X25329159Y11204773D01*
X25517415Y10708800D01*
X25562623Y10641142D01*
X25767017Y10544977D01*
X26652039Y11430000D01*
X26652039Y11394079D01*
X25784977Y10527017D01*
X25881142Y10322623D01*
X26364965Y10105034D01*
X26895227Y10089159D01*
X27391200Y10277415D01*
X27458858Y10322623D01*
X27555023Y10527017D01*
X27555023Y6364136D01*
X27422687Y6232030D01*
X27174683Y5634770D01*
X27174119Y4988067D01*
X27421080Y4390375D01*
X27877970Y3932687D01*
X28475230Y3684683D01*
X29121933Y3684119D01*
X29719625Y3931080D01*
X30177313Y4387970D01*
X30425317Y4985230D01*
X30425881Y5631933D01*
X30425881Y456000D01*
X24240729Y456000D01*
X24240729Y37103392D01*
X24240729Y42183392D01*
X24240729Y47263392D01*
X24240729Y52343392D01*
X24031005Y52850963D01*
X23643006Y53239640D01*
X23135801Y53450249D01*
X22586608Y53450729D01*
X22079037Y53241005D01*
X21690360Y52853006D01*
X21479751Y52345801D01*
X21479271Y51796608D01*
X21688995Y51289037D01*
X22076994Y50900360D01*
X22584199Y50689751D01*
X23133392Y50689271D01*
X23640963Y50898995D01*
X24029640Y51286994D01*
X24240249Y51794199D01*
X24240729Y52343392D01*
X24240729Y47263392D01*
X24031005Y47770963D01*
X23643006Y48159640D01*
X23135801Y48370249D01*
X22586608Y48370729D01*
X22079037Y48161005D01*
X21690360Y47773006D01*
X21479751Y47265801D01*
X21479271Y46716608D01*
X21688995Y46209037D01*
X22076994Y45820360D01*
X22584199Y45609751D01*
X23133392Y45609271D01*
X23640963Y45818995D01*
X24029640Y46206994D01*
X24240249Y46714199D01*
X24240729Y47263392D01*
X24240729Y42183392D01*
X24031005Y42690963D01*
X23643006Y43079640D01*
X23135801Y43290249D01*
X22586608Y43290729D01*
X22079037Y43081005D01*
X21690360Y42693006D01*
X21479751Y42185801D01*
X21479271Y41636608D01*
X21688995Y41129037D01*
X22076994Y40740360D01*
X22584199Y40529751D01*
X23133392Y40529271D01*
X23640963Y40738995D01*
X24029640Y41126994D01*
X24240249Y41634199D01*
X24240729Y42183392D01*
X24240729Y37103392D01*
X24031005Y37610963D01*
X23643006Y37999640D01*
X23135801Y38210249D01*
X22586608Y38210729D01*
X22079037Y38001005D01*
X21690360Y37613006D01*
X21479751Y37105801D01*
X21479271Y36556608D01*
X21688995Y36049037D01*
X22076994Y35660360D01*
X22584199Y35449751D01*
X23133392Y35449271D01*
X23640963Y35658995D01*
X24029640Y36046994D01*
X24240249Y36554199D01*
X24240729Y37103392D01*
X24240729Y456000D01*
X21412200Y456000D01*
X21412200Y71755000D01*
X21412200Y73025000D01*
X21377398Y73199963D01*
X21278289Y73348289D01*
X20008289Y74618289D01*
X19859963Y74717398D01*
X19685000Y74752200D01*
X14706600Y74752200D01*
X14531637Y74717398D01*
X14383311Y74618289D01*
X13646711Y73881689D01*
X13588428Y73794464D01*
X13106400Y73794464D01*
X12961126Y73766278D01*
X12833444Y73682404D01*
X12747974Y73555784D01*
X12717936Y73406000D01*
X12717936Y71374000D01*
X12746122Y71228726D01*
X12829996Y71101044D01*
X12956616Y71015574D01*
X13106400Y70985536D01*
X14833600Y70985536D01*
X14978874Y71013722D01*
X15106556Y71097596D01*
X15192026Y71224216D01*
X15222064Y71374000D01*
X15222064Y73406000D01*
X15193878Y73551274D01*
X15110004Y73678956D01*
X14983384Y73764426D01*
X14849461Y73791284D01*
X14895978Y73837800D01*
X19495622Y73837800D01*
X19789998Y73543424D01*
X19526288Y73719629D01*
X19050000Y73814369D01*
X18573712Y73719629D01*
X18169935Y73449834D01*
X17900140Y73046057D01*
X17805400Y72569769D01*
X17805400Y72210231D01*
X17900140Y71733943D01*
X18169935Y71330166D01*
X18573712Y71060371D01*
X18592800Y71056575D01*
X18592800Y69331252D01*
X18567236Y69341867D01*
X18264094Y69342132D01*
X17983926Y69226368D01*
X17769385Y69012202D01*
X17754600Y68976596D01*
X17754600Y72210231D01*
X17754600Y72569769D01*
X17659860Y73046057D01*
X17390065Y73449834D01*
X16986288Y73719629D01*
X16510000Y73814369D01*
X16033712Y73719629D01*
X15629935Y73449834D01*
X15360140Y73046057D01*
X15265400Y72569769D01*
X15265400Y72210231D01*
X15360140Y71733943D01*
X15629935Y71330166D01*
X16033712Y71060371D01*
X16510000Y70965631D01*
X16986288Y71060371D01*
X17390065Y71330166D01*
X17659860Y71733943D01*
X17754600Y72210231D01*
X17754600Y68976596D01*
X17653133Y68732236D01*
X17652868Y68429094D01*
X17768632Y68148926D01*
X17957800Y67959427D01*
X17957800Y66791252D01*
X17932236Y66801867D01*
X17629094Y66802132D01*
X17348926Y66686368D01*
X17134385Y66472202D01*
X17018133Y66192236D01*
X17017868Y65889094D01*
X17133632Y65608926D01*
X17322800Y65419427D01*
X17322800Y64251252D01*
X17297236Y64261867D01*
X16994094Y64262132D01*
X16713926Y64146368D01*
X16499385Y63932202D01*
X16383133Y63652236D01*
X16382868Y63349094D01*
X16498632Y63068926D01*
X16687800Y62879427D01*
X16687800Y61711252D01*
X16662236Y61721867D01*
X16359094Y61722132D01*
X16078926Y61606368D01*
X15864385Y61392202D01*
X15748133Y61112236D01*
X15747868Y60809094D01*
X15863632Y60528926D01*
X16052800Y60339427D01*
X16052800Y59171252D01*
X16027236Y59181867D01*
X15724094Y59182132D01*
X15443926Y59066368D01*
X15229385Y58852202D01*
X15113133Y58572236D01*
X15112868Y58269094D01*
X15228632Y57988926D01*
X15417800Y57799427D01*
X15417800Y56631252D01*
X15392236Y56641867D01*
X15089094Y56642132D01*
X14808926Y56526368D01*
X14594385Y56312202D01*
X14478133Y56032236D01*
X14477868Y55729094D01*
X14593632Y55448926D01*
X14782800Y55259427D01*
X14782800Y54726252D01*
X14757236Y54736867D01*
X14454094Y54737132D01*
X14173926Y54621368D01*
X13959385Y54407202D01*
X13843133Y54127236D01*
X13842868Y53824094D01*
X13958632Y53543926D01*
X14147800Y53354427D01*
X14147800Y35676252D01*
X14122236Y35686867D01*
X14080729Y35686904D01*
X14080729Y37103392D01*
X14080729Y42183392D01*
X14080729Y47263392D01*
X14080729Y52343392D01*
X13871005Y52850963D01*
X13483006Y53239640D01*
X12975801Y53450249D01*
X12426608Y53450729D01*
X11919037Y53241005D01*
X11530360Y52853006D01*
X11319751Y52345801D01*
X11319271Y51796608D01*
X11528995Y51289037D01*
X11916994Y50900360D01*
X12424199Y50689751D01*
X12973392Y50689271D01*
X13480963Y50898995D01*
X13869640Y51286994D01*
X14080249Y51794199D01*
X14080729Y52343392D01*
X14080729Y47263392D01*
X13871005Y47770963D01*
X13483006Y48159640D01*
X12975801Y48370249D01*
X12426608Y48370729D01*
X11919037Y48161005D01*
X11530360Y47773006D01*
X11319751Y47265801D01*
X11319271Y46716608D01*
X11528995Y46209037D01*
X11916994Y45820360D01*
X12424199Y45609751D01*
X12973392Y45609271D01*
X13480963Y45818995D01*
X13869640Y46206994D01*
X14080249Y46714199D01*
X14080729Y47263392D01*
X14080729Y42183392D01*
X13871005Y42690963D01*
X13483006Y43079640D01*
X12975801Y43290249D01*
X12426608Y43290729D01*
X11919037Y43081005D01*
X11530360Y42693006D01*
X11319751Y42185801D01*
X11319271Y41636608D01*
X11528995Y41129037D01*
X11916994Y40740360D01*
X12424199Y40529751D01*
X12973392Y40529271D01*
X13480963Y40738995D01*
X13869640Y41126994D01*
X14080249Y41634199D01*
X14080729Y42183392D01*
X14080729Y37103392D01*
X13871005Y37610963D01*
X13483006Y37999640D01*
X12975801Y38210249D01*
X12426608Y38210729D01*
X11919037Y38001005D01*
X11530360Y37613006D01*
X11319751Y37105801D01*
X11319271Y36556608D01*
X11528995Y36049037D01*
X11916994Y35660360D01*
X12424199Y35449751D01*
X12973392Y35449271D01*
X13480963Y35658995D01*
X13869640Y36046994D01*
X14080249Y36554199D01*
X14080729Y37103392D01*
X14080729Y35686904D01*
X13819094Y35687132D01*
X13538926Y35571368D01*
X13324385Y35357202D01*
X13208133Y35077236D01*
X13207868Y34774094D01*
X13323632Y34493926D01*
X13512800Y34304427D01*
X13512800Y20940288D01*
X13324385Y20752202D01*
X13208133Y20472236D01*
X13207868Y20169094D01*
X13323632Y19888926D01*
X13537798Y19674385D01*
X13817764Y19558133D01*
X14035258Y19557943D01*
X13959385Y19482202D01*
X13843133Y19202236D01*
X13842868Y18899094D01*
X13958632Y18618926D01*
X14172798Y18404385D01*
X14452764Y18288133D01*
X14755906Y18287868D01*
X15036074Y18403632D01*
X15250615Y18617798D01*
X15366867Y18897764D01*
X15367132Y19200906D01*
X15251368Y19481074D01*
X15062200Y19670574D01*
X15062200Y27319713D01*
X15240168Y27497370D01*
X15442798Y27294385D01*
X15722764Y27178133D01*
X16025906Y27177868D01*
X16052800Y27188981D01*
X16052800Y26020288D01*
X15864385Y25832202D01*
X15748133Y25552236D01*
X15747868Y25249094D01*
X15863632Y24968926D01*
X16077798Y24754385D01*
X16357764Y24638133D01*
X16660906Y24637868D01*
X16687800Y24648981D01*
X16687800Y23480288D01*
X16499385Y23292202D01*
X16383133Y23012236D01*
X16382868Y22709094D01*
X16498632Y22428926D01*
X16712798Y22214385D01*
X16992764Y22098133D01*
X17295906Y22097868D01*
X17322800Y22108981D01*
X17322800Y20940288D01*
X17134385Y20752202D01*
X17018133Y20472236D01*
X17017868Y20169094D01*
X17133632Y19888926D01*
X17347798Y19674385D01*
X17627764Y19558133D01*
X17930906Y19557868D01*
X17957800Y19568981D01*
X17957800Y18400288D01*
X17769385Y18212202D01*
X17653133Y17932236D01*
X17652868Y17629094D01*
X17768632Y17348926D01*
X17982798Y17134385D01*
X18262764Y17018133D01*
X18565906Y17017868D01*
X18846074Y17133632D01*
X19060615Y17347798D01*
X19176867Y17627764D01*
X19177132Y17930906D01*
X19061368Y18211074D01*
X18872200Y18400574D01*
X18872200Y31916222D01*
X18923100Y31865322D01*
X18922868Y31599094D01*
X19038632Y31318926D01*
X19252798Y31104385D01*
X19532764Y30988133D01*
X19835906Y30987868D01*
X19862800Y30998981D01*
X19862800Y29830288D01*
X19674385Y29642202D01*
X19558133Y29362236D01*
X19557868Y29059094D01*
X19673632Y28778926D01*
X19887798Y28564385D01*
X20167764Y28448133D01*
X20470906Y28447868D01*
X20751074Y28563632D01*
X20965615Y28777798D01*
X21081867Y29057764D01*
X21082132Y29360906D01*
X20966368Y29641074D01*
X20777200Y29830574D01*
X20777200Y32385000D01*
X20742398Y32559963D01*
X20643289Y32708289D01*
X20142200Y33209378D01*
X20142200Y33538749D01*
X20167764Y33528133D01*
X20470906Y33527868D01*
X20751074Y33643632D01*
X20965615Y33857798D01*
X21081867Y34137764D01*
X21082132Y34440906D01*
X20966368Y34721074D01*
X20777200Y34910574D01*
X20777200Y53354713D01*
X20965615Y53542798D01*
X21081867Y53822764D01*
X21082132Y54125906D01*
X20966368Y54406074D01*
X20752202Y54620615D01*
X20472236Y54736867D01*
X20169094Y54737132D01*
X20142200Y54726020D01*
X20142200Y70295622D01*
X21278289Y71431711D01*
X21377398Y71580037D01*
X21412200Y71755000D01*
X21412200Y456000D01*
X20454464Y456000D01*
X20454464Y10414000D01*
X20454464Y12446000D01*
X20426278Y12591274D01*
X20342404Y12718956D01*
X20215784Y12804426D01*
X20066000Y12834464D01*
X18034000Y12834464D01*
X17888726Y12806278D01*
X17761044Y12722404D01*
X17675574Y12595784D01*
X17645536Y12446000D01*
X17645536Y12222694D01*
X17320828Y12567616D01*
X16823761Y12791311D01*
X16741074Y12807757D01*
X16522700Y12731688D01*
X16522700Y11442700D01*
X16542700Y11442700D01*
X16542700Y11417300D01*
X16522700Y11417300D01*
X16522700Y10128312D01*
X16741074Y10052243D01*
X16823761Y10068689D01*
X17320828Y10292384D01*
X17645536Y10637307D01*
X17645536Y10414000D01*
X17673722Y10268726D01*
X17757596Y10141044D01*
X17884216Y10055574D01*
X18034000Y10025536D01*
X20066000Y10025536D01*
X20211274Y10053722D01*
X20338956Y10137596D01*
X20424426Y10264216D01*
X20454464Y10414000D01*
X20454464Y456000D01*
X16497300Y456000D01*
X16497300Y10128312D01*
X16497300Y11417300D01*
X16497300Y11442700D01*
X16497300Y12731688D01*
X16278926Y12807757D01*
X16196239Y12791311D01*
X15699172Y12567616D01*
X15325546Y12170730D01*
X15132242Y11661074D01*
X15208307Y11442700D01*
X16497300Y11442700D01*
X16497300Y11417300D01*
X15208307Y11417300D01*
X15132242Y11198926D01*
X15325546Y10689270D01*
X15699172Y10292384D01*
X16196239Y10068689D01*
X16278926Y10052243D01*
X16497300Y10128312D01*
X16497300Y456000D01*
X10230841Y456000D01*
X10230841Y14195227D01*
X10230841Y16735227D01*
X10230841Y19275227D01*
X10230841Y21815227D01*
X10230841Y24355227D01*
X10230841Y26895227D01*
X10230841Y29435227D01*
X10230841Y31975227D01*
X10230841Y34515227D01*
X10230841Y37055227D01*
X10230841Y39595227D01*
X10230841Y42135227D01*
X10230841Y44675227D01*
X10230841Y47215227D01*
X10230841Y49755227D01*
X10230841Y52295227D01*
X10230841Y54835227D01*
X10230841Y57375227D01*
X10230841Y59915227D01*
X10230841Y62455227D01*
X10230841Y64995227D01*
X10230841Y67535227D01*
X10230841Y70075227D01*
X10230841Y72615227D01*
X10042585Y73111200D01*
X9997377Y73178858D01*
X9792983Y73275023D01*
X9775023Y73257063D01*
X9775023Y73292983D01*
X9678858Y73497377D01*
X9195035Y73714966D01*
X8664773Y73730841D01*
X8385881Y73624983D01*
X8385881Y78831933D01*
X8138920Y79429625D01*
X7682030Y79887313D01*
X7084770Y80135317D01*
X6438067Y80135881D01*
X5840375Y79888920D01*
X5382687Y79432030D01*
X5134683Y78834770D01*
X5134119Y78188067D01*
X5381080Y77590375D01*
X5837970Y77132687D01*
X6435230Y76884683D01*
X7081933Y76884119D01*
X7679625Y77131080D01*
X8137313Y77587970D01*
X8385317Y78185230D01*
X8385881Y78831933D01*
X8385881Y73624983D01*
X8168800Y73542585D01*
X8101142Y73497377D01*
X8004977Y73292983D01*
X8890000Y72407961D01*
X9775023Y73292983D01*
X9775023Y73257063D01*
X8907961Y72390000D01*
X9792983Y71504977D01*
X9997377Y71601142D01*
X10214966Y72084965D01*
X10230841Y72615227D01*
X10230841Y70075227D01*
X10042585Y70571200D01*
X9997377Y70638858D01*
X9792983Y70735023D01*
X9775023Y70717063D01*
X9775023Y70752983D01*
X9678858Y70957377D01*
X9310210Y71123169D01*
X9611200Y71237415D01*
X9678858Y71282623D01*
X9775023Y71487017D01*
X8890000Y72372039D01*
X8004977Y71487017D01*
X8101142Y71282623D01*
X8469789Y71116832D01*
X8168800Y71002585D01*
X8101142Y70957377D01*
X8004977Y70752983D01*
X8890000Y69867961D01*
X9775023Y70752983D01*
X9775023Y70717063D01*
X8907961Y69850000D01*
X9792983Y68964977D01*
X9997377Y69061142D01*
X10214966Y69544965D01*
X10230841Y70075227D01*
X10230841Y67535227D01*
X10042585Y68031200D01*
X9997377Y68098858D01*
X9792983Y68195023D01*
X9775023Y68177063D01*
X9775023Y68212983D01*
X9678858Y68417377D01*
X9310210Y68583169D01*
X9611200Y68697415D01*
X9678858Y68742623D01*
X9775023Y68947017D01*
X8890000Y69832039D01*
X8004977Y68947017D01*
X8101142Y68742623D01*
X8469789Y68576832D01*
X8168800Y68462585D01*
X8101142Y68417377D01*
X8004977Y68212983D01*
X8890000Y67327961D01*
X9775023Y68212983D01*
X9775023Y68177063D01*
X8907961Y67310000D01*
X9792983Y66424977D01*
X9997377Y66521142D01*
X10214966Y67004965D01*
X10230841Y67535227D01*
X10230841Y64995227D01*
X10042585Y65491200D01*
X9997377Y65558858D01*
X9792983Y65655023D01*
X9775023Y65637063D01*
X9775023Y65672983D01*
X9678858Y65877377D01*
X9310210Y66043169D01*
X9611200Y66157415D01*
X9678858Y66202623D01*
X9775023Y66407017D01*
X8890000Y67292039D01*
X8004977Y66407017D01*
X8101142Y66202623D01*
X8469789Y66036832D01*
X8168800Y65922585D01*
X8101142Y65877377D01*
X8004977Y65672983D01*
X8890000Y64787961D01*
X9775023Y65672983D01*
X9775023Y65637063D01*
X8907961Y64770000D01*
X9792983Y63884977D01*
X9997377Y63981142D01*
X10214966Y64464965D01*
X10230841Y64995227D01*
X10230841Y62455227D01*
X10042585Y62951200D01*
X9997377Y63018858D01*
X9792983Y63115023D01*
X9775023Y63097063D01*
X9775023Y63132983D01*
X9678858Y63337377D01*
X9310210Y63503169D01*
X9611200Y63617415D01*
X9678858Y63662623D01*
X9775023Y63867017D01*
X8890000Y64752039D01*
X8004977Y63867017D01*
X8101142Y63662623D01*
X8469789Y63496832D01*
X8168800Y63382585D01*
X8101142Y63337377D01*
X8004977Y63132983D01*
X8890000Y62247961D01*
X9775023Y63132983D01*
X9775023Y63097063D01*
X8907961Y62230000D01*
X9792983Y61344977D01*
X9997377Y61441142D01*
X10214966Y61924965D01*
X10230841Y62455227D01*
X10230841Y59915227D01*
X10042585Y60411200D01*
X9997377Y60478858D01*
X9792983Y60575023D01*
X9775023Y60557063D01*
X9775023Y60592983D01*
X9678858Y60797377D01*
X9310210Y60963169D01*
X9611200Y61077415D01*
X9678858Y61122623D01*
X9775023Y61327017D01*
X8890000Y62212039D01*
X8004977Y61327017D01*
X8101142Y61122623D01*
X8469789Y60956832D01*
X8168800Y60842585D01*
X8101142Y60797377D01*
X8004977Y60592983D01*
X8890000Y59707961D01*
X9775023Y60592983D01*
X9775023Y60557063D01*
X8907961Y59690000D01*
X9792983Y58804977D01*
X9997377Y58901142D01*
X10214966Y59384965D01*
X10230841Y59915227D01*
X10230841Y57375227D01*
X10042585Y57871200D01*
X9997377Y57938858D01*
X9792983Y58035023D01*
X9775023Y58017063D01*
X9775023Y58052983D01*
X9678858Y58257377D01*
X9310210Y58423169D01*
X9611200Y58537415D01*
X9678858Y58582623D01*
X9775023Y58787017D01*
X8890000Y59672039D01*
X8004977Y58787017D01*
X8101142Y58582623D01*
X8469789Y58416832D01*
X8168800Y58302585D01*
X8101142Y58257377D01*
X8004977Y58052983D01*
X8890000Y57167961D01*
X9775023Y58052983D01*
X9775023Y58017063D01*
X8907961Y57150000D01*
X9792983Y56264977D01*
X9997377Y56361142D01*
X10214966Y56844965D01*
X10230841Y57375227D01*
X10230841Y54835227D01*
X10042585Y55331200D01*
X9997377Y55398858D01*
X9792983Y55495023D01*
X9775023Y55477063D01*
X9775023Y55512983D01*
X9678858Y55717377D01*
X9310210Y55883169D01*
X9611200Y55997415D01*
X9678858Y56042623D01*
X9775023Y56247017D01*
X8890000Y57132039D01*
X8004977Y56247017D01*
X8101142Y56042623D01*
X8469789Y55876832D01*
X8168800Y55762585D01*
X8101142Y55717377D01*
X8004977Y55512983D01*
X8890000Y54627961D01*
X9775023Y55512983D01*
X9775023Y55477063D01*
X8907961Y54610000D01*
X9792983Y53724977D01*
X9997377Y53821142D01*
X10214966Y54304965D01*
X10230841Y54835227D01*
X10230841Y52295227D01*
X10042585Y52791200D01*
X9997377Y52858858D01*
X9792983Y52955023D01*
X9775023Y52937063D01*
X9775023Y52972983D01*
X9678858Y53177377D01*
X9310210Y53343169D01*
X9611200Y53457415D01*
X9678858Y53502623D01*
X9775023Y53707017D01*
X8890000Y54592039D01*
X8004977Y53707017D01*
X8101142Y53502623D01*
X8469789Y53336832D01*
X8168800Y53222585D01*
X8101142Y53177377D01*
X8004977Y52972983D01*
X8890000Y52087961D01*
X9775023Y52972983D01*
X9775023Y52937063D01*
X8907961Y52070000D01*
X9792983Y51184977D01*
X9997377Y51281142D01*
X10214966Y51764965D01*
X10230841Y52295227D01*
X10230841Y49755227D01*
X10042585Y50251200D01*
X9997377Y50318858D01*
X9792983Y50415023D01*
X9775023Y50397063D01*
X9775023Y50432983D01*
X9678858Y50637377D01*
X9310210Y50803169D01*
X9611200Y50917415D01*
X9678858Y50962623D01*
X9775023Y51167017D01*
X8890000Y52052039D01*
X8004977Y51167017D01*
X8101142Y50962623D01*
X8469789Y50796832D01*
X8168800Y50682585D01*
X8101142Y50637377D01*
X8004977Y50432983D01*
X8890000Y49547961D01*
X9775023Y50432983D01*
X9775023Y50397063D01*
X8907961Y49530000D01*
X9792983Y48644977D01*
X9997377Y48741142D01*
X10214966Y49224965D01*
X10230841Y49755227D01*
X10230841Y47215227D01*
X10042585Y47711200D01*
X9997377Y47778858D01*
X9792983Y47875023D01*
X9775023Y47857063D01*
X9775023Y47892983D01*
X9678858Y48097377D01*
X9310210Y48263169D01*
X9611200Y48377415D01*
X9678858Y48422623D01*
X9775023Y48627017D01*
X8890000Y49512039D01*
X8004977Y48627017D01*
X8101142Y48422623D01*
X8469789Y48256832D01*
X8168800Y48142585D01*
X8101142Y48097377D01*
X8004977Y47892983D01*
X8890000Y47007961D01*
X9775023Y47892983D01*
X9775023Y47857063D01*
X8907961Y46990000D01*
X9792983Y46104977D01*
X9997377Y46201142D01*
X10214966Y46684965D01*
X10230841Y47215227D01*
X10230841Y44675227D01*
X10042585Y45171200D01*
X9997377Y45238858D01*
X9792983Y45335023D01*
X9775023Y45317063D01*
X9775023Y45352983D01*
X9678858Y45557377D01*
X9310210Y45723169D01*
X9611200Y45837415D01*
X9678858Y45882623D01*
X9775023Y46087017D01*
X8890000Y46972039D01*
X8004977Y46087017D01*
X8101142Y45882623D01*
X8469789Y45716832D01*
X8168800Y45602585D01*
X8101142Y45557377D01*
X8004977Y45352983D01*
X8890000Y44467961D01*
X9775023Y45352983D01*
X9775023Y45317063D01*
X8907961Y44450000D01*
X9792983Y43564977D01*
X9997377Y43661142D01*
X10214966Y44144965D01*
X10230841Y44675227D01*
X10230841Y42135227D01*
X10042585Y42631200D01*
X9997377Y42698858D01*
X9792983Y42795023D01*
X9775023Y42777063D01*
X9775023Y42812983D01*
X9678858Y43017377D01*
X9310210Y43183169D01*
X9611200Y43297415D01*
X9678858Y43342623D01*
X9775023Y43547017D01*
X8890000Y44432039D01*
X8004977Y43547017D01*
X8101142Y43342623D01*
X8469789Y43176832D01*
X8168800Y43062585D01*
X8101142Y43017377D01*
X8004977Y42812983D01*
X8890000Y41927961D01*
X9775023Y42812983D01*
X9775023Y42777063D01*
X8907961Y41910000D01*
X9792983Y41024977D01*
X9997377Y41121142D01*
X10214966Y41604965D01*
X10230841Y42135227D01*
X10230841Y39595227D01*
X10042585Y40091200D01*
X9997377Y40158858D01*
X9792983Y40255023D01*
X9775023Y40237063D01*
X9775023Y40272983D01*
X9678858Y40477377D01*
X9310210Y40643169D01*
X9611200Y40757415D01*
X9678858Y40802623D01*
X9775023Y41007017D01*
X8890000Y41892039D01*
X8004977Y41007017D01*
X8101142Y40802623D01*
X8469789Y40636832D01*
X8168800Y40522585D01*
X8101142Y40477377D01*
X8004977Y40272983D01*
X8890000Y39387961D01*
X9775023Y40272983D01*
X9775023Y40237063D01*
X8907961Y39370000D01*
X9792983Y38484977D01*
X9997377Y38581142D01*
X10214966Y39064965D01*
X10230841Y39595227D01*
X10230841Y37055227D01*
X10042585Y37551200D01*
X9997377Y37618858D01*
X9792983Y37715023D01*
X9775023Y37697063D01*
X9775023Y37732983D01*
X9678858Y37937377D01*
X9310210Y38103169D01*
X9611200Y38217415D01*
X9678858Y38262623D01*
X9775023Y38467017D01*
X8890000Y39352039D01*
X8004977Y38467017D01*
X8101142Y38262623D01*
X8469789Y38096832D01*
X8168800Y37982585D01*
X8101142Y37937377D01*
X8004977Y37732983D01*
X8890000Y36847961D01*
X9775023Y37732983D01*
X9775023Y37697063D01*
X8907961Y36830000D01*
X9792983Y35944977D01*
X9997377Y36041142D01*
X10214966Y36524965D01*
X10230841Y37055227D01*
X10230841Y34515227D01*
X10042585Y35011200D01*
X9997377Y35078858D01*
X9792983Y35175023D01*
X9775023Y35157063D01*
X9775023Y35192983D01*
X9678858Y35397377D01*
X9310210Y35563169D01*
X9611200Y35677415D01*
X9678858Y35722623D01*
X9775023Y35927017D01*
X8890000Y36812039D01*
X8004977Y35927017D01*
X8101142Y35722623D01*
X8469789Y35556832D01*
X8168800Y35442585D01*
X8101142Y35397377D01*
X8004977Y35192983D01*
X8890000Y34307961D01*
X9775023Y35192983D01*
X9775023Y35157063D01*
X8907961Y34290000D01*
X9792983Y33404977D01*
X9997377Y33501142D01*
X10214966Y33984965D01*
X10230841Y34515227D01*
X10230841Y31975227D01*
X10042585Y32471200D01*
X9997377Y32538858D01*
X9792983Y32635023D01*
X9775023Y32617063D01*
X9775023Y32652983D01*
X9678858Y32857377D01*
X9310210Y33023169D01*
X9611200Y33137415D01*
X9678858Y33182623D01*
X9775023Y33387017D01*
X8890000Y34272039D01*
X8004977Y33387017D01*
X8101142Y33182623D01*
X8469789Y33016832D01*
X8168800Y32902585D01*
X8101142Y32857377D01*
X8004977Y32652983D01*
X8890000Y31767961D01*
X9775023Y32652983D01*
X9775023Y32617063D01*
X8907961Y31750000D01*
X9792983Y30864977D01*
X9997377Y30961142D01*
X10214966Y31444965D01*
X10230841Y31975227D01*
X10230841Y29435227D01*
X10042585Y29931200D01*
X9997377Y29998858D01*
X9792983Y30095023D01*
X9775023Y30077063D01*
X9775023Y30112983D01*
X9678858Y30317377D01*
X9310210Y30483169D01*
X9611200Y30597415D01*
X9678858Y30642623D01*
X9775023Y30847017D01*
X8890000Y31732039D01*
X8004977Y30847017D01*
X8101142Y30642623D01*
X8469789Y30476832D01*
X8168800Y30362585D01*
X8101142Y30317377D01*
X8004977Y30112983D01*
X8890000Y29227961D01*
X9775023Y30112983D01*
X9775023Y30077063D01*
X8907961Y29210000D01*
X9792983Y28324977D01*
X9997377Y28421142D01*
X10214966Y28904965D01*
X10230841Y29435227D01*
X10230841Y26895227D01*
X10042585Y27391200D01*
X9997377Y27458858D01*
X9792983Y27555023D01*
X9775023Y27537063D01*
X9775023Y27572983D01*
X9678858Y27777377D01*
X9310210Y27943169D01*
X9611200Y28057415D01*
X9678858Y28102623D01*
X9775023Y28307017D01*
X8890000Y29192039D01*
X8004977Y28307017D01*
X8101142Y28102623D01*
X8469789Y27936832D01*
X8168800Y27822585D01*
X8101142Y27777377D01*
X8004977Y27572983D01*
X8890000Y26687961D01*
X9775023Y27572983D01*
X9775023Y27537063D01*
X8907961Y26670000D01*
X9792983Y25784977D01*
X9997377Y25881142D01*
X10214966Y26364965D01*
X10230841Y26895227D01*
X10230841Y24355227D01*
X10042585Y24851200D01*
X9997377Y24918858D01*
X9792983Y25015023D01*
X9775023Y24997063D01*
X9775023Y25032983D01*
X9678858Y25237377D01*
X9310210Y25403169D01*
X9611200Y25517415D01*
X9678858Y25562623D01*
X9775023Y25767017D01*
X8890000Y26652039D01*
X8004977Y25767017D01*
X8101142Y25562623D01*
X8469789Y25396832D01*
X8168800Y25282585D01*
X8101142Y25237377D01*
X8004977Y25032983D01*
X8890000Y24147961D01*
X9775023Y25032983D01*
X9775023Y24997063D01*
X8907961Y24130000D01*
X9792983Y23244977D01*
X9997377Y23341142D01*
X10214966Y23824965D01*
X10230841Y24355227D01*
X10230841Y21815227D01*
X10042585Y22311200D01*
X9997377Y22378858D01*
X9792983Y22475023D01*
X9775023Y22457063D01*
X9775023Y22492983D01*
X9678858Y22697377D01*
X9310210Y22863169D01*
X9611200Y22977415D01*
X9678858Y23022623D01*
X9775023Y23227017D01*
X8890000Y24112039D01*
X8004977Y23227017D01*
X8101142Y23022623D01*
X8469789Y22856832D01*
X8168800Y22742585D01*
X8101142Y22697377D01*
X8004977Y22492983D01*
X8890000Y21607961D01*
X9775023Y22492983D01*
X9775023Y22457063D01*
X8907961Y21590000D01*
X9792983Y20704977D01*
X9997377Y20801142D01*
X10214966Y21284965D01*
X10230841Y21815227D01*
X10230841Y19275227D01*
X10042585Y19771200D01*
X9997377Y19838858D01*
X9792983Y19935023D01*
X9775023Y19917063D01*
X9775023Y19952983D01*
X9678858Y20157377D01*
X9310210Y20323169D01*
X9611200Y20437415D01*
X9678858Y20482623D01*
X9775023Y20687017D01*
X8890000Y21572039D01*
X8004977Y20687017D01*
X8101142Y20482623D01*
X8469789Y20316832D01*
X8168800Y20202585D01*
X8101142Y20157377D01*
X8004977Y19952983D01*
X8890000Y19067961D01*
X9775023Y19952983D01*
X9775023Y19917063D01*
X8907961Y19050000D01*
X9792983Y18164977D01*
X9997377Y18261142D01*
X10214966Y18744965D01*
X10230841Y19275227D01*
X10230841Y16735227D01*
X10042585Y17231200D01*
X9997377Y17298858D01*
X9792983Y17395023D01*
X9775023Y17377063D01*
X9775023Y17412983D01*
X9678858Y17617377D01*
X9310210Y17783169D01*
X9611200Y17897415D01*
X9678858Y17942623D01*
X9775023Y18147017D01*
X8890000Y19032039D01*
X8004977Y18147017D01*
X8101142Y17942623D01*
X8469789Y17776832D01*
X8168800Y17662585D01*
X8101142Y17617377D01*
X8004977Y17412983D01*
X8890000Y16527961D01*
X9775023Y17412983D01*
X9775023Y17377063D01*
X8907961Y16510000D01*
X9792983Y15624977D01*
X9997377Y15721142D01*
X10214966Y16204965D01*
X10230841Y16735227D01*
X10230841Y14195227D01*
X10042585Y14691200D01*
X9997377Y14758858D01*
X9792983Y14855023D01*
X9775023Y14837063D01*
X9775023Y14872983D01*
X9678858Y15077377D01*
X9310210Y15243169D01*
X9611200Y15357415D01*
X9678858Y15402623D01*
X9775023Y15607017D01*
X8890000Y16492039D01*
X8004977Y15607017D01*
X8101142Y15402623D01*
X8469789Y15236832D01*
X8168800Y15122585D01*
X8101142Y15077377D01*
X8004977Y14872983D01*
X8890000Y13987961D01*
X9775023Y14872983D01*
X9775023Y14837063D01*
X8907961Y13970000D01*
X9792983Y13084977D01*
X9997377Y13181142D01*
X10214966Y13664965D01*
X10230841Y14195227D01*
X10230841Y456000D01*
X10223500Y456000D01*
X10223500Y10401714D01*
X10223500Y11322050D01*
X10223500Y11537950D01*
X10223500Y12458286D01*
X10165496Y12598320D01*
X10058319Y12705496D01*
X9918285Y12763500D01*
X9766714Y12763500D01*
X9469157Y12763500D01*
X9611200Y12817415D01*
X9678858Y12862623D01*
X9775023Y13067017D01*
X8890000Y13952039D01*
X8004977Y13067017D01*
X8101142Y12862623D01*
X8321548Y12763500D01*
X8013286Y12763500D01*
X7861715Y12763500D01*
X7721681Y12705496D01*
X7614504Y12598320D01*
X7556500Y12458286D01*
X7556500Y12002010D01*
X7481146Y12184380D01*
X7106353Y12559827D01*
X6768553Y12700094D01*
X7104380Y12838854D01*
X7479827Y13213647D01*
X7621371Y13554525D01*
X7737415Y13248800D01*
X7782623Y13181142D01*
X7987017Y13084977D01*
X8872039Y13970000D01*
X7987017Y14855023D01*
X7782623Y14758858D01*
X7618077Y14392981D01*
X7481146Y14724380D01*
X7106353Y15099827D01*
X6768553Y15240094D01*
X7104380Y15378854D01*
X7479827Y15753647D01*
X7621371Y16094525D01*
X7737415Y15788800D01*
X7782623Y15721142D01*
X7987017Y15624977D01*
X8872039Y16510000D01*
X7987017Y17395023D01*
X7782623Y17298858D01*
X7618077Y16932981D01*
X7481146Y17264380D01*
X7106353Y17639827D01*
X6768553Y17780094D01*
X7104380Y17918854D01*
X7479827Y18293647D01*
X7621371Y18634525D01*
X7737415Y18328800D01*
X7782623Y18261142D01*
X7987017Y18164977D01*
X8872039Y19050000D01*
X7987017Y19935023D01*
X7782623Y19838858D01*
X7618077Y19472981D01*
X7481146Y19804380D01*
X7106353Y20179827D01*
X6768553Y20320094D01*
X7104380Y20458854D01*
X7479827Y20833647D01*
X7621371Y21174525D01*
X7737415Y20868800D01*
X7782623Y20801142D01*
X7987017Y20704977D01*
X8872039Y21590000D01*
X7987017Y22475023D01*
X7782623Y22378858D01*
X7618077Y22012981D01*
X7481146Y22344380D01*
X7106353Y22719827D01*
X6768553Y22860094D01*
X7104380Y22998854D01*
X7479827Y23373647D01*
X7621371Y23714525D01*
X7737415Y23408800D01*
X7782623Y23341142D01*
X7987017Y23244977D01*
X8872039Y24130000D01*
X7987017Y25015023D01*
X7782623Y24918858D01*
X7618077Y24552981D01*
X7481146Y24884380D01*
X7106353Y25259827D01*
X6768553Y25400094D01*
X7104380Y25538854D01*
X7479827Y25913647D01*
X7621371Y26254525D01*
X7737415Y25948800D01*
X7782623Y25881142D01*
X7987017Y25784977D01*
X8872039Y26670000D01*
X7987017Y27555023D01*
X7782623Y27458858D01*
X7618077Y27092981D01*
X7481146Y27424380D01*
X7106353Y27799827D01*
X6768553Y27940094D01*
X7104380Y28078854D01*
X7479827Y28453647D01*
X7621371Y28794525D01*
X7737415Y28488800D01*
X7782623Y28421142D01*
X7987017Y28324977D01*
X8872039Y29210000D01*
X7987017Y30095023D01*
X7782623Y29998858D01*
X7618077Y29632981D01*
X7481146Y29964380D01*
X7106353Y30339827D01*
X6768553Y30480094D01*
X7104380Y30618854D01*
X7479827Y30993647D01*
X7621371Y31334525D01*
X7737415Y31028800D01*
X7782623Y30961142D01*
X7987017Y30864977D01*
X8872039Y31750000D01*
X7987017Y32635023D01*
X7782623Y32538858D01*
X7618077Y32172981D01*
X7481146Y32504380D01*
X7106353Y32879827D01*
X6768553Y33020094D01*
X7104380Y33158854D01*
X7479827Y33533647D01*
X7621371Y33874525D01*
X7737415Y33568800D01*
X7782623Y33501142D01*
X7987017Y33404977D01*
X8872039Y34290000D01*
X7987017Y35175023D01*
X7782623Y35078858D01*
X7618077Y34712981D01*
X7481146Y35044380D01*
X7106353Y35419827D01*
X6768553Y35560094D01*
X7104380Y35698854D01*
X7479827Y36073647D01*
X7621371Y36414525D01*
X7737415Y36108800D01*
X7782623Y36041142D01*
X7987017Y35944977D01*
X8872039Y36830000D01*
X7987017Y37715023D01*
X7782623Y37618858D01*
X7618077Y37252981D01*
X7481146Y37584380D01*
X7106353Y37959827D01*
X6768553Y38100094D01*
X7104380Y38238854D01*
X7479827Y38613647D01*
X7621371Y38954525D01*
X7737415Y38648800D01*
X7782623Y38581142D01*
X7987017Y38484977D01*
X8872039Y39370000D01*
X7987017Y40255023D01*
X7782623Y40158858D01*
X7618077Y39792981D01*
X7481146Y40124380D01*
X7106353Y40499827D01*
X6768553Y40640094D01*
X7104380Y40778854D01*
X7479827Y41153647D01*
X7621371Y41494525D01*
X7737415Y41188800D01*
X7782623Y41121142D01*
X7987017Y41024977D01*
X8872039Y41910000D01*
X7987017Y42795023D01*
X7782623Y42698858D01*
X7618077Y42332981D01*
X7481146Y42664380D01*
X7106353Y43039827D01*
X6768553Y43180094D01*
X7104380Y43318854D01*
X7479827Y43693647D01*
X7621371Y44034525D01*
X7737415Y43728800D01*
X7782623Y43661142D01*
X7987017Y43564977D01*
X8872039Y44450000D01*
X7987017Y45335023D01*
X7782623Y45238858D01*
X7618077Y44872981D01*
X7481146Y45204380D01*
X7106353Y45579827D01*
X6768553Y45720094D01*
X7104380Y45858854D01*
X7479827Y46233647D01*
X7621371Y46574525D01*
X7737415Y46268800D01*
X7782623Y46201142D01*
X7987017Y46104977D01*
X8872039Y46990000D01*
X7987017Y47875023D01*
X7782623Y47778858D01*
X7618077Y47412981D01*
X7481146Y47744380D01*
X7106353Y48119827D01*
X6768553Y48260094D01*
X7104380Y48398854D01*
X7479827Y48773647D01*
X7621371Y49114525D01*
X7737415Y48808800D01*
X7782623Y48741142D01*
X7987017Y48644977D01*
X8872039Y49530000D01*
X7987017Y50415023D01*
X7782623Y50318858D01*
X7618077Y49952981D01*
X7481146Y50284380D01*
X7106353Y50659827D01*
X6768553Y50800094D01*
X7104380Y50938854D01*
X7479827Y51313647D01*
X7621371Y51654525D01*
X7737415Y51348800D01*
X7782623Y51281142D01*
X7987017Y51184977D01*
X8872039Y52070000D01*
X7987017Y52955023D01*
X7782623Y52858858D01*
X7618077Y52492981D01*
X7481146Y52824380D01*
X7106353Y53199827D01*
X6768553Y53340094D01*
X7104380Y53478854D01*
X7479827Y53853647D01*
X7621371Y54194525D01*
X7737415Y53888800D01*
X7782623Y53821142D01*
X7987017Y53724977D01*
X8872039Y54610000D01*
X7987017Y55495023D01*
X7782623Y55398858D01*
X7618077Y55032981D01*
X7481146Y55364380D01*
X7106353Y55739827D01*
X6768553Y55880094D01*
X7104380Y56018854D01*
X7479827Y56393647D01*
X7621371Y56734525D01*
X7737415Y56428800D01*
X7782623Y56361142D01*
X7987017Y56264977D01*
X8872039Y57150000D01*
X7987017Y58035023D01*
X7782623Y57938858D01*
X7618077Y57572981D01*
X7481146Y57904380D01*
X7106353Y58279827D01*
X6768553Y58420094D01*
X7104380Y58558854D01*
X7479827Y58933647D01*
X7621371Y59274525D01*
X7737415Y58968800D01*
X7782623Y58901142D01*
X7987017Y58804977D01*
X8872039Y59690000D01*
X7987017Y60575023D01*
X7782623Y60478858D01*
X7618077Y60112981D01*
X7481146Y60444380D01*
X7106353Y60819827D01*
X6768553Y60960094D01*
X7104380Y61098854D01*
X7479827Y61473647D01*
X7621371Y61814525D01*
X7737415Y61508800D01*
X7782623Y61441142D01*
X7987017Y61344977D01*
X8872039Y62230000D01*
X7987017Y63115023D01*
X7782623Y63018858D01*
X7618077Y62652981D01*
X7481146Y62984380D01*
X7106353Y63359827D01*
X6768553Y63500094D01*
X7104380Y63638854D01*
X7479827Y64013647D01*
X7621371Y64354525D01*
X7737415Y64048800D01*
X7782623Y63981142D01*
X7987017Y63884977D01*
X8872039Y64770000D01*
X7987017Y65655023D01*
X7782623Y65558858D01*
X7618077Y65192981D01*
X7481146Y65524380D01*
X7106353Y65899827D01*
X6768553Y66040094D01*
X7104380Y66178854D01*
X7479827Y66553647D01*
X7621371Y66894525D01*
X7737415Y66588800D01*
X7782623Y66521142D01*
X7987017Y66424977D01*
X8872039Y67310000D01*
X7987017Y68195023D01*
X7782623Y68098858D01*
X7618077Y67732981D01*
X7481146Y68064380D01*
X7106353Y68439827D01*
X6768553Y68580094D01*
X7104380Y68718854D01*
X7479827Y69093647D01*
X7621371Y69434525D01*
X7737415Y69128800D01*
X7782623Y69061142D01*
X7987017Y68964977D01*
X8872039Y69850000D01*
X7987017Y70735023D01*
X7782623Y70638858D01*
X7618077Y70272981D01*
X7481146Y70604380D01*
X7106353Y70979827D01*
X6768553Y71120094D01*
X7104380Y71258854D01*
X7479827Y71633647D01*
X7621371Y71974525D01*
X7737415Y71668800D01*
X7782623Y71601142D01*
X7987017Y71504977D01*
X8872039Y72390000D01*
X7987017Y73275023D01*
X7782623Y73178858D01*
X7618077Y72812981D01*
X7481146Y73144380D01*
X7106353Y73519827D01*
X6616413Y73723268D01*
X6085914Y73723731D01*
X5595620Y73521146D01*
X5220173Y73146353D01*
X5016732Y72656413D01*
X5016269Y72125914D01*
X5218854Y71635620D01*
X5593647Y71260173D01*
X5931446Y71119907D01*
X5595620Y70981146D01*
X5220173Y70606353D01*
X5016732Y70116413D01*
X5016269Y69585914D01*
X5218854Y69095620D01*
X5593647Y68720173D01*
X5931446Y68579907D01*
X5595620Y68441146D01*
X5220173Y68066353D01*
X5016732Y67576413D01*
X5016269Y67045914D01*
X5218854Y66555620D01*
X5593647Y66180173D01*
X5931446Y66039907D01*
X5595620Y65901146D01*
X5220173Y65526353D01*
X5016732Y65036413D01*
X5016269Y64505914D01*
X5218854Y64015620D01*
X5593647Y63640173D01*
X5931446Y63499907D01*
X5595620Y63361146D01*
X5220173Y62986353D01*
X5016732Y62496413D01*
X5016269Y61965914D01*
X5218854Y61475620D01*
X5593647Y61100173D01*
X5931446Y60959907D01*
X5595620Y60821146D01*
X5220173Y60446353D01*
X5016732Y59956413D01*
X5016269Y59425914D01*
X5218854Y58935620D01*
X5593647Y58560173D01*
X5931446Y58419907D01*
X5595620Y58281146D01*
X5220173Y57906353D01*
X5016732Y57416413D01*
X5016269Y56885914D01*
X5218854Y56395620D01*
X5593647Y56020173D01*
X5931446Y55879907D01*
X5595620Y55741146D01*
X5220173Y55366353D01*
X5016732Y54876413D01*
X5016269Y54345914D01*
X5218854Y53855620D01*
X5593647Y53480173D01*
X5931446Y53339907D01*
X5595620Y53201146D01*
X5220173Y52826353D01*
X5016732Y52336413D01*
X5016269Y51805914D01*
X5218854Y51315620D01*
X5593647Y50940173D01*
X5931446Y50799907D01*
X5595620Y50661146D01*
X5220173Y50286353D01*
X5016732Y49796413D01*
X5016269Y49265914D01*
X5218854Y48775620D01*
X5593647Y48400173D01*
X5931446Y48259907D01*
X5595620Y48121146D01*
X5220173Y47746353D01*
X5016732Y47256413D01*
X5016269Y46725914D01*
X5218854Y46235620D01*
X5593647Y45860173D01*
X5931446Y45719907D01*
X5595620Y45581146D01*
X5220173Y45206353D01*
X5016732Y44716413D01*
X5016269Y44185914D01*
X5218854Y43695620D01*
X5593647Y43320173D01*
X5931446Y43179907D01*
X5595620Y43041146D01*
X5220173Y42666353D01*
X5016732Y42176413D01*
X5016269Y41645914D01*
X5218854Y41155620D01*
X5593647Y40780173D01*
X5931446Y40639907D01*
X5595620Y40501146D01*
X5220173Y40126353D01*
X5016732Y39636413D01*
X5016269Y39105914D01*
X5218854Y38615620D01*
X5593647Y38240173D01*
X5931446Y38099907D01*
X5595620Y37961146D01*
X5220173Y37586353D01*
X5016732Y37096413D01*
X5016269Y36565914D01*
X5218854Y36075620D01*
X5593647Y35700173D01*
X5931446Y35559907D01*
X5595620Y35421146D01*
X5220173Y35046353D01*
X5016732Y34556413D01*
X5016269Y34025914D01*
X5218854Y33535620D01*
X5593647Y33160173D01*
X5931446Y33019907D01*
X5595620Y32881146D01*
X5220173Y32506353D01*
X5016732Y32016413D01*
X5016269Y31485914D01*
X5218854Y30995620D01*
X5593647Y30620173D01*
X5931446Y30479907D01*
X5595620Y30341146D01*
X5220173Y29966353D01*
X5016732Y29476413D01*
X5016269Y28945914D01*
X5218854Y28455620D01*
X5593647Y28080173D01*
X5931446Y27939907D01*
X5595620Y27801146D01*
X5220173Y27426353D01*
X5016732Y26936413D01*
X5016269Y26405914D01*
X5218854Y25915620D01*
X5593647Y25540173D01*
X5931446Y25399907D01*
X5595620Y25261146D01*
X5220173Y24886353D01*
X5016732Y24396413D01*
X5016269Y23865914D01*
X5218854Y23375620D01*
X5593647Y23000173D01*
X5931446Y22859907D01*
X5595620Y22721146D01*
X5220173Y22346353D01*
X5016732Y21856413D01*
X5016269Y21325914D01*
X5218854Y20835620D01*
X5593647Y20460173D01*
X5931446Y20319907D01*
X5595620Y20181146D01*
X5220173Y19806353D01*
X5016732Y19316413D01*
X5016269Y18785914D01*
X5218854Y18295620D01*
X5593647Y17920173D01*
X5931446Y17779907D01*
X5595620Y17641146D01*
X5220173Y17266353D01*
X5016732Y16776413D01*
X5016269Y16245914D01*
X5218854Y15755620D01*
X5593647Y15380173D01*
X5931446Y15239907D01*
X5595620Y15101146D01*
X5220173Y14726353D01*
X5016732Y14236413D01*
X5016269Y13705914D01*
X5218854Y13215620D01*
X5593647Y12840173D01*
X5931446Y12699907D01*
X5595620Y12561146D01*
X5220173Y12186353D01*
X5016732Y11696413D01*
X5016269Y11165914D01*
X5218854Y10675620D01*
X5593647Y10300173D01*
X6083587Y10096732D01*
X6614086Y10096269D01*
X7104380Y10298854D01*
X7479827Y10673647D01*
X7556500Y10858296D01*
X7556500Y10401714D01*
X7614504Y10261680D01*
X7721681Y10154504D01*
X7861715Y10096500D01*
X8013286Y10096500D01*
X8782050Y10096500D01*
X8877300Y10191750D01*
X8877300Y11417300D01*
X8857300Y11417300D01*
X8857300Y11442700D01*
X8877300Y11442700D01*
X8877300Y11462700D01*
X8902700Y11462700D01*
X8902700Y11442700D01*
X10128250Y11442700D01*
X10223500Y11537950D01*
X10223500Y11322050D01*
X10128250Y11417300D01*
X8902700Y11417300D01*
X8902700Y10191750D01*
X8997950Y10096500D01*
X9766714Y10096500D01*
X9918285Y10096500D01*
X10058319Y10154504D01*
X10165496Y10261680D01*
X10223500Y10401714D01*
X10223500Y456000D01*
X8385881Y456000D01*
X8385881Y5631933D01*
X8138920Y6229625D01*
X7682030Y6687313D01*
X7084770Y6935317D01*
X6438067Y6935881D01*
X5840375Y6688920D01*
X5382687Y6232030D01*
X5134683Y5634770D01*
X5134119Y4988067D01*
X5381080Y4390375D01*
X5837970Y3932687D01*
X6435230Y3684683D01*
X7081933Y3684119D01*
X7679625Y3931080D01*
X8137313Y4387970D01*
X8385317Y4985230D01*
X8385881Y5631933D01*
X8385881Y456000D01*
X456000Y456000D01*
X456000Y83364000D01*
X35104000Y83364000D01*
X35104000Y456000D01*
M02*
